<?xml version="1.0" encoding="UTF-8"?>
<svg version="1.1" xmlns="http://www.w3.org/2000/svg" width="512" height="512">
<path d="M0 0 C1.45343969 -0.00461569 2.90687471 -0.01097309 4.36030006 -0.01890898 C8.33188297 -0.03553385 12.30307907 -0.02738739 16.27466297 -0.0149641 C20.56649648 -0.00588774 24.85826499 -0.01989613 29.15008545 -0.03088379 C37.5489298 -0.04864605 45.94763095 -0.04483926 54.34648085 -0.03323323 C61.17397198 -0.02419015 68.00142305 -0.02297869 74.82891846 -0.02732849 C75.80160349 -0.02794142 76.77428851 -0.02855436 77.77644885 -0.02918586 C79.7526002 -0.0304648 81.72875155 -0.03176165 83.70490289 -0.03307623 C102.22398997 -0.04447531 120.74299777 -0.03137886 139.26207185 -0.00987476 C155.1433415 0.0079956 171.02449418 0.00489131 186.90576172 -0.0135498 C205.35975507 -0.03496838 223.81367898 -0.04337674 242.26768303 -0.03110075 C244.23645909 -0.02982659 246.20523515 -0.0285691 248.17401123 -0.02732849 C249.62692595 -0.02640284 249.62692595 -0.02640284 251.10919249 -0.02545848 C257.92642934 -0.02200855 264.74362204 -0.02782625 271.56085205 -0.0372467 C279.87174066 -0.04847902 288.18247819 -0.04540071 296.49334955 -0.02412373 C300.73160012 -0.0136299 304.96959904 -0.00946292 309.2078476 -0.02272034 C313.0915685 -0.03468482 316.97480573 -0.02801551 320.85848308 -0.00681013 C322.2594247 -0.00236115 323.66040763 -0.00457185 325.06132245 -0.01431328 C336.63253191 -0.08857023 345.30505654 1.69072064 353.82177734 9.79699707 C363.98119517 20.14542732 364.08206527 31.36175772 364.00939941 45.10656738 C364.01401189 47.00548404 364.02036713 48.90439712 364.02830839 50.80330276 C364.04497711 56.00622479 364.03676643 61.20885262 364.02436352 66.41177559 C364.01530534 72.02876891 364.02928658 77.645712 364.0402832 83.26269531 C364.05806476 94.26038331 364.05423002 105.25796207 364.04263264 116.25565434 C364.03359719 125.19412698 364.03237481 134.13256902 364.03672791 143.07104492 C364.03734084 144.34346896 364.03795377 145.61589301 364.03858528 146.92687535 C364.03986418 149.51182271 364.04116104 152.09677006 364.04247564 154.6817174 C364.0535553 178.22697383 364.04206747 201.7721571 364.02110525 225.31740123 C364.00212347 246.80151715 364.00382201 268.28553823 364.02294922 289.76965332 C364.0443778 313.91931848 364.05278176 338.06891621 364.04050016 362.2185936 C364.03922597 364.7940038 364.03796849 367.369414 364.03672791 369.94482422 C364.03580225 371.84552481 364.03580225 371.84552481 364.0348579 373.78462338 C364.03140496 382.71181592 364.03723215 391.63897479 364.04664612 400.56616211 C364.05786728 411.4462032 364.05482346 422.32612886 364.03352314 433.20615673 C364.02301444 438.75676005 364.01888803 444.30717095 364.03211975 449.85777283 C364.0440529 454.9405267 364.03746558 460.02291006 364.01620954 465.1056304 C364.01174744 466.94264024 364.01400092 468.77968149 364.02371269 470.61667109 C364.0855029 483.2771363 363.29771339 493.28292028 354.21240234 502.82824707 C345.01242516 511.86018814 335.52039948 513.10291087 323.00292969 513.01586914 C321.54949 513.02048484 320.09605498 513.02684223 318.64262962 513.03477812 C314.67104671 513.05140299 310.69985061 513.04325653 306.72826672 513.03083324 C302.43643321 513.02175688 298.1446647 513.03576527 293.85284424 513.04675293 C285.45399989 513.06451519 277.05529874 513.0607084 268.65644884 513.04910237 C261.82895771 513.04005929 255.00150664 513.03884783 248.17401123 513.04319763 C246.71498369 513.04411703 246.71498369 513.04411703 245.22648084 513.045055 C243.25032948 513.04633394 241.27417814 513.04763079 239.2980268 513.04894537 C220.77893972 513.06034445 202.25993192 513.047248 183.74085784 513.0257439 C167.85958819 513.00787354 151.97843551 513.01097783 136.09716797 513.02941895 C117.64317462 513.05083752 99.1892507 513.05924588 80.73524666 513.04696989 C78.7664706 513.04569573 76.79769453 513.04443825 74.82891846 513.04319763 C73.37600373 513.04227198 73.37600373 513.04227198 71.8937372 513.04132763 C65.07650035 513.03787769 58.25930765 513.04369539 51.44207764 513.05311584 C43.13118903 513.06434816 34.82045149 513.06126986 26.50958014 513.03999287 C22.27132957 513.02949904 18.03333065 513.02533206 13.79508209 513.03858948 C9.91136119 513.05055396 6.02812396 513.04388465 2.14444661 513.02267927 C0.74350499 513.01823029 -0.65747794 513.02044099 -2.05839276 513.03018242 C-13.62960223 513.10443937 -22.30212685 511.3251485 -30.81884766 503.21887207 C-40.97826548 492.87044182 -41.07913559 481.65411143 -41.00646973 467.90930176 C-41.0110822 466.01038511 -41.01743744 464.11147203 -41.0253787 462.21256638 C-41.04204743 457.00964435 -41.03383674 451.80701652 -41.02143383 446.60409355 C-41.01237566 440.98710023 -41.02635689 435.37015714 -41.03735352 429.75317383 C-41.05513507 418.75548583 -41.05130033 407.75790707 -41.03970295 396.76021481 C-41.0306675 387.82174216 -41.02944512 378.88330012 -41.03379822 369.94482422 C-41.03471762 368.03618816 -41.03471762 368.03618816 -41.03565559 366.08899379 C-41.0369345 363.50404643 -41.03823135 360.91909908 -41.03954595 358.33415174 C-41.05062561 334.78889531 -41.03913778 311.24371204 -41.01817556 287.69846791 C-40.99919379 266.21435199 -41.00089233 244.73033091 -41.02001953 223.24621582 C-41.04144811 199.09655066 -41.04985207 174.94695293 -41.03757048 150.79727554 C-41.03629629 148.22186534 -41.0350388 145.64645514 -41.03379822 143.07104492 C-41.03318112 141.8039112 -41.03256401 140.53677747 -41.03192821 139.23124576 C-41.02847528 130.30405322 -41.03430246 121.37689435 -41.04371643 112.44970703 C-41.05493759 101.56966594 -41.05189378 90.68974028 -41.03059345 79.80971241 C-41.02008475 74.25910909 -41.01595835 68.70869819 -41.02919006 63.15809631 C-41.04112321 58.07534245 -41.03453589 52.99295908 -41.01327986 47.91023874 C-41.00881775 46.0732289 -41.01107124 44.23618765 -41.02078301 42.39919806 C-41.08257322 29.73873284 -40.2947837 19.73294886 -31.20947266 10.18762207 C-22.00949548 1.155681 -12.51746979 -0.08704173 0 0 Z " fill="#F7F7F7" transform="translate(40.49853515625,-0.5079345703125)"/>
<path d="M0 0 C1.45343969 -0.00461569 2.90687471 -0.01097309 4.36030006 -0.01890898 C8.33188297 -0.03553385 12.30307907 -0.02738739 16.27466297 -0.0149641 C20.56649648 -0.00588774 24.85826499 -0.01989613 29.15008545 -0.03088379 C37.5489298 -0.04864605 45.94763095 -0.04483926 54.34648085 -0.03323323 C61.17397198 -0.02419015 68.00142305 -0.02297869 74.82891846 -0.02732849 C75.80160349 -0.02794142 76.77428851 -0.02855436 77.77644885 -0.02918586 C79.7526002 -0.0304648 81.72875155 -0.03176165 83.70490289 -0.03307623 C102.22398997 -0.04447531 120.74299777 -0.03137886 139.26207185 -0.00987476 C155.1433415 0.0079956 171.02449418 0.00489131 186.90576172 -0.0135498 C205.35975507 -0.03496838 223.81367898 -0.04337674 242.26768303 -0.03110075 C244.23645909 -0.02982659 246.20523515 -0.0285691 248.17401123 -0.02732849 C249.62692595 -0.02640284 249.62692595 -0.02640284 251.10919249 -0.02545848 C257.92642934 -0.02200855 264.74362204 -0.02782625 271.56085205 -0.0372467 C279.87174066 -0.04847902 288.18247819 -0.04540071 296.49334955 -0.02412373 C300.73160012 -0.0136299 304.96959904 -0.00946292 309.2078476 -0.02272034 C313.0915685 -0.03468482 316.97480573 -0.02801551 320.85848308 -0.00681013 C322.2594247 -0.00236115 323.66040763 -0.00457185 325.06132245 -0.01431328 C336.63253191 -0.08857023 345.30505654 1.69072064 353.82177734 9.79699707 C363.98119517 20.14542732 364.08206527 31.36175772 364.00939941 45.10656738 C364.01401189 47.00548404 364.02036713 48.90439712 364.02830839 50.80330276 C364.04497711 56.00622479 364.03676643 61.20885262 364.02436352 66.41177559 C364.01530534 72.02876891 364.02928658 77.645712 364.0402832 83.26269531 C364.05806476 94.26038331 364.05423002 105.25796207 364.04263264 116.25565434 C364.03359719 125.19412698 364.03237481 134.13256902 364.03672791 143.07104492 C364.03734084 144.34346896 364.03795377 145.61589301 364.03858528 146.92687535 C364.03986418 149.51182271 364.04116104 152.09677006 364.04247564 154.6817174 C364.0535553 178.22697383 364.04206747 201.7721571 364.02110525 225.31740123 C364.00212347 246.80151715 364.00382201 268.28553823 364.02294922 289.76965332 C364.0443778 313.91931848 364.05278176 338.06891621 364.04050016 362.2185936 C364.03922597 364.7940038 364.03796849 367.369414 364.03672791 369.94482422 C364.03580225 371.84552481 364.03580225 371.84552481 364.0348579 373.78462338 C364.03140496 382.71181592 364.03723215 391.63897479 364.04664612 400.56616211 C364.05786728 411.4462032 364.05482346 422.32612886 364.03352314 433.20615673 C364.02301444 438.75676005 364.01888803 444.30717095 364.03211975 449.85777283 C364.0440529 454.9405267 364.03746558 460.02291006 364.01620954 465.1056304 C364.01174744 466.94264024 364.01400092 468.77968149 364.02371269 470.61667109 C364.0855029 483.2771363 363.29771339 493.28292028 354.21240234 502.82824707 C345.01242516 511.86018814 335.52039948 513.10291087 323.00292969 513.01586914 C321.54949 513.02048484 320.09605498 513.02684223 318.64262962 513.03477812 C314.67104671 513.05140299 310.69985061 513.04325653 306.72826672 513.03083324 C302.43643321 513.02175688 298.1446647 513.03576527 293.85284424 513.04675293 C285.45399989 513.06451519 277.05529874 513.0607084 268.65644884 513.04910237 C261.82895771 513.04005929 255.00150664 513.03884783 248.17401123 513.04319763 C246.71498369 513.04411703 246.71498369 513.04411703 245.22648084 513.045055 C243.25032948 513.04633394 241.27417814 513.04763079 239.2980268 513.04894537 C220.77893972 513.06034445 202.25993192 513.047248 183.74085784 513.0257439 C167.85958819 513.00787354 151.97843551 513.01097783 136.09716797 513.02941895 C117.64317462 513.05083752 99.1892507 513.05924588 80.73524666 513.04696989 C78.7664706 513.04569573 76.79769453 513.04443825 74.82891846 513.04319763 C73.37600373 513.04227198 73.37600373 513.04227198 71.8937372 513.04132763 C65.07650035 513.03787769 58.25930765 513.04369539 51.44207764 513.05311584 C43.13118903 513.06434816 34.82045149 513.06126986 26.50958014 513.03999287 C22.27132957 513.02949904 18.03333065 513.02533206 13.79508209 513.03858948 C9.91136119 513.05055396 6.02812396 513.04388465 2.14444661 513.02267927 C0.74350499 513.01823029 -0.65747794 513.02044099 -2.05839276 513.03018242 C-13.62960223 513.10443937 -22.30212685 511.3251485 -30.81884766 503.21887207 C-40.97826548 492.87044182 -41.07913559 481.65411143 -41.00646973 467.90930176 C-41.0110822 466.01038511 -41.01743744 464.11147203 -41.0253787 462.21256638 C-41.04204743 457.00964435 -41.03383674 451.80701652 -41.02143383 446.60409355 C-41.01237566 440.98710023 -41.02635689 435.37015714 -41.03735352 429.75317383 C-41.05513507 418.75548583 -41.05130033 407.75790707 -41.03970295 396.76021481 C-41.0306675 387.82174216 -41.02944512 378.88330012 -41.03379822 369.94482422 C-41.03471762 368.03618816 -41.03471762 368.03618816 -41.03565559 366.08899379 C-41.0369345 363.50404643 -41.03823135 360.91909908 -41.03954595 358.33415174 C-41.05062561 334.78889531 -41.03913778 311.24371204 -41.01817556 287.69846791 C-40.99919379 266.21435199 -41.00089233 244.73033091 -41.02001953 223.24621582 C-41.04144811 199.09655066 -41.04985207 174.94695293 -41.03757048 150.79727554 C-41.03629629 148.22186534 -41.0350388 145.64645514 -41.03379822 143.07104492 C-41.03318112 141.8039112 -41.03256401 140.53677747 -41.03192821 139.23124576 C-41.02847528 130.30405322 -41.03430246 121.37689435 -41.04371643 112.44970703 C-41.05493759 101.56966594 -41.05189378 90.68974028 -41.03059345 79.80971241 C-41.02008475 74.25910909 -41.01595835 68.70869819 -41.02919006 63.15809631 C-41.04112321 58.07534245 -41.03453589 52.99295908 -41.01327986 47.91023874 C-41.00881775 46.0732289 -41.01107124 44.23618765 -41.02078301 42.39919806 C-41.08257322 29.73873284 -40.2947837 19.73294886 -31.20947266 10.18762207 C-22.00949548 1.155681 -12.51746979 -0.08704173 0 0 Z M-18.63634253 27.16831207 C-20.78517184 31.02198359 -21.05868525 33.99723496 -21.00189972 38.28851318 C-21.00771348 39.05678358 -21.01352725 39.82505397 -21.01951718 40.61660528 C-21.03413015 43.19430749 -21.02022629 45.77105942 -21.00646973 48.34875488 C-21.01107813 50.21407178 -21.01743064 52.07938505 -21.0253787 53.9446907 C-21.04210339 59.07316089 -21.03381134 64.201334 -21.02143383 69.32980537 C-21.01239853 74.85953934 -21.02634552 80.38922156 -21.03735352 85.91894531 C-21.05515956 96.75274293 -21.05128945 107.58642983 -21.03970295 118.42023182 C-21.03067711 127.2234418 -21.02944095 136.02662071 -21.03379822 144.82983398 C-21.03441115 146.08175199 -21.03502408 147.33366999 -21.03565559 148.6235249 C-21.03693446 151.16660532 -21.03823131 153.70968573 -21.03954595 156.25276613 C-21.05063241 179.43059334 -21.03912651 202.60836261 -21.01817556 225.7861765 C-20.99919295 246.94736782 -21.00089145 268.10846285 -21.02001953 289.26965332 C-21.0414354 313.04129029 -21.04985917 336.81288064 -21.03757048 360.58452988 C-21.03629625 363.11836496 -21.03503877 365.65220005 -21.03379822 368.18603516 C-21.03318112 369.4327988 -21.03256401 370.67956244 -21.03192821 371.9641068 C-21.02847147 380.75888055 -21.03431063 389.5536202 -21.04371643 398.34838867 C-21.05492356 409.06321973 -21.0519234 419.77793354 -21.03059345 430.49275112 C-21.02006578 435.96182141 -21.01599052 441.43069608 -21.02919006 446.89976501 C-21.04108412 451.90352039 -21.0346007 456.90689827 -21.01327986 461.91061926 C-21.00880112 463.72345146 -21.01110845 465.53631537 -21.02078301 467.34912729 C-21.03290662 469.80899345 -21.02051384 472.26755826 -21.00189972 474.72735596 C-21.01126438 475.43504293 -21.02062905 476.1427299 -21.03027749 476.87186193 C-20.9359858 483.08496409 -18.43401875 486.61126316 -14.10733032 490.85118866 C-8.44148929 493.45229472 -2.91906576 493.05761527 3.2421875 493.01586914 C4.66202751 493.02047956 6.08186274 493.02683343 7.501688 493.03477812 C11.39881973 493.05147549 15.29555962 493.04322341 19.19269276 493.03083324 C23.39726732 493.02178668 27.60177429 493.03575051 31.80633545 493.04675293 C40.04128975 493.06454697 48.2760983 493.06069424 56.51105833 493.04910237 C63.2032869 493.0400718 69.8954746 493.03884241 76.58770752 493.04319763 C78.015976 493.04411703 78.015976 493.04411703 79.4730984 493.045055 C81.40738282 493.04633389 83.34166723 493.04763075 85.27595162 493.04894537 C103.41720117 493.06035376 121.55836989 493.0472334 139.69960618 493.0257439 C155.26836518 493.00787269 170.83700488 493.01097672 186.40576172 493.02941895 C204.48173423 493.05082108 222.55763589 493.0592551 240.63361931 493.04696989 C242.56082025 493.04569568 244.4880212 493.0444382 246.41522217 493.04319763 C247.3634619 493.04258053 248.31170163 493.04196343 249.2886759 493.04132763 C255.9734941 493.03787276 262.65826738 493.04370602 269.34307861 493.05311584 C277.48875768 493.06432991 285.63428256 493.06130828 293.77994394 493.03999287 C297.93666223 493.02947444 302.09312335 493.02537402 306.24983978 493.03858948 C310.05456407 493.05050297 313.85879266 493.04396851 317.66347194 493.02267927 C319.69278116 493.01608982 321.72212475 493.02915867 323.75139809 493.04290819 C332.40689594 493.07271184 332.40689594 493.07271184 339.50146484 488.50793457 C343.14675273 483.9295016 344.08054753 480.44936885 344.00482941 474.72735596 C344.01355005 473.57495037 344.01355005 473.57495037 344.02244687 472.39926386 C344.03705984 469.82156165 344.02315598 467.24480972 344.00939941 464.66711426 C344.01400782 462.80179736 344.02036033 460.93648409 344.02830839 459.07117844 C344.04503308 453.94270825 344.03674103 448.81453514 344.02436352 443.68606377 C344.01532822 438.1563298 344.0292752 432.62664758 344.0402832 427.09692383 C344.05808925 416.26312621 344.05421913 405.42943931 344.04263264 394.59563732 C344.0336068 385.79242734 344.03237064 376.98924843 344.03672791 368.18603516 C344.0376473 366.30815815 344.0376473 366.30815815 344.03858528 364.39234424 C344.03986415 361.84926382 344.041161 359.30618341 344.04247564 356.76310301 C344.0535621 333.5852758 344.0420562 310.40750653 344.02110525 287.22969264 C344.00212264 266.06850132 344.00382114 244.90740629 344.02294922 223.74621582 C344.04436508 199.97457885 344.05278886 176.2029885 344.04050016 152.43133926 C344.03922594 149.89750418 344.03796846 147.36366909 344.03672791 144.82983398 C344.0361108 143.58307034 344.0354937 142.3363067 344.0348579 141.05176234 C344.03140116 132.25698859 344.03724032 123.46224894 344.04664612 114.66748047 C344.05785325 103.95264941 344.05485309 93.2379356 344.03352314 82.52311802 C344.02299547 77.05404773 344.01892021 71.58517306 344.03211975 66.11610413 C344.0440138 61.11234875 344.03753038 56.10897087 344.01620954 51.10524988 C344.0117308 49.29241768 344.01403814 47.47955377 344.02371269 45.66674185 C344.0358363 43.20687569 344.02344353 40.74831088 344.00482941 38.28851318 C344.01419407 37.58082621 344.02355874 36.87313924 344.03320718 36.14400721 C343.95754322 31.15833004 342.59837512 28.36186012 339.50146484 24.50793457 C334.65450955 20.30824129 330.95293418 19.94271731 324.83398438 20.05383301 C323.98454758 20.0532489 323.13511078 20.05266479 322.25993347 20.05206299 C319.46762442 20.0548375 316.67639864 20.08589903 313.88427734 20.11730957 C311.94229719 20.12477422 310.00030948 20.1304661 308.05831909 20.13446045 C302.95852696 20.1496991 297.85919387 20.18896577 292.75958252 20.23327637 C287.55121062 20.2742672 282.34276422 20.29247961 277.13427734 20.31262207 C266.92310619 20.35546178 256.71239559 20.42579726 246.50146484 20.50793457 C246.50146484 27.10793457 246.50146484 33.70793457 246.50146484 40.50793457 C248.83120361 40.52195312 248.83120361 40.52195312 251.20800781 40.53625488 C257.00435415 40.57631225 262.80017852 40.64211556 268.59619141 40.7154541 C271.09840152 40.74357245 273.60069896 40.76483212 276.10302734 40.77893066 C279.7128541 40.80048616 283.32164104 40.84720378 286.93115234 40.89855957 C288.59269852 40.90040253 288.59269852 40.90040253 290.28781128 40.90228271 C299.32361884 41.07031652 308.10797416 42.99719712 314.79167181 49.50838888 C322.03613518 57.98054618 323.37356651 66.95958637 323.24317932 77.74240112 C323.24795476 79.14267513 323.2553566 80.54294217 323.26512855 81.94319022 C323.2842199 85.75857004 323.26628435 89.57298279 323.24183571 93.38829827 C323.22198697 97.51505915 323.23697523 101.64171875 323.2474823 105.76849365 C323.26255997 113.83828405 323.24574666 121.90770384 323.2179314 129.97744815 C323.18669813 139.37826258 323.18699204 148.77899803 323.18844914 158.17985459 C323.18994894 174.9509137 323.16251809 191.72180079 323.11889648 208.49279785 C323.07659773 224.76366304 323.05538607 241.03437693 323.05737305 257.30529785 C323.05749292 258.30835726 323.05761278 259.31141666 323.05773629 260.3448718 C323.05785735 261.34620683 323.05797841 262.34754186 323.05810314 263.37922037 C323.0601724 281.91492486 323.0425094 300.45056516 323.0156435 318.98624884 C323.00659633 325.53887313 323.00340509 332.09148561 323.00204659 338.64411545 C323.00000051 346.62495309 322.98661037 354.60568243 322.95904816 362.58647411 C322.94519707 366.65812435 322.93605664 370.72963609 322.93983078 374.80131149 C322.94311772 378.52802177 322.93255037 382.25442574 322.91088521 385.98107214 C322.90287344 387.96832591 322.90952154 389.95562206 322.91668135 391.94287908 C322.90700801 393.12481269 322.89733467 394.3067463 322.8873682 395.52449608 C322.88525493 396.54247666 322.88314165 397.56045724 322.88096434 398.60928571 C322.26400092 403.32170388 320.16358809 407.21832115 316.82058716 410.56976318 C316.30201141 411.0967984 315.78343567 411.62383362 315.24914551 412.1668396 C314.4074884 412.99938766 314.4074884 412.99938766 313.54882812 413.84875488 C312.65313614 414.75233231 312.65313614 414.75233231 311.73934937 415.67416382 C309.77427663 417.65238159 307.79850363 419.61949164 305.82177734 421.58605957 C304.44754892 422.96231003 303.07376599 424.33900548 301.70040894 425.71612549 C298.825307 428.59564312 295.94486704 431.46968273 293.06054688 434.33996582 C289.36599279 438.01741266 285.68509173 441.70818522 282.00807381 445.40315628 C279.17562935 448.24644502 276.33607374 451.08254508 273.49431992 453.91652679 C272.13416247 455.27468487 270.77622487 456.63506985 269.42056656 457.99771881 C267.52517677 459.90073512 265.62042169 461.79385674 263.71289062 463.68469238 C263.15583435 464.24782135 262.59877808 464.81095032 262.02484131 465.3911438 C255.90621108 471.41103525 251.21714618 471.80680774 243.01708984 471.79846191 C242.06854126 471.80517914 241.11999268 471.81189636 240.1427002 471.81881714 C237.01223492 471.83779042 233.88198401 471.84172065 230.75146484 471.84387207 C228.57340405 471.85029914 226.39534413 471.85702743 224.21728516 471.86404419 C219.65443926 471.87601433 215.09166908 471.87972514 210.52880859 471.87854004 C204.68097291 471.87833657 198.83362164 471.90566959 192.98590088 471.94008446 C188.48890957 471.96231278 183.99203574 471.96637887 179.49499512 471.96532059 C177.33880947 471.96768149 175.18262082 471.97653243 173.02648926 471.99198532 C170.01259283 472.0115679 166.99975307 472.005838 163.98583984 471.99377441 C163.09529907 472.00501343 162.2047583 472.01625244 161.28723145 472.02783203 C157.15827867 471.98580797 155.0429537 471.84841009 151.47119141 469.60256958 C149.11745338 467.09957137 148.56864163 466.11252561 148.18896484 462.69543457 C148.57310842 458.77717007 149.79402801 457.2950019 152.50146484 454.50793457 C155.68259783 452.91736808 159.12740746 453.3278566 162.62304688 453.3026123 C163.462146 453.29271271 164.30124512 453.28281311 165.16577148 453.27261353 C167.94691113 453.24095665 170.72806788 453.21622457 173.50927734 453.19152832 C175.43456473 453.17096241 177.35984756 453.14996603 179.28512573 453.1285553 C184.35842202 453.07329716 189.43175931 453.0239044 194.50512695 452.97570801 C199.67972472 452.92552028 204.85426278 452.86981999 210.02880859 452.8145752 C220.18630969 452.70694787 230.34386259 452.60551307 240.50146484 452.50793457 C240.50033691 451.35905762 240.49920898 450.21018066 240.49804688 449.02648926 C240.50175486 444.70959725 240.544882 440.39379859 240.59912109 436.07727051 C240.61714119 434.21926989 240.62487534 432.36113684 240.62158203 430.50305176 C240.60850158 418.35131259 240.85248481 408.29825449 249.12426758 398.60656738 C255.92436468 392.17295435 263.98662555 389.91211944 273.13037109 389.89855957 C274.00547836 389.88202332 274.88058563 389.86548706 275.7822113 389.84844971 C278.5428699 389.80035208 281.30297933 389.77868479 284.06396484 389.75793457 C285.95005962 389.72974279 287.83612923 389.69981093 289.72216797 389.66809082 C294.31522162 389.59460402 298.90797721 389.54479687 303.50146484 389.50793457 C303.61585331 348.44478792 303.70398477 307.381662 303.75679149 266.31838791 C303.76304519 261.47295985 303.76951679 256.62753209 303.77612305 251.78210449 C303.7774346 250.81744747 303.77874615 249.85279045 303.78009745 248.8589014 C303.80186728 233.22940279 303.84129749 217.59999592 303.88722882 201.97055177 C303.93394958 185.93904742 303.96175096 169.9075912 303.97190732 153.87602156 C303.97877558 143.97979785 304.00048553 134.08383343 304.04104718 124.18768951 C304.06743148 117.40596368 304.07547565 110.62437234 304.06897173 103.84259889 C304.06576208 99.92696126 304.07075889 96.01177742 304.09749222 92.09622002 C304.12178055 88.51268104 304.12308216 84.92990203 304.10595932 81.34632846 C304.10283813 79.43325864 304.12444328 77.52019808 304.14687139 75.60725719 C304.3083395 68.88276538 304.3083395 68.88276538 301.15138531 63.26645947 C297.51952931 60.85630819 294.92085315 60.38346314 290.6628418 60.39440918 C289.68205154 60.39448471 288.70126129 60.39456024 287.69075012 60.39463806 C286.10625313 60.40237999 286.10625313 60.40237999 284.48974609 60.41027832 C283.40638474 60.41169327 282.32302338 60.41310822 281.20683289 60.41456604 C277.74251559 60.42016898 274.27826264 60.43272199 270.81396484 60.44543457 C268.46696057 60.45044919 266.11995528 60.45501216 263.77294922 60.45910645 C258.01576576 60.47013936 252.2586199 60.48688037 246.50146484 60.50793457 C246.36878204 61.19595657 246.23609924 61.88397858 246.09939575 62.59284973 C245.92286469 63.49464462 245.74633362 64.39643951 245.56445312 65.32556152 C245.30355392 66.66696953 245.30355392 66.66696953 245.03738403 68.03547668 C243.19778084 76.52246785 238.58494525 82.669634 231.50146484 87.50793457 C224.22270535 91.37517328 217.58608101 92.09469806 209.44921875 92.05725098 C207.70566856 92.07258377 207.70566856 92.07258377 205.92689514 92.08822632 C202.1103924 92.11587221 198.2946179 92.11411612 194.47802734 92.10949707 C192.48389562 92.11530944 190.48976362 92.12113287 188.49563634 92.12831056 C182.23350846 92.15042057 175.97162058 92.15142146 169.70947266 92.13928223 C163.28011555 92.12720923 156.85163454 92.15182428 150.42242682 92.19442236 C144.87383211 92.22981434 139.32551424 92.2416322 133.776811 92.23514688 C130.4753559 92.23154586 127.17465882 92.23922606 123.87327957 92.26457596 C120.18567828 92.28941911 116.50007248 92.27565709 112.8125 92.25256348 C111.7399144 92.26785095 110.6673288 92.28313843 109.5622406 92.29888916 C99.84386476 92.16524752 91.35101206 88.78629704 84.50146484 81.75793457 C79.45288824 75.317921 77.58915166 68.495014 76.50146484 60.50793457 C69.33002616 60.38110876 62.15887686 60.29357216 54.98657227 60.23327637 C52.5470092 60.20813961 50.10752139 60.17402511 47.66821289 60.1307373 C44.16061839 60.07005228 40.65401994 60.04171557 37.14599609 60.01965332 C35.51136162 59.98094368 35.51136162 59.98094368 33.84370422 59.94145203 C27.5043389 59.78416842 27.5043389 59.78416842 22.33618164 62.97595215 C21.7307251 63.81150635 21.12526855 64.64706055 20.50146484 65.50793457 C20.17146484 65.83793457 19.84146484 66.16793457 19.50146484 66.50793457 C19.40093489 68.50910807 19.37221907 70.5138928 19.37003708 72.51758862 C19.36427536 74.49011019 19.36427536 74.49011019 19.35839725 76.50248069 C19.35917764 77.98103922 19.36005645 79.4595977 19.36102295 80.93815613 C19.35844159 82.49391832 19.35542908 84.04967984 19.35201955 85.60544044 C19.34391907 89.90139562 19.34215829 94.19733412 19.34142208 98.49329603 C19.33957676 103.11852621 19.33203201 107.74374763 19.32528687 112.36897278 C19.31168063 122.49295931 19.30567505 132.61694189 19.30127621 142.74093604 C19.29851722 149.05861797 19.29428046 155.37629837 19.28977203 161.69397926 C19.27757556 179.17412946 19.26727753 196.65427843 19.26389694 214.13443279 C19.26367738 215.25414535 19.26345781 216.37385791 19.26323159 217.52750115 C19.26301331 218.64995064 19.26279503 219.77240012 19.26257014 220.92886323 C19.26212667 223.20351136 19.26168011 225.47815949 19.26123047 227.75280762 C19.26089832 229.44527715 19.26089832 229.44527715 19.26055947 231.17193798 C19.25661138 249.45517625 19.23915872 267.73837466 19.21587095 286.02159753 C19.19217321 304.77760558 19.17969578 323.53359362 19.17852902 342.28961688 C19.17761129 352.82645353 19.17183435 363.36323828 19.15370941 373.90006065 C19.13832958 382.87293305 19.13317536 391.84573752 19.14144751 400.81862058 C19.14536176 405.39854967 19.14438681 409.97834189 19.13039017 414.55825424 C19.11769734 418.74981649 19.11880793 422.94113837 19.13098088 427.13270006 C19.13294594 428.6502658 19.12982227 430.16784829 19.12113652 431.68539044 C19.11008299 433.74691125 19.11750383 435.80757795 19.12952805 437.86907482 C19.12863241 439.58725565 19.12863241 439.58725565 19.12771869 441.3401472 C19.55906983 444.99618129 20.58071278 447.38018175 22.50146484 450.50793457 C25.83795021 452.73225815 26.91834832 452.76175297 30.81152344 452.7791748 C32.4386879 452.79445473 32.4386879 452.79445473 34.09872437 452.81004333 C35.2706131 452.81218338 36.44250183 452.81432343 37.64990234 452.81652832 C40.12386304 452.84168756 42.59782132 452.86708559 45.07177734 452.8927002 C48.97802103 452.92145872 52.88422271 452.94547183 56.79052734 452.9642334 C60.55637454 452.985868 64.32172612 453.02530769 68.08740234 453.06652832 C69.25524261 453.06664413 70.42308289 453.06675995 71.62631226 453.06687927 C72.71739288 453.08021805 73.80847351 453.09355682 74.93261719 453.1072998 C75.88953461 453.11237045 76.84645203 453.1174411 77.83236694 453.12266541 C81.01224154 453.58166229 82.91099763 454.63629586 85.50146484 456.50793457 C87.01365154 459.53230796 86.67409853 462.17034991 86.50146484 465.50793457 C85.31378629 468.88825046 84.60321259 469.44010274 81.50146484 471.50793457 C78.98158264 471.78881836 78.98158264 471.78881836 75.93530273 471.8302002 C74.79303726 471.84941528 73.65077179 471.86863037 72.47389221 471.88842773 C70.61775551 471.90117737 70.61775551 471.90117737 68.72412109 471.91418457 C67.44725937 471.92558472 66.17039764 471.93698486 64.85484314 471.94873047 C62.14548152 471.96974528 59.43623828 471.98143 56.72680664 471.98840332 C53.28701161 471.99929385 49.84883211 472.04717079 46.40953922 472.10434723 C43.09777153 472.15104905 39.78620022 472.15453196 36.47412109 472.16418457 C35.2549147 472.18887817 34.03570831 472.21357178 32.77955627 472.23901367 C23.49065655 472.19138669 15.84207622 469.90781075 8.57362366 463.91967773 C0.2435869 455.11498096 -0.08198491 444.22650473 -0.01992798 432.77005005 C-0.02597654 431.18191638 -0.03375828 429.59378854 -0.04311311 428.00567091 C-0.06361981 423.66172446 -0.05932338 419.31810914 -0.05075192 414.97413588 C-0.04580771 410.28143247 -0.06385775 405.58880779 -0.0788269 400.89613342 C-0.10429787 391.71056132 -0.10791121 382.52510621 -0.10322638 373.33950473 C-0.09965726 365.87177385 -0.10316523 358.40407842 -0.11167526 350.93635178 C-0.11346083 349.34081002 -0.11346083 349.34081002 -0.11528247 347.7130351 C-0.11770602 345.55199421 -0.12013429 343.39095332 -0.12256722 341.22991244 C-0.14430929 320.97345335 -0.13999738 300.71706088 -0.12779753 280.46059804 C-0.11745919 261.93942501 -0.13997152 243.41846237 -0.17799397 224.89733095 C-0.21676042 205.86752768 -0.23326113 186.83782391 -0.22574747 167.8079809 C-0.22192493 157.12907447 -0.22688388 146.45034711 -0.25517654 135.77147293 C-0.27901849 126.68070337 -0.28179814 117.5902231 -0.25759621 108.49944951 C-0.24582867 103.86389533 -0.24359071 99.22887012 -0.26760101 94.59335136 C-0.28935373 90.34421325 -0.28307335 86.09604461 -0.25507765 81.84695153 C-0.2497931 80.31541897 -0.25448777 78.78381 -0.27054937 77.25235255 C-0.37304045 66.7450442 1.08816819 57.70388336 8.24243677 49.51525366 C15.9590372 42.11393559 24.90668982 40.90969699 35.19287109 40.89855957 C36.37872299 40.88202332 37.56457489 40.86548706 38.78636169 40.84844971 C42.54561645 40.80016055 46.30446718 40.7786401 50.06396484 40.75793457 C52.62453184 40.7297591 55.18508016 40.69982949 57.74560547 40.66809082 C63.99752532 40.59440599 70.24922338 40.54471433 76.50146484 40.50793457 C76.50146484 33.90793457 76.50146484 27.30793457 76.50146484 20.50793457 C65.26171094 20.41752135 54.02219906 20.34415378 42.78216362 20.30068588 C37.56280874 20.27982218 32.34371583 20.2515265 27.12451172 20.20617676 C22.08650263 20.16267598 17.04874532 20.13878831 12.0105629 20.1284256 C10.08963178 20.12104186 8.16871424 20.10662305 6.24789047 20.08501434 C3.55460719 20.05592409 0.86236073 20.05198091 -1.83105469 20.05383301 C-2.62299728 20.0394519 -3.41493988 20.0250708 -4.23088074 20.01025391 C-10.73095105 20.05853522 -14.47233835 21.98644995 -18.63634253 27.16831207 Z " fill="#000000" transform="translate(40.49853515625,-0.5079345703125)"/>
<path d="M0 0 C0.8494368 -0.00058411 1.6988736 -0.00116821 2.5740509 -0.00177002 C5.36635996 0.00100449 8.15758573 0.03206602 10.94970703 0.06347656 C12.89168718 0.07094121 14.83367489 0.07663309 16.77566528 0.08062744 C21.87545741 0.09586609 26.97479051 0.13513276 32.07440186 0.17944336 C37.28277376 0.22043419 42.49122016 0.2386466 47.69970703 0.25878906 C57.91087818 0.30162877 68.12158879 0.37196426 78.33251953 0.45410156 C78.33251953 7.05410156 78.33251953 13.65410156 78.33251953 20.45410156 C75.97305176 20.45240967 75.97305176 20.45240967 73.56591797 20.45068359 C67.68372268 20.45437751 61.80233712 20.49737944 55.92041016 20.55175781 C53.38335413 20.56983353 50.84620033 20.57750177 48.30908203 20.57421875 C44.64426253 20.5713376 40.98143608 20.60690626 37.31689453 20.64941406 C36.19764587 20.64032013 35.07839722 20.6312262 33.92523193 20.62185669 C25.0047164 20.78344758 17.32454832 23.25963963 10.40081787 29.07717896 C2.24240255 37.86569256 1.75221294 47.65131247 1.82458496 59.08518982 C1.81997168 60.67388434 1.8136159 62.26257458 1.80567598 63.85125595 C1.78901793 68.20133859 1.79721293 72.55106903 1.80962086 76.90115273 C1.81868356 81.59859517 1.80469552 86.29597772 1.79370117 90.9934082 C1.77592399 100.18982219 1.7797525 109.38610551 1.79135174 118.58252459 C1.80038947 126.05792201 1.80160858 133.53328284 1.79725647 141.00868416 C1.79664354 142.0730916 1.79603061 143.13749904 1.7953991 144.23416125 C1.79412018 146.39657514 1.79282333 148.55898902 1.79150873 150.72140289 C1.78010514 170.99401845 1.79321291 191.26656164 1.8147102 211.53916533 C1.83257839 228.92759504 1.82947892 246.31591792 1.81103516 263.7043457 C1.78962013 283.90343565 1.78120646 304.10246217 1.79348421 324.30156189 C1.79475839 326.45627565 1.79601587 328.61098942 1.79725647 330.7657032 C1.79818212 332.35588386 1.79818212 332.35588386 1.79912648 333.97818939 C1.80257767 341.44262779 1.79675595 348.9070259 1.78733826 356.37145805 C1.77610978 365.47104868 1.77917612 374.57050132 1.80046123 383.67007618 C1.81096057 388.31134051 1.81511254 392.95237493 1.80186462 397.59363747 C1.78991162 401.84561738 1.796551 406.0971551 1.81777483 410.34909511 C1.82222863 411.88398271 1.82000217 413.41890795 1.81027168 414.95377117 C1.747374 425.70294929 2.67663627 435.69633916 10.40454102 443.86598206 C18.89191627 450.857225 27.58186555 452.33497046 38.27001953 452.14550781 C40.19467041 452.14344582 40.19467041 452.14344582 42.15820312 452.14134216 C44.84784192 452.13669583 47.53625513 452.11219154 50.22558594 452.0715332 C53.66665307 452.02015256 57.10639968 452.00910437 60.54780579 452.01136875 C63.85117383 452.01035735 67.154266 451.98386828 70.45751953 451.95800781 C72.30591431 451.95300011 72.30591431 451.95300011 74.19165039 451.94789124 C75.33384033 451.92875168 76.47603027 451.90961212 77.65283203 451.88989258 C78.65588379 451.87845718 79.65893555 451.86702179 80.69238281 451.85523987 C83.84442912 451.37632281 85.12857252 450.75485125 87.33251953 448.45410156 C87.99251953 446.47410156 88.65251953 444.49410156 89.33251953 442.45410156 C95.93251953 442.45410156 102.53251953 442.45410156 109.33251953 442.45410156 C109.66251953 440.80410156 109.99251953 439.15410156 110.33251953 437.45410156 C113.2339283 434.41774355 115.16600636 432.67282278 119.33251953 431.89160156 C123.22459771 432.62136622 125.36585641 433.83239927 128.33251953 436.45410156 C128.66251953 438.43410156 128.99251953 440.41410156 129.33251953 442.45410156 C135.93251953 442.45410156 142.53251953 442.45410156 149.33251953 442.45410156 C150.32251953 444.43410156 151.31251953 446.41410156 152.33251953 448.45410156 C154.16493664 450.56995875 155.46219603 451.3345186 158.23827744 451.71595383 C160.72701137 451.84737716 163.19532511 451.85924102 165.6875 451.84228516 C166.63429626 451.84754211 167.58109253 451.85279907 168.55657959 451.85821533 C171.6877897 451.87142345 174.81849169 451.8626728 177.94970703 451.85253906 C180.12680153 451.8545599 182.30389537 451.85747141 184.48098755 451.86123657 C189.04565877 451.86566131 193.61015393 451.85922517 198.17480469 451.84521484 C204.02139278 451.82814333 209.86756711 451.8379505 215.71413994 451.85593224 C220.21118271 451.86678326 224.70812774 451.86331729 229.20517349 451.85554886 C231.36051609 451.85354945 233.51586761 451.855997 235.6711998 451.86298752 C238.68728812 451.87062124 241.70271111 451.85896955 244.71875 451.84228516 C246.05152481 451.8513942 246.05152481 451.8513942 247.41122437 451.86068726 C256.05890422 451.77223502 260.76331556 448.47615163 266.67333984 442.50146484 C267.57691727 441.60577286 267.57691727 441.60577286 268.49874878 440.69198608 C270.47696655 438.72691335 272.4440766 436.75114035 274.41064453 434.77441406 C275.786895 433.40018563 277.16359044 432.02640271 278.54071045 430.65304565 C281.42022808 427.77794372 284.29426769 424.89750376 287.16455078 422.01318359 C290.84199762 418.31862951 294.53277018 414.63772845 298.22774124 410.96071053 C301.07102998 408.12826607 303.90713004 405.28871046 306.74111176 402.44695663 C308.09926983 401.08679919 309.45965481 399.72886158 310.82230377 398.37320328 C312.72532008 396.47781349 314.6184417 394.57305841 316.50927734 392.66552734 C317.07240631 392.10847107 317.63553528 391.55141479 318.21572876 390.97747803 C323.00481353 386.10984228 324.57876517 382.37866158 324.59537506 375.5937109 C324.60305735 374.41376834 324.61073964 373.23382578 324.61865473 372.01812738 C324.61692176 370.7257365 324.6151888 369.43334562 324.61340332 368.10179138 C324.61857264 366.71184255 324.62459952 365.32189668 324.63141012 363.93195492 C324.64753356 360.11267204 324.65112833 356.29346437 324.65260506 352.47415149 C324.65630915 348.35465983 324.67140548 344.23520706 324.68487549 340.11573792 C324.71203284 331.10725652 324.72409051 322.09879295 324.7328968 313.09027743 C324.73842404 307.46333422 324.74689926 301.83639788 324.75590515 296.2094593 C324.78029081 280.62497991 324.80088838 265.04050602 324.80765533 249.45600796 C324.80809447 248.4586497 324.8085336 247.46129145 324.80898604 246.43371022 C324.80942259 245.43398381 324.80985915 244.4342574 324.81030893 243.40423626 C324.81119586 241.37845893 324.81208899 239.35268161 324.81298828 237.3269043 C324.81343114 236.32205174 324.813874 235.31719918 324.81433028 234.28189654 C324.82222266 218.00752474 324.85711952 201.73333224 324.90370733 185.45902967 C324.95117072 168.74366286 324.97606074 152.02838594 324.97839117 135.31295067 C324.98022283 125.93062041 324.99168021 116.54852368 325.0280304 107.16625786 C325.0588819 99.17514032 325.06904459 91.18432847 325.05255419 83.19316267 C325.04475786 79.11859974 325.04651603 75.04465189 325.07466888 70.97016525 C325.1002513 67.23337485 325.09766429 63.49765833 325.07348746 59.76086832 C325.06775782 57.78262882 325.09136824 55.80436987 325.11633158 53.82627958 C325.01384208 44.50871595 322.78406818 36.65989017 316.62270021 29.45458215 C308.94497624 21.97476116 298.98364381 20.85606399 288.76220703 20.84472656 C287.59996613 20.82819031 286.43772522 20.81165405 285.24026489 20.7946167 C281.56262793 20.7463998 277.88540371 20.72482339 274.20751953 20.70410156 C271.69968656 20.67592002 269.19187259 20.64598957 266.68408203 20.61425781 C260.56692854 20.54064735 254.45000066 20.4909118 248.33251953 20.45410156 C248.33251953 13.85410156 248.33251953 7.25410156 248.33251953 0.45410156 C259.57227343 0.36368835 270.81178532 0.29032077 282.05182076 0.24685287 C287.27117563 0.22598917 292.49026854 0.1976935 297.70947266 0.15234375 C302.74748175 0.10884297 307.78523905 0.0849553 312.82342148 0.07459259 C314.7443526 0.06720885 316.66527013 0.05279004 318.5860939 0.03118134 C321.27937718 0.00209108 323.97162364 -0.0018521 326.66503906 0 C327.45698166 -0.0143811 328.24892426 -0.02876221 329.06486511 -0.0435791 C334.27024668 -0.0049145 337.26547136 0.93016667 341.33251953 4.45410156 C344.99781434 9.01534876 345.91152475 12.51852153 345.83588409 18.23468018 C345.84169786 19.00295057 345.84751162 19.77122096 345.85350156 20.56277227 C345.86811453 23.14047448 345.85421066 25.71722641 345.8404541 28.29492188 C345.84506251 30.16023877 345.85141502 32.02555204 345.85936308 33.8908577 C345.87608777 39.01932789 345.86779572 44.147501 345.85541821 49.27597237 C345.84638291 54.80570634 345.86032989 60.33538855 345.87133789 65.8651123 C345.88914393 76.69890992 345.88527382 87.53259682 345.87368733 98.36639881 C345.86466149 107.16960879 345.86342533 115.9727877 345.86778259 124.77600098 C345.86839552 126.02791898 345.86900846 127.27983698 345.86963996 128.5696919 C345.87091884 131.11277231 345.87221569 133.65585272 345.87353033 136.19893312 C345.88461678 159.37676033 345.87311089 182.55452961 345.85215994 205.73234349 C345.83317733 226.89353481 345.83487583 248.05462984 345.85400391 269.21582031 C345.87541977 292.98745729 345.88384354 316.75904763 345.87155485 340.53069687 C345.87028063 343.06453195 345.86902314 345.59836705 345.86778259 348.13220215 C345.86685694 350.00234761 345.86685694 350.00234761 345.86591259 351.91027379 C345.86245585 360.70504755 345.86829501 369.49978719 345.87770081 378.29455566 C345.88890794 389.00938672 345.88590778 399.72410053 345.86457783 410.43891811 C345.85405016 415.90798841 345.8499749 421.37686307 345.86317444 426.84593201 C345.87506849 431.84968738 345.86858507 436.85306526 345.84726423 441.85678625 C345.84278549 443.66961846 345.84509283 445.48248236 345.85476738 447.29529428 C345.86689099 449.75516044 345.85449822 452.21372525 345.83588409 454.67352295 C345.84524876 455.38120992 345.85461342 456.08889689 345.86426187 456.81802893 C345.76997018 463.03113108 343.26800313 466.55743015 338.9413147 470.79735565 C333.27547366 473.39846171 327.75305014 473.00378226 321.59179688 472.96203613 C320.17195687 472.96664655 318.75212164 472.97300042 317.33229637 472.98094511 C313.43516464 472.99764248 309.53842475 472.9893904 305.64129162 472.97700024 C301.43671705 472.96795368 297.23221008 472.98191751 293.02764893 472.99291992 C284.79269462 473.01071396 276.55788608 473.00686123 268.32292604 472.99526936 C261.63069747 472.98623879 254.93850977 472.98500941 248.24627686 472.98936462 C246.81800837 472.99028402 246.81800837 472.99028402 245.36088598 472.99122199 C243.42660156 472.99250089 241.49231715 472.99379774 239.55803275 472.99511236 C221.4167832 473.00652075 203.27561449 472.99340039 185.13437819 472.97191089 C169.5656192 472.95403968 153.9969795 472.95714371 138.42822266 472.97558594 C120.35225014 472.99698807 102.27634848 473.00542209 84.20036507 472.99313688 C82.27316412 472.99186268 80.34596317 472.99060519 78.41876221 472.98936462 C77.47052247 472.98874752 76.52228274 472.98813042 75.54530847 472.98749462 C68.86049028 472.98403975 62.175717 472.98987302 55.49090576 472.99928284 C47.34522669 473.0104969 39.19970182 473.00747527 31.05404043 472.98615986 C26.89732214 472.97564143 22.74086102 472.97154101 18.58414459 472.98475647 C14.7794203 472.99666996 10.97519171 472.9901355 7.17051244 472.96884626 C5.14120322 472.96225681 3.11185963 472.97532566 1.08258629 472.98907518 C-10.13870418 472.89206247 -10.13870418 472.89206247 -14.66748047 468.45410156 C-18.31276835 463.87566859 -19.24656316 460.39553584 -19.17084503 454.67352295 C-19.17665879 453.90525256 -19.18247256 453.13698216 -19.1884625 452.34543085 C-19.20307547 449.76772865 -19.1891716 447.19097672 -19.17541504 444.61328125 C-19.18002345 442.74796435 -19.18637595 440.88265108 -19.19432402 439.01734543 C-19.2110487 433.88887524 -19.20275665 428.76070213 -19.19037914 423.63223076 C-19.18134385 418.10249679 -19.19529083 412.57281457 -19.20629883 407.04309082 C-19.22410487 396.20929321 -19.22023476 385.37560631 -19.20864826 374.54180431 C-19.19962243 365.73859433 -19.19838626 356.93541543 -19.20274353 348.13220215 C-19.20335646 346.88028414 -19.20396939 345.62836614 -19.2046009 344.33851123 C-19.20587977 341.79543081 -19.20717663 339.2523504 -19.20849127 336.70927 C-19.21957772 313.53144279 -19.20807183 290.35367352 -19.18712088 267.17585963 C-19.16813826 246.01466832 -19.16983677 224.85357328 -19.18896484 203.69238281 C-19.21038071 179.92074584 -19.21880448 156.1491555 -19.20651579 132.37750626 C-19.20524156 129.84367117 -19.20398408 127.30983608 -19.20274353 124.77600098 C-19.20212643 123.52923733 -19.20150933 122.28247369 -19.20087352 120.99792933 C-19.19741679 112.20315558 -19.20325595 103.40841593 -19.21266174 94.61364746 C-19.22386887 83.89881641 -19.22086871 73.1841026 -19.19953877 62.46928501 C-19.18901109 57.00021472 -19.18493584 51.53134006 -19.19813538 46.06227112 C-19.21002943 41.05851574 -19.20354601 36.05513786 -19.18222517 31.05141687 C-19.17774643 29.23858467 -19.18005376 27.42572076 -19.18972832 25.61290884 C-19.20185193 23.15304269 -19.18945916 20.69447787 -19.17084503 18.23468018 C-19.1802097 17.5269932 -19.18957436 16.81930623 -19.1992228 16.0901742 C-19.12355884 11.10449703 -17.76439075 8.30802711 -14.66748047 4.45410156 C-9.82052517 0.25440828 -6.1189498 -0.11111569 0 0 Z " fill="#FE737F" transform="translate(38.66748046875,19.5458984375)"/>
<path d="M0 0 C6.22644995 5.59575351 11.14291907 12.28780808 12.8125 20.62890625 C12.91291998 22.90236853 12.95607985 25.17855277 12.96640015 27.45420837 C12.97297353 28.48309837 12.97297353 28.48309837 12.9796797 29.53277403 C12.99303058 31.83036457 12.99923807 34.12791678 13.00537109 36.42553711 C13.0132747 38.07316764 13.02154381 39.72079646 13.03015137 41.36842346 C13.05633152 46.77684891 13.07167043 52.18528197 13.0859375 57.59375 C13.09129796 59.4559333 13.09667547 61.31811655 13.10206985 63.18029976 C13.1236886 70.92412998 13.14242703 78.66795813 13.15369225 86.41181087 C13.16994566 97.51113866 13.20316857 108.61011721 13.26009309 119.70931333 C13.29875897 127.51407853 13.31832068 135.31875017 13.32361281 143.12360865 C13.32726956 147.78576523 13.33932584 152.44754898 13.37171555 157.10960197 C13.40173899 161.4936072 13.4081287 165.87701283 13.39633179 170.26109886 C13.3961106 171.86996951 13.40445293 173.47886754 13.42198563 175.08764267 C13.4446267 177.2846931 13.43640935 179.47955957 13.42050171 181.67662048 C13.42546693 183.52024878 13.42546693 183.52024878 13.43053246 185.40112209 C12.62714302 189.59696598 11.16951688 191.05414603 7.8125 193.62890625 C6.1625 193.95890625 4.5125 194.28890625 2.8125 194.62890625 C2.8125 200.89890625 2.8125 207.16890625 2.8125 213.62890625 C4.7925 213.95890625 6.7725 214.28890625 8.8125 214.62890625 C11.39734255 216.80561576 12.58302483 218.44507171 13.23046875 221.78515625 C13.49607491 226.09228321 13.22216219 228.06708382 10.625 231.62890625 C7.8125 233.62890625 7.8125 233.62890625 2.8125 234.62890625 C2.8125 240.89890625 2.8125 247.16890625 2.8125 253.62890625 C4.7925 253.95890625 6.7725 254.28890625 8.8125 254.62890625 C12.09257996 257.40424396 13.04286467 259.8095949 13.48193359 263.95484924 C13.57881397 265.71441259 13.65357324 267.47527776 13.7109375 269.23657227 C13.77830502 270.69090101 13.77830502 270.69090101 13.8470335 272.17461014 C13.98607514 275.41027322 14.09086066 278.64561622 14.1875 281.8828125 C14.22353647 283.00834723 14.25957294 284.13388195 14.29670143 285.29352379 C14.55989631 293.92525536 14.70708593 302.55644341 14.8125 311.19140625 C14.830173 312.45541763 14.84784599 313.71942902 14.86605453 315.02174377 C15.33412571 352.52280761 11.96681167 386.02726766 -0.875 421.37890625 C-1.19938049 422.27679493 -1.52376099 423.17468361 -1.85797119 424.09978104 C-5.04420621 432.86300564 -8.38637838 441.56762209 -12.04956055 450.14355469 C-12.53587448 451.28387146 -13.02218842 452.42418823 -13.52323914 453.59906006 C-15.87861881 457.88711267 -18.37865004 460.99974105 -23.0625 462.62890625 C-27.31826135 462.62890625 -29.56738923 461.90823525 -33.1875 459.62890625 C-34.18171775 457.97924018 -34.18171775 457.97924018 -35.02444267 455.93227768 C-35.36151922 455.12214958 -35.69859577 454.31202147 -36.04588675 453.47734404 C-36.42261913 452.53735957 -36.7993515 451.5973751 -37.1875 450.62890625 C-37.84844268 449.02243375 -37.84844268 449.02243375 -38.52273774 447.38350725 C-59.13581676 396.673368 -67.04014712 351.2915272 -66.0065326 296.74331091 C-65.83040579 287.17933418 -65.80916752 277.61636819 -65.79083623 268.05100778 C-65.75403898 251.00013099 -65.60028055 233.95258229 -65.36865234 216.90332031 C-65.14508905 200.43195707 -64.99062015 183.96199669 -64.91748047 167.48925781 C-64.91291127 166.46398183 -64.90834207 165.43870585 -64.90363441 164.38236091 C-64.8854556 160.25862322 -64.86755522 156.13488447 -64.8500682 152.01114379 C-64.77349113 134.24550319 -64.65085012 116.48012003 -64.51410943 98.71485007 C-64.49947882 96.81172402 -64.48502926 94.90859656 -64.47075957 93.00546777 C-64.38241515 81.2653251 -64.27041232 69.52586918 -64.11555862 57.78640747 C-64.07317557 54.5267489 -64.03960529 51.26719679 -64.01423645 48.00736237 C-63.98459959 44.25198783 -63.93641081 40.49731451 -63.87356485 36.74235299 C-63.84465893 34.75138352 -63.83445005 32.76016927 -63.82503974 30.76901221 C-63.58262979 18.66826191 -60.04269365 9.59700897 -51.52734375 0.94140625 C-36.75882214 -12.51510547 -15.42401639 -12.40762608 0 0 Z " fill="#000000" transform="translate(499.1875,29.37109375)"/>
<path d="M0 0 C11.88 0 23.76 0 36 0 C36.01458252 3.85131592 36.02916504 7.70263184 36.04418945 11.6706543 C36.09448507 24.3832935 36.16092054 37.09580513 36.23571491 49.80832195 C36.28067554 57.51730164 36.32008954 65.2262351 36.34643555 72.93530273 C36.36941352 79.65473566 36.40280918 86.37402233 36.44870156 93.09333926 C36.47263666 96.65100544 36.49136348 100.20852674 36.49761391 103.76627159 C36.50478769 107.738467 36.53522029 111.71029937 36.56762695 115.68237305 C36.56619186 116.8612912 36.56475677 118.04020935 36.5632782 119.25485229 C36.57581635 120.33873734 36.58835449 121.42262238 36.60127258 122.53935242 C36.60588155 123.47865947 36.61049051 124.41796652 36.61523914 125.38573742 C37.09615579 128.65333176 37.91762975 130.42955442 40 133 C42.97 133.99 42.97 133.99 46 135 C46 141.6 46 148.2 46 155 C47.98 155.33 49.96 155.66 52 156 C54.58484255 158.17670951 55.77052483 159.81616546 56.41796875 163.15625 C56.68357491 167.46337696 56.40966219 169.43817757 53.8125 173 C51 175 51 175 46 176 C46 182.6 46 189.2 46 196 C43.03 196.99 43.03 196.99 40 198 C37.84187454 199.79857747 37.12244656 201.13105799 36.73073769 203.91082001 C36.58777163 206.39842986 36.56362101 208.8666579 36.56762695 211.35839844 C36.5574353 212.30507889 36.54724365 213.25175934 36.53674316 214.22712708 C36.50656156 217.35460285 36.49733921 220.48177259 36.48828125 223.609375 C36.47143842 225.77843244 36.45328872 227.94748009 36.43388367 230.11651611 C36.38633471 235.82437076 36.3565569 241.53218574 36.33044434 247.24017334 C36.3006636 253.06514318 36.25412472 258.88997627 36.20898438 264.71484375 C36.12289537 276.14317347 36.05712362 287.57148875 36 299 C24.12 299 12.24 299 0 299 C0 200.33 0 101.66 0 0 Z " fill="#FECA77" transform="translate(456,88)"/>
<path d="M0 0 C42.9 0 85.8 0 130 0 C130 44 130 44 127 49 C124.08388438 51.76623094 122.1381206 52.37681337 118.1555481 52.39440918 C116.69624374 52.41143387 116.69624374 52.41143387 115.2074585 52.42880249 C114.1465802 52.42587189 113.0857019 52.42294128 111.99267578 52.41992188 C110.87031525 52.42839142 109.74795471 52.43686096 108.59158325 52.44558716 C104.87604485 52.46901374 101.16091922 52.46997787 97.4453125 52.46875 C94.86465284 52.4758485 92.28399478 52.48354703 89.70333862 52.49182129 C84.29126971 52.50527943 78.87936249 52.50700991 73.46728516 52.50097656 C67.21867469 52.49433856 60.97065494 52.51719047 54.72216427 52.55429029 C48.70358354 52.58872373 42.68531584 52.59532117 36.66662216 52.59120178 C34.10934566 52.592896 31.5520616 52.60256735 28.99484634 52.62034607 C25.41812532 52.64247423 21.84282933 52.63286281 18.26611328 52.61523438 C17.20928345 52.62849762 16.15245361 52.64176086 15.06359863 52.65542603 C7.05042285 52.56363528 7.05042285 52.56363528 3.35836792 49.64904785 C-7.75509461 37.16579882 0 11.11508803 0 0 Z " fill="#92E6F7" transform="translate(137,20)"/>
<path d="M0 0 C0.90425217 -0.00571014 1.80850433 -0.01142029 2.74015808 -0.01730347 C3.73499207 -0.01842133 4.72982605 -0.01953918 5.75480652 -0.02069092 C7.32327583 -0.02813828 7.32327583 -0.02813828 8.9234314 -0.03573608 C12.39481761 -0.05038328 15.86615811 -0.05716412 19.33757019 -0.06268311 C21.7441203 -0.06843263 24.15067039 -0.07419038 26.55722046 -0.07995605 C31.60876174 -0.09047345 36.66028707 -0.09631122 41.71183777 -0.09979248 C48.1885346 -0.10527751 54.66502122 -0.12930281 61.14165211 -0.15776443 C66.11473203 -0.17637774 71.08776121 -0.18159573 76.06087303 -0.18312836 C78.44871354 -0.18615856 80.83655309 -0.19419941 83.22435951 -0.20731354 C86.56409871 -0.22434569 89.9033229 -0.22250042 93.24308777 -0.21600342 C94.23184906 -0.2252182 95.22061035 -0.23443298 96.23933411 -0.243927 C101.17459586 -0.21381319 104.7513468 -0.18825946 108.69303894 3.14044189 C111.13909599 6.80952747 111.53250296 9.87662959 110.69303894 14.14044189 C108.51729478 16.83149388 106.78238038 18.59577118 103.69303894 20.14044189 C102.27265279 20.238529 100.84780031 20.27545903 99.42404175 20.28088379 C98.08028473 20.28944901 98.08028473 20.28944901 96.7093811 20.29818726 C95.23115623 20.29986404 95.23115623 20.29986404 93.72306824 20.30157471 C92.6871756 20.30653961 91.65128296 20.31150452 90.58399963 20.31661987 C87.14507898 20.33126676 83.70620446 20.33804786 80.26725769 20.34356689 C77.88312783 20.34931645 75.49899799 20.35507421 73.11486816 20.36083984 C68.11040531 20.37135716 63.10595856 20.37719498 58.10148621 20.38067627 C51.68532267 20.38616121 45.26937132 20.41018637 38.85327435 20.43864822 C33.9265175 20.45726207 28.99981188 20.46247955 24.07302284 20.46401215 C21.70751091 20.46704224 19.34199996 20.47508272 16.97652245 20.48819733 C13.66791475 20.50523058 10.35982686 20.50338395 7.05119324 20.49688721 C6.07178268 20.50610199 5.09237213 20.51531677 4.08328247 20.52481079 C-0.85542746 20.49439555 -4.32108422 20.4102762 -8.30696106 17.14044189 C-10.87266695 13.7195007 -10.7440416 10.29270705 -10.30696106 6.14044189 C-7.30063182 1.53073707 -5.40231892 0.02039113 0 0 Z " fill="#020202" transform="translate(192.3069610595703,316.85955810546875)"/>
<path d="M0 0 C0.90425217 -0.00571014 1.80850433 -0.01142029 2.74015808 -0.01730347 C3.73499207 -0.01842133 4.72982605 -0.01953918 5.75480652 -0.02069092 C7.32327583 -0.02813828 7.32327583 -0.02813828 8.9234314 -0.03573608 C12.39481761 -0.05038328 15.86615811 -0.05716412 19.33757019 -0.06268311 C21.7441203 -0.06843263 24.15067039 -0.07419038 26.55722046 -0.07995605 C31.60876174 -0.09047345 36.66028707 -0.09631122 41.71183777 -0.09979248 C48.1885346 -0.10527751 54.66502122 -0.12930281 61.14165211 -0.15776443 C66.11473203 -0.17637774 71.08776121 -0.18159573 76.06087303 -0.18312836 C78.44871354 -0.18615856 80.83655309 -0.19419941 83.22435951 -0.20731354 C86.56409871 -0.22434569 89.9033229 -0.22250042 93.24308777 -0.21600342 C94.23184906 -0.2252182 95.22061035 -0.23443298 96.23933411 -0.243927 C101.17459586 -0.21381319 104.7513468 -0.18825946 108.69303894 3.14044189 C111.13909599 6.80952747 111.53250296 9.87662959 110.69303894 14.14044189 C108.51729478 16.83149388 106.78238038 18.59577118 103.69303894 20.14044189 C102.27265279 20.238529 100.84780031 20.27545903 99.42404175 20.28088379 C98.08028473 20.28944901 98.08028473 20.28944901 96.7093811 20.29818726 C95.23115623 20.29986404 95.23115623 20.29986404 93.72306824 20.30157471 C92.6871756 20.30653961 91.65128296 20.31150452 90.58399963 20.31661987 C87.14507898 20.33126676 83.70620446 20.33804786 80.26725769 20.34356689 C77.88312783 20.34931645 75.49899799 20.35507421 73.11486816 20.36083984 C68.11040531 20.37135716 63.10595856 20.37719498 58.10148621 20.38067627 C51.68532267 20.38616121 45.26937132 20.41018637 38.85327435 20.43864822 C33.9265175 20.45726207 28.99981188 20.46247955 24.07302284 20.46401215 C21.70751091 20.46704224 19.34199996 20.47508272 16.97652245 20.48819733 C13.66791475 20.50523058 10.35982686 20.50338395 7.05119324 20.49688721 C6.07178268 20.50610199 5.09237213 20.51531677 4.08328247 20.52481079 C-0.85542746 20.49439555 -4.32108422 20.4102762 -8.30696106 17.14044189 C-10.87266695 13.7195007 -10.7440416 10.29270705 -10.30696106 6.14044189 C-7.30063182 1.53073707 -5.40231892 0.02039113 0 0 Z " fill="#020202" transform="translate(192.3069610595703,223.85955810546875)"/>
<path d="M0 0 C0.91266632 -0.0071553 1.82533264 -0.01431061 2.76565552 -0.02168274 C3.76984024 -0.02437164 4.77402496 -0.02706055 5.80863953 -0.02983093 C6.86403931 -0.03640213 7.91943909 -0.04297333 9.00682068 -0.04974365 C12.51066655 -0.06950663 16.01446953 -0.08114544 19.51835632 -0.09111023 C20.71283072 -0.09518576 21.90730511 -0.09926128 23.13797569 -0.10346031 C29.45902205 -0.12433303 35.78004661 -0.13863003 42.10112 -0.147995 C48.63841223 -0.15906689 55.17536478 -0.19347277 61.71253681 -0.23316669 C66.73194015 -0.25927898 71.75126187 -0.26768202 76.77072716 -0.27127647 C79.18090804 -0.27615571 81.59108496 -0.28780746 84.00119972 -0.30631447 C87.37218475 -0.33059242 90.74228183 -0.32976135 94.11332703 -0.32279968 C95.11143906 -0.33560974 96.10955109 -0.3484198 97.13790894 -0.36161804 C101.50644506 -0.32868626 103.96456288 -0.277519 107.75143433 2.05154419 C110.70300187 5.30078339 111.04650341 7.7007747 111.01445007 12.10810852 C110.41184488 15.52723801 108.28721441 17.07906154 105.65507507 19.14717102 C103.32914025 20.31013843 101.97641717 20.27774329 99.38607788 20.28761292 C98.04232086 20.29617813 98.04232086 20.29617813 96.67141724 20.30491638 C95.19319237 20.30659317 95.19319237 20.30659317 93.68510437 20.30830383 C92.64921173 20.31326874 91.61331909 20.31823364 90.54603577 20.323349 C87.10711511 20.33799589 83.66824059 20.34477699 80.22929382 20.35029602 C77.84516396 20.35604558 75.46103412 20.36180333 73.0769043 20.36756897 C68.07244145 20.37808628 63.06799469 20.38392411 58.06352234 20.3874054 C51.6473588 20.39289034 45.23140745 20.4169155 38.81531048 20.44537735 C33.88855364 20.4639912 28.96184801 20.46920868 24.03505898 20.47074127 C21.66954705 20.47377137 19.30403609 20.48181185 16.93855858 20.49492645 C13.62995088 20.51195971 10.32186299 20.51011307 7.01322937 20.50361633 C6.03381882 20.51283112 5.05440826 20.5220459 4.0453186 20.53153992 C-0.89339133 20.50112467 -4.35904809 20.41700533 -8.34492493 17.14717102 C-10.91063082 13.72622983 -10.78200547 10.29943618 -10.34492493 6.14717102 C-7.32553568 1.51744084 -5.42179538 0.02912751 0 0 Z " fill="#030303" transform="translate(192.3449249267578,129.8528289794922)"/>
<path d="M0 0 C2.8100346 1.79363911 4.50940468 3.01880935 6 6 C6.91901339 12.66284711 6.91901339 12.66284711 4.70048523 15.89077759 C4.12860977 16.50899384 3.55673431 17.12721008 2.9675293 17.76416016 C2.32979584 18.45825989 1.69206238 19.15235962 1.03500366 19.86749268 C-2.26929223 23.33010816 -5.59872462 26.76127881 -8.98046875 30.1484375 C-9.71574295 30.8870401 -10.45101715 31.6256427 -11.20857239 32.3866272 C-12.74931455 33.93239413 -14.29137931 35.47684383 -15.8347168 37.02001953 C-18.19673618 39.38424481 -20.55061738 41.75638165 -22.90429688 44.12890625 C-24.40836485 45.63590519 -25.91290547 47.14243259 -27.41796875 48.6484375 C-28.11907272 49.35672699 -28.8201767 50.06501648 -29.54252625 50.79476929 C-30.20033585 51.44950226 -30.85814545 52.10423523 -31.53588867 52.77880859 C-32.10989914 53.35424408 -32.68390961 53.92967957 -33.27531433 54.52255249 C-35.93799369 56.80352986 -38.32605185 57.86214697 -41.75 58.5625 C-46.87573558 57.67535346 -49.36604655 54.57139713 -53 51 C-54.19502127 49.9097094 -55.39177762 48.82131886 -56.58984375 47.734375 C-57.87398408 46.53294534 -59.15652484 45.32980382 -60.4375 44.125 C-61.37916016 43.27881104 -61.37916016 43.27881104 -62.33984375 42.41552734 C-66.37177324 38.52175333 -67.77322634 35.61450257 -68.18896484 30.01123047 C-67.88443202 26.76996253 -66.33668245 25.13639538 -64 23 C-60.69683596 21.34841798 -57.54103265 21.22481772 -54 22 C-50.35286749 24.41630626 -47.30056817 27.42490557 -44.51953125 30.79296875 C-44.01808594 31.19128906 -43.51664063 31.58960938 -43 32 C-39.68024091 31.58061 -38.08991634 30.43812315 -35.82714844 28.04077148 C-35.23262878 27.4202037 -34.63810913 26.79963593 -34.02557373 26.16026306 C-33.39322815 25.48733719 -32.76088257 24.81441132 -32.109375 24.12109375 C-30.74683618 22.71087083 -29.38353072 21.30138831 -28.01953125 19.89257812 C-25.88017415 17.66651688 -23.7476126 15.43497057 -21.62841797 13.18969727 C-19.5775376 11.02371403 -17.50213438 8.88382415 -15.421875 6.74609375 C-14.79762634 6.07114365 -14.17337769 5.39619354 -13.5302124 4.70079041 C-9.02529759 0.11954327 -6.42529571 -0.93073166 0 0 Z " fill="#020202" transform="translate(149,132)"/>
<path d="M0 0 C3.42495214 2.7566688 3.90848043 4.49248241 4.6875 8.8125 C4.49695956 12.42491452 3.3837235 14.10351174 0.95849609 16.73657227 C0.00423737 17.78036545 0.00423737 17.78036545 -0.96929932 18.84524536 C-1.63943054 19.55631439 -2.30956177 20.26738342 -3 21 C-3.63355408 21.67666718 -4.26710815 22.35333435 -4.91986084 23.05050659 C-9.21746169 27.59080421 -13.60060492 32.0481697 -17.98730469 36.50219727 C-19.5836313 38.13035248 -21.17184024 39.76650522 -22.75195312 41.41040039 C-25.05253496 43.80223356 -27.3783143 46.16679896 -29.7109375 48.52734375 C-30.40810883 49.2626683 -31.10528015 49.99799286 -31.82357788 50.75559998 C-35.99925892 54.91511064 -39.03175681 56.83879924 -44.96255493 57.29420471 C-49.41417768 56.65139553 -52.0229304 53.09868192 -55 50 C-56.18779793 48.90480657 -57.3809716 47.81542787 -58.578125 46.73046875 C-59.86586918 45.53002371 -61.15231768 44.32818733 -62.4375 43.125 C-63.06551514 42.56095459 -63.69353027 41.99690918 -64.34057617 41.41577148 C-68.37129198 37.52101565 -69.77322001 34.61458786 -70.18896484 29.01123047 C-69.88443202 25.76996253 -68.33668245 24.13639538 -66 22 C-62.69661205 20.34830603 -59.54188939 20.22812955 -56 21 C-53.73930978 22.50989218 -51.89158634 24.17207915 -49.95703125 26.078125 C-47.76328961 28.23245811 -45.41054322 30.09413874 -43 32 C-42.60354279 31.60132217 -42.20708557 31.20264435 -41.7986145 30.79188538 C-37.68141389 26.65260556 -33.56073253 22.51681485 -29.43798828 18.38305664 C-27.89867553 16.83870708 -26.3602604 15.29346229 -24.82275391 13.74731445 C-22.61594799 11.5284145 -20.40596143 9.31272667 -18.1953125 7.09765625 C-17.50567413 6.4028566 -16.81603577 5.70805695 -16.10549927 4.99220276 C-15.46498627 4.35161423 -14.82447327 3.7110257 -14.16455078 3.05102539 C-13.31849777 2.20164146 -13.31849777 2.20164146 -12.45535278 1.33509827 C-8.76897747 -2.0466751 -4.56394971 -1.15922701 0 0 Z " fill="#020202" transform="translate(151,320)"/>
<path d="M0 0 C3.42495214 2.7566688 3.90848043 4.49248241 4.6875 8.8125 C4.49695956 12.42491452 3.3837235 14.10351174 0.95849609 16.73657227 C0.00423737 17.78036545 0.00423737 17.78036545 -0.96929932 18.84524536 C-1.63943054 19.55631439 -2.30956177 20.26738342 -3 21 C-3.63355408 21.67666718 -4.26710815 22.35333435 -4.91986084 23.05050659 C-9.21746169 27.59080421 -13.60060492 32.0481697 -17.98730469 36.50219727 C-19.5836313 38.13035248 -21.17184024 39.76650522 -22.75195312 41.41040039 C-25.05253496 43.80223356 -27.3783143 46.16679896 -29.7109375 48.52734375 C-30.40810883 49.2626683 -31.10528015 49.99799286 -31.82357788 50.75559998 C-35.99925892 54.91511064 -39.03175681 56.83879924 -44.96255493 57.29420471 C-49.41417768 56.65139553 -52.0229304 53.09868192 -55 50 C-56.18779793 48.90480657 -57.3809716 47.81542787 -58.578125 46.73046875 C-59.86586918 45.53002371 -61.15231768 44.32818733 -62.4375 43.125 C-63.06551514 42.56095459 -63.69353027 41.99690918 -64.34057617 41.41577148 C-68.37129198 37.52101565 -69.77322001 34.61458786 -70.18896484 29.01123047 C-69.88443202 25.76996253 -68.33668245 24.13639538 -66 22 C-62.69661205 20.34830603 -59.54188939 20.22812955 -56 21 C-53.73930978 22.50989218 -51.89158634 24.17207915 -49.95703125 26.078125 C-47.76328961 28.23245811 -45.41054322 30.09413874 -43 32 C-42.60354279 31.60132217 -42.20708557 31.20264435 -41.7986145 30.79188538 C-37.68141389 26.65260556 -33.56073253 22.51681485 -29.43798828 18.38305664 C-27.89867553 16.83870708 -26.3602604 15.29346229 -24.82275391 13.74731445 C-22.61594799 11.5284145 -20.40596143 9.31272667 -18.1953125 7.09765625 C-17.50567413 6.4028566 -16.81603577 5.70805695 -16.10549927 4.99220276 C-15.46498627 4.35161423 -14.82447327 3.7110257 -14.16455078 3.05102539 C-13.31849777 2.20164146 -13.31849777 2.20164146 -12.45535278 1.33509827 C-8.76897747 -2.0466751 -4.56394971 -1.15922701 0 0 Z " fill="#020202" transform="translate(151,227)"/>
<path d="M0 0 C1.12489334 -0.00960754 2.24978668 -0.01921509 3.4087677 -0.02911377 C5.23996407 -0.03548859 5.23996407 -0.03548859 7.1081543 -0.04199219 C8.98388374 -0.0505423 8.98388374 -0.0505423 10.89750671 -0.05926514 C13.54808188 -0.06872628 16.19854352 -0.07561722 18.84912109 -0.07910156 C22.23866025 -0.0845787 25.62779615 -0.10858956 29.01720905 -0.13707352 C32.25582684 -0.16022924 35.49446532 -0.1621519 38.7331543 -0.16699219 C39.94787918 -0.17933899 41.16260406 -0.19168579 42.41413879 -0.20440674 C43.54848862 -0.20140564 44.68283844 -0.19840454 45.8515625 -0.1953125 C46.84702591 -0.19895813 47.84248932 -0.20260376 48.86811829 -0.20635986 C53.05560697 0.3528729 55.67506489 2.21632466 58.61987305 5.16113281 C59.38645562 9.69823201 59.19713487 13.20566496 56.80737305 17.16113281 C53.4237733 20.25470973 50.62448065 20.29134628 46.21801758 20.32226562 C45.11322052 20.33187317 44.00842346 20.34148071 42.87014771 20.35137939 C41.67638519 20.35562927 40.48262268 20.35987915 39.25268555 20.36425781 C38.02581024 20.36995789 36.79893494 20.37565796 35.53488159 20.38153076 C32.93740706 20.39098325 30.33992052 20.39751573 27.74243164 20.40136719 C23.76777255 20.41107687 19.79362957 20.44210059 15.8190918 20.47363281 C13.29695945 20.48016242 10.77482341 20.48541306 8.25268555 20.48925781 C7.0629715 20.50160461 5.87325745 20.51395142 4.64749146 20.52667236 C2.98083939 20.52217072 2.98083939 20.52217072 1.28051758 20.51757812 C0.30583527 20.52122375 -0.66884705 20.52486938 -1.67306519 20.52862549 C-4.88137679 20.09308647 -6.75905121 19.02803228 -9.38012695 17.16113281 C-11.94583285 13.74019162 -11.8172075 10.31339797 -11.38012695 6.16113281 C-8.01924815 1.00778531 -5.97278056 0.04106648 0 0 Z " fill="#020202" transform="translate(193.380126953125,356.8388671875)"/>
<path d="M0 0 C1.12489334 -0.00960754 2.24978668 -0.01921509 3.4087677 -0.02911377 C5.23996407 -0.03548859 5.23996407 -0.03548859 7.1081543 -0.04199219 C8.98388374 -0.0505423 8.98388374 -0.0505423 10.89750671 -0.05926514 C13.54808188 -0.06872628 16.19854352 -0.07561722 18.84912109 -0.07910156 C22.23866025 -0.0845787 25.62779615 -0.10858956 29.01720905 -0.13707352 C32.25582684 -0.16022924 35.49446532 -0.1621519 38.7331543 -0.16699219 C39.94787918 -0.17933899 41.16260406 -0.19168579 42.41413879 -0.20440674 C43.54848862 -0.20140564 44.68283844 -0.19840454 45.8515625 -0.1953125 C46.84702591 -0.19895813 47.84248932 -0.20260376 48.86811829 -0.20635986 C53.05560697 0.3528729 55.67506489 2.21632466 58.61987305 5.16113281 C59.38645562 9.69823201 59.19713487 13.20566496 56.80737305 17.16113281 C53.4237733 20.25470973 50.62448065 20.29134628 46.21801758 20.32226562 C45.11322052 20.33187317 44.00842346 20.34148071 42.87014771 20.35137939 C41.67638519 20.35562927 40.48262268 20.35987915 39.25268555 20.36425781 C38.02581024 20.36995789 36.79893494 20.37565796 35.53488159 20.38153076 C32.93740706 20.39098325 30.33992052 20.39751573 27.74243164 20.40136719 C23.76777255 20.41107687 19.79362957 20.44210059 15.8190918 20.47363281 C13.29695945 20.48016242 10.77482341 20.48541306 8.25268555 20.48925781 C7.0629715 20.50160461 5.87325745 20.51395142 4.64749146 20.52667236 C2.98083939 20.52217072 2.98083939 20.52217072 1.28051758 20.51757812 C0.30583527 20.52122375 -0.66884705 20.52486938 -1.67306519 20.52862549 C-4.88137679 20.09308647 -6.75905121 19.02803228 -9.38012695 17.16113281 C-11.94583285 13.74019162 -11.8172075 10.31339797 -11.38012695 6.16113281 C-8.01924815 1.00778531 -5.97278056 0.04106648 0 0 Z " fill="#020202" transform="translate(193.380126953125,263.8388671875)"/>
<path d="M0 0 C1.1416864 -0.01606293 2.2833728 -0.03212585 3.45965576 -0.04867554 C8.68825511 -0.09306778 13.91676671 -0.13463788 19.14550781 -0.15722656 C21.90430985 -0.17055018 24.66236943 -0.19837133 27.42089844 -0.23925781 C31.39418491 -0.29814613 35.36711238 -0.31589876 39.34082031 -0.33056641 C40.57225769 -0.35323578 41.80369507 -0.37590515 43.07244873 -0.39926147 C52.6182395 -0.37569224 52.6182395 -0.37569224 56.3215332 2.58300781 C59.25766894 6.03102397 59.36165252 7.68968329 59.07910156 12.03662109 C58.22731096 15.46865328 56.28905757 17.10135699 53.54394531 19.19287109 C50.97807593 20.47580578 49.12862983 20.33389039 46.25561523 20.35400391 C45.15074265 20.36361145 44.04587006 20.37321899 42.90751648 20.38311768 C41.10913078 20.38949249 41.10913078 20.38949249 39.27441406 20.39599609 C38.04612381 20.40169617 36.81783356 20.40739624 35.55232239 20.41326904 C32.9488715 20.42272979 30.34540859 20.42925727 27.74194336 20.43310547 C23.75846383 20.43965904 19.77535095 20.47381778 15.79199219 20.50537109 C13.26530255 20.51190148 10.73860921 20.51715181 8.21191406 20.52099609 C6.42263741 20.5395163 6.42263741 20.5395163 4.59721375 20.55841064 C3.48288467 20.55540955 2.3685556 20.55240845 1.22045898 20.54931641 C-0.24608879 20.55478485 -0.24608879 20.55478485 -1.74226379 20.56036377 C-4.95471584 20.12534403 -6.83211844 19.06264027 -9.45605469 17.19287109 C-12.02176058 13.7719299 -11.89313523 10.34513625 -11.45605469 6.19287109 C-8.07551353 1.00937465 -6.00444321 0.07662004 0 0 Z " fill="#030303" transform="translate(193.4560546875,169.80712890625)"/>
<path d="M0 0 C4.92624367 2.77162417 7.18320215 6.3039043 9.6875 11.3125 C9.6875 15.9325 9.6875 20.5525 9.6875 25.3125 C-2.1925 25.3125 -14.0725 25.3125 -26.3125 25.3125 C-26.3125 8.72121935 -26.3125 8.72121935 -21.3125 3.3125 C-15.13213958 -2.42640611 -7.70665217 -3.57911936 0 0 Z " fill="#FC737E" transform="translate(482.3125,42.6875)"/>
<path d="M0 0 C9.24 0 18.48 0 28 0 C26.23324665 5.88917784 24.46854468 11.71733408 22.51953125 17.5390625 C22.19295784 18.51666031 22.19295784 18.51666031 21.85978699 19.51400757 C21.17879304 21.55148851 20.49569332 23.58825563 19.8125 25.625 C19.34425992 27.02469238 18.87615996 28.42443165 18.40820312 29.82421875 C17.27374797 33.21668707 16.13740612 36.60851975 15 40 C14.34 40 13.68 40 13 40 C11.14470448 34.62617144 9.29339246 29.25099384 7.44580078 23.87451172 C6.81636822 22.04470543 6.18583799 20.21527636 5.55419922 18.38623047 C4.64784295 15.76106984 3.74540942 13.13458946 2.84375 10.5078125 C2.55939087 9.68693146 2.27503174 8.86605042 1.98205566 8.02029419 C0 2.22774341 0 2.22774341 0 0 Z " fill="#ADA9AE" transform="translate(460,407)"/>
<path d="M0 0 C0.91644287 0.00523682 1.83288574 0.01047363 2.77709961 0.01586914 C3.76645508 0.0190918 4.75581055 0.02231445 5.77514648 0.02563477 C6.81606445 0.03401367 7.85698242 0.04239258 8.92944336 0.05102539 C10.49662109 0.05779297 10.49662109 0.05779297 12.09545898 0.06469727 C14.68600996 0.07652627 17.27644895 0.0930085 19.86694336 0.11352539 C15.0588475 5.93980625 9.84889381 11.28576041 4.49707031 16.61376953 C3.03648077 18.0689211 1.58141133 19.52944396 0.12670898 20.99047852 C-0.79045898 21.90635742 -1.70762695 22.82223633 -2.65258789 23.76586914 C-3.48894775 24.60110107 -4.32530762 25.43633301 -5.18701172 26.296875 C-7.13305664 28.11352539 -7.13305664 28.11352539 -8.13305664 28.11352539 C-8.27873071 24.55145817 -8.3672486 20.99015988 -8.44555664 17.42602539 C-8.48745117 16.41862305 -8.5293457 15.4112207 -8.57250977 14.37329102 C-8.6969017 6.8351395 -8.6969017 6.8351395 -5.67602539 2.96899414 C-4.8368457 2.35668945 -3.99766602 1.74438477 -3.13305664 1.11352539 C-2.13305664 0.11352539 -2.13305664 0.11352539 0 0 Z " fill="#FCD599" transform="translate(309.133056640625,408.886474609375)"/>
<path d="M0 0 C2.20886444 4.07790359 2.57948029 7.45799032 1.625 12 C-0.61081789 15.06626454 -2.26973984 16.5346273 -5.75 18 C-9.58202293 18 -12.04508202 16.84995443 -15.375 15 C-17.63321013 12.30471694 -18.28709844 10.51642167 -18.875 7.0625 C-18.18281859 2.82288884 -16.44871479 0.93710525 -13.375 -2 C-8.55814915 -3.85263494 -3.96325001 -3.3374737 0 0 Z " fill="#020201" transform="translate(510.375,246)"/>
<path d="M0 0 C5.57894737 3.15789474 5.57894737 3.15789474 7 6 C7.3751455 10.97067782 7.15878799 14.05151502 4 18 C0.78446554 20.32849047 -2.11021377 20.54457007 -6 20 C-8.92483867 18.17452064 -11.43429205 16.13141589 -13 13 C-13.40417552 10.03604618 -13.56382171 7.91095074 -11.953125 5.30859375 C-8.15326689 0.67053165 -5.96513968 -0.57357112 0 0 Z " fill="#070505" transform="translate(161,452)"/>
</svg>
