<?xml version="1.0" encoding="UTF-8"?>
<svg version="1.1" xmlns="http://www.w3.org/2000/svg" width="512" height="512">
<path d="M0 0 C1.97751503 -0.01902626 1.97751503 -0.01902626 3.99497986 -0.03843689 C5.42186643 -0.03638519 6.84875193 -0.03339696 8.27563477 -0.02954102 C9.75244893 -0.03410704 11.22926096 -0.03941387 12.70606995 -0.04542542 C15.79518284 -0.05433976 18.88403697 -0.05195283 21.97314453 -0.04199219 C25.91855027 -0.03050585 29.86306051 -0.05071631 33.80834866 -0.07990932 C36.85656849 -0.09831586 39.90457549 -0.09797007 42.95283699 -0.0922718 C44.40680256 -0.09211912 45.86078304 -0.0981192 47.31469536 -0.11056328 C61.72641753 -0.21654552 61.72641753 -0.21654552 67.27954102 4.40405273 C71.19519682 8.77207312 70.73094635 13.7376649 70.71313477 19.30639648 C70.71837662 20.26171768 70.72361847 21.21703888 70.72901917 22.2013092 C70.73543025 24.21769236 70.73411422 26.23411297 70.72558594 28.25048828 C70.71707918 31.32774785 70.74584516 34.40314842 70.77758789 37.48022461 C70.77920019 39.44311468 70.77862182 41.40600802 70.77563477 43.36889648 C70.78686874 44.28468979 70.79810272 45.20048309 70.80967712 46.14402771 C70.74771485 51.8529713 70.06367271 55.04944893 66.27954102 59.40405273 C64.94342773 60.0943457 64.94342773 60.0943457 63.58032227 60.79858398 C60.87228767 62.29284405 60.87228767 62.29284405 60.57250977 65.97827148 C60.51293368 67.34852136 60.47856619 68.72005676 60.46704102 70.09155273 C60.4419043 70.79344727 60.41676758 71.4953418 60.39086914 72.21850586 C60.33209653 73.94642054 60.30293131 75.67529704 60.27954102 77.40405273 C61.51704102 77.44530273 62.75454102 77.48655273 64.02954102 77.52905273 C72.66006743 78.50917561 80.97055155 83.00264129 86.81469727 89.40405273 C92.13834528 96.67260683 94.43680306 103.65679706 94.37719727 112.57202148 C94.37507484 113.76424065 94.37507484 113.76424065 94.37290955 114.98054504 C94.36731479 117.51758599 94.35476329 120.05453849 94.34204102 122.59155273 C94.33702534 124.31225458 94.33246255 126.03295782 94.32836914 127.75366211 C94.31734709 131.97049303 94.30008608 136.18725789 94.27954102 140.40405273 C95.26954102 140.07405273 96.25954102 139.74405273 97.27954102 139.40405273 C100.02088454 139.28062051 102.72573464 139.21890983 105.46704102 139.21655273 C106.19729492 139.20430664 106.92754883 139.19206055 107.67993164 139.17944336 C111.54675363 139.16916837 114.78695747 139.46794386 118.49047852 140.61499023 C122.19631399 141.76429226 122.19631399 141.76429226 125.15063477 140.17358398 C125.99754883 139.52776367 126.84446289 138.88194336 127.71704102 138.21655273 C136.71526903 131.9461826 144.29209094 130.42828162 155.27954102 131.40405273 C161.55312208 132.54390056 166.42107082 134.76049133 171.49047852 138.61108398 C172.08086914 138.87276367 172.67125977 139.13444336 173.27954102 139.40405273 C176.40501422 138.17596222 178.46573101 136.45883715 180.80712891 134.08764648 C181.81320946 133.0764978 181.81320946 133.0764978 182.83961487 132.04492188 C183.91009315 130.95425415 183.91009315 130.95425415 185.00219727 129.84155273 C185.74408798 129.09446045 186.4859787 128.34736816 187.25035095 127.57763672 C189.61904371 125.19113869 191.98094509 122.79806513 194.34204102 120.40405273 C196.70755964 118.01091357 199.07451803 115.61924484 201.44444275 113.23046875 C202.91854009 111.7441194 204.389956 110.25510496 205.8584137 108.76318359 C206.85976601 107.75203491 206.85976601 107.75203491 207.88134766 106.72045898 C208.7592672 105.83015991 208.7592672 105.83015991 209.65492249 104.921875 C213.04979178 101.75017154 215.71017438 100.75554248 220.27954102 100.40405273 C227.28431794 101.31207937 230.96269535 105.16764232 235.27954102 110.40405273 C240.0304717 117.00420696 243.82130909 124.05730196 247.27954102 131.40405273 C248.18575195 130.99413086 249.09196289 130.58420898 250.02563477 130.16186523 C266.87033666 122.64903538 282.22633534 121.25121557 300.14282227 126.04077148 C303.86868841 127.66010808 305.76182313 129.21494341 308.27954102 132.40405273 C309.28256348 134.97627368 309.99977676 137.1848796 310.59204102 139.84155273 C310.75663818 140.53659912 310.92123535 141.23164551 311.09082031 141.94775391 C312.73941017 149.49529804 313.75402629 157.98059692 311.27954102 165.40405273 C312.30692383 165.35764648 313.33430664 165.31124023 314.39282227 165.26342773 C327.67334746 164.84072676 337.2452327 167.15520886 347.27954102 176.40405273 C354.44868998 183.18126645 358.15925701 191.6708326 359.27954102 201.40405273 C360.47450195 201.57420898 361.66946289 201.74436523 362.90063477 201.91967773 C381.83938376 204.74118919 381.83938376 204.74118919 386.27954102 208.40405273 C388.28718389 211.24384904 389.32893581 214.07430852 390.27954102 217.40405273 C390.50254883 218.18006836 390.72555664 218.95608398 390.95532227 219.75561523 C394.018721 232.55103579 391.83118059 244.0525919 388.27954102 256.40405273 C388.87766602 256.58967773 389.47579102 256.77530273 390.09204102 256.96655273 C393.33632817 259.09851286 394.41277447 261.74827489 395.27954102 265.40405273 C395.53218622 269.15898311 395.33841616 272.8397508 395.09204102 276.59155273 C395.00901733 278.11824585 395.00901733 278.11824585 394.92431641 279.67578125 C394.50279492 286.68378587 393.80006487 293.53955182 392.27954102 300.40405273 C393.49641602 300.48655273 394.71329102 300.56905273 395.96704102 300.65405273 C400.14395489 300.93723334 402.26049836 302.54768433 405.27954102 305.40405273 C407.26391602 308.31420898 407.26391602 308.31420898 409.02954102 311.46655273 C409.62250977 312.5094043 410.21547852 313.55225586 410.82641602 314.62670898 C413.44432256 319.63028843 413.79983399 323.85753331 413.27954102 329.40405273 C410.71530984 335.89004923 404.16165148 339.88548629 398.53735352 343.59545898 C397.73700684 344.12469971 396.93666016 344.65394043 396.11206055 345.19921875 C395.5073291 345.59681396 394.90259766 345.99440918 394.27954102 346.40405273 C395.26237061 346.21705811 396.2452002 346.03006348 397.2578125 345.83740234 C400.94001249 345.14039772 404.62522014 344.46058022 408.31152344 343.78564453 C409.89994593 343.49239978 411.48754141 343.19463495 413.07421875 342.89208984 C433.94189243 338.92073326 433.94189243 338.92073326 441.15454102 343.71655273 C446.97818659 349.37805504 447.41018496 358.06929446 447.71704102 365.77905273 C447.56789548 370.73976285 446.85088042 373.73873071 443.27954102 377.40405273 C438.57408618 380.16724667 434.10813343 381.26591462 428.81860352 382.22827148 C427.63275162 382.45496269 427.63275162 382.45496269 426.42294312 382.68623352 C423.91830915 383.16305222 421.41156388 383.62747655 418.90454102 384.09155273 C417.19735482 384.41430194 415.4903216 384.7378614 413.78344727 385.06225586 C409.61718958 385.85223898 405.44899434 386.63112121 401.27954102 387.40405273 C401.85921631 387.5293335 402.4388916 387.65461426 403.03613281 387.78369141 C405.68436348 388.36733445 408.32532782 388.97911403 410.96704102 389.59155273 C411.87905273 389.78813477 412.79106445 389.9847168 413.73071289 390.18725586 C420.22433049 391.72211093 423.83233244 393.64478654 427.57641602 399.39624023 C430.01821761 406.36894035 428.41192661 415.4980312 426.27954102 422.40405273 C423.79254037 427.28923258 421.49379089 429.63317542 416.27954102 431.40405273 C408.6739507 431.80920008 401.61460623 430.60194115 394.15063477 429.21655273 C392.92039078 428.99459229 391.69014679 428.77263184 390.42262268 428.54394531 C387.18138449 427.95772242 383.94147596 427.36477437 380.7020874 426.76843262 C377.38454601 426.15945675 374.06537513 425.55949973 370.74633789 424.95874023 C364.25588625 423.78207494 357.76710766 422.59651617 351.27954102 421.40405273 C351.16054443 422.42305664 351.04154785 423.44206055 350.91894531 424.49194336 C350.75177068 425.84811094 350.58418711 427.20422815 350.41625977 428.56030273 C350.339198 429.22964844 350.26213623 429.89899414 350.18273926 430.58862305 C348.97984807 440.11855033 344.80893239 447.46537785 337.27954102 453.40405273 C327.48346608 460.26312941 317.07861645 460.70254669 305.42259216 460.66474915 C303.52891587 460.67048747 303.52891587 460.67048747 301.59698349 460.67634171 C298.1178778 460.68656927 294.63887577 460.68445334 291.15976179 460.68016112 C287.39746658 460.67768419 283.63519571 460.68672022 279.87290955 460.69419861 C272.51049266 460.70692259 265.14811228 460.70874203 257.78568625 460.70639835 C251.79588716 460.70461181 245.80609911 460.70637202 239.81630135 460.71062279 C238.53515315 460.71151557 238.53515315 460.71151557 237.22812318 460.71242639 C235.49268595 460.71363822 233.75724872 460.71485235 232.02181149 460.71606877 C215.75919423 460.72693625 199.49659772 460.72478605 183.23397929 460.71868392 C168.38599562 460.71352012 153.53807766 460.72475742 138.69010698 460.74378214 C123.41758451 460.76319959 108.14509306 460.77140941 92.87255818 460.76765889 C84.30902861 460.76575216 75.74555489 460.76818224 67.18203545 460.78237343 C59.88842641 460.79433839 52.59490758 460.79563547 45.30129718 460.78358326 C41.58674925 460.77772913 37.87236587 460.77649768 34.15782928 460.78858566 C4.26756573 460.87898886 -22.35996262 457.89787097 -44.59545898 436.15405273 C-59.29165959 421.12434623 -65.00387042 403.56414156 -64.96484375 382.86303711 C-64.74173057 365.16564159 -58.33856468 349.84460639 -46.72045898 336.40405273 C-45.86686043 335.88251617 -45.01326187 335.36097961 -44.13379669 334.82363892 C-41.07913963 331.76107291 -41.12691608 330.18431669 -41.07218981 326.0023756 C-41.08627367 325.13896714 -41.10035752 324.27555868 -41.11486816 323.38598633 C-41.11004032 322.46406903 -41.10521247 321.54215174 -41.10023832 320.59229755 C-41.0899793 317.49522708 -41.11535784 314.39946179 -41.14038086 311.30249023 C-41.14011429 309.08494431 -41.13758236 306.86739767 -41.13294983 304.64985657 C-41.12753815 299.86924618 -41.13762398 295.08900407 -41.15943909 290.30844116 C-41.19326273 282.74362628 -41.18922204 275.17912443 -41.17932129 267.61425781 C-41.16896847 257.00166159 -41.17247214 246.38918905 -41.19067383 235.77661133 C-41.19182227 235.10315151 -41.19297072 234.42969168 -41.19415396 233.73582399 C-41.20360404 228.27612688 -41.21395298 222.81643154 -41.22436237 217.35673618 C-41.23340535 212.59597911 -41.24209632 207.83522158 -41.25024414 203.07446289 C-41.25139778 202.40425063 -41.25255142 201.73403836 -41.25374001 201.04351664 C-41.27241045 189.84263041 -41.27121314 178.6418094 -41.25658274 167.44091415 C-41.24820256 159.92747062 -41.26395785 152.41458714 -41.29837799 144.90122318 C-41.31487514 140.21452554 -41.31064642 135.52800863 -41.30093193 130.84129906 C-41.30067289 128.67581717 -41.30893117 126.510314 -41.32657051 124.34490395 C-41.43647827 110.15615837 -41.14430425 98.01480431 -30.73608398 87.15405273 C-23.24358683 80.64893893 -15.65488845 77.40405273 -5.72045898 77.40405273 C-5.72045898 72.45405273 -5.72045898 67.50405273 -5.72045898 62.40405273 C-7.70045898 61.74405273 -9.68045898 61.08405273 -11.72045898 60.40405273 C-15.72702834 56.28919772 -16.81837577 52.90779836 -16.89746094 47.29736328 C-16.91671379 46.10043098 -16.91671379 46.10043098 -16.93635559 44.87931824 C-16.94374252 44.02509781 -16.95112946 43.17087738 -16.95874023 42.29077148 C-16.96681198 41.40299515 -16.97488373 40.51521881 -16.98320007 39.60054016 C-16.99701268 37.723622 -17.00774743 35.84667902 -17.015625 33.96972656 C-17.02714909 32.05623991 -17.0476077 30.14278551 -17.07714844 28.22949219 C-17.11992602 25.45803075 -17.1360074 22.68752252 -17.14624023 19.91577148 C-17.16374832 19.06762375 -17.18125641 18.21947601 -17.19929504 17.34562683 C-17.17826183 11.54078686 -16.26494968 8.0724333 -12.72045898 3.40405273 C-8.36156157 0.73753932 -5.07538037 0.02372551 0 0 Z " fill="#010100" transform="translate(64.720458984375,25.595947265625)"/>
<path d="M0 0 C9.57 0 19.14 0 29 0 C29.66 1.65 30.32 3.3 31 5 C33.68897467 6.34448733 35.81591649 6.16195764 38.82666016 6.20532227 C40.04777496 6.22526749 41.26888977 6.24521271 42.52700806 6.26576233 C43.86435823 6.28274656 45.20170975 6.29962537 46.5390625 6.31640625 C47.90384553 6.33697603 49.26862218 6.35797251 50.63339233 6.37937927 C54.22707973 6.43459759 57.8208246 6.48400787 61.41461182 6.53222656 C65.08114746 6.58244337 68.74759956 6.63812849 72.4140625 6.69335938 C79.60930426 6.800938 86.80461546 6.90238357 94 7 C94.08968147 16.04569073 93.63768447 24.62021985 92.25 33.5625 C92.09273438 34.71041016 91.93546875 35.85832031 91.7734375 37.04101562 C91.60585938 38.14251953 91.43828125 39.24402344 91.265625 40.37890625 C91.11899414 41.3644751 90.97236328 42.35004395 90.82128906 43.36547852 C89.16491026 48.67879115 84.9080862 50.83476046 80.2734375 53.4609375 C79.15839844 54.09773438 78.04335938 54.73453125 76.89453125 55.390625 C75.72150417 56.05234932 74.54832632 56.71380643 73.375 57.375 C71.09068572 58.67367018 68.80682511 59.9731387 66.5234375 61.2734375 C65.42354492 61.89702148 64.32365234 62.52060547 63.19042969 63.16308594 C59.3849487 65.35412045 55.64054786 67.63545932 51.91259766 69.95556641 C50 71 50 71 48 71 C47.67128906 70.29875 47.34257812 69.5975 47.00390625 68.875 C42.89909555 60.6876269 37.81833059 53.99550574 29.3125 50.0625 C26.08448414 49.02709869 23.37553128 48.31844635 20 48 C18.84177734 47.85111328 18.84177734 47.85111328 17.66015625 47.69921875 C10.76560447 47.20606007 5.23669474 48.70366396 -1.140625 51.04296875 C-2.01133636 51.35529953 -2.88204773 51.66763031 -3.77914429 51.98942566 C-13.43989986 55.47565314 -23.03720324 59.13137416 -32.625 62.8125 C-34.4616937 63.51601954 -36.29844568 64.21938695 -38.13525391 64.92260742 C-40.87184934 65.97053695 -43.60829548 67.01884584 -46.34420776 68.06855774 C-51.03153494 69.86653863 -55.72201044 71.65542572 -60.41995239 73.42549133 C-62.28511389 74.12826902 -64.14917249 74.83397166 -66.01318359 75.53979492 C-68.18618591 76.36244278 -70.36088533 77.18062779 -72.53759766 77.9934082 C-73.4816748 78.35265381 -74.42575195 78.71189941 -75.3984375 79.08203125 C-76.19942871 79.38343018 -77.00041992 79.6848291 -77.82568359 79.99536133 C-80.21537943 81.09951565 -82.05577976 82.22009146 -84 84 C-84.81314911 87.60465748 -84.81314911 87.60465748 -85 91 C-88.91260327 92.51075416 -92.83069813 94.00671908 -96.75 95.5 C-98.41675781 96.14388672 -98.41675781 96.14388672 -100.1171875 96.80078125 C-101.18710938 97.20683594 -102.25703125 97.61289062 -103.359375 98.03125 C-104.34389648 98.40830078 -105.32841797 98.78535156 -106.34277344 99.17382812 C-109 100 -109 100 -113 100 C-113 99.34 -113 98.68 -113 98 C-120.55342045 96.59381898 -125.47068292 97.6746571 -132.5625 100.4375 C-133.93245117 100.94506836 -133.93245117 100.94506836 -135.33007812 101.46289062 C-137.56029516 102.29192418 -139.7825109 103.13762536 -142 104 C-142.42410156 103.04480469 -142.84820312 102.08960938 -143.28515625 101.10546875 C-151.26703817 83.38329723 -161.52016515 67.05861953 -180.20703125 59.0546875 C-182.48127426 57.71689749 -182.8353394 56.62815047 -183.75 54.1875 C-186.54277836 48.27023397 -190.81651644 46.26474945 -196.73339844 43.9140625 C-205.53814312 40.9276907 -213.58421359 40.51288974 -222.8125 40.75 C-224.19854137 40.77013226 -225.58461158 40.78837094 -226.97070312 40.8046875 C-230.31456427 40.85129184 -233.65688632 40.91670249 -237 41 C-237.13881592 39.88471924 -237.27763184 38.76943848 -237.4206543 37.62036133 C-237.72441601 34.13058441 -237.72441601 34.13058441 -239.26953125 32.07421875 C-241.53881207 30.66552298 -243.03663119 30.69724483 -245.6875 30.8125 C-246.49574219 30.83957031 -247.30398437 30.86664063 -248.13671875 30.89453125 C-249.05904297 30.94673828 -249.05904297 30.94673828 -250 31 C-250.67101238 25.02080039 -251.06206234 19.12543014 -251.03125 13.10546875 C-251.02673828 11.9558667 -251.02222656 10.80626465 -251.01757812 9.62182617 C-251.01177734 8.75662354 -251.00597656 7.8914209 -251 7 C-249.7297935 6.99761165 -248.459587 6.99522329 -247.1508894 6.99276257 C-217.01859566 6.93543903 -186.88638206 6.86273445 -156.75417523 6.77101372 C-153.04778708 6.75974516 -149.34139855 6.74860677 -145.63500977 6.73754883 C-144.52816739 6.7342433 -144.52816739 6.7342433 -143.39896456 6.730871 C-131.44116156 6.69547031 -119.48335863 6.67062185 -107.52552261 6.64965298 C-95.2614415 6.62791296 -82.99742856 6.59487977 -70.73340541 6.55129844 C-63.16198186 6.52475058 -55.59064331 6.50707835 -48.01917551 6.50065396 C-42.21954095 6.49479087 -36.42004791 6.47323791 -30.62047958 6.44572449 C-28.2367811 6.43689888 -25.85305735 6.43323095 -23.46934319 6.43499184 C-20.22528129 6.43663226 -16.98181878 6.42005075 -13.73783875 6.39872742 C-12.78551304 6.40357499 -11.83318734 6.40842257 -10.85200328 6.41341704 C-9.98563142 6.4039605 -9.11925957 6.39450396 -8.22663403 6.38476086 C-7.10285171 6.38191295 -7.10285171 6.38191295 -5.95636672 6.37900752 C-3.42880727 5.88934266 -2.56834704 5.00939663 -1 3 C-0.67 2.01 -0.34 1.02 0 0 Z " fill="#FEFEFE" transform="translate(350,288)"/>
<path d="M0 0 C11.25313274 8.15116255 11.66302569 22.65125315 13.9375 35.4375 C14.24038925 37.11527209 14.5439464 38.79292372 14.84814453 40.47045898 C15.31393252 43.03951623 15.77932371 45.60863753 16.24261475 48.17814636 C17.66341869 56.05607523 19.12829052 63.92541313 20.60824585 71.79241943 C20.99258749 73.83559479 21.37591432 75.87895833 21.7590332 77.92236328 C22.93664251 84.23450028 22.93664251 84.23450028 24.18066406 90.53369141 C25.38180953 96.69385172 25.73433437 102.73116127 22.4375 108.25 C18.9950097 112.99190918 15.20999963 115.98496839 9.625 117.8125 C6.29296875 118.0078125 6.29296875 118.0078125 2.8125 117.9375 C1.65105469 117.91945313 0.48960937 117.90140625 -0.70703125 117.8828125 C-1.58746094 117.85960937 -2.46789062 117.83640625 -3.375 117.8125 C-3.57077637 116.61705566 -3.57077637 116.61705566 -3.77050781 115.39746094 C-4.37207071 111.78281592 -4.99822766 108.17285532 -5.625 104.5625 C-5.82996094 103.30824219 -6.03492188 102.05398438 -6.24609375 100.76171875 C-6.45878906 99.55644531 -6.67148437 98.35117187 -6.890625 97.109375 C-7.07915039 95.99916992 -7.26767578 94.88896484 -7.46191406 93.74511719 C-8.50484891 90.39545586 -9.62413172 88.95405544 -12.375 86.8125 C-15.53639409 86.36087227 -17.42401637 86.13103477 -20.0703125 88.02734375 C-21.86411897 90.48174362 -21.55642563 91.82637254 -21.1875 94.8125 C-21.07148438 95.78574219 -20.95546875 96.75898438 -20.8359375 97.76171875 C-20.25602791 101.5999339 -19.56512284 105.40614091 -18.77734375 109.20703125 C-18.375 111.8125 -18.375 111.8125 -18.375 117.8125 C-26.955 117.8125 -35.535 117.8125 -44.375 117.8125 C-46.125 108 -46.125 108 -46.64746094 104.91870117 C-46.79989258 104.11408447 -46.95232422 103.30946777 -47.109375 102.48046875 C-47.25600586 101.65828857 -47.40263672 100.8361084 -47.55371094 99.98901367 C-48.60614508 97.19993805 -49.80299317 96.26674613 -52.375 94.8125 C-56.04793796 95.03287628 -57.74466546 95.18216546 -60.375 97.8125 C-60.69891167 104.61464508 -59.99686499 110.97198506 -59.375 117.8125 C-79.175 117.8125 -98.975 117.8125 -119.375 117.8125 C-121.025 109.5625 -122.675 101.3125 -124.375 92.8125 C-127.80625 88.58125 -127.80625 88.58125 -131.4375 88.375 C-134.31343635 88.57815025 -134.31343635 88.57815025 -136.07421875 90.01171875 C-137.89458791 92.53180939 -137.51621243 94.01784677 -137.125 97.0625 C-137.00769531 98.04347656 -136.89039063 99.02445312 -136.76953125 100.03515625 C-136.4631532 102.19193641 -136.14100324 104.34647875 -135.8125 106.5 C-135.30702959 110.32713314 -135.34717654 113.95298887 -135.375 117.8125 C-147.39700339 117.90521225 -159.41892161 117.97627146 -171.44120979 118.01974869 C-177.02376058 118.04061644 -182.60606663 118.06891969 -188.18847656 118.11425781 C-193.57661212 118.15774388 -198.96451239 118.18164322 -204.35280991 118.19200897 C-206.40771056 118.19939533 -208.46259845 118.21381919 -210.51739883 118.23542023 C-213.39746094 118.26449056 -216.27655288 118.26845444 -219.15673828 118.26660156 C-220.00478531 118.28098267 -220.85283234 118.29536377 -221.72657776 118.31018066 C-228.54444422 118.26277196 -231.98054701 115.88043668 -237.125 111.4375 C-241.47502099 106.36247551 -241.8911245 101.05422719 -241.75 94.5625 C-240.94386021 88.65080824 -237.99509151 85.18610456 -233.55078125 81.41796875 C-228.11313304 77.6591007 -221.80374711 75.71137556 -215.625 73.5 C-214.39394531 73.04560547 -213.16289062 72.59121094 -211.89453125 72.12304688 C-202.80421758 68.8125 -202.80421758 68.8125 -199.375 68.8125 C-198.97667969 70.41931641 -198.97667969 70.41931641 -198.5703125 72.05859375 C-198.21396832 73.45583805 -197.85717418 74.85296764 -197.5 76.25 C-197.32597656 76.95705078 -197.15195313 77.66410156 -196.97265625 78.39257812 C-196.50148392 80.21618957 -195.94376943 82.01693229 -195.375 83.8125 C-192.60399606 85.19800197 -190.4415294 85.0002467 -187.375 84.8125 C-186.385 84.1525 -185.395 83.4925 -184.375 82.8125 C-183.970061 79.92606372 -183.970061 79.92606372 -184.125 76.625 C-184.15078125 75.46226562 -184.1765625 74.29953125 -184.203125 73.1015625 C-184.38626608 69.59690815 -184.73370128 66.25948064 -185.375 62.8125 C-175.30886002 57.98069786 -164.89843455 54.14146686 -154.44799805 50.24291992 C-152.17061809 49.39177313 -149.89576773 48.53412824 -147.62109375 47.67578125 C-146.92221542 47.41742996 -146.2233371 47.15907867 -145.50328064 46.89289856 C-142.62572251 45.80450622 -140.57653511 45.01403511 -138.375 42.8125 C-137.97452556 40.48974823 -137.6352896 38.15510643 -137.375 35.8125 C-133.46239673 34.30174584 -129.54430187 32.80578092 -125.625 31.3125 C-124.51382813 30.88324219 -123.40265625 30.45398438 -122.2578125 30.01171875 C-121.18789062 29.60566406 -120.11796875 29.19960938 -119.015625 28.78125 C-118.03110352 28.40419922 -117.04658203 28.02714844 -116.03222656 27.63867188 C-113.375 26.8125 -113.375 26.8125 -109.375 26.8125 C-108.88773438 27.31136719 -108.40046875 27.81023437 -107.8984375 28.32421875 C-106.47983064 30.03149072 -106.47983064 30.03149072 -104.2890625 29.95703125 C-100.02150856 29.33801745 -96.34891073 28.56569591 -92.375 26.8125 C-91.385 26.8125 -90.395 26.8125 -89.375 26.8125 C-89.21680786 27.64442871 -89.21680786 27.64442871 -89.05541992 28.49316406 C-88.56877567 31.01853879 -88.06582211 33.54039866 -87.5625 36.0625 C-87.3140332 37.37154297 -87.3140332 37.37154297 -87.06054688 38.70703125 C-85.94639866 44.85407007 -85.94639866 44.85407007 -82.375 49.8125 C-78.76425156 50.42709548 -77.07361159 50.27211289 -74 48.25 C-70.4261906 42.88928591 -72.79768981 35.39726102 -73.875 29.375 C-74.01808594 28.54806641 -74.16117188 27.72113281 -74.30859375 26.86914062 C-74.65884663 24.84934899 -75.01619296 22.83078958 -75.375 20.8125 C-62.28780116 15.45789006 -49.09631252 10.38694655 -35.875 5.375 C-35.04255768 5.05859558 -34.21011536 4.74219116 -33.35244751 4.41619873 C-30.95466493 3.50540189 -28.55567613 2.59786316 -26.15625 1.69140625 C-25.43092575 1.41568283 -24.7056015 1.13995941 -23.95829773 0.85588074 C-16.06757806 -2.11417311 -7.7493006 -4.62926384 0 0 Z " fill="#F5921D" transform="translate(375.375,352.1875)"/>
<path d="M0 0 C0.69843018 -0.00846954 1.39686035 -0.01693909 2.11645508 -0.02566528 C4.41075173 -0.04894133 6.70437381 -0.05005957 8.9987793 -0.04882812 C10.60532393 -0.05593667 12.21186604 -0.06363667 13.81840515 -0.07189941 C17.18158018 -0.08532357 20.54452057 -0.08692293 23.90771484 -0.08105469 C28.19830618 -0.07516799 32.48776228 -0.10571589 36.77813435 -0.14617157 C40.09579944 -0.17214135 43.41319478 -0.17491751 46.73094749 -0.17127991 C48.3116662 -0.17296327 49.89239843 -0.18252978 51.47301674 -0.20042419 C61.0531018 -0.29693348 68.98700561 -0.02418819 76.32807922 6.89807129 C81.91778876 13.1077113 82.03144539 18.78951842 81.88549805 26.73242188 C81.87647461 27.66376953 81.86745117 28.59511719 81.8581543 29.5546875 C81.83468068 31.84336547 81.80184533 34.1315086 81.76049805 36.41992188 C80.56811523 36.45730469 79.37573242 36.4946875 78.1472168 36.53320312 C76.58077905 36.59886219 75.0143742 36.66530956 73.44799805 36.73242188 C72.66231445 36.75498047 71.87663086 36.77753906 71.06713867 36.80078125 C70.30981445 36.83623047 69.55249023 36.87167969 68.7722168 36.90820312 C67.72747192 36.94747925 67.72747192 36.94747925 66.66162109 36.98754883 C64.19078805 37.54949121 63.27642703 38.4107998 61.76049805 40.41992188 C61.15825472 45.04814514 61.15825472 45.04814514 63.03320312 49.10668945 C65.09584145 50.67487766 66.20499029 50.83512835 68.7722168 50.93164062 C69.52954102 50.96708984 70.28686523 51.00253906 71.06713867 51.0390625 C72.24566406 51.07290039 72.24566406 51.07290039 73.44799805 51.10742188 C74.2452832 51.14158203 75.04256836 51.17574219 75.86401367 51.2109375 C77.82901709 51.29330291 79.79473501 51.35829255 81.76049805 51.41992188 C82.09996323 56.65280976 81.73847282 59.263063 78.44799805 63.35742188 C73.617379 69.8860767 71.75081557 74.15845083 71.56396484 82.37988281 C71.33646496 91.5920697 71.33646496 91.5920697 69.3581543 94.43554688 C67.57299805 95.79492188 67.57299805 95.79492188 65.67456055 97.00585938 C60.48471474 100.83999036 57.28180298 108.30530496 55.76049805 114.41992188 C55.7329324 116.64197569 55.85238718 118.82732739 55.99145508 121.04492188 C56.60779827 131.20727201 56.60779827 131.20727201 54.05737305 134.85742188 C52.01094515 136.32967216 50.05307925 137.38872069 47.76049805 138.41992188 C47.10049805 139.07992187 46.44049805 139.73992187 45.76049805 140.41992188 C42.90048218 140.66043091 42.90048218 140.66043091 39.19946289 140.64697266 C38.17319007 140.64733426 38.17319007 140.64733426 37.12618446 140.64770317 C34.9078033 140.64620838 32.68975672 140.63096844 30.47143555 140.61523438 C29.10335451 140.61229445 27.73527123 140.6102537 26.3671875 140.60913086 C21.28992341 140.59863771 16.21270746 140.57071537 11.13549805 140.54492188 C-0.20825195 140.50367188 -11.55200195 140.46242188 -23.23950195 140.41992188 C-23.23950195 111.04992187 -23.23950195 81.67992187 -23.23950195 51.41992188 C2.57299805 51.10742188 2.57299805 51.10742188 10.71679688 51.03198242 C12.84205909 50.99970375 14.96730509 50.96633165 17.0925293 50.93164062 C18.19995483 50.92539673 19.30738037 50.91915283 20.44836426 50.91271973 C22.03143372 50.88280945 22.03143372 50.88280945 23.64648438 50.85229492 C25.02215324 50.83564034 25.02215324 50.83564034 26.4256134 50.81864929 C29.22256439 50.34101497 30.12031739 49.71001934 31.76049805 47.41992188 C32.42716471 43.91992188 32.42716471 43.91992188 31.76049805 40.41992188 C27.19770207 36.1844849 21.17943192 36.94317633 15.3347168 36.90820312 C14.23198929 36.89025192 13.12926178 36.87230072 11.99311829 36.85380554 C8.47811686 36.79971183 4.96325118 36.76580897 1.44799805 36.73242188 C-0.93808854 36.69924807 -3.32415723 36.66475836 -5.71020508 36.62890625 C-11.55318232 36.54398581 -17.39617714 36.47563179 -23.23950195 36.41992188 C-23.30339764 33.20126418 -23.34202545 29.98277133 -23.3762207 26.76367188 C-23.39454956 25.85584961 -23.41287842 24.94802734 -23.4317627 24.01269531 C-23.48430712 17.41912114 -22.8450743 12.45568505 -18.23950195 7.41992188 C-12.86689405 2.18507315 -7.45886294 0.04998344 0 0 Z " fill="#046598" transform="translate(62.239501953125,117.580078125)"/>
<path d="M0 0 C0.763125 0.45375 1.52625 0.9075 2.3125 1.375 C3.64242465 2.0484409 4.9752486 2.71622773 6.3125 3.375 C6.18230469 4.24382812 6.05210938 5.11265625 5.91796875 6.0078125 C4.9698513 12.35532015 4.9698513 12.35532015 6.18359375 18.50390625 C9.31117655 22.39146244 13.06286949 24.05216783 17.8984375 24.74609375 C30.09760738 25.03655018 40.79199463 20.80714313 51.04296875 14.4140625 C53.3125 13.375 53.3125 13.375 55.19921875 13.5 C58.20830718 14.74590722 61.05469681 16.23509012 63.9375 17.75 C73.98424315 22.85919672 84.36530202 26.91698081 95.74609375 23.68359375 C99.25317065 22.14562792 101.05692993 20.71576009 103.375 17.625 C104.84446507 12.53085443 103.99012382 8.40787145 102.3125 3.375 C103.52872171 2.64466339 104.76127756 1.94148646 106 1.25 C106.68449219 0.85554688 107.36898437 0.46109375 108.07421875 0.0546875 C111.17781669 -0.88776632 112.47090384 -0.10052836 115.3125 1.375 C128.93238957 9.67393593 138.47250096 21.0132639 143.3125 36.375 C143.3125 37.035 143.3125 37.695 143.3125 38.375 C142.09369141 38.82302979 140.87488281 39.27105957 139.61914062 39.73266602 C135.01755105 41.4256783 130.41837047 43.12515675 125.81982422 44.82641602 C123.84422011 45.55632138 121.86800062 46.28456366 119.89111328 47.01098633 C110.26489505 50.54939075 100.65214468 54.10196217 91.23046875 58.16015625 C90.5974585 58.4289711 89.96444824 58.69778595 89.31225586 58.9747467 C80.24869557 62.97377293 74.14506468 69.27265888 70.3125 78.375 C67.33198471 87.35500414 68.79076437 97.82971827 72.4375 106.30078125 C73.3125 108.375 73.3125 108.375 73.3125 110.375 C65.75443242 110.47737997 58.19654709 110.54687213 50.63793945 110.59472656 C48.07276731 110.61470027 45.50763986 110.64188877 42.94262695 110.67675781 C19.68616644 110.98473042 0.19924289 109.63216682 -17.48046875 92.609375 C-18.20878906 91.87203125 -18.93710937 91.1346875 -19.6875 90.375 C-20.32300781 89.76140625 -20.95851563 89.1478125 -21.61328125 88.515625 C-32.24967441 77.4783035 -36.08517194 63.44016376 -36.05883789 48.48242188 C-35.57933634 31.59441695 -26.57192249 18.91152356 -14.80078125 7.5546875 C-5.04273906 -1.17273001 -5.04273906 -1.17273001 0 0 Z " fill="#EE4F4F" transform="translate(50.6875,359.625)"/>
<path d="M0 0 C5.68033717 3.38172615 10.9314474 9.03370824 12.625 15.5 C13.34934676 18.82377554 14.01419266 22.15355552 14.625 25.5 C15.44291016 25.73783203 15.44291016 25.73783203 16.27734375 25.98046875 C24.0106349 28.37316225 32.27213612 31.24522686 36.625 38.5 C37.6875 40.8125 37.6875 40.8125 37.625 43.5 C36.56410307 45.47023715 35.37671663 47.2476775 34.046875 49.046875 C32.67263916 51.41780936 31.87937687 53.5558952 31.03613281 56.15332031 C30.63772186 57.37308563 30.63772186 57.37308563 30.23126221 58.61749268 C30.03119568 59.23872009 29.83112915 59.85994751 29.625 60.5 C29.07233963 60.50808685 28.51967926 60.51617371 27.95027161 60.52450562 C22.19114414 60.61065313 16.43235684 60.7101611 10.67358398 60.81738281 C8.52520466 60.85563385 6.37676213 60.89049347 4.22827148 60.921875 C1.13762854 60.96760937 -1.95258081 61.02559056 -5.04296875 61.0859375 C-6.00148239 61.09748871 -6.95999603 61.10903992 -7.94755554 61.12094116 C-14.40559778 61.21874963 -14.40559778 61.21874963 -20.375 63.5 C-22.67077243 66.01406311 -22.67077243 66.01406311 -24.375 68.5 C-28.80849514 66.77453162 -33.07417896 64.77250993 -37.36328125 62.71875 C-49.57054641 57.77884503 -63.41532416 57.84583458 -75.7578125 62.32421875 C-79.38453476 63.95353726 -81.24141541 65.08626465 -83.375 68.5 C-84.63183189 72.45669298 -85.57615374 76.42783249 -86.375 80.5 C-87.035 80.5 -87.695 80.5 -88.375 80.5 C-91.74341888 73.56767363 -93.79785762 67.23196275 -92.375 59.5 C-89.69652716 52.49554084 -85.66316573 48.36286267 -79.23046875 44.65625 C-77.22166138 43.62880675 -77.22166138 43.62880675 -76.375 41.5 C-76.34975936 40.07029813 -76.38495552 38.63923629 -76.453125 37.2109375 C-76.49179688 35.92123047 -76.49179688 35.92123047 -76.53125 34.60546875 C-76.5929672 32.80795539 -76.67067885 31.01090848 -76.765625 29.21484375 C-76.94803275 21.54231764 -74.63638449 17.07923128 -69.53125 11.4765625 C-63.78523656 6.7875987 -59.49278642 5.04543737 -51.99609375 5.16796875 C-48.43655069 5.61887957 -45.66409601 6.96462193 -42.4609375 8.515625 C-39.21077045 10.0494117 -36.99071879 10.69722102 -33.375 10.5 C-30.42877696 8.46627114 -27.95834207 5.9681931 -25.375 3.5 C-18.21553916 -2.69568726 -8.77824996 -3.80846253 0 0 Z " fill="#35890D" transform="translate(224.375,174.5)"/>
<path d="M0 0 C0.69843018 -0.00846954 1.39686035 -0.01693909 2.11645508 -0.02566528 C4.41075173 -0.04894133 6.70437381 -0.05005957 8.9987793 -0.04882812 C10.60532393 -0.05593667 12.21186604 -0.06363667 13.81840515 -0.07189941 C17.18158018 -0.08532357 20.54452057 -0.08692293 23.90771484 -0.08105469 C28.19830618 -0.07516799 32.48776228 -0.10571589 36.77813435 -0.14617157 C40.09579944 -0.17214135 43.41319478 -0.17491751 46.73094749 -0.17127991 C48.3116662 -0.17296327 49.89239843 -0.18252978 51.47301674 -0.20042419 C61.0531018 -0.29693348 68.98700561 -0.02418819 76.32807922 6.89807129 C81.91778876 13.1077113 82.03144539 18.78951842 81.88549805 26.73242188 C81.87647461 27.66376953 81.86745117 28.59511719 81.8581543 29.5546875 C81.83468068 31.84336547 81.80184533 34.1315086 81.76049805 36.41992188 C80.56811523 36.45730469 79.37573242 36.4946875 78.1472168 36.53320312 C76.58077905 36.59886219 75.0143742 36.66530956 73.44799805 36.73242188 C72.66231445 36.75498047 71.87663086 36.77753906 71.06713867 36.80078125 C70.30981445 36.83623047 69.55249023 36.87167969 68.7722168 36.90820312 C67.72747192 36.94747925 67.72747192 36.94747925 66.66162109 36.98754883 C64.18115185 37.55168277 63.33897878 38.44661065 61.76049805 40.41992188 C60.58475094 42.5198184 60.58475094 42.5198184 59.76049805 44.41992188 C55.51101476 44.59408103 51.2624465 44.70073314 47.01049805 44.79492188 C45.80393555 44.84519531 44.59737305 44.89546875 43.35424805 44.94726562 C40.05305314 45.00228554 37.01216257 44.9995063 33.76049805 44.41992188 C31.11987305 41.45898438 31.11987305 41.45898438 29.76049805 38.41992188 C26.84323971 37.44750243 24.87246366 37.26824369 21.83007812 37.21459961 C20.32886162 37.18468178 20.32886162 37.18468178 18.7973175 37.15415955 C17.7191124 37.13744705 16.64090729 37.12073456 15.5300293 37.10351562 C13.87169319 37.07234398 13.87169319 37.07234398 12.17985535 37.0405426 C8.64430014 36.97509855 5.10866998 36.91618584 1.57299805 36.85742188 C-0.82219203 36.81423178 -3.2173745 36.77061733 -5.61254883 36.7265625 C-11.48812037 36.6194224 -17.36376667 36.51764631 -23.23950195 36.41992188 C-23.30339764 33.20126418 -23.34202545 29.98277133 -23.3762207 26.76367188 C-23.39454956 25.85584961 -23.41287842 24.94802734 -23.4317627 24.01269531 C-23.48430712 17.41912114 -22.8450743 12.45568505 -18.23950195 7.41992188 C-12.86689405 2.18507315 -7.45886294 0.04998344 0 0 Z " fill="#A1DEF8" transform="translate(62.239501953125,117.580078125)"/>
<path d="M0 0 C38.94 0 77.88 0 118 0 C118 7.06827952 117.91792577 10.43838867 115.75 16.6875 C115.33234375 17.92886719 114.9146875 19.17023438 114.484375 20.44921875 C112.93219636 24.16219345 111.70742207 27.00426676 109 30 C105.89844857 30.69620265 103.78012884 30.95549217 100.6875 30.875 C99.9229248 30.86710449 99.15834961 30.85920898 98.37060547 30.85107422 C94.69310704 30.66226173 92.52837417 30.35707478 89.43359375 28.265625 C87.73892711 26.25984245 86.39733207 24.21615086 85 22 C81.52728445 19.6848563 80.07260203 19.74546237 76 20 C74.515 20.495 74.515 20.495 73 21 C72.67 23.97 72.34 26.94 72 30 C67.31799986 30.31922728 65.65778441 29.74333831 62 27 C58.95769177 26.49989476 58.95769177 26.49989476 56 27 C55.54625 27.495 55.0925 27.99 54.625 28.5 C52.5465304 30.41858732 51.58798122 30.20208221 48.8125 30.1875 C46.9253125 30.0946875 46.9253125 30.0946875 45 30 C44.505 25.545 44.505 25.545 44 21 C40.58724076 20.13326749 38.43460099 19.60230936 35 20 C31.03295675 22.5420475 27.13545943 25.72908115 25 30 C10.84107411 31.19793498 10.84107411 31.19793498 6.96484375 28.67578125 C5.54110354 26.49210254 4.77925406 24.4906302 4 22 C3.42572266 20.46085937 3.42572266 20.46085937 2.83984375 18.890625 C0.45339913 11.99824935 0 7.63534053 0 0 Z " fill="#EA4E4E" transform="translate(214,250)"/>
<path d="M0 0 C19.8 0 39.6 0 60 0 C59.67 2.64 59.34 5.28 59 8 C57.948125 8.226875 56.89625 8.45375 55.8125 8.6875 C51.83172145 9.80179501 49.71771064 11.88262603 47 15 C46.67 15.33 46.34 15.66 46 16 C45.74057698 19.49152861 45.8102906 23.00003044 45.8125 26.5 C45.81185547 27.5319751 45.81121094 28.5639502 45.81054688 29.62719727 C45.87112483 38.53146888 46.67746967 47.20281166 48 56 C46.70707031 56.02578125 45.41414063 56.0515625 44.08203125 56.078125 C23.8273766 56.61723675 23.8273766 56.61723675 7 67 C5.49423414 69.26794364 4.2764298 71.58896594 3 74 C1.515 74.495 1.515 74.495 0 75 C0 50.25 0 25.5 0 0 Z " fill="#8CC1D8" transform="translate(39,272)"/>
<path d="M0 0 C2.0245738 1.93254772 3.42105792 3.63158688 5 6 C4.88056946 7.9967041 4.88056946 7.9967041 4 10 C2.23625183 11.55505371 2.23625183 11.55505371 -0.08911133 13.05273438 C-0.95703812 13.62012329 -1.8249649 14.18751221 -2.7191925 14.77209473 C-4.13629768 15.67381409 -4.13629768 15.67381409 -5.58203125 16.59375 C-6.54775558 17.22228882 -7.51347992 17.85082764 -8.50846863 18.49841309 C-11.60276583 20.51006763 -14.70692648 22.50580645 -17.8125 24.5 C-20.90578161 26.49648746 -23.99681202 28.49629948 -27.08439636 30.50158691 C-29.00725235 31.74936358 -30.93366221 32.99168455 -32.8639679 34.22790527 C-34.1800428 35.07898865 -34.1800428 35.07898865 -35.52270508 35.94726562 C-36.2924617 36.44150024 -37.06221832 36.93573486 -37.8553009 37.44494629 C-40.18605327 39.13490136 -42.11879048 40.81756685 -44 43 C-44.66676878 46.54250051 -44.66676878 46.54250051 -44 50 C-42.48105194 52.09764165 -42.48105194 52.09764165 -40 53 C-35.7945246 53.22468063 -32.21994896 52.72013531 -28.15234375 51.68359375 C-20.34405968 49.79708045 -12.47413317 48.42250932 -4.5625 47.0625 C-1.56096388 46.54170757 1.44020662 46.0188213 4.44140625 45.49609375 C5.17580933 45.36855713 5.9102124 45.24102051 6.66687012 45.10961914 C13.97291607 43.8380425 21.26637349 42.49865136 28.55249023 41.11743164 C29.76014038 40.89301392 29.76014038 40.89301392 30.9921875 40.6640625 C31.67651855 40.53467285 32.36084961 40.4052832 33.06591797 40.27197266 C35 40 35 40 39 40 C39.495 44.455 39.495 44.455 40 49 C35.6136896 49.86801179 31.2265445 50.73166556 26.83865356 51.59164429 C25.23898306 51.90533268 23.63943431 52.21964258 22.04000854 52.53457642 C12.41150878 54.42781057 2.77563109 56.23692459 -6.8984375 57.8828125 C-8.67765544 58.18870646 -10.45687097 58.4946145 -12.23608398 58.80053711 C-14.82473089 59.24487355 -17.41372521 59.68363108 -20.00613403 60.10549927 C-22.42186903 60.49861909 -24.83393122 60.90982609 -27.24609375 61.32421875 C-27.95917694 61.43448395 -28.67226013 61.54474915 -29.4069519 61.65835571 C-33.92276984 62.45565067 -36.76865968 63.72411595 -40 67 C-40.83333333 70 -40.83333333 70 -40 73 C-36.36204118 76.56755482 -33.22518367 77.73450139 -28.28515625 78.74609375 C-27.64070557 78.88240707 -26.99625488 79.0187204 -26.33227539 79.15916443 C-24.24477007 79.5979965 -22.15388533 80.01759205 -20.0625 80.4375 C-18.62328911 80.73752867 -17.18440613 81.03913446 -15.74584961 81.34228516 C-12.86421503 81.94862517 -9.98147101 82.54913853 -7.09765625 83.14501953 C-1.40533981 84.32632142 4.26765524 85.59061739 9.9375 86.875 C10.85329834 87.07794678 11.76909668 87.28089355 12.71264648 87.48999023 C18.88237886 88.88237886 18.88237886 88.88237886 20 90 C20.14177857 93.00003445 20.04228771 95.99757235 20 99 C8.09984034 98.62914808 -3.49972437 96.28395079 -15.17822266 94.13427734 C-18.65014562 93.49537269 -22.12370328 92.86604522 -25.59765625 92.23828125 C-27.80739143 91.83648577 -30.01703051 91.43416137 -32.2265625 91.03125 C-33.2639859 90.84268433 -34.3014093 90.65411865 -35.37026978 90.45983887 C-36.8085463 90.19451355 -36.8085463 90.19451355 -38.27587891 89.92382812 C-39.11825104 89.76918091 -39.96062317 89.61453369 -40.82852173 89.4552002 C-43 89 -43 89 -46 88 C-46.16604736 87.04859131 -46.33209473 86.09718262 -46.50317383 85.11694336 C-47.13316436 81.51017359 -47.76559584 77.90383506 -48.39868164 74.29760742 C-48.66983201 72.75117047 -48.94036268 71.2046247 -49.21020508 69.65795898 C-49.60325667 67.40578066 -49.99827626 65.1539606 -50.39453125 62.90234375 C-50.52538116 62.15769867 -50.65623108 61.41305359 -50.79104614 60.64584351 C-51.43890699 57.00129787 -52.11776417 53.36749718 -52.86865234 49.74267578 C-53.00800705 49.06926651 -53.14736176 48.39585724 -53.29093933 47.70204163 C-53.6730219 45.87890646 -54.06408762 44.05766042 -54.45581055 42.23657227 C-54.99781992 39.01296606 -55.36333897 36.25333887 -55 33 C-53.5234375 31.39160156 -53.5234375 31.39160156 -51.375 30.140625 C-50.55 29.64498047 -49.725 29.14933594 -48.875 28.63867188 C-47.92625 28.09791016 -46.9775 27.55714844 -46 27 C-44.37347248 26.02826941 -42.74695517 25.05652165 -41.12068176 24.08436584 C-38.09290003 22.28489936 -35.04520478 20.51975819 -32 18.75 C-30.70922217 17.99711602 -29.41861454 17.24394017 -28.12817383 16.49047852 C-25.58820249 15.00769255 -23.04755059 13.52608432 -20.50634766 12.04541016 C-15.89245429 9.35570565 -11.28895395 6.64841837 -6.6875 3.9375 C-5.35807528 3.1549439 -4.0286485 2.3723913 -2.69921875 1.58984375 C-1.80847656 1.06519531 -0.91773438 0.54054688 0 0 Z " fill="#85C345" transform="translate(457,342)"/>
<path d="M0 0 C0.763125 0.45375 1.52625 0.9075 2.3125 1.375 C3.075625 1.74625 3.83875 2.1175 4.625 2.5 C5.181875 2.78875 5.73875 3.0775 6.3125 3.375 C5.40163615 7.74714648 4.28368313 10.6739051 1.5 14.1875 C-8.9370654 27.44333488 -12.06007058 42.88890224 -10.6875 59.375 C-8.42766506 77.69580471 1.66869735 91.69604297 15.609375 103.1328125 C18.24247609 105.05328532 20.99837776 106.7467955 23.80859375 108.39453125 C24.30488281 108.71808594 24.80117187 109.04164063 25.3125 109.375 C25.3125 109.705 25.3125 110.035 25.3125 110.375 C10.38872041 110.85210293 -3.92932393 104.67693005 -15.0625 94.9375 C-16.62249324 93.43547097 -18.16567085 91.91568367 -19.6875 90.375 C-20.32300781 89.76140625 -20.95851563 89.1478125 -21.61328125 88.515625 C-32.24967441 77.4783035 -36.08517194 63.44016376 -36.05883789 48.48242188 C-35.57933634 31.59441695 -26.57192249 18.91152356 -14.80078125 7.5546875 C-5.04273906 -1.17273001 -5.04273906 -1.17273001 0 0 Z " fill="#D44747" transform="translate(50.6875,359.625)"/>
<path d="M0 0 C16.17 0 32.34 0 49 0 C49 0.33 49 0.66 49 1 C40.75 1 32.5 1 24 1 C24 29.71 24 58.42 24 88 C38.85 88 53.7 88 69 88 C69 88.33 69 88.66 69 89 C46.23 89 23.46 89 0 89 C0 59.63 0 30.26 0 0 Z " fill="#035984" transform="translate(39,169)"/>
<path d="M0 0 C0.80695313 -0.01160156 1.61390625 -0.02320313 2.4453125 -0.03515625 C7.77040937 -0.00922234 11.8040006 0.53162242 16.375 3.375 C17.29296875 6.0859375 17.29296875 6.0859375 17.375 9.375 C17.45363281 10.58414063 17.53226562 11.79328125 17.61328125 13.0390625 C17.88571535 27.57844034 14.42616778 36.81767363 5.375 48.375 C4.88 49.365 4.88 49.365 4.375 50.375 C2.5197249 50.90758686 0.63865317 51.35164884 -1.25 51.75 C-5.10570308 52.63942497 -8.3240123 53.527341 -11.6875 55.625 C-12.656875 56.2025 -13.62625 56.78 -14.625 57.375 C-19.01658329 55.9111389 -19.50447433 53.39668662 -21.625 49.375 C-21.11525635 48.87049316 -20.6055127 48.36598633 -20.08032227 47.84619141 C-17.78011905 45.56672966 -15.48377123 43.28342239 -13.1875 41 C-12.38505859 40.2059375 -11.58261719 39.411875 -10.75585938 38.59375 C-9.99208984 37.83320313 -9.22832031 37.07265625 -8.44140625 36.2890625 C-7.73443604 35.5873291 -7.02746582 34.8855957 -6.29907227 34.16259766 C-4.06430635 31.77628352 -3.65570507 30.73578461 -3.375 27.4375 C-3.40174522 24.46255559 -3.40174522 24.46255559 -4.6875 22.5 C-6.9716752 21.17370472 -8.90031893 20.69491603 -11.54516602 20.73730469 C-17.34398214 22.51527249 -21.62880491 29.31386606 -25.50976562 33.70898438 C-31.52632978 40.18127539 -31.52632978 40.18127539 -34.91650391 40.77905273 C-38.40371588 40.37710859 -41.64972412 39.23454743 -44.625 37.375 C-44.44064849 27.78872124 -39.27223367 19.85361987 -32.8125 13 C-23.41958488 4.27800739 -12.76222494 -0.1852581 0 0 Z " fill="#87C645" transform="translate(343.625,164.625)"/>
<path d="M0 0 C5.18074857 2.94591586 8.43547721 6.57090891 11.1875 11.8125 C11.91796875 14.92578125 11.91796875 14.92578125 12.375 18.125 C12.53355469 19.19363281 12.69210937 20.26226562 12.85546875 21.36328125 C12.96503906 22.17152344 13.07460938 22.97976562 13.1875 23.8125 C13.91195312 23.98265625 14.63640625 24.1528125 15.3828125 24.328125 C24.15243619 26.52637734 29.82376973 29.45652706 35.1875 36.8125 C36.79390626 40.51959138 36.25370535 44.84017905 36.1875 48.8125 C35.17429687 48.86857422 35.17429687 48.86857422 34.140625 48.92578125 C33.24859375 48.99152344 32.3565625 49.05726563 31.4375 49.125 C30.55578125 49.18300781 29.6740625 49.24101562 28.765625 49.30078125 C25.781043 49.89317556 24.34965963 50.68442848 22.1875 52.8125 C21.8575 54.1325 21.5275 55.4525 21.1875 56.8125 C11.6175 56.8125 2.0475 56.8125 -7.8125 56.8125 C-8.4725 55.1625 -9.1325 53.5125 -9.8125 51.8125 C-11.72563095 50.58551338 -11.72563095 50.58551338 -13.9375 50 C-14.66195313 49.76667969 -15.38640625 49.53335938 -16.1328125 49.29296875 C-16.68710937 49.13441406 -17.24140625 48.97585938 -17.8125 48.8125 C-17.46316406 47.8225 -17.11382812 46.8325 -16.75390625 45.8125 C-13.30071414 36.02831054 -13.30071414 36.02831054 -11.8125 25.8125 C-11.750625 24.68585938 -11.68875 23.55921875 -11.625 22.3984375 C-11.11471996 15.34185188 -11.11471996 15.34185188 -13.66015625 9 C-15.87923163 6.74467838 -18.02259489 5.28494992 -20.8125 3.8125 C-14.96890899 -2.43409729 -7.93160097 -2.47049866 0 0 Z " fill="#358A0E" transform="translate(357.8125,231.1875)"/>
<path d="M0 0 C18.48 0 36.96 0 56 0 C56 10.56 56 21.12 56 32 C37.52 32 19.04 32 0 32 C0 21.44 0 10.88 0 0 Z " fill="#046699" transform="translate(64,41)"/>
<path d="M0 0 C0.66386719 0.42152344 1.32773438 0.84304688 2.01171875 1.27734375 C2.89472656 1.82519531 3.77773437 2.37304688 4.6875 2.9375 C5.99267578 3.75541016 5.99267578 3.75541016 7.32421875 4.58984375 C12.62891571 7.38545777 17.97723227 7.13907203 23.8293457 7.11352539 C25.14717293 7.11374443 25.14717293 7.11374443 26.49162292 7.1139679 C29.38636776 7.11327299 32.2810477 7.10550036 35.17578125 7.09765625 C37.18645696 7.09579057 39.19713312 7.09436737 41.20780945 7.09336853 C46.49318706 7.08955517 51.77853708 7.07973495 57.06390381 7.06866455 C62.45991645 7.05842505 67.85593356 7.05386547 73.25195312 7.04882812 C83.83464752 7.03811163 94.41732146 7.02104937 105 7 C105.84681133 12.08086796 106.09038099 16.84828377 106 22 C93.97799661 22.09271225 81.95607839 22.16377146 69.93379021 22.20724869 C64.35123942 22.22811644 58.76893337 22.25641969 53.18652344 22.30175781 C47.79838788 22.34524388 42.41048761 22.36914322 37.02219009 22.37950897 C34.96728944 22.38689533 32.91240155 22.40131919 30.85760117 22.42292023 C27.97753906 22.45199056 25.09844712 22.45595444 22.21826172 22.45410156 C20.94619118 22.47567322 20.94619118 22.47567322 19.64842224 22.49768066 C12.83055578 22.45027196 9.39445299 20.06793668 4.25 15.625 C0.07009289 10.7484417 -0.25094214 6.27355359 0 0 Z " fill="#DE841A" transform="translate(134,448)"/>
<path d="M0 0 C7.42612859 7.38249416 12.52997392 14.64986962 14.625 25.125 C13.80570488 28.89375755 11.94804857 31.13495607 9.5078125 34.0703125 C8.02410372 35.96915224 7.00032208 37.8148304 6 40 C4.73542969 39.96519531 3.47085938 39.93039063 2.16796875 39.89453125 C0.50782577 39.86639323 -1.15233156 39.83909309 -2.8125 39.8125 C-3.64587891 39.78736328 -4.47925781 39.76222656 -5.33789062 39.73632812 C-6.14033203 39.72666016 -6.94277344 39.71699219 -7.76953125 39.70703125 C-8.50792236 39.6913208 -9.24631348 39.67561035 -10.00708008 39.65942383 C-12.58000732 40.09911922 -13.44166869 40.9388447 -15 43 C-15.41447549 46.2467247 -15.40627033 48.23353123 -13.86328125 51.14453125 C-11.2750161 53.72194414 -9.40877649 53.59532144 -5.8125 53.75 C-4.72582031 53.80671875 -3.63914062 53.8634375 -2.51953125 53.921875 C-1.68808594 53.94765625 -0.85664063 53.9734375 0 54 C-0.33 55.98 -0.66 57.96 -1 60 C-3.97 60.99 -6.94 61.98 -10 63 C-10.73089844 62.03900391 -10.73089844 62.03900391 -11.4765625 61.05859375 C-17.05404033 54.25407079 -22.0620254 51.06363385 -30.05859375 47.86328125 C-33 46 -33 46 -34.47265625 42.60546875 C-34.98022432 39.13520704 -34.96991589 37.30534819 -34 34 C-32.588974 32.10795593 -32.588974 32.10795593 -30.76538086 30.3112793 C-29.74443581 29.29078743 -29.74443581 29.29078743 -28.7028656 28.24967957 C-27.96431839 27.5317775 -27.22577118 26.81387543 -26.46484375 26.07421875 C-25.71159317 25.32662796 -24.95834259 24.57903717 -24.18226624 23.80879211 C-21.77657387 21.42547263 -19.35734196 19.05644341 -16.9375 16.6875 C-15.30312464 15.07318825 -13.66964972 13.45796433 -12.03710938 11.84179688 C-8.03512401 7.8838911 -4.02193514 3.93762606 0 0 Z " fill="#E84D4D" transform="translate(284,143)"/>
<path d="M0 0 C11.88 0 23.76 0 36 0 C35.67 2.31 35.34 4.62 35 7 C33.948125 7.226875 32.89625 7.45375 31.8125 7.6875 C27.83172145 8.80179501 25.71771064 10.88262603 23 14 C22.67 14.33 22.34 14.66 22 15 C21.74057698 18.49152861 21.8102906 22.00003044 21.8125 25.5 C21.81185547 26.5319751 21.81121094 27.5639502 21.81054688 28.62719727 C21.87139037 37.57049923 22.74667401 46.14838517 24 55 C16.08 55.33 8.16 55.66 0 56 C0 37.52 0 19.04 0 0 Z " fill="#A0DDF7" transform="translate(63,273)"/>
<path d="M0 0 C5.38492218 1.77353239 8.69602864 1.9102895 13.9765625 -0.18359375 C25.77327206 -4.070839 40.72933928 -4.03700565 52.2890625 0.75390625 C52.7840625 1.74390625 52.7840625 1.74390625 53.2890625 2.75390625 C48.6101658 4.76038321 43.88483516 5.84931665 38.93359375 6.97265625 C36.16194953 7.56248651 36.16194953 7.56248651 34.2890625 9.75390625 C33.70803899 13.38530317 33.71279624 15.79402088 35.6328125 18.9921875 C37.12531335 20.97397519 38.65802447 22.88500851 40.2890625 24.75390625 C30.06956852 24.75390625 20.32091457 19.40941735 12.17578125 13.4921875 C8.81615121 11.46913558 7.14285305 11.16181444 3.2890625 11.75390625 C1.00453247 13.04012516 1.00453247 13.04012516 -1.0859375 14.87890625 C-5.51588148 18.18956454 -9.88230809 20.27475199 -15.0234375 22.19140625 C-16.04606689 22.5793335 -16.04606689 22.5793335 -17.08935547 22.97509766 C-20.73576171 24.28385699 -23.83253525 25.0614778 -27.7109375 24.75390625 C-26.73227412 23.60764303 -25.75299163 22.46190837 -24.7734375 21.31640625 C-24.22816406 20.67832031 -23.68289062 20.04023438 -23.12109375 19.3828125 C-22.34298055 18.48399476 -21.55157222 17.59454097 -20.7109375 16.75390625 C-20.32807475 13.30814148 -20.16900827 11.46197437 -22.31640625 8.65625 C-25.28550405 6.29743984 -27.62591752 5.82401157 -31.3359375 5.12890625 C-37.51649306 3.94835069 -37.51649306 3.94835069 -39.7109375 1.75390625 C-28.31387927 -4.34219466 -12.12791594 -4.19812475 0 0 Z " fill="#34880D" transform="translate(98.7109375,345.24609375)"/>
<path d="M0 0 C7.29772626 5.74936 10.13140506 11.84392352 12.375 20.87109375 C12.375 21.86109375 12.375 22.85109375 12.375 23.87109375 C8.46782058 24.70175394 5.27165391 24.82528041 1.375 23.87109375 C-2.3088785 21.3032804 -5.22322037 17.93320862 -8.19140625 14.59375 C-11.15688638 11.27602985 -11.65349853 10.9417484 -16.0625 10.62109375 C-19.48275793 10.59835716 -19.48275793 10.59835716 -21.5625 11.99609375 C-23.11828953 14.74160469 -22.9418479 16.76598429 -22.625 19.87109375 C-21.965 21.19109375 -21.305 22.51109375 -20.625 23.87109375 C-26.235 23.87109375 -31.845 23.87109375 -37.625 23.87109375 C-40.35635689 14.19753808 -43.10582751 3.4437707 -38.625 -6.12890625 C-27.41613426 -12.73926297 -9.67949642 -6.76720607 0 0 Z " fill="#87C646" transform="translate(192.625,256.12890625)"/>
<path d="M0 0 C5.27237889 3.56871904 9.10164585 8.57878593 11.296875 14.5546875 C11.51920679 17.2770167 11.43858941 19.81487552 11.296875 22.5546875 C10.35585938 23.00199219 9.41484375 23.44929688 8.4453125 23.91015625 C7.18728625 24.52039287 5.92948571 25.13109497 4.671875 25.7421875 C4.05441406 26.03416016 3.43695313 26.32613281 2.80078125 26.62695312 C-0.46834754 28.22710564 -3.19072021 29.86355548 -5.9140625 32.29296875 C-8.703125 34.5546875 -8.703125 34.5546875 -12.703125 34.5546875 C-12.92226563 33.93722656 -13.14140625 33.31976563 -13.3671875 32.68359375 C-16.95366474 23.10507526 -20.8064518 16.08484446 -29.75 10.74609375 C-31.703125 9.5546875 -31.703125 9.5546875 -33.703125 7.5546875 C-25.39267733 -3.95208619 -12.19714721 -6.70464303 0 0 Z " fill="#FAC101" transform="translate(396.703125,209.4453125)"/>
<path d="M0 0 C0.79792969 -0.00773438 1.59585937 -0.01546875 2.41796875 -0.0234375 C10.27910815 0.00281004 10.27910815 0.00281004 12.875 2.25 C16.44531558 9.99135093 16.12405299 20.4188203 13.5 28.4375 C12.44219877 31.14611224 11.18197354 33.63605291 9.875 36.25 C3.275 36.25 -3.325 36.25 -10.125 36.25 C-4.125 29.25 -4.125 29.25 -3.125 28.25 C-2.57925334 23.41037282 -2.57925334 23.41037282 -4.6875 19.25 C-8.18414889 17.81547738 -10.50704804 18.32906677 -14.125 19.25 C-15.91885992 20.7079186 -15.91885992 20.7079186 -17.125 22.25 C-17.785 22.25 -18.445 22.25 -19.125 22.25 C-21.45833333 17.58333333 -23.79166667 12.91666667 -26.125 8.25 C-24.42021409 7.28537025 -22.71098588 6.32858946 -21 5.375 C-20.04867188 4.84132812 -19.09734375 4.30765625 -18.1171875 3.7578125 C-11.91553518 0.63269789 -6.8295339 -0.06684699 0 0 Z " fill="#87C645" transform="translate(426.125,243.75)"/>
<path d="M0 0 C80.85 0 161.7 0 245 0 C245 0.33 245 0.66 245 1 C172.07 1 99.14 1 24 1 C24.57564417 11.36159508 25.15883279 21.66565994 26 32 C29.96 32 33.92 32 38 32 C38 32.33 38 32.66 38 33 C30.08 33.33 22.16 33.66 14 34 C13.67 31.69 13.34 29.38 13 27 C11.87024707 24.99355229 11.87024707 24.99355229 10 24 C7.71669899 23.63853543 7.71669899 23.63853543 5.3125 23.8125 C4.50425781 23.83957031 3.69601563 23.86664063 2.86328125 23.89453125 C1.94095703 23.94673828 1.94095703 23.94673828 1 24 C0.09384605 15.92552104 0 8.18674326 0 0 Z " fill="#D3D3D3" transform="translate(99,295)"/>
<path d="M0 0 C1.06933022 -0.00065712 1.06933022 -0.00065712 2.16026306 -0.00132751 C4.4979162 0.00074924 6.83483668 0.02402637 9.17236328 0.04760742 C10.80046192 0.05320737 12.42856563 0.05747558 14.05667114 0.06047058 C18.32782106 0.07188805 22.59866166 0.10132824 26.86968994 0.13458252 C31.23355933 0.16535046 35.59747903 0.17899025 39.96142578 0.1940918 C48.51365057 0.2262012 57.06562462 0.27735967 65.61767578 0.34057617 C65.61767578 0.67057617 65.61767578 1.00057617 65.61767578 1.34057617 C64.56317986 1.33605186 64.56317986 1.33605186 63.48738098 1.33143616 C56.85158419 1.30916063 50.21678195 1.32041887 43.58110523 1.3690424 C40.16972949 1.39286488 36.75932948 1.40386542 33.34790039 1.38525391 C29.42297507 1.36440914 25.49951829 1.39988771 21.57470703 1.43823242 C20.35370804 1.4239772 19.13270905 1.40972198 17.87471008 1.39503479 C11.89966178 1.30992305 11.89966178 1.30992305 6.75067139 3.86199951 C5.44305505 5.64863608 4.49245051 7.31151258 3.61767578 9.34057617 C3.19744141 10.2506543 2.77720703 11.16073242 2.34423828 12.09838867 C1.2931816 16.78858784 1.14909269 21.42299186 0.99267578 26.21557617 C0.86892578 29.55682617 0.74517578 32.89807617 0.61767578 36.34057617 C-7.30232422 36.34057617 -15.22232422 36.34057617 -23.38232422 36.34057617 C-24.13433461 13.62986226 -24.13433461 13.62986226 -18.38232422 7.34057617 C-12.94235937 2.0400976 -7.55118288 -0.03919299 0 0 Z " fill="#8BBFD6" transform="translate(62.38232421875,117.659423828125)"/>
<path d="M0 0 C0.33 0 0.66 0 1 0 C1.66 5.94 2.32 11.88 3 18 C-16.8 18 -36.6 18 -57 18 C-59 9 -59 9 -59 4 C-39.53 4 -20.06 4 0 4 C0 2.68 0 1.36 0 0 Z " fill="#DD841A" transform="translate(313,452)"/>
<path d="M0 0 C4.06983217 1.60080065 6.81971798 4.29000649 9.6953125 7.50390625 C10.1903125 7.99890625 10.1903125 7.99890625 10.6953125 8.50390625 C10.24719929 14.55343455 10.24719929 14.55343455 8.5703125 17.44140625 C5.54760149 19.15427582 3.08945945 18.86118488 -0.3046875 18.50390625 C-1.26375 17.76140625 -1.26375 17.76140625 -2.2421875 17.00390625 C-5.58191554 14.57501313 -8.23985089 15.11677895 -12.3046875 15.50390625 C-14.89188741 17.49782391 -15.82813839 19.4347519 -16.8046875 22.50390625 C-17.78321116 25.57926632 -18.75988593 27.45931138 -21.3046875 29.50390625 C-24.75650593 30.01800687 -26.61497876 29.88506108 -29.6796875 28.19140625 C-32.3399578 23.79172845 -32.0870214 19.49561191 -31.3046875 14.50390625 C-26.33915624 1.11756621 -13.01520256 -2.8015775 0 0 Z " fill="#010300" transform="translate(189.3046875,192.49609375)"/>
<path d="M0 0 C5.2966837 2.8891002 10.1148568 6.12369304 12.4375 11.875 C12.96233599 17.85813027 12.96233599 17.85813027 11.4375 20.8125 C8.16771888 22.54957122 4.96954604 22.76496436 1.4375 21.875 C-0.29723712 19.93374656 -1.9670651 17.93227132 -3.5625 15.875 C-7.24385956 14.77059213 -8.91196515 14.65815505 -12.5625 15.875 C-13.24382451 17.53572849 -13.90992127 19.202767 -14.5625 20.875 C-18.05374017 23.20249345 -19.45472251 23.37799316 -23.5625 22.875 C-25.9375 21.3125 -25.9375 21.3125 -27.5625 18.875 C-28.43971584 14.31347765 -27.69591908 11.526881 -25.1875 7.75 C-18.61235265 -0.22081542 -9.79517418 -3.0932129 0 0 Z " fill="#010200" transform="translate(225.5625,211.125)"/>
<path d="M0 0 C6.00889679 3.0526481 9.73777989 7.54168056 13.125 13.3125 C13.125 14.3025 13.125 15.2925 13.125 16.3125 C-2.385 16.3125 -17.895 16.3125 -33.875 16.3125 C-30.09708609 7.49736754 -27.23241118 3.18425342 -18.62109375 -0.76953125 C-12.23075704 -2.90570355 -6.21341618 -2.51421815 0 0 Z " fill="#F3901D" transform="translate(302.875,218.6875)"/>
<path d="M0 0 C18.48 0 36.96 0 56 0 C56 10.56 56 21.12 56 32 C37.52 32 19.04 32 0 32 C0 21.44 0 10.88 0 0 Z M13 1 C13 10.9 13 20.8 13 31 C26.86 31 40.72 31 55 31 C55 21.1 55 11.2 55 1 C41.14 1 27.28 1 13 1 Z " fill="#03527B" transform="translate(64,41)"/>
<path d="M0 0 C11.55 0 23.1 0 35 0 C35 4.95 35 9.9 35 15 C23.45 15 11.9 15 0 15 C0 10.05 0 5.1 0 0 Z " fill="#47C0E0" transform="translate(74,88)"/>
<path d="M0 0 C0.33 0 0.66 0 1 0 C1.56030246 6.77343422 1.50327832 11.73104761 -2.57421875 17.34765625 C-5.88043574 21.1792447 -9.21694334 23.43488132 -14 25 C-18.35140556 25.2550648 -22.6361174 25.08815924 -27 25 C-27.66 20.38 -28.32 15.76 -29 11 C-27.94941406 10.97421875 -26.89882813 10.9484375 -25.81640625 10.921875 C-16.20679005 10.57511857 -9.14362668 9.42908445 -1 4 C-0.27617533 1.94074861 -0.27617533 1.94074861 0 0 Z " fill="#DA821A" transform="translate(399,445)"/>
<path d="M0 0 C0.33 0 0.66 0 1 0 C1.34018163 1.70698282 1.6718089 3.41567133 2 5.125 C2.185625 6.07632812 2.37125 7.02765625 2.5625 8.0078125 C3 11 3 11 3 17 C-5.58 17 -14.16 17 -23 17 C-23.66 12.38 -24.32 7.76 -25 3 C-16.75 3 -8.5 3 0 3 C0 2.01 0 1.02 0 0 Z " fill="#DB821A" transform="translate(354,453)"/>
<path d="M0 0 C1.13888672 -0.02320313 1.13888672 -0.02320313 2.30078125 -0.046875 C6.03970241 -0.02068291 7.92550103 0.07630701 11 2.34375 C13.05203061 5.293544 13.08657977 6.98052138 12.5 10.5 C10.6329009 12.80275556 9.14352259 14.17823871 6.5 15.5 C-5.77092727 16.58867542 -5.77092727 16.58867542 -10.875 13.375 C-12.78955397 9.98771221 -13.23213349 8.32336376 -12.5 4.5 C-9.10587147 -0.35757096 -5.45375947 -0.11111225 0 0 Z " fill="#080202" transform="translate(234.5,253.5)"/>
<path d="M0 0 C0.7115625 -0.00708984 1.423125 -0.01417969 2.15625 -0.02148438 C5.30225085 0.01666675 7.65940477 0.26073539 10.46875 1.71875 C12.57869221 4.08705248 12.48372114 6.31890911 12.53125 9.40234375 C11.73529366 12.45155886 10.53571419 13.58150374 8 15.4375 C4.50390625 16.00390625 4.50390625 16.00390625 0.5625 16 C-1.38462891 16.03287109 -1.38462891 16.03287109 -3.37109375 16.06640625 C-7.81216156 15.29674864 -9.26900996 13.95468415 -12 10.4375 C-12.5625 7.375 -12.5625 7.375 -12 4.4375 C-8.74426788 -0.13543672 -5.23863121 -0.14709925 0 0 Z " fill="#070202" transform="translate(311,253.5625)"/>
<path d="M0 0 C2.375 1.5625 2.375 1.5625 4 4 C4.48673777 8.21177174 4.46634641 10.29761351 2.09375 13.87109375 C-5.77429391 21.65619142 -5.77429391 21.65619142 -10.4375 21.8125 C-14 21 -14 21 -16 20 C-17.73136847 16.53726307 -18.11837429 13.65042393 -17 10 C-12.2896796 3.97495162 -7.97971448 -0.79797145 0 0 Z " fill="#030101" transform="translate(284,155)"/>
<path d="M0 0 C3.71945839 1.46339347 6.30133592 3.91030538 9.21875 6.5625 C10.9418729 8.10666857 10.9418729 8.10666857 13.15625 8.8125 C14.06890625 9.4003125 14.06890625 9.4003125 15 10 C15.33 11.98 15.66 13.96 16 16 C7.42 16 -1.16 16 -10 16 C-7.74468085 6.9787234 -7.74468085 6.9787234 -5 4.0625 C-4.484375 3.49660156 -3.96875 2.93070312 -3.4375 2.34765625 C-2 1 -2 1 0 0 Z " fill="#FAC101" transform="translate(123,264)"/>
</svg>
