<?xml version="1.0" encoding="UTF-8"?>
<svg version="1.1" xmlns="http://www.w3.org/2000/svg" width="512" height="512">
<path d="M0 0 C0.6592309 -0.00235223 1.3184618 -0.00470446 1.9976694 -0.00712797 C4.22223977 -0.01382224 6.4467518 -0.01335962 8.67133141 -0.01294994 C10.27617939 -0.01624831 11.88102654 -0.01997382 13.48587263 -0.02409142 C17.90833409 -0.03412275 22.33078199 -0.03783004 26.75325322 -0.04048073 C31.5182492 -0.04438045 36.28323439 -0.05395904 41.0482235 -0.0626936 C52.56213133 -0.08246782 64.07604006 -0.09252561 75.58996063 -0.10142139 C81.01010417 -0.10580288 86.43024672 -0.11117006 91.85038948 -0.11641026 C109.86504539 -0.13342379 127.87970069 -0.14791826 145.8943634 -0.155159 C150.57061959 -0.15706894 155.24687577 -0.15898926 159.92313194 -0.16094494 C161.66655564 -0.16167055 161.66655564 -0.16167055 163.44520001 -0.16241082 C182.27595118 -0.17071217 201.10663884 -0.19605033 219.93736227 -0.22852562 C239.26410407 -0.26158497 258.59081359 -0.27960676 277.91758382 -0.28280324 C288.77140831 -0.28496942 299.6251402 -0.29373384 310.47893715 -0.31926441 C319.72214479 -0.34095607 328.96523735 -0.34902939 338.20846756 -0.33929763 C342.9245139 -0.33474844 347.64032273 -0.33667514 352.35633659 -0.35605907 C356.67571063 -0.37365937 360.99467334 -0.37271855 365.31405155 -0.35716178 C366.87468195 -0.35478094 368.43534059 -0.359134 369.99592777 -0.37099043 C379.3822796 -0.43787171 387.31106176 -0.10472837 394.86990929 5.99359608 C395.38811241 6.61750233 395.90631554 7.24140858 396.44022179 7.88422108 C396.97389366 8.49781483 397.50756554 9.11140858 398.05740929 9.74359608 C402.46332884 16.72914728 403.00915412 23.08678795 402.99759483 31.14008045 C403.00778648 32.21414143 403.01797813 33.2882024 403.02847862 34.39481068 C403.05852026 37.92258449 403.06786131 41.45008635 403.07694054 44.97797108 C403.09379371 47.43277349 403.11194481 49.8875673 403.13133812 52.34235096 C403.17877451 58.78665957 403.20862523 65.23093332 403.23477745 71.67535877 C403.26461491 78.25807039 403.31113436 84.84066198 403.35623741 91.42328358 C403.44219828 104.32686406 403.51014276 117.2304737 403.56522179 130.13422108 C404.03156029 129.59886738 404.49789879 129.06351368 404.97836876 128.51193714 C405.59774315 127.8022176 406.21711754 127.09249805 406.85526085 126.36127186 C407.46597435 125.66091816 408.07668785 124.96056446 408.70590782 124.23898792 C426.62933744 103.94943967 426.62933744 103.94943967 439.56522179 101.13422108 C453.81829103 100.27253899 464.97621573 101.15260126 476.26834679 110.79047108 C485.22222382 119.92708029 488.03649149 129.784956 487.99466515 142.21625233 C487.66898209 154.76335164 482.12945221 162.40586777 473.56522179 171.13422108 C472.47260553 172.39708219 471.38873653 173.66758286 470.31522179 174.94672108 C466.53552143 179.30044135 462.4207625 183.3047723 458.32401085 187.35614491 C455.45996128 190.19999609 452.67671622 193.05265765 450.06522179 196.13422108 C446.40065649 200.45840813 442.35001313 204.37504399 438.32303429 208.35687733 C435.45948062 211.20063684 432.67644989 214.05297192 430.06522179 217.13422108 C426.40733577 221.45052658 422.36493773 225.36061601 418.34500694 229.33490467 C414.71098479 232.94355105 411.23489269 236.6297929 407.93240929 240.54828358 C406.56522179 242.13422108 406.56522179 242.13422108 405.00343132 243.26333809 C402.79013532 246.1424859 403.15354523 249.16908115 403.18668175 252.65428638 C403.17988655 253.81347693 403.17988655 253.81347693 403.17295408 254.99608546 C403.16129698 257.59397677 403.17099041 260.19135646 403.18045616 262.78925037 C403.17635244 264.64861351 403.17089276 266.50797407 403.16417503 268.3673296 C403.1524318 272.37629905 403.14997229 276.38513076 403.15453148 280.39411449 C403.16132954 286.73535556 403.14549187 293.07641483 403.12613487 299.41762257 C403.08823076 312.88564556 403.07547904 326.35365293 403.06522179 339.82172108 C403.05415162 354.34361516 403.03877248 368.86542582 402.99450922 383.38726264 C402.97616189 389.68821167 402.97225784 395.98895372 402.9794445 402.28992307 C402.98096854 406.21598091 402.97016812 410.14193568 402.95606613 414.06796551 C402.95206999 415.88518097 402.95317737 417.70241611 402.95983887 419.51962376 C402.96825257 422.00641249 402.95819351 424.49249122 402.94376183 426.97923756 C402.95410273 428.05013418 402.95410273 428.05013418 402.96465254 429.14266509 C402.88797742 435.95616512 400.96700528 442.17951348 396.44022179 447.38422108 C395.6629171 448.32008045 395.6629171 448.32008045 394.86990929 449.27484608 C386.6836107 455.87938527 377.7849806 455.70490239 367.73085594 455.64215565 C366.12011212 455.64676876 364.50937251 455.65312443 362.89864165 455.66106462 C358.48769155 455.67772461 354.07708873 455.66952682 349.66613758 455.65711975 C344.90329342 455.648058 340.14050837 455.66204452 335.37767601 455.67303944 C326.05359525 455.6908168 316.72964336 455.68698826 307.40555757 455.67538887 C299.827645 455.6663523 292.24976852 455.66513152 284.67185211 455.66948414 C283.59299042 455.67009707 282.51412873 455.67071 281.40257426 455.67134151 C279.21084391 455.67262042 277.01911356 455.67391727 274.82738323 455.67523187 C254.28061517 455.68663524 233.73391852 455.67352748 213.18716217 455.65203041 C195.5581821 455.63415712 177.92930738 455.63726593 160.30032921 455.65570545 C139.82511824 455.67711206 119.34996984 455.6855393 98.87474924 455.6732564 C96.69142474 455.67198221 94.50810022 455.67072472 92.3247757 455.66948414 C91.25055328 455.66886704 90.17633086 455.66824993 89.06955625 455.66761413 C81.50048382 455.6641608 73.93145108 455.66998918 66.3623848 455.67940235 C57.1386711 455.69062125 47.91509356 455.68758441 38.69139545 455.66627938 C33.9855714 455.65576794 29.27997436 455.65164881 24.57415199 455.66487598 C20.26553219 455.67680355 15.95734964 455.67023139 11.64876945 455.64896578 C10.09103733 455.64450129 8.53326821 455.64676258 6.97555994 455.65646893 C-2.70211548 455.71214187 -9.57874222 455.32807034 -17.18477821 448.75922108 C-22.46672902 442.59694514 -24.55759068 438.32766903 -24.56899929 430.2437458 C-24.57135152 429.53525247 -24.57370375 428.82675913 -24.57612726 428.0967963 C-24.5828245 425.70465905 -24.58235882 423.31257603 -24.58194923 420.92043018 C-24.58524741 419.19525036 -24.58897288 417.47007131 -24.59309071 415.74489325 C-24.6031241 410.98985562 -24.60682966 406.23483061 -24.60948002 401.47978389 C-24.6133791 396.3569309 -24.62295769 391.23408794 -24.63169289 386.11124134 C-24.65146827 373.73266652 -24.66152475 361.35409086 -24.67042068 348.97550419 C-24.67480171 343.14928114 -24.68016899 337.32305899 -24.68540955 331.49683666 C-24.7024227 312.13451832 -24.71691761 292.77220054 -24.72415829 273.40987587 C-24.72606825 268.38366476 -24.72798857 263.35745365 -24.72994423 258.33124256 C-24.73042797 257.08196996 -24.73091171 255.83269736 -24.73141011 254.54556801 C-24.73971314 234.30120739 -24.76505428 214.0569058 -24.79752491 193.81257097 C-24.83057448 173.0382882 -24.84860514 152.26403545 -24.85180253 131.48972625 C-24.85396954 119.82159941 -24.86274625 108.15355867 -24.8882637 96.48545742 C-24.90994195 86.54979293 -24.91803528 76.61423544 -24.90829692 66.67854998 C-24.90374393 61.60821222 -24.90569652 56.53809538 -24.92505836 51.46778774 C-24.94263137 46.82588493 -24.94174006 42.18436516 -24.92616107 37.54245862 C-24.92377608 35.86340839 -24.92815461 34.18433205 -24.93998972 32.50532184 C-25.00565268 22.57459666 -24.87601674 15.27670779 -18.05977821 7.38422108 C-12.09143274 2.26849639 -7.84406964 0.01190257 0 0 Z " fill="#8DBDE6" transform="translate(24.434778213500977,28.865778923034668)"/>
<path d="M0 0 C0.6592309 -0.00235223 1.3184618 -0.00470446 1.9976694 -0.00712797 C4.22223977 -0.01382224 6.4467518 -0.01335962 8.67133141 -0.01294994 C10.27617939 -0.01624831 11.88102654 -0.01997382 13.48587263 -0.02409142 C17.90833409 -0.03412275 22.33078199 -0.03783004 26.75325322 -0.04048073 C31.5182492 -0.04438045 36.28323439 -0.05395904 41.0482235 -0.0626936 C52.56213133 -0.08246782 64.07604006 -0.09252561 75.58996063 -0.10142139 C81.01010417 -0.10580288 86.43024672 -0.11117006 91.85038948 -0.11641026 C109.86504539 -0.13342379 127.87970069 -0.14791826 145.8943634 -0.155159 C150.57061959 -0.15706894 155.24687577 -0.15898926 159.92313194 -0.16094494 C161.66655564 -0.16167055 161.66655564 -0.16167055 163.44520001 -0.16241082 C182.27595118 -0.17071217 201.10663884 -0.19605033 219.93736227 -0.22852562 C239.26410407 -0.26158497 258.59081359 -0.27960676 277.91758382 -0.28280324 C288.77140831 -0.28496942 299.6251402 -0.29373384 310.47893715 -0.31926441 C319.72214479 -0.34095607 328.96523735 -0.34902939 338.20846756 -0.33929763 C342.9245139 -0.33474844 347.64032273 -0.33667514 352.35633659 -0.35605907 C356.67571063 -0.37365937 360.99467334 -0.37271855 365.31405155 -0.35716178 C366.87468195 -0.35478094 368.43534059 -0.359134 369.99592777 -0.37099043 C379.3822796 -0.43787171 387.31106176 -0.10472837 394.86990929 5.99359608 C395.38811241 6.61750233 395.90631554 7.24140858 396.44022179 7.88422108 C396.97389366 8.49781483 397.50756554 9.11140858 398.05740929 9.74359608 C402.46332884 16.72914728 403.00915412 23.08678795 402.99759483 31.14008045 C403.00778648 32.21414143 403.01797813 33.2882024 403.02847862 34.39481068 C403.05852026 37.92258449 403.06786131 41.45008635 403.07694054 44.97797108 C403.09379371 47.43277349 403.11194481 49.8875673 403.13133812 52.34235096 C403.17877451 58.78665957 403.20862523 65.23093332 403.23477745 71.67535877 C403.26461491 78.25807039 403.31113436 84.84066198 403.35623741 91.42328358 C403.44219828 104.32686406 403.51014276 117.2304737 403.56522179 130.13422108 C404.03156029 129.59886738 404.49789879 129.06351368 404.97836876 128.51193714 C405.59774315 127.8022176 406.21711754 127.09249805 406.85526085 126.36127186 C407.46597435 125.66091816 408.07668785 124.96056446 408.70590782 124.23898792 C426.62933744 103.94943967 426.62933744 103.94943967 439.56522179 101.13422108 C453.81829103 100.27253899 464.97621573 101.15260126 476.26834679 110.79047108 C485.22222382 119.92708029 488.03649149 129.784956 487.99466515 142.21625233 C487.66898209 154.76335164 482.12945221 162.40586777 473.56522179 171.13422108 C472.47260553 172.39708219 471.38873653 173.66758286 470.31522179 174.94672108 C466.53552143 179.30044135 462.4207625 183.3047723 458.32401085 187.35614491 C455.45996128 190.19999609 452.67671622 193.05265765 450.06522179 196.13422108 C446.40065649 200.45840813 442.35001313 204.37504399 438.32303429 208.35687733 C435.45948062 211.20063684 432.67644989 214.05297192 430.06522179 217.13422108 C426.40733577 221.45052658 422.36493773 225.36061601 418.34500694 229.33490467 C414.71098479 232.94355105 411.23489269 236.6297929 407.93240929 240.54828358 C406.56522179 242.13422108 406.56522179 242.13422108 405.00343132 243.26333809 C402.79013532 246.1424859 403.15354523 249.16908115 403.18668175 252.65428638 C403.17988655 253.81347693 403.17988655 253.81347693 403.17295408 254.99608546 C403.16129698 257.59397677 403.17099041 260.19135646 403.18045616 262.78925037 C403.17635244 264.64861351 403.17089276 266.50797407 403.16417503 268.3673296 C403.1524318 272.37629905 403.14997229 276.38513076 403.15453148 280.39411449 C403.16132954 286.73535556 403.14549187 293.07641483 403.12613487 299.41762257 C403.08823076 312.88564556 403.07547904 326.35365293 403.06522179 339.82172108 C403.05415162 354.34361516 403.03877248 368.86542582 402.99450922 383.38726264 C402.97616189 389.68821167 402.97225784 395.98895372 402.9794445 402.28992307 C402.98096854 406.21598091 402.97016812 410.14193568 402.95606613 414.06796551 C402.95206999 415.88518097 402.95317737 417.70241611 402.95983887 419.51962376 C402.96825257 422.00641249 402.95819351 424.49249122 402.94376183 426.97923756 C402.95410273 428.05013418 402.95410273 428.05013418 402.96465254 429.14266509 C402.88797742 435.95616512 400.96700528 442.17951348 396.44022179 447.38422108 C395.6629171 448.32008045 395.6629171 448.32008045 394.86990929 449.27484608 C386.6836107 455.87938527 377.7849806 455.70490239 367.73085594 455.64215565 C366.12011212 455.64676876 364.50937251 455.65312443 362.89864165 455.66106462 C358.48769155 455.67772461 354.07708873 455.66952682 349.66613758 455.65711975 C344.90329342 455.648058 340.14050837 455.66204452 335.37767601 455.67303944 C326.05359525 455.6908168 316.72964336 455.68698826 307.40555757 455.67538887 C299.827645 455.6663523 292.24976852 455.66513152 284.67185211 455.66948414 C283.59299042 455.67009707 282.51412873 455.67071 281.40257426 455.67134151 C279.21084391 455.67262042 277.01911356 455.67391727 274.82738323 455.67523187 C254.28061517 455.68663524 233.73391852 455.67352748 213.18716217 455.65203041 C195.5581821 455.63415712 177.92930738 455.63726593 160.30032921 455.65570545 C139.82511824 455.67711206 119.34996984 455.6855393 98.87474924 455.6732564 C96.69142474 455.67198221 94.50810022 455.67072472 92.3247757 455.66948414 C91.25055328 455.66886704 90.17633086 455.66824993 89.06955625 455.66761413 C81.50048382 455.6641608 73.93145108 455.66998918 66.3623848 455.67940235 C57.1386711 455.69062125 47.91509356 455.68758441 38.69139545 455.66627938 C33.9855714 455.65576794 29.27997436 455.65164881 24.57415199 455.66487598 C20.26553219 455.67680355 15.95734964 455.67023139 11.64876945 455.64896578 C10.09103733 455.64450129 8.53326821 455.64676258 6.97555994 455.65646893 C-2.70211548 455.71214187 -9.57874222 455.32807034 -17.18477821 448.75922108 C-22.46672902 442.59694514 -24.55759068 438.32766903 -24.56899929 430.2437458 C-24.57135152 429.53525247 -24.57370375 428.82675913 -24.57612726 428.0967963 C-24.5828245 425.70465905 -24.58235882 423.31257603 -24.58194923 420.92043018 C-24.58524741 419.19525036 -24.58897288 417.47007131 -24.59309071 415.74489325 C-24.6031241 410.98985562 -24.60682966 406.23483061 -24.60948002 401.47978389 C-24.6133791 396.3569309 -24.62295769 391.23408794 -24.63169289 386.11124134 C-24.65146827 373.73266652 -24.66152475 361.35409086 -24.67042068 348.97550419 C-24.67480171 343.14928114 -24.68016899 337.32305899 -24.68540955 331.49683666 C-24.7024227 312.13451832 -24.71691761 292.77220054 -24.72415829 273.40987587 C-24.72606825 268.38366476 -24.72798857 263.35745365 -24.72994423 258.33124256 C-24.73042797 257.08196996 -24.73091171 255.83269736 -24.73141011 254.54556801 C-24.73971314 234.30120739 -24.76505428 214.0569058 -24.79752491 193.81257097 C-24.83057448 173.0382882 -24.84860514 152.26403545 -24.85180253 131.48972625 C-24.85396954 119.82159941 -24.86274625 108.15355867 -24.8882637 96.48545742 C-24.90994195 86.54979293 -24.91803528 76.61423544 -24.90829692 66.67854998 C-24.90374393 61.60821222 -24.90569652 56.53809538 -24.92505836 51.46778774 C-24.94263137 46.82588493 -24.94174006 42.18436516 -24.92616107 37.54245862 C-24.92377608 35.86340839 -24.92815461 34.18433205 -24.93998972 32.50532184 C-25.00565268 22.57459666 -24.87601674 15.27670779 -18.05977821 7.38422108 C-12.09143274 2.26849639 -7.84406964 0.01190257 0 0 Z M-8.43477821 20.13422108 C-9.57793569 22.42053602 -9.55590554 23.67769513 -9.5483036 26.21674061 C-9.54822807 27.05746113 -9.54815254 27.89818165 -9.54807472 28.76437855 C-9.54291344 29.67275471 -9.53775215 30.58113087 -9.53243446 31.51703358 C-9.53101952 32.44643757 -9.52960457 33.37584156 -9.52814674 34.33340931 C-9.52253874 37.30871232 -9.50998489 40.28394072 -9.49727821 43.25922108 C-9.49226424 45.27354291 -9.48770116 47.28786592 -9.48360634 49.30218983 C-9.47256671 54.24622909 -9.4552967 59.19021243 -9.43477821 64.13422108 C-8.52110104 64.13660943 -7.60742386 64.13899778 -6.66605949 64.14145851 C15.55034531 64.2005559 37.76664116 64.27607213 59.98292732 64.36993599 C70.72649468 64.4149303 81.47002862 64.45433655 92.21365929 64.48065662 C101.57616979 64.50360729 110.93857486 64.53697239 120.30100179 64.58292264 C125.2598263 64.60689446 130.21854613 64.62559726 135.17742729 64.63183498 C139.84285191 64.63786796 144.50800856 64.65780282 149.17333412 64.68849659 C150.88739603 64.69730556 152.60149292 64.70099351 154.31557655 64.69922924 C156.65290806 64.69758276 158.98941653 64.71422117 161.32663536 64.73549366 C162.6355814 64.74010262 163.94452744 64.74471159 165.2931385 64.74946022 C168.75077569 65.15604017 170.20864847 65.59974134 172.56522179 68.13422108 C173.29680792 73.98691011 173.29680792 73.98691011 171.48514652 76.82805061 C168.52422482 78.84243607 165.95942901 78.52052546 162.40892601 78.53294849 C161.67540686 78.53959532 160.94188772 78.54624215 160.18614072 78.55309039 C157.72162218 78.571783 155.25758646 78.56911098 152.79300499 78.56659412 C151.0290311 78.57560748 149.2650635 78.58593365 147.50110435 78.59747791 C142.70596398 78.62512415 137.9109422 78.63434275 133.11573243 78.64033198 C128.10683799 78.64969586 123.09803283 78.67589758 118.08919334 78.70033741 C108.60137326 78.74406089 99.11357044 78.7725719 89.62568015 78.79566079 C78.82528119 78.82268116 68.02497178 78.86659458 57.22463667 78.91194952 C35.00487984 79.00487955 12.78509619 79.07652197 -9.43477821 79.13422108 C-9.50340718 124.01921381 -9.5562881 168.90420101 -9.5879742 213.78923584 C-9.59172643 219.08530197 -9.59560939 224.38136799 -9.59957314 229.67743397 C-9.60036007 230.73180943 -9.601147 231.78618489 -9.60195778 232.87251113 C-9.61502064 249.9569455 -9.63867932 267.04134968 -9.6662366 284.12576612 C-9.69426631 301.64889067 -9.71094931 319.17199938 -9.7170437 336.69514543 C-9.7211652 347.51257729 -9.73419434 358.32992378 -9.75852761 369.14732937 C-9.77435476 376.55977928 -9.77918544 383.9721849 -9.77528235 391.38465049 C-9.77335608 395.6647167 -9.77636091 399.94463346 -9.79239464 404.22467327 C-9.80695954 408.14112626 -9.80775291 412.05732884 -9.7974749 415.97379319 C-9.79620401 417.39245114 -9.80003853 418.81112452 -9.80942776 420.22975197 C-9.82143258 422.15514813 -9.81319955 424.08063887 -9.8039217 426.00605011 C-9.80506086 427.07648172 -9.80620002 428.14691333 -9.8073737 429.24978226 C-9.26271569 433.46623884 -7.61934407 435.94689511 -4.65003198 438.92312586 C-1.64933907 440.56362632 0.59420264 440.51030587 4.00928211 440.5117445 C4.65735825 440.51610482 5.3054344 440.52046514 5.97314921 440.5249576 C8.15390752 440.53594263 10.33403735 440.52547725 12.51479149 440.515172 C14.09035729 440.5186273 15.66592067 440.52339101 17.24147898 440.52935374 C21.57825518 440.54191115 25.91483408 440.53567188 30.25161111 440.52639508 C34.92585887 440.51962423 39.60007203 440.53007608 44.27431297 440.53833485 C53.4342894 440.55169571 62.5941922 440.54878389 71.75417154 440.54009692 C79.19730878 440.53332962 86.64042533 440.53239953 94.08356476 440.53566837 C95.14176718 440.53612807 96.1999696 440.53658777 97.29023876 440.5370614 C99.43977797 440.53802055 101.58931718 440.53899319 103.73885638 440.53997917 C123.90970791 440.54854007 144.08051858 440.53868819 164.2513634 440.52257808 C181.5675105 440.5091762 198.88359726 440.51150056 216.19974327 440.52533436 C236.29546289 440.54138117 256.39114665 440.54771398 276.48687178 440.53849757 C278.62893553 440.53754189 280.77099929 440.53659878 282.91306305 440.53566837 C283.96706966 440.53520555 285.02107627 440.53474272 286.10702248 440.53426587 C293.54268706 440.53167314 300.97832895 440.53605312 308.41399002 440.54310703 C317.47356498 440.55151233 326.53306194 440.54926243 335.59262794 440.5332648 C340.21700232 440.52536871 344.84124656 440.52231321 349.46562004 440.53221226 C353.69649698 440.54113213 357.92712276 440.53627118 362.15797681 440.5202796 C363.69090797 440.51692026 365.22386021 440.51865167 366.75677788 440.52590697 C368.83659592 440.53499785 370.91554786 440.52570611 372.99532032 440.5117445 C374.72985798 440.51101391 374.72985798 440.51101391 376.4994368 440.51026857 C379.95210248 440.0867665 381.79875992 439.21296399 384.56522179 437.13422108 C387.02542439 433.44391717 386.81214621 431.6478346 386.80573082 427.24367237 C386.80743967 426.53873809 386.80914852 425.83380381 386.81090915 425.10750788 C386.81420967 422.73976343 386.80319127 420.37230086 386.79227257 418.00458241 C386.79170857 416.30958024 386.79202478 414.61457758 386.79315758 412.91957569 C386.79373256 408.31241965 386.78195479 403.70536727 386.76800966 399.09823537 C386.75552646 394.28558484 386.75433371 389.47293206 386.75195885 384.66026783 C386.74573698 375.54427478 386.72931661 366.42832957 386.70925987 357.3123576 C386.68692284 346.93522494 386.67591297 336.55809002 386.665869 326.18093932 C386.64495099 304.83200651 386.6097613 283.48311681 386.56522179 262.13422108 C385.44357185 263.09076328 384.32261066 264.04811316 383.20194054 265.00580311 C382.57763145 265.53884052 381.95332237 266.07187794 381.31009483 266.621068 C376.64359731 270.66785243 372.38248472 275.12477689 368.37772179 279.82172108 C364.59698582 284.22823403 360.46966064 288.25706664 356.34403038 292.33588123 C352.74266731 295.9121404 349.29585715 299.56113015 346.03006554 303.45062733 C344.56522179 305.13422108 344.56522179 305.13422108 342.50481224 306.71213245 C339.75251198 310.14910295 340.01552051 313.35511347 340.06693077 317.5712328 C340.06141197 318.42049335 340.05589317 319.26975391 340.05020714 320.14474964 C340.04088903 321.98680657 340.04078043 323.82892791 340.04880142 325.67099094 C340.06142198 328.58851518 340.05014989 331.50509198 340.03276634 334.42258167 C340.00604127 339.56597932 340.0004714 344.7091453 340.00186729 349.85260487 C340.00409393 358.07810147 339.98994992 366.30331073 339.94628143 374.52869511 C339.93645117 377.39930047 339.9451573 380.26945393 339.95497704 383.14004993 C339.94883114 384.90617638 339.94191884 386.67230038 339.93411827 388.4384203 C339.94183754 389.23342945 339.94955681 390.02843861 339.95750999 390.84753895 C339.90752604 396.34271968 338.90112525 400.57324358 335.06522179 404.77875233 C330.89055413 408.02933991 328.10947824 409.25728873 322.87400246 409.26844215 C321.90396223 409.2729 320.93392201 409.27735784 319.93448663 409.28195077 C318.33223123 409.28167423 318.33223123 409.28167423 316.69760704 409.2813921 C315.56475517 409.28506879 314.4319033 409.28874547 313.26472259 409.29253358 C309.44854332 409.30359341 305.63239126 409.30741815 301.81619835 409.31122303 C299.08822966 409.31695272 296.36026506 409.32411954 293.63229942 409.33113575 C285.43174415 409.35089879 277.23118763 409.3609659 269.0306145 409.36986354 C265.16926278 409.37424647 261.30791244 409.37961324 257.44656181 409.38485241 C244.61151603 409.40186408 231.77647111 409.41635863 218.94141579 409.42360115 C215.61061413 409.42551106 212.27981248 409.42743139 208.94901085 409.42938709 C208.12115262 409.42987083 207.29329439 409.43035457 206.44034955 409.43085297 C193.02718414 409.43915471 179.61410788 409.4644943 166.20098141 409.49696777 C152.43164973 409.53003201 138.66236337 409.54804931 124.89299178 409.55124539 C117.16130594 409.55341102 109.42975012 409.56216735 101.69810295 409.58770657 C95.11402196 409.60940488 88.53010257 409.61746831 81.94598988 409.60773978 C78.58700841 409.60319246 75.22863097 409.60728364 71.86964989 409.62450123 C68.22640737 409.64213261 64.58401348 409.63515602 60.9407711 409.62196827 C59.35190004 409.63842214 59.35190004 409.63842214 57.73093057 409.65520841 C50.59979538 409.59279811 45.99995619 408.5905042 40.80950737 403.36749172 C37.28142118 397.75577611 36.85983471 393.04017188 36.94998741 386.49896717 C36.9444384 385.46380466 36.93888939 384.42864216 36.93317223 383.36211109 C36.92141681 379.96014751 36.94560773 376.55952783 36.97147179 373.15765858 C36.97318379 370.78450042 36.97311629 368.41134037 36.97134972 366.03818226 C36.97300055 361.07359097 36.99165854 356.10945255 37.0232296 351.14496326 C37.06294914 344.78505012 37.06726818 338.42572851 37.05976677 332.06571484 C37.05669621 327.16890524 37.06882008 322.27222835 37.08589745 317.37545109 C37.09292184 315.03032355 37.09605266 312.68518097 37.09520531 310.34004307 C37.09700488 307.06331438 37.11840014 303.78729227 37.14529991 300.51068592 C37.14236931 299.54429691 37.13943871 298.57790791 37.1364193 297.58223438 C37.21176832 291.62722153 37.85530219 287.03721382 42.10037804 282.48968983 C46.12932992 279.40872662 48.16049067 278.01138475 53.18935204 277.99377918 C54.16380775 277.98806904 55.13826347 277.98235889 56.14224815 277.97647572 C57.21503014 277.97535786 58.28781212 277.97424 59.39310265 277.97308826 C60.51999001 277.96812336 61.64687737 277.96315845 62.80791283 277.9580431 C66.54863652 277.94339602 70.28931784 277.9366158 74.03006554 277.93109608 C76.62076888 277.92534745 79.21147221 277.91958968 81.80217552 277.91382313 C86.54323327 277.9046518 91.28427397 277.89835394 96.02533907 277.89532638 C103.0079467 277.8908431 109.99035883 277.87328274 116.97290701 277.84432578 C123.01706929 277.82012841 129.06113885 277.81238327 135.10535431 277.81065083 C137.67905874 277.80761563 140.25276217 277.79955816 142.82643509 277.78646564 C146.4204246 277.76948552 150.01393349 277.77126571 153.6079464 277.77777576 C154.67870415 277.76856098 155.7494619 277.7593462 156.85266685 277.74985218 C158.31858017 277.75820591 158.31858017 277.75820591 159.81410789 277.7667284 C160.66416877 277.76526184 161.51422964 277.76379528 162.39004993 277.76228428 C165.07648989 278.22164379 165.9570005 278.96366265 167.56522179 281.13422108 C168.07142184 284.53299285 168.05183041 286.36375152 166.20210838 289.2925005 C162.03844562 292.20059044 157.89935042 291.69630088 152.93753624 291.66425037 C151.85591209 291.67298176 150.77428795 291.68171314 149.65988731 291.69070911 C146.08259132 291.71511946 142.50587182 291.71167235 138.92850304 291.70843983 C136.44795809 291.72087841 133.96742197 291.73521079 131.48689842 291.7513628 C125.62331828 291.78554953 119.75988957 291.80278905 113.89621943 291.81113797 C102.76289621 291.82789698 91.62973275 291.88724332 80.4965477 291.94291592 C76.83089633 291.95832468 73.16530238 291.96546479 69.49962425 291.97105885 C67.26799045 291.97807123 65.03635693 291.98517184 62.80472374 291.99237537 C61.26264496 291.9915823 61.26264496 291.9915823 59.68941307 291.9907732 C58.75984795 291.99478138 57.83028282 291.99878956 56.87254906 292.0029192 C56.06011395 292.00417647 55.24767885 292.00543375 54.4106245 292.00672913 C52.5480812 291.93246495 52.5480812 291.93246495 51.56522179 293.13422108 C51.46453761 296.26445592 51.42908018 299.37267028 51.43582726 302.5033617 C51.43407494 303.48701206 51.43232262 304.47066242 51.4305172 305.48412037 C51.42609674 308.75292161 51.42903735 312.02166924 51.43240929 315.29047108 C51.4317363 317.5510913 51.43076633 319.81171145 51.42951012 322.07233143 C51.42803288 326.81708939 51.43018853 331.56182857 51.43485069 336.30658436 C51.44054799 342.40360732 51.43726912 348.50058627 51.43127823 354.59760761 C51.42767331 359.26770837 51.42881088 363.9377986 51.43140602 368.60789967 C51.43207548 370.85668919 51.43124621 373.10547965 51.42892647 375.35426807 C51.42640108 378.49123146 51.43023894 381.62812249 51.43582726 384.76508045 C51.43380302 385.70433872 51.43177879 386.64359699 51.42969322 387.61131763 C51.02600935 391.6959195 51.02600935 391.6959195 52.56522179 395.13422108 C54.01861403 395.23179463 55.47673727 395.25977568 56.93340111 395.26006222 C58.35668803 395.26397384 58.35668803 395.26397384 59.80872822 395.26796448 C61.39084268 395.2646184 61.39084268 395.2646184 63.00491905 395.26120472 C64.11579415 395.26276471 65.22666925 395.2643247 66.37120724 395.26593196 C70.124694 395.26994721 73.87814091 395.2667503 77.63162804 395.26361561 C80.30992312 395.26496942 82.98821538 395.26671281 85.66650963 395.26892567 C92.20462236 395.27338409 98.74272364 395.27240658 105.28083682 395.26951303 C110.5921143 395.26725927 115.90338855 395.26694635 121.21466637 395.26803684 C122.34637743 395.26826669 122.34637743 395.26826669 123.50095135 395.26850118 C125.03340809 395.26882089 126.56586482 395.26914511 128.09832156 395.26947378 C142.48526689 395.27232878 156.87220586 395.26904123 171.25915015 395.26367341 C183.61736211 395.25920535 195.97556468 395.25998128 208.33377647 395.26459217 C222.66746583 395.26993758 237.00114961 395.27205409 251.33483982 395.26897991 C252.86181895 395.26866134 254.38879808 395.26834697 255.91577721 395.26803684 C256.6671795 395.26788257 257.41858179 395.26772829 258.19275385 395.26756934 C263.50075925 395.26670408 268.80876112 395.26816725 274.11676598 395.2705164 C280.58098744 395.27331422 287.04519676 395.27257651 293.50941682 395.26723565 C296.81074007 395.26459839 300.11203871 395.26412774 303.4133625 395.2668848 C306.98410381 395.26959314 310.55478698 395.26621907 314.12552452 395.26120472 C315.1802675 395.26343544 316.23501047 395.26566616 317.32171535 395.26796448 C318.74500227 395.26405286 318.74500227 395.26405286 320.19704247 395.26006222 C321.02239211 395.25989987 321.84774176 395.25973751 322.698102 395.25957024 C324.57985717 395.33897023 324.57985717 395.33897023 325.56522179 394.13422108 C325.65943919 392.0174079 325.6826494 389.89741349 325.67874718 387.77850819 C325.67896622 386.78342495 325.67896622 386.78342495 325.67918968 385.76823902 C325.67849059 383.56598152 325.67069843 381.36380763 325.66287804 379.16156483 C325.66101384 377.63841771 325.65958995 376.11527 325.65859032 374.59212208 C325.65476525 370.57584457 325.64493507 366.559603 325.63388634 362.54333973 C325.62367198 358.44798742 325.61909264 354.35262932 325.61404991 350.25726795 C325.60331278 342.2162358 325.5862365 334.1752329 325.56522179 326.13422108 C324.44886797 327.0585345 323.33714058 327.98843699 322.22733116 328.92059803 C321.29793724 329.69642986 321.29793724 329.69642986 320.34976768 330.48793507 C318.63487311 332.06996607 317.32007072 333.65548013 315.97147179 335.55218983 C304.92793195 350.30243245 287.8146938 356.57621045 271.50195885 363.95854664 C265.35309385 366.74196126 259.32933801 369.71860088 253.33499718 372.81952381 C247.60683499 375.53844434 241.83786349 375.83319852 235.56522179 375.13422108 C233.17239203 374.05343604 231.61817107 372.81869229 229.56522179 371.13422108 C228.90522179 371.13422108 228.24522179 371.13422108 227.56522179 371.13422108 C226.90522179 369.81422108 226.24522179 368.49422108 225.56522179 367.13422108 C224.76400493 367.12998914 223.96278807 367.1257572 223.13729191 367.12139702 C203.65850612 367.01817527 184.17975736 366.90955028 164.7010355 366.79488182 C155.28134661 366.7395603 145.86165393 366.68608004 136.44193077 366.63690662 C128.23347305 366.59405169 120.0250431 366.54777036 111.81662828 366.49734253 C107.46875304 366.47075216 103.12088327 366.44589932 98.77297592 366.42514706 C94.6830073 366.40557184 90.59309147 366.38142537 86.50317001 366.3537302 C84.99992392 366.34436446 83.49666623 366.33668746 81.99340248 366.33080196 C79.94502797 366.32253281 77.89668322 366.30766714 75.84834862 366.29243946 C74.12690022 366.28276063 74.12690022 366.28276063 72.37067509 366.27288628 C69.56522179 366.13422108 69.56522179 366.13422108 66.56522179 365.13422108 C66.48390715 363.69766254 66.4258862 362.25977278 66.37772179 360.82172108 C66.3429171 360.02121326 66.30811241 359.22070545 66.27225304 358.39593983 C66.56522179 356.13422108 66.56522179 356.13422108 67.69558239 354.51778412 C70.39664833 352.51895214 72.43247195 352.74908174 75.77242088 352.73549366 C77.0723246 352.72295551 78.37222832 352.71041737 79.71152306 352.69749928 C81.15518786 352.69867339 82.59885245 352.70013257 84.04251671 352.70184803 C85.56018944 352.69283359 87.07785487 352.68250715 88.59551048 352.67096424 C92.71918736 352.64333055 96.84272634 352.63410113 100.96648383 352.62811017 C105.27470563 352.61874301 109.58282374 352.59254103 113.89098167 352.56810474 C122.05070013 352.52439028 130.21039852 352.49587375 138.37019855 352.47278136 C147.65914723 352.44575615 156.94799187 352.40184304 166.23686635 352.35649264 C185.34626329 352.26357554 204.45568773 352.19192721 223.56522179 352.13422108 C223.90701784 351.24084443 224.2488139 350.34746778 224.60096741 349.42701912 C225.05014212 348.25550395 225.49931683 347.08398878 225.96210289 345.87697315 C226.40702394 344.71547151 226.851945 343.55396986 227.31034851 342.35727119 C228.66466913 338.87879785 230.10977236 335.48250983 231.65115929 332.08343983 C232.18644249 330.89726063 232.72172569 329.71108143 233.2732296 328.48895741 C233.82887063 327.26653483 234.38453506 326.04412288 234.94022179 324.82172108 C235.80513474 322.9084427 236.6687236 320.99457076 237.53214073 319.08061695 C238.09646489 317.82968563 238.66115607 316.5789198 239.22623253 315.32832813 C242.002898 309.17884849 244.70745732 302.99951494 247.39334679 296.81000233 C248.08276692 295.23582635 248.79667379 293.67131708 249.56522179 292.13422108 C248.83272713 292.12391361 248.10023247 292.11360615 247.345541 292.10298634 C240.44452671 292.00503343 233.54359359 291.90252205 226.64272404 291.79488182 C223.09486727 291.73970316 219.54700219 291.68629131 215.99905968 291.63690662 C211.92076221 291.58006256 207.84261741 291.51555307 203.76444054 291.45062733 C202.48937141 291.43391483 201.21430229 291.41720234 199.90059471 291.39998341 C198.71959694 291.38003819 197.53859917 291.36009296 196.32181358 291.33954334 C194.75961334 291.31622692 194.75961334 291.31622692 193.1658535 291.29243946 C190.56522179 291.13422108 190.56522179 291.13422108 187.56522179 290.13422108 C187.31568173 288.70011739 187.09129536 287.26162036 186.87772179 285.82172108 C186.68629601 284.62095936 186.68629601 284.62095936 186.49100304 283.39593983 C186.56522179 281.13422108 186.56522179 281.13422108 187.61948204 279.5119524 C190.51232472 277.46360037 193.3598012 277.7594525 196.77127647 277.82880116 C197.50174187 277.83145985 198.23220726 277.83411854 198.98480797 277.8368578 C200.57102646 277.8438128 202.15722671 277.85724105 203.74334526 277.87635708 C206.25773884 277.90397909 208.77120744 277.9088927 211.28574181 277.90684986 C218.43456647 277.90331735 225.58277219 277.92624603 232.73123741 278.00018787 C237.10525623 278.04381293 241.47789355 278.04840799 245.85206413 278.02860546 C247.51541594 278.02870279 249.17883672 278.04351048 250.84191704 278.07356167 C259.89303792 278.51931897 259.89303792 278.51931897 268.07633018 275.40311146 C269.84031824 273.39722327 271.18512459 271.41319601 272.56522179 269.13422108 C273.55619754 268.06411024 274.57300539 267.01656584 275.62772179 266.00922108 C276.11039513 265.53492664 276.59306847 265.06063221 277.09036827 264.57196522 C277.82042076 263.86028187 277.82042076 263.86028187 278.56522179 263.13422108 C281.83108436 259.91259367 285.03376678 256.69875529 288.00272179 253.19672108 C291.1653216 249.47464414 294.59492875 246.06556036 298.06522179 242.63422108 C301.51460062 239.22351783 304.92642081 235.83800623 308.06522179 232.13422108 C311.72978709 227.81003402 315.78043044 223.89339817 319.80740929 219.91156483 C322.67096295 217.06780531 325.45399369 214.21547023 328.06522179 211.13422108 C331.72978709 206.81003402 335.78043044 202.89339817 339.80740929 198.91156483 C342.67096295 196.06780531 345.45399369 193.21547023 348.06522179 190.13422108 C351.72978709 185.81003402 355.78043044 181.89339817 359.80740929 177.91156483 C362.67096295 175.06780531 365.45399369 172.21547023 368.06522179 169.13422108 C372.74495332 163.61544677 377.99623155 158.61971992 383.14237022 153.5412035 C383.61191124 153.0768993 384.08145226 152.6125951 384.56522179 152.13422108 C385.34120468 151.55752674 385.34120468 151.55752674 386.132864 150.96918201 C388.30718757 148.18370561 387.92461283 145.86115758 387.90579796 142.36786366 C387.90645508 141.34308163 387.90645508 141.34308163 387.90712547 140.29759693 C387.90503661 138.04102395 387.88170215 135.78519539 387.85819054 133.52875233 C387.8525949 131.96362686 387.84832465 130.39849613 387.84532738 128.83336353 C387.83387597 124.71505684 387.80440648 120.59706783 387.77121544 116.4788866 C387.74052079 112.27615119 387.72682335 108.07336441 387.71170616 103.8705492 C387.67953686 95.62496075 387.62833719 87.37963044 387.56522179 79.13422108 C386.5836243 79.13275452 385.60202681 79.13128796 384.59068394 79.12977695 C360.73061527 79.09321789 336.87068736 79.0338157 313.01073551 78.95031834 C301.47233591 78.91047145 289.93400508 78.87810771 278.39554405 78.86322498 C268.34121129 78.8502377 258.28702947 78.82334812 248.23278171 78.77960801 C242.9067542 78.75692726 237.58091331 78.74131434 232.25483322 78.74233723 C227.24545549 78.74307995 222.23649132 78.72528622 217.22722054 78.69305325 C215.38534683 78.68450933 213.54342696 78.68283453 211.7015419 78.68841839 C209.1928999 78.69501263 206.68559155 78.67724956 204.17708397 78.65320301 C203.44265137 78.66096343 202.70821877 78.66872385 201.95153064 78.67671943 C198.69836564 78.62124378 197.01103006 78.56350686 194.61682415 76.25803471 C193.29016406 73.57871515 193.04842622 72.0873386 193.56522179 69.13422108 C195.11405373 67.01040745 195.11405373 67.01040745 197.56522179 65.13422108 C200.25334936 64.73784932 202.53443024 64.58642748 205.22141075 64.61523914 C205.99661985 64.60773789 206.77182894 64.60023664 207.57052922 64.59250808 C210.1702682 64.57219477 212.76913803 64.58034044 215.36893272 64.58832264 C217.23157682 64.57958959 219.0942134 64.56910474 220.95683861 64.55699635 C226.01641718 64.52908293 231.0757516 64.52573284 236.135396 64.52671623 C241.42189533 64.52359172 246.70828394 64.49798316 251.99472618 64.47473621 C262.00668544 64.43413726 272.0185795 64.41382634 282.03060842 64.40076232 C293.42836637 64.38490547 304.82601316 64.34649539 316.22370672 64.30616903 C339.67084113 64.22371677 363.11797253 64.16965794 386.56522179 64.13422108 C386.68896574 58.10198904 386.77962992 52.07049822 386.83987999 46.03729725 C386.86499985 43.98573402 386.89910215 41.93426007 386.94241905 39.88300037 C387.00318181 36.93136017 387.03145671 33.98090457 387.05350304 31.02875233 C387.07930946 30.11398624 387.10511589 29.19922016 387.13170433 28.25673389 C387.13371071 23.68505943 387.07292136 21.77918968 384.15970421 18.07831287 C380.22991579 15.13365256 378.25900951 15.00705993 373.37005043 14.99720669 C372.72458157 14.99455486 372.07911272 14.99190303 371.4140842 14.98917085 C369.23033847 14.98145265 367.04664873 14.98091772 364.86289024 14.98032093 C363.28976544 14.97630797 361.71664167 14.97187003 360.14351916 14.96704137 C355.80422109 14.95505153 351.46493415 14.94942186 347.12562275 14.94486022 C342.45200874 14.93891328 337.7784081 14.92730121 333.10480309 14.91656971 C321.81000174 14.89202543 310.51519595 14.87741589 299.22037613 14.86450964 C296.03184456 14.86079928 292.84331343 14.85682593 289.6547823 14.85275698 C269.86718809 14.82752282 250.07959322 14.80546315 230.29198647 14.79302883 C225.70663259 14.79009899 221.12127873 14.78713735 216.53592491 14.78412342 C215.39621493 14.78337737 214.25650496 14.78263132 213.08225831 14.78186266 C194.61152573 14.76920373 176.1408893 14.7359746 157.67020169 14.69432159 C138.71980078 14.65193601 119.76944915 14.62833773 100.81900096 14.62310827 C90.17370641 14.61969039 79.52856212 14.60789082 68.88331413 14.57500553 C59.81894346 14.54705028 50.75475385 14.53598577 41.69034341 14.54720099 C37.06373272 14.5523992 32.43750146 14.54942576 27.81094551 14.52473545 C23.57672941 14.50232708 19.34316712 14.50291675 15.10894021 14.52193932 C13.57592004 14.52475121 12.04285631 14.51907506 10.50990644 14.50412638 C-0.18517908 14.13695263 -0.18517908 14.13695263 -8.43477821 20.13422108 Z " fill="#010101" transform="translate(24.434778213500977,28.865778923034668)"/>
<path d="M0 0 C2.7885289 -0.22107787 5.34653181 -0.28107535 8.125 -0.1875 C8.87910156 -0.17396484 9.63320312 -0.16042969 10.41015625 -0.14648438 C12.27374127 -0.11109985 14.13695978 -0.05729167 16 0 C16.4021875 1.4540625 16.4021875 1.4540625 16.8125 2.9375 C17.4003125 4.4534375 17.4003125 4.4534375 18 6 C21.14962436 7.04987479 23.44787416 7.15593842 26.7565918 7.20532227 C28.52808846 7.2352401 28.52808846 7.2352401 30.33537292 7.26576233 C31.61044205 7.28247482 32.88551117 7.29918732 34.19921875 7.31640625 C35.50454056 7.33718735 36.80986237 7.35796844 38.15473938 7.37937927 C41.62182353 7.43452273 45.08896646 7.48396595 48.55615234 7.53222656 C52.09543069 7.5824981 55.63462389 7.63815463 59.17382812 7.69335938 C66.11581156 7.80084638 73.05787194 7.90231227 80 8 C79.65781433 8.75953979 79.65781433 8.75953979 79.30871582 9.53442383 C74.03643303 21.23906261 68.76800336 32.94540669 63.54003906 44.66992188 C62.83363798 46.25252562 62.1259088 47.83453709 61.41699219 49.41601562 C60.36864738 51.75514089 59.32449988 54.0960988 58.28125 56.4375 C57.96466431 57.14156982 57.64807861 57.84563965 57.32189941 58.57104492 C55.93700266 61.69027151 54.76347543 64.67652939 54 68 C53.2090906 68.00238835 52.41818121 68.00477671 51.60330486 68.00723743 C32.37481993 68.06632678 13.14646402 68.14183774 -6.08188343 68.23571491 C-15.38050518 68.28071526 -24.67908826 68.32012006 -33.9777832 68.34643555 C-42.0808148 68.36938138 -50.18372446 68.40274093 -58.28665942 68.44870156 C-62.57867071 68.47268004 -66.87056091 68.49137841 -71.16263771 68.49761391 C-75.20018489 68.50364397 -79.23742205 68.5235678 -83.27485466 68.55427551 C-84.75873795 68.56308926 -86.24266171 68.56677145 -87.72657013 68.56500816 C-89.74868252 68.56336361 -91.7707819 68.58176931 -93.7928009 68.60127258 C-94.92568448 68.60588155 -96.05856806 68.61049051 -97.22578144 68.61523914 C-100.00874728 68.77558009 -100.00874728 68.77558009 -101.8696394 70.38356304 C-103.40119325 72.5737139 -103.3024342 74.04401349 -103.1875 76.6875 C-103.16042969 77.49574219 -103.13335937 78.30398438 -103.10546875 79.13671875 C-103.07066406 79.75160156 -103.03585938 80.36648438 -103 81 C-99.68718749 82.10427084 -97.20720525 82.13859403 -93.71687317 82.15821838 C-92.40014114 82.1680072 -91.08340912 82.17779602 -89.72677612 82.18788147 C-88.26422155 82.19378571 -86.8016666 82.19959615 -85.33911133 82.20532227 C-83.80173987 82.21490062 -82.26437105 82.22491067 -80.727005 82.23532104 C-76.54964678 82.26238085 -72.37227724 82.2833846 -68.19487977 82.30332303 C-63.83063837 82.32517593 -59.46643188 82.35256803 -55.10221863 82.37937927 C-46.83625086 82.42931556 -38.57026372 82.47425093 -30.30425805 82.51740164 C-20.89442913 82.566766 -11.48463524 82.6216871 -2.07484019 82.67708123 C17.28340737 82.79091565 36.64168796 82.89775153 56 83 C56.29132813 83.63679688 56.58265625 84.27359375 56.8828125 84.9296875 C58.26377749 87.48881843 59.35045026 87.90900893 62 89 C62.598125 89.3403125 63.19625 89.680625 63.8125 90.03125 C66.39080876 91.17307245 68.30968391 91.33396041 71.125 91.375 C71.99382812 91.40335937 72.86265625 91.43171875 73.7578125 91.4609375 C84.30058442 89.96208559 94.34447245 83.44463692 103.75 78.6875 C105.22376763 77.9455846 106.697725 77.20404598 108.171875 76.46289062 C110.35011996 75.36767597 112.52777296 74.27138135 114.70335388 73.17088318 C118.14457114 71.43059348 121.59133121 69.70520671 125.05883789 68.01782227 C125.69650085 67.70557205 126.33416382 67.39332184 126.9911499 67.0716095 C128.71181989 66.23062855 130.43551309 65.39584108 132.15942383 64.56152344 C136.23555485 62.32078996 139.06246622 59.55556037 142 56 C143.16389092 54.64344687 144.33063504 53.28933729 145.5 51.9375 C146.25796875 51.02291016 146.25796875 51.02291016 147.03125 50.08984375 C148.81506107 48.19631414 150.64326363 46.55159938 152.62304688 44.86938477 C153.57093079 44.06235863 153.57093079 44.06235863 154.53796387 43.23902893 C155.02043579 42.83014938 155.50290771 42.42126984 156 42 C156.02312589 50.8488239 156.04091634 59.69763747 156.05181217 68.54648495 C156.05704046 72.65494285 156.06413713 76.76338014 156.07543945 80.87182617 C156.08627025 84.83346828 156.09227724 88.79509052 156.09487724 92.75674629 C156.09673114 94.27148311 156.1003511 95.78621879 156.10573006 97.30094719 C156.11294307 99.41541813 156.11399083 101.52980594 156.11352539 103.64428711 C156.115746 104.85007919 156.11796661 106.05587128 156.12025452 107.29820251 C156 110 156 110 155 111 C153.54660775 111.09757355 152.08848452 111.1255546 150.63182068 111.12584114 C149.68296273 111.12844889 148.73410479 111.13105664 147.75649357 111.13374341 C146.70175059 111.13151268 145.64700762 111.12928196 144.56030273 111.12698364 C143.44942763 111.12854363 142.33855253 111.13010362 141.19401455 111.13171089 C137.44052779 111.13572613 133.68708087 111.13252922 129.93359375 111.12939453 C127.25529867 111.13074834 124.5770064 111.13249173 121.89871216 111.13470459 C115.36059943 111.13916301 108.82249815 111.1381855 102.28438497 111.13529195 C96.97310749 111.1330382 91.66183324 111.13272527 86.35055542 111.13381577 C85.59608138 111.133969 84.84160733 111.13412223 84.06427044 111.13428011 C82.5318137 111.13459982 80.99935696 111.13492403 79.46690023 111.1352527 C65.0799549 111.1381077 50.69301593 111.13482015 36.30607164 111.12945233 C23.94785968 111.12498428 11.58965711 111.1257602 -0.76855469 111.13037109 C-15.10224404 111.1357165 -29.43592782 111.13783301 -43.76961803 111.13475883 C-45.29659716 111.13444026 -46.82357629 111.13412589 -48.35055542 111.13381577 C-49.47765886 111.13358435 -49.47765886 111.13358435 -50.62753206 111.13334826 C-55.93553746 111.13248301 -61.24353934 111.13394617 -66.55154419 111.13629532 C-73.01576565 111.13909314 -79.47997497 111.13835543 -85.94419503 111.13301457 C-89.24551828 111.13037732 -92.54681693 111.12990666 -95.84814072 111.13266373 C-99.41888203 111.13537207 -102.98956519 111.13199799 -106.56030273 111.12698364 C-108.1424172 111.13032973 -108.1424172 111.13032973 -109.75649357 111.13374341 C-111.17978049 111.12983178 -111.17978049 111.12983178 -112.63182068 111.12584114 C-113.45717032 111.12567879 -114.28251997 111.12551644 -115.13288021 111.12534916 C-117 111 -117 111 -118 110 C-118.10068417 106.86976516 -118.1361416 103.7615508 -118.12939453 100.63085938 C-118.13114685 99.64720901 -118.13289917 98.66355865 -118.13470459 97.65010071 C-118.13912505 94.38129947 -118.13618443 91.11255184 -118.1328125 87.84375 C-118.13348548 85.58312978 -118.13445546 83.32250962 -118.13571167 81.06188965 C-118.13718891 76.31713168 -118.13503326 71.57239251 -118.13037109 66.82763672 C-118.1246738 60.73061376 -118.12795266 54.63363481 -118.13394356 48.53661346 C-118.13754848 43.86651271 -118.1364109 39.19642247 -118.13381577 34.52632141 C-118.1331463 32.27753189 -118.13397558 30.02874143 -118.13629532 27.779953 C-118.13882071 24.64298962 -118.13498285 21.50609859 -118.12939453 18.36914062 C-118.13141876 17.42988235 -118.13344299 16.49062408 -118.13552856 15.52290344 C-118.11426225 9.11426225 -118.11426225 9.11426225 -117 8 C-115.56697309 7.90099755 -114.1291137 7.87092107 -112.69267273 7.86869812 C-111.7631076 7.86468994 -110.83354248 7.86068176 -109.87580872 7.85655212 C-108.33372993 7.8573452 -108.33372993 7.8573452 -106.76049805 7.8581543 C-105.68413086 7.85467987 -104.60776367 7.85120544 -103.4987793 7.84762573 C-101.15245268 7.84025295 -98.80611902 7.83491572 -96.45978355 7.83133507 C-92.74940134 7.82419505 -89.03915334 7.80854722 -85.32881165 7.78999329 C-74.77626364 7.73740627 -64.22381114 7.68909757 -53.67114258 7.67407227 C-47.22486381 7.66400969 -40.7789199 7.63472674 -34.33277321 7.59275246 C-31.87157533 7.58041089 -29.41033022 7.57532692 -26.9491024 7.57755089 C-23.50826476 7.57989486 -20.068393 7.55780432 -16.62768555 7.5300293 C-15.60570572 7.53663071 -14.58372589 7.54323212 -13.53077698 7.55003357 C-8.12948423 7.56297388 -8.12948423 7.56297388 -3.46076965 5.15437317 C-2.29937057 3.44151789 -1.14793742 1.72190613 0 0 Z " fill="#EAEDEF" transform="translate(194,313)"/>
<path d="M0 0 C0.64546886 -0.00235223 1.29093771 -0.00470446 1.95596623 -0.00712797 C4.13971415 -0.01383596 6.32340281 -0.01335921 8.50716019 -0.01294994 C10.08028481 -0.01624745 11.65340858 -0.01997278 13.22653127 -0.02409142 C17.56583136 -0.03413242 21.90511762 -0.03783158 26.24442768 -0.04048073 C30.91804025 -0.04437757 35.59164179 -0.05395631 40.26524734 -0.0626936 C51.56005169 -0.08247547 62.85485695 -0.09252634 74.1496743 -0.10142139 C79.46460967 -0.10580142 84.77954403 -0.11116896 90.09447861 -0.11641026 C107.75567162 -0.13342416 125.41686401 -0.14791928 143.07806396 -0.155159 C147.66341782 -0.15706899 152.24877168 -0.1589893 156.83412552 -0.16094494 C157.9738355 -0.16142868 159.11354547 -0.16191242 160.28779212 -0.16241082 C178.75850864 -0.17071461 197.22916048 -0.19605671 215.69984874 -0.22852562 C234.6502503 -0.26156703 253.60061895 -0.27960511 272.55104947 -0.28280324 C283.1963192 -0.28497103 293.84149459 -0.29375895 304.4867363 -0.31926441 C313.5510913 -0.34093158 322.61532906 -0.34904151 331.67970702 -0.33929763 C336.30626466 -0.33474136 340.93258021 -0.33671594 345.55910492 -0.35605907 C349.79324542 -0.37360914 354.02696576 -0.37275983 358.26111022 -0.35716178 C359.79412654 -0.35477325 361.32717135 -0.35917346 362.86014399 -0.37099043 C364.94270605 -0.38605152 367.02376812 -0.37647954 369.10629272 -0.36076355 C370.84188702 -0.36222876 370.84188702 -0.36222876 372.61254382 -0.36372358 C376.52873893 0.24713934 378.72069604 1.69142359 381.80482864 4.13422108 C382.95893118 6.44242616 382.92585834 7.74206384 382.91835403 10.30853748 C382.9182785 11.16927876 382.91820297 12.03002003 382.91812515 12.91684437 C382.91296387 13.84709431 382.90780258 14.77734425 382.90248489 15.73578358 C382.90036247 17.16318363 382.90036247 17.16318363 382.89819717 18.61942005 C382.89258876 21.66605205 382.88003484 24.7126112 382.86732864 27.75922108 C382.86231473 29.82172002 382.85775163 31.88422011 382.85365677 33.94672108 C382.8426166 39.00924925 382.82534631 44.0717228 382.80482864 49.13422108 C381.83446041 49.13568764 380.86409218 49.1371542 379.86431885 49.1386652 C356.27094493 49.1752336 332.67771326 49.23464815 309.0844574 49.31812382 C297.67500187 49.35796093 286.26561578 49.39032966 274.85609818 49.40521717 C264.91345638 49.41820949 254.97096708 49.4451121 245.02841115 49.48883414 C239.76215508 49.51150347 234.49608748 49.52712849 229.22977829 49.52610493 C224.27538777 49.52536154 219.32141474 49.54318252 214.36713219 49.57538891 C212.54664195 49.58392432 210.72610508 49.58561328 208.90560341 49.58002377 C206.42358269 49.57341687 203.9429032 49.59122337 201.46101761 49.61523914 C200.37541082 49.60359852 200.37541082 49.60359852 199.26787257 49.59172273 C195.89564229 49.6496582 194.10254506 49.90687623 191.38881683 51.97915745 C189.63365259 54.13600806 189.63365259 54.13600806 188.80482864 57.13422108 C185.88593716 57.29638171 182.97603639 57.4151331 180.05482864 57.50922108 C179.22982864 57.55949451 178.40482864 57.60976795 177.55482864 57.66156483 C175.16506608 57.71938166 173.12919362 57.70232389 170.80482864 57.13422108 C168.35170364 54.17328358 168.35170364 54.17328358 166.80482864 51.13422108 C163.82741997 49.64551674 161.12990705 49.99236141 157.80675125 49.97600269 C157.07817008 49.97106472 156.34958891 49.96612674 155.59892952 49.96103913 C153.14526676 49.94561936 150.69163025 49.93729143 148.23793411 49.92889881 C146.48396446 49.9193238 144.72999713 49.90931395 142.97603226 49.89890003 C138.20359046 49.87180401 133.43113873 49.85081993 128.65866232 49.83089805 C123.6751495 49.80906741 118.69166747 49.78166446 113.70817947 49.7548418 C104.26636602 49.70487532 94.82453552 49.65995119 85.38268864 49.61681944 C74.6355471 49.56748083 63.88843644 49.51255021 53.14132476 49.45713985 C31.02918815 49.34325909 8.91702206 49.23643335 -13.19517136 49.13422108 C-13.31906688 43.26271679 -13.4096506 37.39197865 -13.46982956 31.51947498 C-13.49492408 29.52324635 -13.52900761 27.52710915 -13.57236862 25.53119373 C-13.63324382 22.6564522 -13.6614316 19.7829286 -13.68345261 16.90765858 C-13.70925903 16.01992756 -13.73506546 15.13219654 -13.7616539 14.21756458 C-13.76360201 9.88231026 -13.57414281 7.02892433 -10.78965378 3.58588123 C-6.97225437 -0.02137621 -5.1641798 0.00798719 0 0 Z " fill="#E4E4E4" transform="translate(28.195171356201172,43.86577892303467)"/>
<path d="M0 0 C3.00356653 1.35670238 5.18521536 2.89793355 7.57421875 5.16015625 C8.56929443 6.09722412 8.56929443 6.09722412 9.58447266 7.05322266 C10.62547119 8.04781494 10.62547119 8.04781494 11.6875 9.0625 C12.75943604 10.07642822 12.75943604 10.07642822 13.85302734 11.11083984 C18.36708503 15.3953518 22.79296487 19.75715627 27.16015625 24.19140625 C29.64810803 26.63709983 32.27008837 28.83007024 35 31 C33.68516427 33.91834217 32.28366724 35.94920929 29.98828125 38.171875 C29.39917969 38.749375 28.81007813 39.326875 28.203125 39.921875 C27.26726562 40.82679688 27.26726562 40.82679688 26.3125 41.75 C20.7258902 47.20463662 20.7258902 47.20463662 15.5 53 C11.64877784 57.55858949 7.35336869 61.67102171 3.11547852 65.86499023 C-0.45698233 69.41457818 -3.84604401 73.03157879 -7.09765625 76.87890625 C-10.32501185 80.47737461 -13.80624973 83.8252353 -17.24243164 87.22290039 C-20.10590456 90.06657686 -22.88884684 92.91883927 -25.5 96 C-29.16389741 100.32339894 -33.21371646 104.23937981 -37.23999023 108.22045898 C-40.70386446 111.66036521 -43.97124934 115.1855385 -47.12890625 118.91015625 C-50.14219622 122.27573064 -53.3872099 125.40689608 -56.60009766 128.58056641 C-59.3242821 131.28428749 -61.95350194 134.00749731 -64.4375 136.9375 C-67.60009982 140.65957693 -71.02970696 144.06866072 -74.5 147.5 C-77.94937883 150.91070324 -81.36119902 154.29621484 -84.5 158 C-88.1625616 162.32182269 -92.21073189 166.2364938 -96.2355957 170.21606445 C-99.73428511 173.69049601 -103.04434672 177.24974096 -106.234375 181.01171875 C-109.9530246 185.1993131 -114.00542765 189.07776397 -118 193 C-123.60041073 189.6521204 -127.84540032 185.35008615 -132.375 180.6875 C-137.1832538 175.76249903 -142.01786294 170.98401774 -147.26025391 166.51879883 C-147.83437012 166.01759521 -148.40848633 165.5163916 -149 165 C-149.59087402 164.52264404 -150.18174805 164.04528809 -150.79052734 163.5534668 C-152 162 -152 162 -151.88330078 160.02441406 C-150.85888213 157.67657563 -149.71149983 156.38332509 -147.8671875 154.609375 C-147.22958496 153.98659668 -146.59198242 153.36381836 -145.93505859 152.72216797 C-144.91532959 151.74594482 -144.91532959 151.74594482 -143.875 150.75 C-142.48776222 149.39509123 -141.1023177 148.03834377 -139.71875 146.6796875 C-138.78192383 145.77065674 -138.78192383 145.77065674 -137.82617188 144.84326172 C-135.3733226 142.36745797 -133.1121927 139.74970015 -130.8671875 137.0859375 C-127.65444186 133.49680324 -124.18159761 130.1627509 -120.75732422 126.77685547 C-117.89393205 123.93326204 -115.11107823 121.08107231 -112.5 118 C-108.8354347 113.67581294 -104.78479134 109.75917709 -100.7578125 105.77734375 C-97.89425883 102.93358423 -95.1112281 100.08124916 -92.5 97 C-88.8354347 92.67581294 -84.78479134 88.75917709 -80.7578125 84.77734375 C-77.89425883 81.93358423 -75.1112281 79.08124916 -72.5 76 C-68.8354347 71.67581294 -64.78479134 67.75917709 -60.7578125 63.77734375 C-57.89425883 60.93358423 -55.1112281 58.08124916 -52.5 55 C-48.8354347 50.67581294 -44.78479134 46.75917709 -40.7578125 42.77734375 C-37.89425883 39.93358423 -35.1112281 37.08124916 -32.5 34 C-28.83810631 29.67896545 -24.79076048 25.7649491 -20.76660156 21.78613281 C-17.24551782 18.2894869 -13.91046075 14.70741973 -10.69921875 10.921875 C-7.32164142 7.10171857 -3.64116595 3.56685644 0 0 Z " fill="#8AC149" transform="translate(442,167)"/>
<path d="M0 0 C0.11675955 22.3395973 0.20495206 44.67914435 0.25906086 67.01898479 C0.28485141 77.39158511 0.32001826 87.76399592 0.37719727 98.13647461 C0.4270061 107.17628076 0.45928482 116.21594968 0.47044247 125.25588924 C0.4769655 130.04331593 0.49231411 134.83035002 0.52865028 139.61765099 C0.56256997 144.12305144 0.57306115 148.6278973 0.56553841 153.13341331 C0.56691476 154.78744011 0.57687151 156.44148532 0.59602737 158.09540176 C0.62090437 160.35393048 0.61492717 162.61036517 0.60127258 164.86894226 C0.60588155 166.13272044 0.61049051 167.39649862 0.61523914 168.69857311 C-0.1649033 172.88488551 -1.75193724 174.34270938 -5 177 C-7.79554197 178.39777098 -10.08270304 178.12407246 -13.21193123 178.12304783 C-13.85919766 178.12420167 -14.5064641 178.12535552 -15.17334467 178.12654433 C-17.36315714 178.12921147 -19.5528975 178.12468803 -21.7427063 178.12025452 C-23.32010632 178.1206902 -24.89750628 178.12156505 -26.47490585 178.12284368 C-30.82579752 178.12508924 -35.17666476 178.12106653 -39.52755332 178.11606562 C-44.21331519 178.11176218 -48.89907558 178.11320747 -53.58483887 178.1139679 C-61.70866347 178.1144932 -69.83248006 178.11134574 -77.95630264 178.10573006 C-89.70210344 178.09761591 -101.44790034 178.09499992 -113.19370364 178.09374207 C-132.24876686 178.09155141 -151.30382581 178.08489096 -170.35888672 178.07543945 C-188.87320942 178.06626568 -207.38753096 178.05918468 -225.90185547 178.05493164 C-227.04236233 178.05466892 -228.1828692 178.05440619 -229.35793687 178.05413551 C-235.07931082 178.05283051 -240.80068477 178.05156679 -246.52205873 178.05032361 C-294.01470877 178.03995058 -341.50735418 178.0223319 -389 178 C-389 177.67 -389 177.34 -389 177 C-271.19 176.67 -153.38 176.34 -32 176 C-30.393023 171.17906901 -29.75072588 168.85439508 -29.75949097 164.0774231 C-29.75674164 162.916436 -29.75399231 161.75544891 -29.75115967 160.5592804 C-29.75835022 159.29980087 -29.76554077 158.04032135 -29.77294922 156.74267578 C-29.77351386 155.39205433 -29.77319574 154.04143226 -29.77206421 152.69081116 C-29.77149176 149.03627014 -29.78322854 145.38186113 -29.79721212 141.72735071 C-29.8097375 137.90367971 -29.81089141 134.08000549 -29.81326294 130.25631714 C-29.8194724 123.02100574 -29.83587599 115.78575497 -29.85596192 108.55047023 C-29.87833754 100.31107681 -29.88931853 92.07168044 -29.89935279 83.83226418 C-29.9202427 66.88814109 -29.95540828 49.94407696 -30 33 C-31.65 34.32 -33.3 35.64 -35 37 C-33.57925676 33.754387 -31.86237319 31.6373841 -29.33203125 29.171875 C-28.60306641 28.45386719 -27.87410156 27.73585938 -27.12304688 26.99609375 C-26.36056641 26.25488281 -25.59808594 25.51367188 -24.8125 24.75 C-19.84971933 19.90343362 -15.04718966 15.02160703 -10.52514648 9.75878906 C-8.64095391 7.58595037 -6.66235091 5.52929814 -4.625 3.5 C-3.62339844 2.49453125 -3.62339844 2.49453125 -2.6015625 1.46875 C-1 0 -1 0 0 0 Z " fill="#539AD4" transform="translate(411,291)"/>
<path d="M0 0 C4.66666667 4 9.33333333 8 14 12 C12.68516427 14.91834217 11.28366724 16.94920929 8.98828125 19.171875 C8.39917969 19.749375 7.81007813 20.326875 7.203125 20.921875 C6.57921875 21.52515625 5.9553125 22.1284375 5.3125 22.75 C-0.2741098 28.20463662 -0.2741098 28.20463662 -5.5 34 C-9.35122216 38.55858949 -13.64663131 42.67102171 -17.88452148 46.86499023 C-21.45698233 50.41457818 -24.84604401 54.03157879 -28.09765625 57.87890625 C-31.32501185 61.47737461 -34.80624973 64.8252353 -38.24243164 68.22290039 C-41.10590456 71.06657686 -43.88884684 73.91883927 -46.5 77 C-50.16389741 81.32339894 -54.21371646 85.23937981 -58.23999023 89.22045898 C-61.70386446 92.66036521 -64.97124934 96.1855385 -68.12890625 99.91015625 C-71.14219622 103.27573064 -74.3872099 106.40689608 -77.60009766 109.58056641 C-80.3242821 112.28428749 -82.95350194 115.00749731 -85.4375 117.9375 C-88.60009982 121.65957693 -92.02970696 125.06866072 -95.5 128.5 C-98.94937883 131.91070324 -102.36119902 135.29621484 -105.5 139 C-109.1625616 143.32182269 -113.21073189 147.2364938 -117.2355957 151.21606445 C-120.73428511 154.69049601 -124.04434672 158.24974096 -127.234375 162.01171875 C-130.9530246 166.1993131 -135.00542765 170.07776397 -139 174 C-144.45156722 170.72905967 -148.61869443 166.58146674 -153 162 C-149.53440626 157.80480758 -145.93494625 153.88764919 -142.0625 150.0625 C-139.15194546 147.1864921 -136.33387428 144.30785176 -133.6875 141.1875 C-130.4776108 137.42865112 -127.01209878 133.97257593 -123.5 130.5 C-120.05061558 127.08930207 -116.63880055 123.70378465 -113.5 120 C-110.36119859 116.29621434 -106.94937324 112.91070855 -103.5 109.5 C-100.07155172 106.10993882 -96.6773928 102.74806018 -93.5625 99.0625 C-89.68733484 94.48805692 -85.37773454 90.35303081 -81.12011719 86.13964844 C-77.51078536 82.55346572 -74.0754585 78.90176444 -70.79296875 75.01171875 C-67.89096599 71.75565901 -64.76394835 68.72294092 -61.6418457 65.67895508 C-58.97968602 63.10046821 -58.97968602 63.10046821 -57 60 C-56.34 60 -55.68 60 -55 60 C-54.74114014 59.41444336 -54.48228027 58.82888672 -54.21557617 58.22558594 C-52.90778276 55.8311604 -51.50263899 54.28906671 -49.55078125 52.390625 C-48.86693359 51.71773437 -48.18308594 51.04484375 -47.47851562 50.3515625 C-46.76373047 49.65804687 -46.04894531 48.96453125 -45.3125 48.25 C-40.56023714 43.61665382 -36.00093719 38.9304312 -31.67260742 33.89746094 C-29.0830977 30.95983584 -26.2996613 28.23545663 -23.5 25.5 C-19.38585544 21.43725305 -15.43411612 17.32923261 -11.6953125 12.9140625 C-8.89261916 9.74973131 -5.84889894 6.82926778 -2.8203125 3.8828125 C-0.93616102 2.12246661 -0.93616102 2.12246661 0 0 Z " fill="#679E37" transform="translate(463,186)"/>
<path d="M0 0 C62.37 0 124.74 0 189 0 C189 23.1 189 46.2 189 70 C186.0185547 72.9814453 183.03521213 75.95935981 180.0390625 78.92578125 C178.56765116 80.3879633 177.0962984 81.8502043 175.625 83.3125 C174.89539063 84.03373047 174.16578125 84.75496094 173.4140625 85.49804688 C169.19017512 89.70307762 165.16959313 93.99899969 161.32568359 98.55541992 C160.66947021 99.27048706 160.66947021 99.27048706 160 100 C159.67 100 159.34 100 159 100 C159 67.33 159 34.66 159 1 C106.53 1 54.06 1 0 1 C0 0.67 0 0.34 0 0 Z " fill="#4E93CB" transform="translate(223,108)"/>
<path d="M0 0 C0.68663223 -0.00397441 1.37326447 -0.00794881 2.08070374 -0.01204365 C4.38083623 -0.02166597 6.68035354 -0.00984943 8.98046875 0.00190735 C10.62972239 -0.00052065 12.27897456 -0.00424004 13.92822266 -0.00915527 C18.40752884 -0.01856687 22.88661662 -0.00913659 27.36590576 0.00417686 C32.05122921 0.01548642 36.73654183 0.01138423 41.421875 0.00942993 C49.29040092 0.0085468 57.15884071 0.01963136 65.02734375 0.03804016 C74.12733959 0.05920807 83.22720925 0.06271777 92.32722473 0.0564782 C101.07737903 0.05078545 109.82748884 0.05642916 118.57763672 0.06765175 C122.30323102 0.07229891 126.02879812 0.07317108 129.75439453 0.0710659 C134.14073868 0.06918361 138.52695422 0.07728239 142.91326904 0.0931263 C144.52414416 0.09737234 146.13503233 0.09821755 147.74591064 0.0954361 C149.94272786 0.09221813 152.13915989 0.10128612 154.3359375 0.11352539 C155.56594482 0.11557826 156.79595215 0.11763113 158.06323242 0.11974621 C161.06680497 0.36593005 162.71029592 0.67902413 165.16796875 2.3742218 C167.16796875 5.3742218 167.16796875 5.3742218 166.98046875 8.8742218 C165.91558847 13.4613984 165.91558847 13.4613984 163.16796875 15.3742218 C160.13942814 15.75733185 160.13942814 15.75733185 156.34230042 15.76863098 C155.64427195 15.77472208 154.94624349 15.78081319 154.22706264 15.78708887 C151.88241203 15.80377024 149.53830145 15.79893595 147.19360352 15.79414368 C145.51493768 15.80148105 143.83627689 15.8100663 142.15762329 15.81980896 C137.59358384 15.84206854 133.02972468 15.84495344 128.4656384 15.84306145 C124.65832563 15.84294195 120.85105136 15.85149744 117.04374927 15.85983896 C108.0632385 15.87908896 99.08282068 15.88195101 90.10229492 15.87519836 C80.83121681 15.86855565 71.56053636 15.89142748 62.28953892 15.9285121 C54.33531824 15.95917752 46.38122569 15.97057258 38.42694706 15.96667528 C33.67374163 15.96460454 28.92084558 15.9701369 24.167696 15.99456787 C19.69830428 16.01678055 15.22956047 16.01500329 10.76016617 15.99464035 C9.11864281 15.99122056 7.4770763 15.99636102 5.83561134 16.01062393 C3.5965196 16.02873917 1.35964407 16.0161291 -0.87937927 15.99568176 C-2.75952303 15.99675053 -2.75952303 15.99675053 -4.6776495 15.99784088 C-7.83203125 15.3742218 -7.83203125 15.3742218 -10.266572 13.06194305 C-11.83203125 10.3742218 -11.83203125 10.3742218 -11.83203125 6.7492218 C-9.93096696 0.33312983 -6.23787404 -0.00085069 0 0 Z " fill="#050505" transform="translate(69.83203125,58.62577819824219)"/>
<path d="M0 0 C0.66550891 -0.0060911 1.33101781 -0.01218221 2.01669365 -0.01845789 C4.24535743 -0.035099 6.47345056 -0.03031075 8.7021637 -0.0255127 C10.30053807 -0.03285239 11.89890713 -0.04143833 13.49726868 -0.05117798 C17.83818504 -0.07341273 22.1789117 -0.07632371 26.5198772 -0.07443047 C30.14323238 -0.07431086 33.76654723 -0.08287088 37.38989121 -0.09120798 C45.93753149 -0.11044893 54.4850741 -0.11332328 63.0327301 -0.10656738 C71.85222776 -0.09992495 80.67130736 -0.12279736 89.49072021 -0.15988111 C97.06196616 -0.19056205 104.63307751 -0.20193993 112.20438439 -0.1980443 C116.72678182 -0.19597521 121.24885394 -0.20148048 125.77119255 -0.22593689 C130.02392657 -0.24817528 134.2759801 -0.24635091 138.52871704 -0.22600937 C140.08919362 -0.22259417 141.64971574 -0.22771045 143.21013069 -0.24199295 C145.34156618 -0.26015542 147.47068557 -0.24746383 149.60205078 -0.22705078 C150.79426459 -0.22776329 151.9864784 -0.2284758 153.21481991 -0.2292099 C157.31655616 0.58290655 158.83349478 2.12585619 161.36451721 5.39440918 C161.42701721 9.01940918 161.42701721 9.01940918 160.36451721 12.39440918 C158.03243288 14.77937772 156.65602305 15.3577001 153.32225037 15.77751923 C152.12174042 15.78124794 150.92123047 15.78497665 149.68434143 15.78881836 C149.01404341 15.79490946 148.34374538 15.80100057 147.6531353 15.80727625 C145.40831928 15.82391815 143.16406975 15.81912901 140.91920471 15.81433105 C139.30935578 15.82167063 137.69951211 15.83025654 136.0896759 15.83999634 C131.71783626 15.86223054 127.34618499 15.86514215 122.97429657 15.86324883 C119.32599395 15.86312923 115.67773141 15.87168849 112.02943993 15.88002634 C103.42430835 15.89926651 94.81927378 15.90214167 86.21412659 15.89538574 C77.33212621 15.88874095 68.45054071 15.91162539 59.5686245 15.94869947 C51.94559009 15.97936612 44.32268938 15.99075992 36.6995945 15.98686266 C32.14537183 15.98479236 27.59147209 15.99031769 23.03730774 16.01475525 C18.75585102 16.03697052 14.47507059 16.03518866 10.19361115 16.01482773 C8.62142668 16.01140859 7.04919713 16.01654564 5.47707367 16.03081131 C3.33215244 16.04893342 1.18954303 16.03631238 -0.95530701 16.01586914 C-2.15581696 16.01658165 -3.3563269 16.01729416 -4.59321594 16.01802826 C-7.63548279 15.39440918 -7.63548279 15.39440918 -10.05299377 13.08213043 C-11.63548279 10.39440918 -11.63548279 10.39440918 -11.63548279 6.76940918 C-9.76330492 0.45080886 -6.16088005 0.01927459 0 0 Z " fill="#010202" transform="translate(72.63548278808594,264.6055908203125)"/>
<path d="M0 0 C0.66213092 -0.00397441 1.32426184 -0.00794881 2.00645733 -0.01204365 C4.22368066 -0.0216631 6.44026534 -0.00985128 8.6574707 0.00190735 C10.24761188 -0.00052074 11.83775153 -0.00424023 13.42788696 -0.00915527 C17.74604421 -0.01856556 22.06397485 -0.00913772 26.38211441 0.00417686 C30.89927456 0.0154879 35.41642351 0.01138411 39.93359375 0.00942993 C47.51965032 0.00854685 55.10561755 0.01963037 62.69165039 0.03804016 C71.46445811 0.05920801 80.23713495 0.06271774 89.00996304 0.0564782 C97.44616361 0.05078507 105.88231804 0.05642961 114.31851196 0.06765175 C117.9101344 0.07229841 121.50172864 0.07317129 125.09335327 0.0710659 C129.32211041 0.06918334 133.55073418 0.07728441 137.77946091 0.0931263 C139.33228377 0.09737165 140.88512015 0.09821801 142.43794632 0.0954361 C144.55594559 0.09221711 146.67354568 0.10128861 148.79150391 0.11352539 C149.97726517 0.11557826 151.16302643 0.11763113 152.38471985 0.11974621 C155.33932457 0.36945288 156.968576 0.71397947 159.39575195 2.3742218 C161.39575195 5.3742218 161.39575195 5.3742218 161.20825195 8.8742218 C160.1474281 13.44392454 160.1474281 13.44392454 157.39575195 15.3742218 C154.46091557 15.75733185 154.46091557 15.75733185 150.79786682 15.76863098 C150.12433967 15.77472208 149.45081252 15.78081319 148.75687546 15.78708887 C146.49513595 15.80376665 144.2339565 15.79893651 141.97216797 15.79414368 C140.35261447 15.80148126 138.73306621 15.81006658 137.11352539 15.81980896 C132.71063619 15.84206633 128.3079339 15.84495355 123.90499616 15.84306145 C120.23189052 15.84294194 116.55882477 15.85149787 112.88573021 15.85983896 C104.22164476 15.87908817 95.55765566 15.88195131 86.89355469 15.87519836 C77.94966018 15.86855574 69.0061779 15.89142724 60.06236702 15.9285121 C52.38839795 15.95917936 44.71456168 15.97057238 37.04053253 15.96667528 C32.4549967 15.96460472 27.86978159 15.97013401 23.28430367 15.99456787 C18.97249307 16.01678364 14.661354 16.01500083 10.34954071 15.99464035 C8.76606923 15.99122109 7.18255299 15.99635877 5.59914207 16.01062393 C3.43884618 16.02874505 1.2808459 16.01612548 -0.87937927 15.99568176 C-2.08856238 15.99639427 -3.29774549 15.99710678 -4.54357052 15.99784088 C-7.60424805 15.3742218 -7.60424805 15.3742218 -10.02455235 13.06194305 C-11.60424805 10.3742218 -11.60424805 10.3742218 -11.60424805 6.7492218 C-9.73525299 0.44136349 -6.15258198 -0.00087036 0 0 Z " fill="#030405" transform="translate(72.604248046875,220.6257781982422)"/>
<path d="M0 0 C6.04114327 3.87515318 7.47434161 7.90266892 9.25 14.6875 C9.49234375 15.53505859 9.7346875 16.38261719 9.984375 17.25585938 C11.62376489 23.11400533 12.88358029 29.02203628 14 35 C14.66 35 15.32 35 16 35 C16.14501953 33.87271484 16.14501953 33.87271484 16.29296875 32.72265625 C17.28163633 27.51713028 18.7901215 22.50890345 20.3125 17.4375 C20.60833984 16.40947266 20.90417969 15.38144531 21.20898438 14.32226562 C24.05084453 4.8514444 24.05084453 4.8514444 28 1 C30.85324437 -0.42662219 32.83454549 -0.31033868 36 0 C39.06753215 1.96050926 40.70891023 3.25748759 42.05004883 6.6784668 C42.24622803 7.69593994 42.44240723 8.71341309 42.64453125 9.76171875 C42.87350098 10.91462402 43.1024707 12.0675293 43.33837891 13.25537109 C43.55671387 14.49109863 43.77504883 15.72682617 44 17 C44.22993652 18.26537598 44.45987305 19.53075195 44.69677734 20.83447266 C45.27781992 24.14843031 45.83225972 27.46362944 46.36254883 30.78588867 C46.6901986 32.82933029 47.02934502 34.87065636 47.36914062 36.91210938 C50.19781621 54.22545746 50.19781621 54.22545746 47.3125 58.5 C44.51333204 60.31567651 43.27103386 60.65420677 40 60 C36.09095225 56.93040844 35.37364267 54.47732286 34.76953125 49.625 C34.60646484 48.39265625 34.44339844 47.1603125 34.27539062 45.890625 C34.04625977 43.96476562 34.04625977 43.96476562 33.8125 42 C33.48711247 39.45814917 33.16034928 36.91647397 32.83203125 34.375 C32.69514893 33.24835938 32.5582666 32.12171875 32.41723633 30.9609375 C32.08012782 28.56863093 31.64961715 26.32233705 31 24 C30.83918945 24.60884033 30.67837891 25.21768066 30.51269531 25.8449707 C22.33403247 56.67829628 22.33403247 56.67829628 18 60 C14.5 60 14.5 60 11 59 C8.52929983 55.60730684 7.28719255 52.19346458 6.125 48.1875 C5.79242188 47.0634375 5.45984375 45.939375 5.1171875 44.78125 C4.56417969 42.90953125 4.56417969 42.90953125 4 41 C3.09362432 38.05925546 2.17212338 35.12333822 1.25 32.1875 C0.49967709 29.79176767 -0.25014236 27.39587802 -1 25 C-1.13051758 25.91813477 -1.26103516 26.83626953 -1.39550781 27.78222656 C-1.88925209 31.19866029 -2.39782183 34.61220145 -2.91650391 38.02490234 C-3.13762932 39.50025891 -3.35286735 40.97651069 -3.56201172 42.45361328 C-3.86430113 44.58110037 -4.18786626 46.70443138 -4.515625 48.828125 C-4.70415039 50.1059082 -4.89267578 51.38369141 -5.08691406 52.70019531 C-6.08610962 56.31119187 -7.05546408 57.74108248 -10 60 C-12.5 60.5 -12.5 60.5 -15 60 C-17.16064453 58.31835938 -17.16064453 58.31835938 -19 56 C-19.27294922 53.41601562 -19.27294922 53.41601562 -18.9296875 50.40625 C-18.80174805 49.25382812 -18.67380859 48.10140625 -18.54199219 46.9140625 C-17.61672598 40.23214002 -16.63842766 33.56664366 -15.52587891 26.91308594 C-15.12129287 24.47768499 -14.734219 22.03988137 -14.34765625 19.6015625 C-14.08959609 18.03628413 -13.83051874 16.47117304 -13.5703125 14.90625 C-13.40137985 13.82494812 -13.40137985 13.82494812 -13.22903442 12.72180176 C-12.513642 8.56196618 -11.53385826 5.39716051 -9 2 C-5.45870816 -0.36086122 -4.17249782 -0.57269578 0 0 Z " fill="#030506" transform="translate(246,141)"/>
<path d="M0 0 C1.03465897 -0.0112793 2.06931793 -0.02255859 3.1353302 -0.03417969 C4.82954353 -0.0220343 4.82954353 -0.0220343 6.5579834 -0.00964355 C7.75183151 -0.01665283 8.94567963 -0.02366211 10.17570496 -0.03088379 C13.44651263 -0.04547126 16.7166727 -0.04205418 19.98747063 -0.02936745 C23.41158273 -0.01923466 26.83565181 -0.02863388 30.25976562 -0.03491211 C36.00980386 -0.04218775 41.75963654 -0.03260319 47.50964355 -0.0135498 C54.15585061 0.00821904 60.80156685 0.00116759 67.44776201 -0.02085543 C73.15575627 -0.03901199 78.86360284 -0.04156658 84.57161665 -0.03110075 C87.98002129 -0.02486712 91.38819529 -0.02402628 94.79658508 -0.0372467 C98.59629717 -0.04738168 102.39506088 -0.03195187 106.19470215 -0.00964355 C107.3241777 -0.01774048 108.45365326 -0.0258374 109.61735535 -0.03417969 C111.1693438 -0.01726074 111.1693438 -0.01726074 112.75268555 0 C113.6508474 0.0015081 114.54900925 0.0030162 115.47438812 0.00457001 C118.66575579 0.67336756 119.86919143 1.98941186 121.87634277 4.50793457 C122.43884277 7.44543457 122.43884277 7.44543457 121.87634277 10.50793457 C119.81545871 13.52677677 118.16716977 15.2578577 114.4985199 15.96859932 C111.41573912 16.15414034 108.36894105 16.17169798 105.28063965 16.13903809 C104.10775894 16.14619339 102.93487823 16.15334869 101.72645569 16.16072083 C97.84893869 16.1776313 93.97257394 16.1581894 90.09509277 16.13684082 C87.40136028 16.13530945 84.70764503 16.14007242 82.01391602 16.14414978 C76.36815115 16.1486679 70.72271789 16.13281886 65.07702637 16.1048584 C58.55520089 16.07280734 52.0339734 16.07282288 45.51210546 16.09007317 C39.23134731 16.10595197 32.95080783 16.09919613 26.6700592 16.08213615 C24.00019525 16.07527379 21.33079212 16.07744154 18.66087341 16.08368111 C14.93088628 16.08912558 11.20191709 16.06878016 7.4720459 16.04138184 C6.36643814 16.04790771 5.26083038 16.05443359 4.12171936 16.06115723 C-0.41937105 16.00438264 -3.31506046 15.9679557 -7.31323242 13.69334412 C-9.12365723 11.50793457 -9.12365723 11.50793457 -9.68615723 8.00793457 C-8.74311427 2.14011171 -5.81523328 0.00976435 0 0 Z " fill="#040404" transform="translate(99.1236572265625,345.4920654296875)"/>
<path d="M0 0 C4.68905845 2.14165045 6.03751514 4.40191155 7.9140625 9.12890625 C8.16096832 9.74093399 8.40787415 10.35296173 8.66226196 10.98353577 C9.46076028 12.98204191 10.23233779 14.98946464 11 17 C11.2630896 17.6776239 11.5261792 18.3552478 11.79724121 19.05340576 C13.43541178 23.27677925 15.02415861 27.51624684 16.57958984 31.77075195 C17.38471284 33.9639584 18.20597159 36.15072586 19.02734375 38.33789062 C19.54787144 39.75484268 20.0674388 41.17214798 20.5859375 42.58984375 C20.82960052 43.23163071 21.07326355 43.87341766 21.3243103 44.53465271 C22.86119127 48.81354151 23.36793698 52.46736682 23 57 C20.89172636 59.42061048 19.59654522 59.9127007 16.4375 60.375 C14 60 14 60 11 57 C10.34 54.03 9.68 51.06 9 48 C1.41 48 -6.18 48 -14 48 C-14.495 50.475 -14.495 50.475 -15 53 C-16.125 56.25 -16.125 56.25 -18 59 C-21.4375 60.125 -21.4375 60.125 -25 60 C-27.4375 58.4375 -27.4375 58.4375 -29 56 C-29.49611483 50.97655099 -28.16181352 46.99612682 -26.33203125 42.3984375 C-26.05534103 41.68072174 -25.77865082 40.96300598 -25.49357605 40.22354126 C-24.60923183 37.93693537 -23.7109708 35.65608667 -22.8125 33.375 C-22.22762842 31.86622904 -21.64363613 30.35711691 -21.06054688 28.84765625 C-19.65545275 25.21950869 -18.22445684 21.60229152 -16.78375244 17.98815918 C-16.04952403 16.1256285 -15.34094473 14.25304407 -14.63427734 12.37988281 C-14.22258301 11.31866211 -13.81088867 10.25744141 -13.38671875 9.1640625 C-13.04213623 8.25350098 -12.69755371 7.34293945 -12.3425293 6.40478516 C-9.44903985 1.22186626 -5.85308625 -0.85357508 0 0 Z " fill="#030405" transform="translate(192,141)"/>
<path d="M0 0 C48.56239158 -0.09151177 97.12477446 -0.16201648 145.68723527 -0.20426132 C151.41762965 -0.20926428 157.14802385 -0.21444155 162.87841797 -0.21972656 C164.01925895 -0.2207758 165.16009993 -0.22182505 166.33551185 -0.22290608 C184.81928397 -0.24032169 203.30300644 -0.27186575 221.78674908 -0.30861118 C240.74612301 -0.34598843 259.70547089 -0.36822904 278.66488016 -0.37635398 C290.36830115 -0.38184842 302.07158181 -0.39921577 313.77495961 -0.43166587 C321.79527273 -0.45277404 329.81551308 -0.45920843 337.83585198 -0.45400551 C342.46645092 -0.45143797 347.09680426 -0.45543414 351.72735977 -0.4768219 C355.96527304 -0.49625356 360.20277501 -0.49729217 364.44070701 -0.48359558 C365.9751322 -0.4819022 367.5095828 -0.48700521 369.04395778 -0.49953273 C371.12843494 -0.51556424 373.21142352 -0.50694942 375.29587746 -0.49219131 C377.03309797 -0.49446964 377.03309797 -0.49446964 378.80541384 -0.49679399 C382.72374736 0.11255083 384.91469566 1.55574789 388 4 C389.15410254 6.30820508 389.1210297 7.60784276 389.11352539 10.17431641 C389.11344986 11.03505768 389.11337433 11.89579895 389.11329651 12.78262329 C389.10813522 13.71287323 389.10297394 14.64312317 389.09765625 15.6015625 C389.09553383 17.02896255 389.09553383 17.02896255 389.09336853 18.48519897 C389.08776012 21.53183097 389.07520619 24.57839013 389.0625 27.625 C389.05748608 29.68749894 389.05292299 31.74999903 389.04882812 33.8125 C389.03863781 38.87505081 389.01906402 43.93744363 389 49 C379.43 49 369.86 49 360 49 C359.95101563 46.02613281 359.90203125 43.05226562 359.8515625 39.98828125 C359.79752428 37.10224455 359.74022792 34.2162896 359.68261719 31.33032227 C359.64437783 29.32745476 359.60951619 27.32451975 359.578125 25.3215332 C359.53236504 22.43937083 359.47438846 19.55767106 359.4140625 16.67578125 C359.39673569 15.33644279 359.39673569 15.33644279 359.37905884 13.970047 C359.3492543 12.70930611 359.3492543 12.70930611 359.31884766 11.4230957 C359.29886215 10.32056206 359.29886215 10.32056206 359.2784729 9.195755 C359.02407961 6.45211082 359.02407961 6.45211082 357 2 C239.19 1.67 121.38 1.34 0 1 C0 0.67 0 0.34 0 0 Z " fill="#C3CACC" transform="translate(22,44)"/>
<path d="M0 0 C1.84375 1.50390625 1.84375 1.50390625 3.5 3.5625 C4.09167969 4.28566406 4.68335937 5.00882813 5.29296875 5.75390625 C6.85157475 7.80470362 8.34514655 9.88337511 9.8125 12 C10.534375 12.99 11.25625 13.98 12 15 C12.66 15 13.32 15 14 15 C16.09970705 12.07325006 18.08858193 9.10668316 20.015625 6.06445312 C22.23607955 2.76423486 23.26872141 1.24224737 27.1484375 -0.04296875 C30 0 30 0 32.875 1.625 C35 4 35 4 35.31274414 6.39648438 C34.94080949 9.49274595 34.11441463 10.664564 32.12109375 13.03125 C31.53005859 13.75957031 30.93902344 14.48789063 30.33007812 15.23828125 C29.06674917 16.74801802 27.8011154 18.2558291 26.53320312 19.76171875 C25.64858398 20.85419922 25.64858398 20.85419922 24.74609375 21.96875 C24.19622803 22.62294922 23.6463623 23.27714844 23.07983398 23.95117188 C21.78322896 25.98293932 21.78322896 25.98293932 22.14672852 28.4934082 C23.0630187 31.18512531 24.1455722 32.9127187 25.90625 35.13671875 C26.48503906 35.87857422 27.06382812 36.62042969 27.66015625 37.38476562 C28.26730469 38.14466797 28.87445313 38.90457031 29.5 39.6875 C30.69915444 41.21126631 31.89712986 42.73596144 33.09375 44.26171875 C33.62677734 44.93162842 34.15980469 45.60153809 34.70898438 46.29174805 C37.38968828 49.83881409 37.23540003 52.60586618 37 57 C35 59 35 59 31.6875 59.4375 C26.97970631 58.87894821 26.10929411 57.49677453 23 54 C21.30981113 51.82604564 19.73662594 49.58850367 18.1875 47.3125 C17.78080078 46.73177734 17.37410156 46.15105469 16.95507812 45.55273438 C14 41.25669643 14 41.25669643 14 39 C10.37803164 42.35242653 7.67464873 46.09583195 4.875 50.125 C0.23986486 56.76013514 0.23986486 56.76013514 -2 59 C-8.05240175 59.55021834 -8.05240175 59.55021834 -10.9375 57.875 C-12.58667291 54.96469486 -12.45024895 53.34252609 -12 50 C-10.18837527 46.88887061 -7.96154873 44.15895764 -5.6875 41.375 C-5.09259766 40.62476563 -4.49769531 39.87453125 -3.88476562 39.1015625 C-2.77447062 37.70221863 -1.65819158 36.30758583 -0.53393555 34.91943359 C-0.02773682 34.28602051 0.47846191 33.65260742 1 33 C1.56992676 32.3080957 2.13985352 31.61619141 2.72705078 30.90332031 C3.14712402 30.27522461 3.56719727 29.64712891 4 29 C2.90525149 23.81071965 -1.09354733 19.93361772 -4.45507812 15.9921875 C-7.60526383 12.10649588 -8.85671119 9.1646271 -9 4 C-6.46087126 0.19130689 -4.46437779 -0.55635103 0 0 Z " fill="#020304" transform="translate(117,141)"/>
<path d="M0 0 C1.19496094 -0.00386719 2.38992187 -0.00773438 3.62109375 -0.01171875 C4.87019531 -0.00011719 6.11929688 0.01148438 7.40625 0.0234375 C8.65535156 0.01183594 9.90445313 0.00023437 11.19140625 -0.01171875 C12.98384766 -0.00591797 12.98384766 -0.00591797 14.8125 0 C15.90884766 0.00338379 17.00519531 0.00676758 18.13476562 0.01025391 C20.90625 0.3984375 20.90625 0.3984375 22.79492188 1.70068359 C23.90625 3.3984375 23.90625 3.3984375 23.78125 6.9609375 C22.90625 10.3984375 22.90625 10.3984375 19.90625 12.3984375 C17.13969676 12.54089647 14.47971694 12.58613195 11.71875 12.5234375 C10.96916016 12.51441406 10.21957031 12.50539062 9.44726562 12.49609375 C7.60012346 12.47256328 5.75314588 12.43669311 3.90625 12.3984375 C3.90625 16.0284375 3.90625 19.6584375 3.90625 23.3984375 C5.46085937 23.34623047 5.46085937 23.34623047 7.046875 23.29296875 C8.41665042 23.26482268 9.78644341 23.23752339 11.15625 23.2109375 C11.83816406 23.18580078 12.52007812 23.16066406 13.22265625 23.13476562 C16.49824289 23.08706291 18.55973556 23.18758674 21.390625 24.91015625 C21.89078125 25.40128906 22.3909375 25.89242187 22.90625 26.3984375 C22.59375 29.7734375 22.59375 29.7734375 21.90625 33.3984375 C18.22537647 35.85235319 15.46269412 35.62646509 11.21875 35.5234375 C10.51685547 35.51441406 9.81496094 35.50539062 9.09179688 35.49609375 C7.36313475 35.47257454 5.63464855 35.43670463 3.90625 35.3984375 C3.90625 39.0284375 3.90625 42.6584375 3.90625 46.3984375 C5.08703125 46.35203125 6.2678125 46.305625 7.484375 46.2578125 C9.04164134 46.22028801 10.59893508 46.18388857 12.15625 46.1484375 C12.93355469 46.11492187 13.71085937 46.08140625 14.51171875 46.046875 C20.27554526 45.94834805 20.27554526 45.94834805 23.45703125 48.21875 C24.90625 50.3984375 24.90625 50.3984375 24.84375 53.5234375 C23.90625 56.3984375 23.90625 56.3984375 20.90625 58.3984375 C16.60871586 58.86714483 12.28907605 58.76878448 7.96875 58.7734375 C6.77572266 58.79792969 5.58269531 58.82242188 4.35351562 58.84765625 C3.20689453 58.85152344 2.06027344 58.85539062 0.87890625 58.859375 C-0.69491821 58.87170166 -0.69491821 58.87170166 -2.30053711 58.88427734 C-5.8521186 58.26653002 -6.84454898 57.16956125 -9.09375 54.3984375 C-9.59495544 52.00144958 -9.59495544 52.00144958 -9.59545898 49.31030273 C-9.60483994 48.29922958 -9.61422089 47.28815643 -9.62388611 46.2464447 C-9.61265213 45.16093826 -9.60141815 44.07543182 -9.58984375 42.95703125 C-9.59129898 41.83780777 -9.59275421 40.71858429 -9.59425354 39.56544495 C-9.59259433 37.20091141 -9.58103078 34.83636709 -9.56030273 32.47192383 C-9.53133082 28.84605229 -9.53969763 25.22164076 -9.55273438 21.59570312 C-9.54649764 19.29947204 -9.53810721 17.00324558 -9.52734375 14.70703125 C-9.53027939 13.61950058 -9.53321503 12.53196991 -9.53623962 11.41148376 C-9.52355545 10.40356277 -9.51087128 9.39564178 -9.49780273 8.35717773 C-9.49239975 7.46989487 -9.48699677 6.582612 -9.48143005 5.66844177 C-8.54398261 0.17935435 -4.9168719 0.01517553 0 0 Z " fill="#020304" transform="translate(70.09375,141.6015625)"/>
<path d="M0 0 C5.59145727 3.77448462 10.11692155 9.01096079 12.17578125 15.46875 C13.2995811 23.36148384 11.46572145 29.9485772 6.796875 36.36328125 C5.63814575 37.77290344 4.41346834 39.12792232 3.17578125 40.46875 C-1.91608839 36.16380567 -6.844147 31.72579813 -11.69921875 27.15625 C-12.39740723 26.50124512 -13.0955957 25.84624023 -13.81494141 25.17138672 C-18.38053012 20.87292788 -22.85620432 16.50913553 -27.22265625 12.0078125 C-28.76181644 10.37608048 -28.76181644 10.37608048 -30.82421875 9.46875 C-30.58013386 6.173604 -29.6198857 5.26928202 -27.19921875 2.90625 C-18.85884616 -3.49725882 -9.45376636 -4.70169553 0 0 Z " fill="#EB3F79" transform="translate(484.82421875,147.53125)"/>
<path d="M0 0 C3.81271791 3.17726492 7.45516471 6.399999 10.9375 9.9375 C13.57900928 12.6198837 16.27469096 15.16559049 19.125 17.625 C22.58737215 20.61523049 25.88208764 23.64824421 29 27 C29 27.66 29 28.32 29 29 C25.76322296 30.73430616 22.50890955 32.43270124 19.25 34.125 C18.32960938 34.61871094 17.40921875 35.11242187 16.4609375 35.62109375 C15.12675781 36.30751953 15.12675781 36.30751953 13.765625 37.0078125 C12.54020996 37.65194092 12.54020996 37.65194092 11.29003906 38.30908203 C9 39 9 39 6.92016602 38.31494141 C3.50128382 35.97367002 0.6449917 33.13885163 -2.3125 30.25 C-3.29959961 29.33734375 -3.29959961 29.33734375 -4.30664062 28.40625 C-8.96016035 23.85484513 -8.96016035 23.85484513 -9.13671875 20.06640625 C-7.70735811 16.21057084 -6.19735148 12.43326159 -4.5 8.6875 C-4.01853516 7.59598633 -4.01853516 7.59598633 -3.52734375 6.48242188 C-1.15334821 1.15334821 -1.15334821 1.15334821 0 0 Z " fill="#FAD14D" transform="translate(281,341)"/>
<path d="M0 0 C5.97640628 4.43194173 10.19381498 8.85537601 11.37890625 16.41796875 C11.75599452 24.26383769 9.19739458 30.54387468 4.25 36.5625 C3.5075 37.366875 2.765 38.17125 2 39 C-3.03163018 34.70214922 -8.02718443 30.36574458 -13 26 C-12.29875 25.566875 -11.5975 25.13375 -10.875 24.6875 C-3.75607237 18.03285026 -1.0623354 9.46943793 0 0 Z " fill="#A0306C" transform="translate(486,149)"/>
<path d="M0 0 C8.36628849 7.05024311 8.36628849 7.05024311 11 10 C11 10.66 11 11.32 11 12 C7.76322296 13.73430616 4.50890955 15.43270124 1.25 17.125 C0.32960938 17.61871094 -0.59078125 18.11242187 -1.5390625 18.62109375 C-2.42851562 19.07871094 -3.31796875 19.53632813 -4.234375 20.0078125 C-5.05131836 20.43723145 -5.86826172 20.86665039 -6.70996094 21.30908203 C-9 22 -9 22 -11.18847656 21.25732422 C-13.31859011 19.77887614 -14.56868008 18.14697988 -16 16 C-15.41089844 15.74734375 -14.82179688 15.4946875 -14.21484375 15.234375 C-11.74033507 13.85528374 -10.37809925 12.41362405 -8.5625 10.25 C-7.964375 9.54359375 -7.36625 8.8371875 -6.75 8.109375 C-5.88375 7.06523437 -5.88375 7.06523437 -5 6 C-4.2265625 5.07960938 -4.2265625 5.07960938 -3.4375 4.140625 C-2.28524397 2.76577406 -1.14157756 1.38373037 0 0 Z " fill="#DE9D33" transform="translate(299,358)"/>
<path d="M0 0 C2 1.625 2 1.625 3 4 C2.87988224 7.42335626 2.60726153 9.95416069 0.875 12.9375 C-2.18452459 14.6712306 -4.56817525 14.42145216 -8 14 C-10.4375 12.4375 -10.4375 12.4375 -12 10 C-12.5625 6.5 -12.5625 6.5 -12 3 C-8.33340589 -1.4443565 -5.38867153 -1.59664341 0 0 Z " fill="#070707" transform="translate(369,60)"/>
<path d="M0 0 C2 1.625 2 1.625 3 4 C2.87988224 7.42335626 2.60726153 9.95416069 0.875 12.9375 C-2.18452459 14.6712306 -4.56817525 14.42145216 -8 14 C-10.4375 12.4375 -10.4375 12.4375 -12 10 C-12.5625 6.5 -12.5625 6.5 -12 3 C-8.33340589 -1.4443565 -5.38867153 -1.59664341 0 0 Z " fill="#080808" transform="translate(337,60)"/>
<path d="M0 0 C2.875 2.0625 2.875 2.0625 5 5 C5 8.51955419 4.63108355 10.84920059 2.9375 13.9375 C-0.26063137 15.69131398 -3.45325707 15.6502362 -7 15 C-9.90460477 12.73077752 -9.97856495 11.15004537 -10.5 7.5 C-10 4 -10 4 -7.8125 1.5625 C-4.7179309 -0.15670505 -3.4491574 -0.77606042 0 0 Z " fill="#080808" transform="translate(303,59)"/>
<path d="M0 0 C2.32602868 3.48904301 3.41117582 7.03390006 4.625 11 C4.85445312 11.72445312 5.08390625 12.44890625 5.3203125 13.1953125 C6.26068056 16.22911898 7 18.80543588 7 22 C2.38 22 -2.24 22 -7 22 C-5.04910592 14.48905779 -2.76288395 7.25081726 0 0 Z " fill="#87B6DD" transform="translate(189,155)"/>
<path d="M0 0 C3.21043882 1.38188453 5.04936365 2.92421903 7.25 5.625 C7.77078125 6.25664062 8.2915625 6.88828125 8.828125 7.5390625 C9.40820312 8.26222656 9.40820312 8.26222656 10 9 C6.53498602 11.37600959 4.23711541 12.57258316 0 12 C-0.66 11.34 -1.32 10.68 -2 10 C-1.67889311 6.46782421 -1.12183498 3.36550494 0 0 Z " fill="#4E6671" transform="translate(264,378)"/>
</svg>
