<?xml version="1.0" encoding="UTF-8"?>
<svg version="1.1" xmlns="http://www.w3.org/2000/svg" width="512" height="512">
<path d="M0 0 C0.7213916 0.21430664 1.4427832 0.42861328 2.18603516 0.64941406 C21.86506212 6.62752219 38.06381452 16.8961716 53 31 C53.87398438 31.78632812 54.74796875 32.57265625 55.6484375 33.3828125 C78.75373432 55.03161497 90.83804581 86.83800163 92.28515625 118.05078125 C92.93367628 141.85841466 87.50615346 164.21620394 76 185 C75.47148437 185.9590625 74.94296875 186.918125 74.3984375 187.90625 C57.10079304 217.87650029 28.63023932 237.80983312 -4.30859375 246.8125 C-18.51278771 250.48907986 -32.41481702 250.23367929 -47 250 C-47.02187378 251.14214966 -47.02187378 251.14214966 -47.04418945 252.30737305 C-47.11880541 255.76791888 -47.21542259 259.22751445 -47.3125 262.6875 C-47.33505859 263.88568359 -47.35761719 265.08386719 -47.38085938 266.31835938 C-47.41630859 267.47529297 -47.45175781 268.63222656 -47.48828125 269.82421875 C-47.51446533 270.88729248 -47.54064941 271.95036621 -47.56762695 273.0456543 C-48.06551167 276.44763229 -48.82263538 278.33837851 -51 281 C-52.65 281.33 -54.3 281.66 -56 282 C-56 288.27 -56 294.54 -56 301 C-54.35 301.33 -52.7 301.66 -51 302 C-47.62662029 305.93798129 -47.64670148 309.44069079 -47.70703125 314.48828125 C-47.71127609 315.19147995 -47.71552094 315.89467865 -47.71989441 316.6191864 C-47.7365994 318.85069131 -47.77423386 321.08127113 -47.8125 323.3125 C-47.82755752 324.8313671 -47.84124406 326.35024846 -47.85351562 327.86914062 C-47.88647527 331.57972434 -47.93819984 335.28977178 -48 339 C-47.10321533 338.99111755 -46.20643066 338.98223511 -45.2824707 338.9730835 C-36.80851655 338.89275339 -28.3346913 338.83194219 -19.86044312 338.79275131 C-15.50428959 338.77192508 -11.14845213 338.74369901 -6.79248047 338.69824219 C-2.58439043 338.65460613 1.62339663 338.6308256 5.83169556 338.62049103 C7.43279791 338.61313137 9.0338847 338.5987598 10.63485718 338.57707977 C28.1834428 338.34900956 28.1834428 338.34900956 34.53588867 344.48309326 C39.88861705 350.5148191 39.28059028 356.50019454 39.35009766 364.17700195 C39.37470032 366.16330491 39.4312961 368.14912783 39.48828125 370.13476562 C39.55674568 377.62401368 39.36120502 383.39204898 34 389 C32.87464844 389.72316406 32.87464844 389.72316406 31.7265625 390.4609375 C29.56103905 392.05628782 29.56103905 392.05628782 29.4609375 395.9140625 C29.41582949 397.48398836 29.38800966 399.05448012 29.375 400.625 C29.32289226 402.25668421 29.26566022 403.8882134 29.203125 405.51953125 C29.17412109 406.2976416 29.14511719 407.07575195 29.11523438 407.87744141 C28.84299395 412.89197161 28.1379066 417.44486098 25.125 421.5625 C23.71165915 423.87832822 23.71165915 423.87832822 24.6640625 425.8671875 C25.39917202 427.26865528 26.15786019 428.65796356 26.9375 430.03515625 C30.78331683 437.14708958 29.3392631 447.29923719 28 455 C28.9075 455.556875 29.815 456.11375 30.75 456.6875 C34.83777047 459.59610591 37.40501434 462.21504302 39 467 C39.27204567 471.05623536 39.31329552 475.11235513 39.35009766 479.17700195 C39.37470032 481.16330491 39.4312961 483.14912783 39.48828125 485.13476562 C39.54809354 491.67756564 39.48980256 496.85810792 35.76416016 502.38012695 C28.35717637 509.18130844 20.64847786 508.56600489 11.12693787 508.50793457 C9.48762126 508.51254506 7.84830878 508.51889898 6.20900494 508.52684355 C1.70986655 508.54353949 -2.78893239 508.53528934 -7.28807199 508.52289867 C-12.14225652 508.51385167 -16.99638251 508.52781613 -21.85055542 508.53881836 C-31.35738806 508.55661148 -40.86409444 508.55276016 -50.37093205 508.5411678 C-58.09622068 508.53213741 -65.82147389 508.53090776 -73.54676628 508.53526306 C-74.64590393 508.53587599 -75.74504157 508.53648893 -76.87748642 508.53712043 C-79.1102903 508.53839932 -81.34309418 508.53969617 -83.57589804 508.5410108 C-104.51603286 508.55241878 -125.45609764 508.53929917 -146.39622097 508.51780933 C-164.36924423 508.49993567 -182.34216415 508.50304426 -200.31518555 508.52148438 C-221.1815004 508.54288291 -242.04775388 508.55132275 -262.91407818 508.53903532 C-265.13840194 508.53776111 -267.36272571 508.53650362 -269.58704948 508.53526306 C-270.68149207 508.53464596 -271.77593466 508.53402886 -272.90354218 508.53339306 C-280.62130813 508.52993729 -288.33903519 508.53577332 -296.05679512 508.54518127 C-305.4595768 508.55639122 -314.86222489 508.55338223 -324.26499123 508.5320583 C-329.06371442 508.52153477 -333.86221474 508.51744829 -338.66093636 508.53065491 C-343.05218088 508.54255749 -347.44299555 508.53605164 -351.83420097 508.5147447 C-353.42425861 508.5102696 -355.01435242 508.51256525 -356.60438687 508.52224785 C-358.76383282 508.53439112 -360.92180152 508.52196013 -363.08117008 508.50336456 C-364.88104849 508.50239045 -364.88104849 508.50239045 -366.71728808 508.50139666 C-371.76449578 507.73049347 -374.84472254 505.25155058 -378.25 501.5625 C-381.63879052 496.60034245 -382.51773356 491.61042596 -383.30349731 485.73916626 C-383.41954563 484.91087197 -383.53559395 484.08257767 -383.65515888 483.22918355 C-384.04201346 480.45649796 -384.41967268 477.68263901 -384.79736328 474.90869141 C-385.07297845 472.91926229 -385.34914574 470.9299096 -385.62582397 468.94062805 C-386.37544195 463.53854389 -387.11696696 458.135377 -387.85680246 452.73194551 C-388.63216789 447.07719821 -389.4140722 441.42335472 -390.19503784 435.76937866 C-391.50578301 426.27232352 -392.81133509 416.77456541 -394.11376953 407.27636719 C-395.61921015 396.29814977 -397.13256393 385.32104566 -398.65024006 374.34451354 C-400.11017327 363.78441426 -401.5647397 353.22358261 -403.01678085 342.66239548 C-403.63469143 338.16871134 -404.25443445 333.67528557 -404.87564468 329.18205643 C-405.60723046 323.8885551 -406.33409835 318.59442664 -407.05734634 313.29977989 C-407.32338723 311.35774572 -407.59103173 309.41593045 -407.86040497 307.4743557 C-408.22815019 304.8217503 -408.59003895 302.16840871 -408.95046997 299.51480103 C-409.05805228 298.74873901 -409.1656346 297.98267699 -409.27647698 297.19340098 C-411.03836365 284.05754547 -411.03836365 284.05754547 -407 278 C-401.48106298 272.96032404 -396.02217907 273.47760336 -388.8203125 273.609375 C-387.6524118 273.61503479 -386.48451111 273.62069458 -385.28121948 273.62652588 C-381.56205746 273.64886244 -377.84386938 273.69905658 -374.125 273.75 C-371.59897228 273.77006839 -369.07292941 273.78831856 -366.546875 273.8046875 C-360.36425272 273.84871847 -354.18219596 273.91560469 -348 274 C-348.01665459 273.0042672 -348.01665459 273.0042672 -348.03364563 271.98841858 C-348.14542074 264.99510339 -348.22015051 258.00204726 -348.2746582 251.00805664 C-348.29959516 248.40801667 -348.33355723 245.80804526 -348.37719727 243.20825195 C-348.62233269 228.21461571 -348.43834927 215.05469057 -343 201 C-342.54424249 199.69736032 -342.09464881 198.39254835 -341.65112305 197.08569336 C-340.37784692 193.35177207 -339.03909615 189.64387699 -337.6875 185.9375 C-337.22805593 184.66618166 -336.76907078 183.39469738 -336.31054688 182.12304688 C-335.21148639 179.08038469 -334.1079727 176.03942554 -333 173 C-333.9075 172.46375 -334.815 171.9275 -335.75 171.375 C-339.17202475 169.35289446 -341.55385076 166.68952903 -343 163 C-343.59371613 158.57301895 -343.56036253 154.17991926 -343.53125 149.71875 C-343.53699036 147.78847961 -343.53699036 147.78847961 -343.54284668 145.81921387 C-343.54872549 143.10242386 -343.54023231 140.38616193 -343.52148438 137.66943359 C-343.49869436 134.19914461 -343.51182635 130.7300932 -343.53577423 127.25984955 C-343.55376143 123.93355233 -343.54114205 120.6075823 -343.53125 117.28125 C-343.53934692 116.04048706 -343.54744385 114.79972412 -343.55578613 113.5213623 C-343.48593191 107.08696221 -343.43677223 102.84275139 -339 98 C-334.37330874 93.80706104 -330.0707969 93.87531283 -323.98919678 93.87974548 C-322.93051372 93.87846385 -322.93051372 93.87846385 -321.85044312 93.87715632 C-319.48588156 93.87550942 -317.12139096 93.88100995 -314.75683594 93.88647461 C-313.06168621 93.88675668 -311.36653637 93.88659836 -309.67138672 93.8860321 C-305.06845392 93.8857449 -300.46554711 93.8916293 -295.86262035 93.89860606 C-291.05264098 93.9048523 -286.24266103 93.90544441 -281.43267822 93.90663147 C-272.32381889 93.90974103 -263.21497154 93.91794938 -254.10611749 93.92798096 C-243.73621157 93.93915372 -233.36630508 93.94465548 -222.99639463 93.94967639 C-201.6642564 93.96013229 -180.33212895 93.9777245 -159 94 C-158.84608292 92.88866699 -158.69216583 91.77733398 -158.53358459 90.63232422 C-155.26378875 68.37351322 -140.98109068 48.9021704 -126 33 C-125.40058594 32.33613281 -124.80117188 31.67226563 -124.18359375 30.98828125 C-113.78258866 19.91334495 -100.81866826 12.04672242 -87 6 C-86.35981934 5.71785645 -85.71963867 5.43571289 -85.06005859 5.14501953 C-59.05462609 -6.05864103 -27.17860383 -8.34993814 0 0 Z " fill="#020201" transform="translate(415,4)"/>
<path d="M0 0 C54.12 0 108.24 0 164 0 C166.97 5.61 169.94 11.22 173 17 C192.23557772 45.97827293 218.19888912 65.27285578 252 74 C252.02187378 75.3317627 252.02187378 75.3317627 252.04418945 76.69042969 C252.10534534 79.99327962 252.17951378 83.29530915 252.26245117 86.59765625 C252.29564794 88.02527914 252.32369631 89.45303163 252.34643555 90.88085938 C252.38008013 92.93675815 252.43239562 94.99147512 252.48828125 97.046875 C252.51446533 98.28276367 252.54064941 99.51865234 252.56762695 100.79199219 C253.02856183 104.21191557 253.51269466 105.64312178 256 108 C257.32 108.33 258.64 108.66 260 109 C260 115.93 260 122.86 260 130 C258.35 130.66 256.7 131.32 255 132 C252.59572889 135.60640667 252.65421124 138.33681206 252.5859375 142.51171875 C252.56657135 143.23994339 252.5472052 143.96816803 252.5272522 144.71846008 C252.46753624 147.04135475 252.42110383 149.36429919 252.375 151.6875 C252.33681279 153.26369332 252.29776062 154.83986595 252.2578125 156.41601562 C252.16021453 160.2772352 252.08058592 164.13823786 252 168 C242.76 168 233.52 168 224 168 C222.91345014 156.04795152 222.91345014 156.04795152 224 152 C226.56965269 149.31729998 228.97481798 148.01064814 232.29296875 146.375 C237.4021452 143.77986275 239.20501814 139.27980019 241 134 C241.80611465 126.15444233 242.09540637 118.41034995 237 112 C232.37912986 107.11060472 227.26894176 103.46854832 220.484375 102.49609375 C211.79236408 102.35971283 205.65774774 103.13912554 199 109 C193.41791453 115.03182696 191.52109643 121.10330962 191.68359375 129.15234375 C192.46774608 136.20971472 195.99011321 142.10397427 201 147 C203.61386108 148.56247562 206.20273935 149.76730887 209 151 C209 156.61 209 162.22 209 168 C207.62270721 168.00364563 206.24541443 168.00729126 204.8263855 168.01104736 C191.84847235 168.04798405 178.87079678 168.10574258 165.8930645 168.18390274 C159.22100443 168.22341651 152.54911578 168.255586 145.87695312 168.27099609 C139.43828176 168.28613671 132.99997528 168.32053695 126.56146622 168.36830902 C124.10471899 168.38314946 121.64791968 168.39104253 119.19112778 168.39188385 C115.75055764 168.39424712 112.31100111 168.42127742 108.87060547 168.45410156 C107.85424515 168.4490712 106.83788483 168.44404083 105.79072571 168.43885803 C99.86919658 168.52629536 96.52897171 169.09399528 92 173 C86.15947657 179.47193137 86.75591864 185.34498714 86.6875 193.6875 C86.65849609 194.84701172 86.62949219 196.00652344 86.59960938 197.20117188 C86.5508345 203.80078784 86.61041829 209.72578106 91 215 C92.05960937 215.58136719 93.11921875 216.16273438 94.2109375 216.76171875 C97 219 97 219 97.50878906 221.43603516 C97.67346795 224.57373763 97.68501552 227.67106263 97.625 230.8125 C97.53184709 238.53021857 97.60403154 243.54097307 102 250 C101.9219868 253.19854109 101.16596458 254.74362188 99.4296875 257.42578125 C97.05579125 263.36052188 97.9932921 269.47059289 98.38085938 275.765625 C98.47483305 278.61800255 98.51655648 281.19192635 98 284 C95.1328125 286.55078125 95.1328125 286.55078125 92 288 C87.90866558 292.53364085 86.89756933 295.73983453 86.68359375 301.76171875 C86.64548584 302.76936279 86.60737793 303.77700684 86.56811523 304.81518555 C86.50346069 306.7319812 86.50346069 306.7319812 86.4375 308.6875 C86.293125 312.750625 86.14875 316.81375 86 321 C74.12 321 62.24 321 50 321 C50.64345545 313.27853456 51.37211466 305.73852279 52.5234375 298.1015625 C52.67027985 297.10530853 52.81712219 296.10905457 52.96841431 295.08261108 C53.4337448 291.92953903 53.90408138 288.77724183 54.375 285.625 C54.98876417 281.49245071 55.6003883 277.35958793 56.2109375 273.2265625 C56.43694893 271.69850227 56.43694893 271.69850227 56.66752625 270.13957214 C58.0783382 260.55704419 59.38998764 250.9620485 60.68127441 241.36279297 C61.42007486 235.88587936 62.18105336 230.4119985 62.9375 224.9375 C63.10443359 223.72690918 63.27136719 222.51631836 63.44335938 221.26904297 C64.29291096 215.109794 65.14552508 208.95099362 66.00390625 202.79296875 C67.91140473 189.08159677 69.74790777 175.363649 71.49121094 161.63037109 C72.32779021 155.07440582 73.19797316 148.52579538 74.140625 141.984375 C74.4190625 140.0362793 74.4190625 140.0362793 74.703125 138.04882812 C75.05585088 135.59864296 75.41476628 133.14933702 75.78125 130.70117188 C78.16554385 118.30772298 78.16554385 118.30772298 74.8125 106.9375 C69.54373702 103.30790772 65.1197276 102.69912171 58.81323242 102.68115234 C58.00295593 102.67110672 57.19267944 102.6610611 56.35784912 102.65071106 C53.69039594 102.61992007 51.02304296 102.60285534 48.35546875 102.5859375 C46.50172567 102.56722256 44.64799108 102.5476489 42.79426575 102.5272522 C37.9232382 102.47595942 33.05218305 102.43631839 28.18103027 102.39910889 C23.20720607 102.35905138 18.23349645 102.30796699 13.25976562 102.2578125 C3.50659094 102.16108699 -6.24664849 102.07667136 -16 102 C-17.97700482 65.28329967 -16.68961207 33.37922414 0 0 Z " fill="#FDE4C1" transform="translate(99,176)"/>
<path d="M0 0 C46.53 0 93.06 0 141 0 C140.24618133 7.53818667 139.42637309 15.04603716 138.5 22.5625 C138.30470703 24.19928711 138.30470703 24.19928711 138.10546875 25.86914062 C137.97785156 26.90361328 137.85023438 27.93808594 137.71875 29.00390625 C137.54762695 30.40878296 137.54762695 30.40878296 137.37304688 31.84204102 C137 34 137 34 136 35 C134.12110753 35.12160751 132.2380334 35.17970232 130.35546875 35.2109375 C128.62780273 35.25347656 128.62780273 35.25347656 126.86523438 35.296875 C124.42527909 35.34870623 121.98515261 35.39305133 119.54492188 35.4296875 C117.81145508 35.47609375 117.81145508 35.47609375 116.04296875 35.5234375 C114.45005005 35.5531665 114.45005005 35.5531665 112.82495117 35.58349609 C109.67607446 36.04775879 108.27237999 36.80691643 106 39 C105.33740346 41.83568858 105.71832307 44.04239226 106 47 C108.67848546 49.67848546 110.13970861 49.30504006 113.8828125 49.4140625 C115.04941406 49.45273437 116.21601563 49.49140625 117.41796875 49.53125 C119.25294922 49.57765625 119.25294922 49.57765625 121.125 49.625 C122.35605469 49.66367187 123.58710938 49.70234375 124.85546875 49.7421875 C127.90349376 49.8366999 130.95150862 49.92225494 134 50 C133.39262052 62.25573288 131.44321296 74.31639265 129.625 86.4375 C129.01110182 90.5609142 128.39968175 94.68469282 127.7890625 98.80859375 C127.56305107 100.33201637 127.56305107 100.33201637 127.33247375 101.88621521 C125.91858425 111.45940852 124.60824757 121.04558135 123.31872559 130.63619995 C122.87649992 133.91592736 122.42521635 137.19433833 121.97265625 140.47265625 C121.82231934 141.56191406 121.67198242 142.65117187 121.51708984 143.7734375 C121.3670752 144.85882813 121.21706055 145.94421875 121.0625 147.0625 C120.0133946 154.65446821 118.96547572 162.24658011 117.92578125 169.83984375 C117.74974365 171.1230249 117.57370605 172.40620605 117.39233398 173.72827148 C117.05897972 176.15865844 116.72640031 178.58915186 116.39477539 181.01977539 C116.24129639 182.13731201 116.08781738 183.25484863 115.9296875 184.40625 C115.79804199 185.36853516 115.66639648 186.33082031 115.53076172 187.32226562 C114.72760133 192.88749477 113.85500015 198.44249905 113 204 C85.28 204 57.56 204 29 204 C26.74979382 198.37448454 26.74979382 198.37448454 26.26977539 195.04956055 C26.15936417 194.30558517 26.04895294 193.5616098 25.93519592 192.79508972 C25.82380783 192.0003273 25.71241974 191.20556488 25.59765625 190.38671875 C25.47551254 189.54937698 25.35336884 188.71203522 25.2275238 187.84931946 C24.83279409 185.12959075 24.44738909 182.4086373 24.0625 179.6875 C23.79065622 177.79748407 23.51851933 175.90751028 23.24609375 174.01757812 C21.78180033 163.80456979 20.40208497 153.58656946 19.18383789 143.34106445 C17.74871228 131.51698933 15.94116952 119.74367687 14.20019531 107.96166992 C12.59611941 97.1027198 11.03907512 86.24025293 9.58984375 75.359375 C9.20985653 72.51165465 8.80746593 69.6689408 8.37890625 66.828125 C8.19199219 65.58546875 8.00507813 64.3428125 7.8125 63.0625 C7.65394531 62.04285156 7.49539062 61.02320313 7.33203125 59.97265625 C6.95859369 56.62929172 6.97894988 53.36182728 7 50 C7.90788773 49.99413376 8.81577545 49.98826752 9.75117493 49.98222351 C18.30049528 49.92435822 26.84955267 49.8523172 35.39861774 49.76428509 C39.79396551 49.71952682 44.18921941 49.68028294 48.5847168 49.65356445 C52.825366 49.6275856 57.06565505 49.58722224 61.30608177 49.53681374 C62.92517816 49.5201082 64.54433689 49.50861692 66.16350746 49.50238609 C68.42880783 49.49278469 70.69317914 49.46477514 72.95825195 49.43237305 C74.24842728 49.42126999 75.5386026 49.41016693 76.86787415 49.39872742 C79.94878453 49.24831009 79.94878453 49.24831009 81.9127655 47.69172668 C83.77923347 44.78752003 83.4161163 42.32893039 83 39 C80.6296105 36.44365284 79.15530781 36.01860569 75.67169189 35.60127258 C74.33505108 35.57494515 72.99802997 35.56483397 71.66113281 35.56762695 C70.92903091 35.5574353 70.19692902 35.54724365 69.44264221 35.53674316 C67.02939195 35.50661486 64.61653862 35.49734776 62.203125 35.48828125 C60.52730999 35.47143439 58.85150761 35.45328414 57.17572021 35.43388367 C52.76991728 35.38637809 48.36416558 35.35657243 43.95819092 35.33044434 C39.4603056 35.30064158 34.96259682 35.25411028 30.46484375 35.20898438 C21.6433215 35.12294498 12.82176292 35.05560255 4 35 C3.42502921 30.98055657 2.85555765 26.96037492 2.29101562 22.93945312 C2.09848986 21.57368312 1.90450229 20.20811831 1.70898438 18.84277344 C1.4270773 16.87230054 1.15098358 14.90099876 0.875 12.9296875 C0.70742188 11.74616699 0.53984375 10.56264648 0.3671875 9.34326172 C0 6 0 6 0 0 Z " fill="#E9F5FE" transform="translate(21,293)"/>
<path d="M0 0 C0.05607422 1.33804688 0.05607422 1.33804688 0.11328125 2.703125 C0.17902344 3.87359375 0.24476563 5.0440625 0.3125 6.25 C0.37050781 7.41015625 0.42851562 8.5703125 0.48828125 9.765625 C1.02572793 13.16261622 1.46696367 14.69312763 4 17 C6.27889342 17.48168728 6.27889342 17.48168728 8.6875 17.25 C9.89986328 17.19585937 9.89986328 17.19585937 11.13671875 17.140625 C11.75160156 17.09421875 12.36648438 17.0478125 13 17 C14.15570704 13.53287889 14.32835293 10.4585044 14.5625 6.8125 C14.68818359 4.90404297 14.68818359 4.90404297 14.81640625 2.95703125 C14.87699219 1.98121094 14.93757813 1.00539062 15 0 C35.02369768 0.07584734 53.37761416 10.69784197 67.41015625 24.34375 C79.43039315 37.04437767 89.49371271 54.40871961 89.0703125 72.3125 C89.04710937 72.869375 89.02390625 73.42625 89 74 C88.10796875 74.02578125 87.2159375 74.0515625 86.296875 74.078125 C85.12640625 74.13484375 83.9559375 74.1915625 82.75 74.25 C81.58984375 74.29640625 80.4296875 74.3428125 79.234375 74.390625 C75.48950365 75.09618047 74.2102799 75.93199954 72 79 C72.14281508 84.05692899 72.14281508 84.05692899 75 88 C77.56916657 88.30599063 80.04758384 88.51087087 82.625 88.625 C83.33140625 88.66367188 84.0378125 88.70234375 84.765625 88.7421875 C86.50998524 88.83647724 88.25495691 88.91932891 90 89 C88.85663672 105.86460832 81.46919071 123.48193698 70 136 C69.17628906 136.90363281 68.35257813 137.80726563 67.50390625 138.73828125 C54.94688923 151.90088491 38.14691847 161.34620273 20 164 C18.33378017 164.03859092 16.6658594 164.05186742 15 164 C14.97421875 163.03578125 14.9484375 162.0715625 14.921875 161.078125 C14.86515625 159.81484375 14.8084375 158.5515625 14.75 157.25 C14.70359375 155.99703125 14.6571875 154.7440625 14.609375 153.453125 C13.92247053 149.56066635 13.19821273 148.26396779 10 146 C6.37350049 145.91083846 6.37350049 145.91083846 3 147 C0.65229357 150.52155964 0.62330386 152.50771843 0.375 156.6875 C0.26285156 158.45673828 0.26285156 158.45673828 0.1484375 160.26171875 C0.07496094 161.61716797 0.07496094 161.61716797 0 163 C-16.82096189 164.16006634 -33.24954542 155.66988188 -45.796875 144.9921875 C-46.52390625 144.33476562 -47.2509375 143.67734375 -48 143 C-48.70640625 142.36320313 -49.4128125 141.72640625 -50.140625 141.0703125 C-64.70023952 127.2331216 -73.10881176 108.88271691 -74 89 C-72.53626953 88.94392578 -72.53626953 88.94392578 -71.04296875 88.88671875 C-69.77066406 88.82097656 -68.49835938 88.75523437 -67.1875 88.6875 C-65.92292969 88.62949219 -64.65835937 88.57148438 -63.35546875 88.51171875 C-60.08129764 88.26232996 -60.08129764 88.26232996 -58.078125 86.67578125 C-56.21597228 83.78134821 -56.58542466 81.31660271 -57 78 C-60.20402132 74.65565658 -63.26089585 74.53695521 -67.75 74.3125 C-68.92046875 74.24675781 -70.0909375 74.18101563 -71.296875 74.11328125 C-72.18890625 74.07589844 -73.0809375 74.03851563 -74 74 C-74.62939348 56.23930278 -65.11368456 38.76036329 -53.62109375 25.7109375 C-42.57492665 14.28613874 -28.05673711 4.86488967 -12.4375 1.3125 C-11.36371094 1.06113281 -10.28992188 0.80976562 -9.18359375 0.55078125 C-6.05159097 0.00892555 -3.17108636 -0.10013957 0 0 Z " fill="#FAF9FA" transform="translate(372,45)"/>
<path d="M0 0 C25.21581588 -0.66662502 50.07856465 7.92649843 68.7734375 25.03515625 C87.87491227 43.23155212 100.50071529 67.19862117 101.42431641 93.84863281 C101.72059366 118.61741106 94.34241299 140.87194071 78.8984375 160.16015625 C78.17785156 161.06507813 77.45726562 161.97 76.71484375 162.90234375 C61.76806371 180.50937638 39.66913531 191.89928896 16.8984375 195.16015625 C12.95584457 195.4227018 9.03610557 195.44702659 5.0859375 195.41015625 C4.02640869 195.40266357 2.96687988 195.3951709 1.87524414 195.38745117 C-21.86470937 195.06119768 -43.43534749 187.23328262 -61.1015625 171.16015625 C-62.07738281 170.27714844 -63.05320312 169.39414063 -64.05859375 168.484375 C-80.3118487 153.2774009 -87.99133764 134.48717654 -93.1015625 113.16015625 C-93.28259521 112.49653076 -93.46362793 111.83290527 -93.65014648 111.14916992 C-98.59031778 89.38195763 -90.4509521 64.08577829 -79.36328125 45.54296875 C-64.74739794 23.00390949 -41.96964961 7.5949263 -15.85546875 1.68359375 C-10.56134452 0.67733468 -5.37510655 0.27755588 0 0 Z M-50.1015625 35.16015625 C-51.060625 35.92457031 -52.0196875 36.68898438 -53.0078125 37.4765625 C-65.80285314 48.16180393 -75.43878628 65.75315123 -78.1015625 82.16015625 C-78.28874837 84.8852342 -78.2563389 87.42577326 -78.1015625 90.16015625 C-77.20953125 90.19753906 -76.3175 90.23492187 -75.3984375 90.2734375 C-74.22796875 90.33917969 -73.0575 90.40492187 -71.8515625 90.47265625 C-70.69140625 90.53066406 -69.53125 90.58867188 -68.3359375 90.6484375 C-64.95625103 91.18314635 -63.45222675 91.7065432 -61.1015625 94.16015625 C-60.36891176 100.02136217 -60.36891176 100.02136217 -62.1796875 102.8359375 C-65.09899252 104.84740986 -67.78957096 104.68712912 -71.2890625 104.84765625 C-72.56136719 104.91339844 -73.83367187 104.97914063 -75.14453125 105.046875 C-76.60826172 105.10294922 -76.60826172 105.10294922 -78.1015625 105.16015625 C-78.03345118 125.04866061 -68.57295119 142.41200657 -54.875 156.4453125 C-42.56425316 168.49597314 -25.54426422 179.29879561 -7.7265625 179.41015625 C-6.5303125 179.32765625 -5.3340625 179.24515625 -4.1015625 179.16015625 C-4.07578125 178.268125 -4.05 177.37609375 -4.0234375 176.45703125 C-3.93835938 174.70132813 -3.93835938 174.70132813 -3.8515625 172.91015625 C-3.80515625 171.75 -3.75875 170.58984375 -3.7109375 169.39453125 C-3.00520208 165.64870481 -2.1671292 164.37417665 0.8984375 162.16015625 C4.5234375 162.22265625 4.5234375 162.22265625 7.8984375 163.16015625 C10.32323486 166.7973523 10.28506327 169.01719107 10.5234375 173.34765625 C10.63558594 175.25611328 10.63558594 175.25611328 10.75 177.203125 C10.79898438 178.17894531 10.84796875 179.15476563 10.8984375 180.16015625 C28.30964426 178.48600175 45.01936871 172.21807636 57.8984375 160.16015625 C58.81109375 159.33773437 59.72375 158.5153125 60.6640625 157.66796875 C75.1724802 143.99200124 84.29392685 125.05608831 85.8984375 105.16015625 C84.85042969 105.134375 83.80242187 105.10859375 82.72265625 105.08203125 C81.34370848 105.02574767 79.96480385 104.96840037 78.5859375 104.91015625 C77.89564453 104.89597656 77.20535156 104.88179688 76.49414062 104.8671875 C73.24722097 104.71033148 71.35146553 104.57491276 68.91015625 102.33984375 C67.36527534 99.01149029 67.99691094 96.63747299 68.8984375 93.16015625 C72.41999714 90.81244982 74.40615593 90.78346011 78.5859375 90.53515625 C79.76542969 90.46039063 80.94492187 90.385625 82.16015625 90.30859375 C83.06378906 90.25960937 83.96742188 90.210625 84.8984375 90.16015625 C86.41603077 73.16311167 76.82407565 56.98485456 66.53515625 44.23828125 C57.19804408 33.0901061 45.26747276 25.59569824 31.8984375 20.16015625 C31.14949219 19.85078125 30.40054688 19.54140625 29.62890625 19.22265625 C23.50520608 16.9276479 17.39645654 16.47900998 10.8984375 16.16015625 C10.83785156 17.13597656 10.77726562 18.11179687 10.71484375 19.1171875 C10.58916016 21.02564453 10.58916016 21.02564453 10.4609375 22.97265625 C10.33912109 24.86951172 10.33912109 24.86951172 10.21484375 26.8046875 C9.8984375 30.16015625 9.8984375 30.16015625 8.8984375 33.16015625 C7.46260749 33.26852078 6.0244173 33.34591792 4.5859375 33.41015625 C3.78542969 33.4565625 2.98492187 33.50296875 2.16015625 33.55078125 C-0.1015625 33.16015625 -0.1015625 33.16015625 -1.8515625 31.56640625 C-3.47012182 28.45067956 -3.614264 25.90612633 -3.7890625 22.41015625 C-3.85480469 21.2396875 -3.92054688 20.06921875 -3.98828125 18.86328125 C-4.04435547 17.52523437 -4.04435547 17.52523437 -4.1015625 16.16015625 C-20.65451977 15.55640097 -37.90707369 24.519867 -50.1015625 35.16015625 Z " fill="#040302" transform="translate(376.1015625,28.83984375)"/>
<path d="M0 0 C2.76818036 2.18686248 5.38668051 4.46100046 7.984375 6.84765625 C8.4685791 7.28948242 8.9527832 7.73130859 9.45166016 8.18652344 C29.62831152 26.80215619 43.87141832 52.83263002 45.10742188 80.61328125 C46.04333022 115.0821007 37.40181754 143.1280381 13.984375 168.84765625 C13.40300781 169.51152344 12.82164062 170.17539063 12.22265625 170.859375 C-4.26859463 188.67989547 -31.25210759 200.67213117 -55.31884766 202.03466797 C-58.86598931 202.11493358 -62.40520854 202.12073213 -65.953125 202.09765625 C-67.13841797 202.10539063 -68.32371094 202.113125 -69.54492188 202.12109375 C-98.59421836 202.05735421 -125.20255747 189.8846433 -146.015625 169.84765625 C-168.18466939 147.11529424 -178.48051426 118.02583906 -178.44946289 86.71777344 C-177.98054052 57.02584222 -164.90941595 30.51732695 -144.015625 9.84765625 C-143.23960937 9.04972656 -142.46359375 8.25179687 -141.6640625 7.4296875 C-103.67628051 -29.44848574 -41.90368069 -29.9079379 0 0 Z M-140.015625 25.84765625 C-157.59935511 46.37139104 -165.73041264 72.43573134 -164.26269531 99.31396484 C-163.10603108 111.17548795 -159.24347615 123.18847471 -154.015625 133.84765625 C-153.33886719 135.24177734 -153.33886719 135.24177734 -152.6484375 136.6640625 C-140.424809 160.41754599 -118.7958915 176.49715535 -93.87890625 184.90625 C-75.81932148 190.17048043 -54.77822674 189.84720612 -37.015625 183.84765625 C-35.90316406 183.48542969 -34.79070312 183.12320313 -33.64453125 182.75 C-8.3132533 173.77913926 11.07656116 155.50991006 22.67578125 131.3203125 C33.240118 106.51133122 34.58331075 79.71413767 24.609375 54.47265625 C23.75974838 52.58602311 22.88532578 50.71032576 21.984375 48.84765625 C21.34048828 47.49994141 21.34048828 47.49994141 20.68359375 46.125 C9.63924453 24.5029642 -8.1846024 9.6844582 -30.015625 -0.15234375 C-30.90507812 -0.55324219 -31.79453125 -0.95414063 -32.7109375 -1.3671875 C-70.1144437 -16.52304246 -113.25954501 -2.85134913 -140.015625 25.84765625 Z " fill="#FA6A53" transform="translate(446.015625,36.15234375)"/>
<path d="M0 0 C54.45 0 108.9 0 165 0 C165.33 8.91 165.66 17.82 166 27 C167.05202468 33.11888181 167.05202468 33.11888181 168.37890625 39.1796875 C169 42 169 42 169 47 C113.23 47 57.46 47 0 47 C0 31.49 0 15.98 0 0 Z " fill="#FDD1A3" transform="translate(88,114)"/>
<path d="M0 0 C1.45632746 -0.00150472 2.91265407 -0.00494038 4.36897278 -0.01020813 C7.40777273 -0.01452197 10.44550486 0.00216811 13.48413086 0.03442383 C17.37168763 0.07431242 21.25725603 0.06485263 25.14487743 0.04018879 C28.14679688 0.0259876 31.14825401 0.0361044 34.15014076 0.0537014 C35.58340666 0.05953333 37.01672019 0.05827525 38.44997215 0.0496769 C40.45262042 0.04165793 42.45531454 0.06951904 44.45776367 0.09887695 C45.59501389 0.10587112 46.7322641 0.1128653 47.90397644 0.12007141 C51.91804863 0.96369162 53.42918264 2.59559265 55.95703125 5.76171875 C56.5859375 9.171875 56.5859375 9.171875 56.51953125 12.82421875 C56.52082031 14.03207031 56.52210938 15.23992187 56.5234375 16.484375 C55.86834904 20.27485239 54.94612065 21.43190514 51.95703125 23.76171875 C49.06862957 25.20591959 46.49329304 24.94528264 43.26953125 25.0078125 C41.917962 25.04073953 40.56639965 25.07395136 39.21484375 25.10742188 C37.08175232 25.15491687 34.9486912 25.19937182 32.81542969 25.23852539 C30.75817175 25.27816107 28.70147941 25.32971159 26.64453125 25.3828125 C25.41089844 25.40786865 24.17726563 25.4329248 22.90625 25.45874023 C19.83749281 25.46049539 19.83749281 25.46049539 17.95703125 27.76171875 C17.48489452 31.82267833 17.48489452 31.82267833 17.95703125 35.76171875 C19.76637571 37.81377631 21.30203269 38.66860497 24.01391602 39.05412292 C26.65836291 39.18970951 29.28957684 39.22910507 31.9375 39.23828125 C32.90609451 39.25386078 33.87468903 39.26944031 34.87263489 39.28549194 C37.96325909 39.33299759 41.05365712 39.36077933 44.14453125 39.38671875 C47.24595886 39.42316382 50.34725695 39.4637166 53.44856262 39.5093689 C55.37824434 39.53667605 57.30802145 39.55799204 59.23783875 39.57290649 C60.53972893 39.58829971 60.53972893 39.58829971 61.86791992 39.60400391 C63.01897469 39.61374741 63.01897469 39.61374741 64.19328308 39.62368774 C65.95703125 39.76171875 65.95703125 39.76171875 66.95703125 40.76171875 C67.05602648 42.31127434 67.08782649 43.86525548 67.08984375 45.41796875 C67.09113281 46.35769531 67.09242188 47.29742187 67.09375 48.265625 C67.08988281 49.25433594 67.08601562 50.24304688 67.08203125 51.26171875 C67.08589844 52.25042969 67.08976563 53.23914063 67.09375 54.2578125 C67.09181641 55.66740234 67.09181641 55.66740234 67.08984375 57.10546875 C67.08871582 57.97365234 67.08758789 58.84183594 67.08642578 59.73632812 C66.95703125 61.76171875 66.95703125 61.76171875 65.95703125 62.76171875 C62.89776081 62.85974957 59.86105237 62.89162773 56.80137634 62.88197327 C55.82863646 62.88282769 54.85589657 62.88368212 53.85367972 62.88456243 C50.56771809 62.88622019 47.2818066 62.88069104 43.99584961 62.87524414 C41.65090435 62.87496231 39.305959 62.87511993 36.96101379 62.87568665 C30.57283932 62.87597477 24.18468345 62.87007568 17.79651332 62.86311269 C11.80351938 62.8575122 5.81052545 62.85649087 -0.18247061 62.85546082 C-12.05597677 62.85326998 -23.92947608 62.84660906 -35.80297852 62.8371582 C-47.33976202 62.82798489 -58.87654367 62.82090366 -70.41333008 62.81665039 C-71.1239723 62.81638767 -71.83461453 62.81612494 -72.56679136 62.81585426 C-76.13172968 62.81454926 -79.696668 62.81328554 -83.26160634 62.81204236 C-112.85539835 62.80166877 -142.44918323 62.78397549 -172.04296875 62.76171875 C-172.07184387 59.11590188 -172.0897246 55.47011412 -172.10546875 51.82421875 C-172.11384766 50.78330078 -172.12222656 49.74238281 -172.13085938 48.66992188 C-172.13569336 47.18588867 -172.13569336 47.18588867 -172.140625 45.671875 C-172.14586182 44.75543213 -172.15109863 43.83898926 -172.15649414 42.89477539 C-172.04296875 40.76171875 -172.04296875 40.76171875 -171.04296875 39.76171875 C-168.49931453 39.64004721 -165.98232208 39.58311423 -163.43725586 39.56884766 C-162.64041382 39.56067017 -161.84357178 39.55249268 -161.02258301 39.54406738 C-158.3718339 39.51915352 -155.72113877 39.50267709 -153.0703125 39.48828125 C-152.1655121 39.48295757 -151.26071171 39.4776339 -150.32849312 39.4721489 C-145.53418957 39.44538403 -140.73991228 39.42602483 -135.94555664 39.41162109 C-131.00132132 39.39501679 -126.05775825 39.35028437 -121.11377621 39.29924965 C-117.30722833 39.26551517 -113.50083824 39.25403653 -109.69415474 39.24839401 C-107.8725531 39.24169249 -106.05096145 39.22649907 -104.22950554 39.2025032 C-101.67060464 39.17073158 -99.11349132 39.17083301 -96.55444336 39.17822266 C-95.80866531 39.16181732 -95.06288727 39.14541199 -94.29450989 39.12850952 C-89.11577415 39.18936215 -86.09225946 40.57961358 -81.95150089 43.68237877 C-79.02595712 45.33687349 -76.46387671 44.96808889 -73.21875 44.546875 C-70.85448692 43.8452437 -70.85448692 43.8452437 -68.76551819 41.74378967 C-65.6090837 39.44584168 -64.15678358 39.26278109 -60.30639648 39.26342773 C-59.17850204 39.25339218 -58.0506076 39.24335663 -56.88853455 39.23301697 C-55.07585838 39.24529076 -55.07585838 39.24529076 -53.2265625 39.2578125 C-51.35364281 39.24368065 -51.35364281 39.24368065 -49.44288635 39.22926331 C-46.1315886 39.20544753 -42.82109313 39.19696539 -39.50976562 39.19836426 C-34.84213691 39.20032969 -30.17486719 39.19083753 -25.50733948 39.15846252 C-23.02443451 39.14161769 -20.5413864 39.13884209 -18.05845642 39.151474 C-16.93371414 39.14459061 -15.80897186 39.13770721 -14.65014648 39.13061523 C-13.16719337 39.13205788 -13.16719337 39.13205788 -11.65428162 39.13352966 C-8.61963451 38.70144244 -7.2461172 37.85956768 -5.04296875 35.76171875 C-4.31788446 32.87850958 -4.70658799 30.78914563 -5.04296875 27.76171875 C-8.84938116 25.22411048 -12.0115723 25.411944 -16.4296875 25.34765625 C-17.24669632 25.3282901 -18.06370514 25.30892395 -18.9054718 25.28897095 C-21.51369809 25.22921523 -24.12196861 25.18280617 -26.73046875 25.13671875 C-28.49936815 25.09853525 -30.26824903 25.05948329 -32.03710938 25.01953125 C-36.37224534 24.92351707 -40.70746835 24.8394714 -45.04296875 24.76171875 C-42.19258682 21.84775493 -39.36917656 19.09972773 -36.1171875 16.640625 C-35.40240234 16.09728516 -34.68761719 15.55394531 -33.95117188 14.99414062 C-33.21833984 14.44306641 -32.48550781 13.89199219 -31.73046875 13.32421875 C-31.00923828 12.77701172 -30.28800781 12.22980469 -29.54492188 11.66601562 C-27.38126615 10.02629447 -25.2134448 8.39240338 -23.04296875 6.76171875 C-22.28932793 6.0131234 -22.28932793 6.0131234 -21.52046204 5.24940491 C-15.10928612 -0.57965024 -8.27478312 -0.09915585 0 0 Z " fill="#F5A86B" transform="translate(372.04296875,434.23828125)"/>
<path d="M0 0 C0.91855978 0.00223072 1.83711957 0.00446144 2.7835145 0.00675976 C3.75146527 0.00519977 4.71941604 0.00363978 5.71669865 0.00203252 C8.98650362 -0.00198198 12.25626283 0.0012139 15.52606821 0.00434887 C17.85953915 0.00299503 20.19300988 0.0012152 22.5264802 -0.00096118 C28.8837287 -0.00553756 35.24096106 -0.00374512 41.59820986 -0.0005821 C47.56315411 0.00168515 53.52809632 -0.00004094 59.49304062 -0.00150929 C72.027257 -0.00436418 84.56146607 -0.00107692 97.09568125 0.00429107 C107.86203134 0.00875912 118.62837066 0.00798319 129.39472055 0.00337231 C141.88259019 -0.0019733 154.37045343 -0.00408949 166.85832405 -0.00101542 C173.47420336 0.00054783 180.09007524 0.00073979 186.70595407 -0.00255191 C192.92417567 -0.00542936 199.14237681 -0.00345727 205.36059618 0.00234234 C207.65000801 0.00367062 209.93942155 0.00327469 212.22883272 0.00107968 C215.33977571 -0.00162918 218.450652 0.00174604 221.56159067 0.00675976 C222.48015046 0.00452904 223.39871024 0.00229832 224.34510517 0 C230.55840278 0.0195936 230.55840278 0.0195936 231.67255259 1.13374341 C231.77154782 2.68329899 231.80334783 4.23728013 231.80536509 5.78999341 C231.80665415 6.72971997 231.80794321 7.66944653 231.80927134 8.63764966 C231.80540415 9.62636059 231.80153696 10.61507153 231.79755259 11.63374341 C231.80141977 12.62245434 231.80528696 13.61116528 231.80927134 14.62983716 C231.80733774 16.039427 231.80733774 16.039427 231.80536509 17.47749341 C231.80423716 18.345677 231.80310923 19.21386059 231.80194712 20.10835278 C231.67255259 22.13374341 231.67255259 22.13374341 230.67255259 23.13374341 C227.62819176 23.23399166 224.60643785 23.26812146 221.56159067 23.26072705 C220.5936399 23.26228704 219.62568913 23.26384703 218.62840652 23.26545429 C215.35860155 23.26946879 212.08884235 23.26627291 208.81903696 23.26313794 C206.48556602 23.26449178 204.15209529 23.26627161 201.81862497 23.268448 C195.46137647 23.27302437 189.10414411 23.27123193 182.74689531 23.26806891 C176.78195106 23.26580166 170.81700885 23.26752775 164.85206455 23.2689961 C152.31784817 23.27185099 139.7836391 23.26856374 127.24942392 23.26319574 C116.48307383 23.25872769 105.71673452 23.25950362 94.95038462 23.2641145 C82.46251498 23.26946011 69.97465174 23.2715763 57.48678112 23.26850224 C50.87090181 23.26693898 44.25502994 23.26674702 37.6391511 23.27003872 C31.4209295 23.27291617 25.20272837 23.27094408 18.98450899 23.26514447 C16.69509716 23.26381619 14.40568362 23.26421212 12.11627245 23.26640713 C9.00532946 23.26911599 5.89445317 23.26574077 2.7835145 23.26072705 C1.40567482 23.26407313 1.40567482 23.26407313 0 23.26748681 C-6.2132976 23.24789322 -6.2132976 23.24789322 -7.32744741 22.13374341 C-7.42644265 20.58418782 -7.45824266 19.03020668 -7.46025991 17.47749341 C-7.46154898 16.53776684 -7.46283804 15.59804028 -7.46416616 14.62983716 C-7.46029898 13.64112622 -7.45643179 12.65241528 -7.45244741 11.63374341 C-7.4563146 10.64503247 -7.46018179 9.65632153 -7.46416616 8.63764966 C-7.4628771 7.69792309 -7.46158804 6.75819653 -7.46025991 5.78999341 C-7.45913198 4.92180981 -7.45800406 4.05362622 -7.45684195 3.15913403 C-7.17131056 -1.31024033 -3.68280627 0.01161371 0 0 Z " fill="#F5A86B" transform="translate(207.3274474143982,358.8662565946579)"/>
<path d="M0 0 C23.76 0 47.52 0 72 0 C72 0.33 72 0.66 72 1 C59.79 1.33 47.58 1.66 35 2 C35.60585938 6.35582275 36.21171875 10.71164551 36.8359375 15.19946289 C38.83597508 29.58379827 40.83083826 43.96884769 42.82302856 58.35427189 C44.03113333 67.07695484 45.24101017 75.7993851 46.45507812 84.52124023 C47.5133935 92.12420304 48.56836439 99.72762116 49.6193409 107.33160204 C50.17581267 111.35690596 50.73394349 115.38196392 51.29608154 119.40648079 C51.8254959 123.19710455 52.35042466 126.98832288 52.87197113 130.78003693 C53.06381226 132.16896469 53.25726854 133.55767051 53.45249176 134.94612694 C53.71964657 136.84795607 53.98032591 138.75069142 54.24072266 140.65345764 C54.38820953 141.71628495 54.53569641 142.77911226 54.68765259 143.87414646 C55.02341245 147.23430285 55 150.62311006 55 154 C44.11 154 33.22 154 22 154 C19.74979382 148.37448454 19.74979382 148.37448454 19.26977539 145.04956055 C19.15936417 144.30558517 19.04895294 143.5616098 18.93519592 142.79508972 C18.82380783 142.0003273 18.71241974 141.20556488 18.59765625 140.38671875 C18.47551254 139.54937698 18.35336884 138.71203522 18.2275238 137.84931946 C17.83279409 135.12959075 17.44738909 132.4086373 17.0625 129.6875 C16.79065622 127.79748407 16.51851933 125.90751028 16.24609375 124.01757812 C14.78180033 113.80456979 13.40208497 103.58656946 12.18383789 93.34106445 C10.74871228 81.51698933 8.94116952 69.74367687 7.20019531 57.96166992 C5.59611941 47.1027198 4.03907512 36.24025293 2.58984375 25.359375 C2.20985653 22.51165465 1.80746593 19.6689408 1.37890625 16.828125 C1.19199219 15.58546875 1.00507813 14.3428125 0.8125 13.0625 C0.65394531 12.04285156 0.49539062 11.02320313 0.33203125 9.97265625 C-0.03717761 6.66715106 0 3.32606069 0 0 Z " fill="#D5E9FB" transform="translate(28,343)"/>
<path d="M0 0 C46.53 0 93.06 0 141 0 C140.24618133 7.53818667 139.42637309 15.04603716 138.5 22.5625 C138.30470703 24.19928711 138.30470703 24.19928711 138.10546875 25.86914062 C137.97785156 26.90361328 137.85023438 27.93808594 137.71875 29.00390625 C137.54762695 30.40878296 137.54762695 30.40878296 137.37304688 31.84204102 C137 34 137 34 136 35 C134.12110753 35.12160751 132.2380334 35.17970232 130.35546875 35.2109375 C128.62780273 35.25347656 128.62780273 35.25347656 126.86523438 35.296875 C124.42527909 35.34870623 121.98515261 35.39305133 119.54492188 35.4296875 C117.81145508 35.47609375 117.81145508 35.47609375 116.04296875 35.5234375 C114.45005005 35.5531665 114.45005005 35.5531665 112.82495117 35.58349609 C109.65079389 36.0514861 108.25560763 36.74406246 106 39 C105.19053578 42.10197397 105.19053578 42.10197397 105 45 C104.67 44.34 104.34 43.68 104 43 C97.73 43 91.46 43 85 43 C84.505 43.99 84.505 43.99 84 45 C83.731875 43.88625 83.46375 42.7725 83.1875 41.625 C82.34190981 37.78159049 82.34190981 37.78159049 79 36 C76.5554606 35.78780343 74.22081965 35.68880479 71.7746582 35.68115234 C70.6767244 35.66608391 70.6767244 35.66608391 69.55661011 35.65071106 C67.13800845 35.61982815 64.71951775 35.60282996 62.30078125 35.5859375 C60.62354067 35.56722994 58.94630954 35.54765683 57.26908875 35.5272522 C52.85506762 35.47588141 48.44101595 35.43628223 44.02685547 35.39910889 C39.5223838 35.3591002 35.01803967 35.30799358 30.51367188 35.2578125 C21.67587078 35.16099468 12.83799775 35.07660867 4 35 C3.42502921 30.98055657 2.85555765 26.96037492 2.29101562 22.93945312 C2.09848986 21.57368312 1.90450229 20.20811831 1.70898438 18.84277344 C1.4270773 16.87230054 1.15098358 14.90099876 0.875 12.9296875 C0.70742188 11.74616699 0.53984375 10.56264648 0.3671875 9.34326172 C0 6 0 6 0 0 Z " fill="#89C8FD" transform="translate(21,293)"/>
<path d="M0 0 C71.61 0 143.22 0 217 0 C217 18 217 18 213 23 C210.01467102 23.49933854 207.59695191 23.67242335 204.6114502 23.62818909 C203.75739232 23.63528347 202.90333444 23.64237786 202.02339602 23.64968723 C199.15641807 23.6673148 196.29078732 23.64913845 193.42382812 23.63110352 C191.37063478 23.63624051 189.31744583 23.64352013 187.26426697 23.65278625 C181.68366936 23.67133629 176.10354812 23.65833877 170.5229702 23.63869596 C164.68852537 23.62233797 158.8541114 23.63111837 153.01965332 23.63621521 C143.22086965 23.64073935 133.42227667 23.62484637 123.62353516 23.59692383 C112.28767377 23.56487059 100.95215636 23.56488669 89.61627054 23.5821386 C78.7207345 23.59799097 67.82532481 23.5912784 56.92979431 23.57420158 C52.28869777 23.56732098 47.64770221 23.56837391 43.00660706 23.57574654 C37.54330453 23.58339598 32.08039444 23.5713269 26.61715889 23.54389763 C24.60960111 23.53699865 22.60200679 23.53693194 20.59445 23.54411316 C17.85870889 23.55277301 15.12418858 23.53691097 12.3885498 23.5146637 C11.58972146 23.52290446 10.79089311 23.53114523 9.96785784 23.53963572 C4.61482684 23.45901345 4.0761464 23.0761464 0 19 C0 12.73 0 6.46 0 0 Z " fill="#00C179" transform="translate(211,397)"/>
<path d="M0 0 C14.52 0 29.04 0 44 0 C42.60355637 6.28399635 41.56121788 10.43158424 38.99609375 16.00390625 C26.82747088 44.2002969 27.33996144 71.67068736 28 102 C13.48 102 -1.04 102 -16 102 C-17.77355325 65.14950461 -16.75409011 33.50818021 0 0 Z " fill="#FDD1A3" transform="translate(99,176)"/>
<path d="M0 0 C1.15371094 0.00322266 2.30742187 0.00644531 3.49609375 0.00976562 C4.68589844 0.01814453 5.87570312 0.02652344 7.1015625 0.03515625 C8.92107422 0.04192383 8.92107422 0.04192383 10.77734375 0.04882812 C13.76046757 0.06057271 16.74348929 0.07699785 19.7265625 0.09765625 C19.7265625 0.42765625 19.7265625 0.75765625 19.7265625 1.09765625 C18.59734375 1.06671875 18.59734375 1.06671875 17.4453125 1.03515625 C3.86873543 1.29877911 -7.53323089 8.22150473 -18.2734375 16.09765625 C-17.2834375 17.08765625 -17.2834375 17.08765625 -16.2734375 18.09765625 C-17.04945313 18.30519531 -17.82546875 18.51273438 -18.625 18.7265625 C-31.88348369 22.50792002 -43.53081733 28.39898593 -54.2734375 37.09765625 C-55.18867188 37.83628906 -56.10390625 38.57492188 -57.046875 39.3359375 C-75.91631671 55.48331689 -87.20040747 79.52101111 -89.2734375 104.09765625 C-90.58655011 121.9852584 -87.19418868 138.94786117 -79.2734375 155.09765625 C-78.59667969 156.49177734 -78.59667969 156.49177734 -77.90625 157.9140625 C-66.91172225 179.27910427 -48.51245655 193.81062846 -26.63671875 202.72265625 C-19.84519904 205.49921251 -19.84519904 205.49921251 -17.515625 207.9375 C-14.48276308 210.85940356 -11.08024885 212.65711576 -7.3984375 214.66015625 C-6.35623047 215.23926758 -6.35623047 215.23926758 -5.29296875 215.83007812 C-1.33335333 218.01867911 2.66402284 220.10459212 6.7265625 222.09765625 C6.7265625 222.42765625 6.7265625 222.75765625 6.7265625 223.09765625 C-22.68253086 223.95146864 -49.16917843 212.38783416 -70.68896484 192.62304688 C-90.4927903 173.55766915 -103.52832652 146.06061223 -104.64453125 118.5390625 C-105.20039407 87.32972815 -96.69645242 58.45757068 -74.72241211 35.54272461 C-73.25103321 34.04887833 -71.76404594 32.57227546 -70.2734375 31.09765625 C-69.49742187 30.29972656 -68.72140625 29.50179687 -67.921875 28.6796875 C-50.88905033 12.1443852 -23.90247923 -0.11832911 0 0 Z " fill="#F7524B" transform="translate(372.2734375,14.90234375)"/>
<path d="M0 0 C21.45 0 42.9 0 65 0 C65 15.51 65 31.02 65 47 C43.55 47 22.1 47 0 47 C0 31.49 0 15.98 0 0 Z " fill="#FFBD86" transform="translate(88,114)"/>
<path d="M0 0 C1.45632746 -0.00150472 2.91265407 -0.00494038 4.36897278 -0.01020813 C7.40777273 -0.01452197 10.44550486 0.00216811 13.48413086 0.03442383 C17.37168763 0.07431242 21.25725603 0.06485263 25.14487743 0.04018879 C28.14679688 0.0259876 31.14825401 0.0361044 34.15014076 0.0537014 C35.58340666 0.05953333 37.01672019 0.05827525 38.44997215 0.0496769 C40.45262042 0.04165793 42.45531454 0.06951904 44.45776367 0.09887695 C45.59501389 0.10587112 46.7322641 0.1128653 47.90397644 0.12007141 C51.91804863 0.96369162 53.42918264 2.59559265 55.95703125 5.76171875 C56.5859375 9.171875 56.5859375 9.171875 56.51953125 12.82421875 C56.52082031 14.03207031 56.52210938 15.23992187 56.5234375 16.484375 C55.86834904 20.27485239 54.94612065 21.43190514 51.95703125 23.76171875 C49.06862957 25.20591959 46.49329304 24.94528264 43.26953125 25.0078125 C41.917962 25.04073953 40.56639965 25.07395136 39.21484375 25.10742188 C37.08175232 25.15491687 34.9486912 25.19937182 32.81542969 25.23852539 C30.75817175 25.27816107 28.70147941 25.32971159 26.64453125 25.3828125 C25.41089844 25.40786865 24.17726563 25.4329248 22.90625 25.45874023 C19.83749281 25.46049539 19.83749281 25.46049539 17.95703125 27.76171875 C17.55938862 29.74993188 17.21927776 31.75116214 16.95703125 33.76171875 C16.62703125 33.10171875 16.29703125 32.44171875 15.95703125 31.76171875 C9.68703125 31.76171875 3.41703125 31.76171875 -3.04296875 31.76171875 C-3.37296875 32.42171875 -3.70296875 33.08171875 -4.04296875 33.76171875 C-4.33171875 32.62734375 -4.62046875 31.49296875 -4.91796875 30.32421875 C-5.28921875 29.14859375 -5.66046875 27.97296875 -6.04296875 26.76171875 C-9.2619996 25.15220332 -12.79135707 25.51937127 -16.33203125 25.4453125 C-17.15045502 25.4245314 -17.96887878 25.40375031 -18.81210327 25.38233948 C-21.43063841 25.31687063 -24.04927514 25.25797149 -26.66796875 25.19921875 C-28.44141682 25.15603099 -30.21485456 25.11241661 -31.98828125 25.06835938 C-36.33973921 24.96119199 -40.69129952 24.85991706 -45.04296875 24.76171875 C-42.19258682 21.84775493 -39.36917656 19.09972773 -36.1171875 16.640625 C-35.40240234 16.09728516 -34.68761719 15.55394531 -33.95117188 14.99414062 C-32.85192383 14.1675293 -32.85192383 14.1675293 -31.73046875 13.32421875 C-31.00923828 12.77701172 -30.28800781 12.22980469 -29.54492188 11.66601562 C-27.38126615 10.02629447 -25.2134448 8.39240338 -23.04296875 6.76171875 C-22.54054153 6.26265518 -22.03811432 5.76359161 -21.52046204 5.24940491 C-15.10928612 -0.57965024 -8.27478312 -0.09915585 0 0 Z " fill="#B65A4A" transform="translate(372.04296875,434.23828125)"/>
<path d="M0 0 C46.53 0 93.06 0 141 0 C141 1.65 141 3.3 141 5 C140.67 3.68 140.34 2.36 140 1 C105.35 1 70.7 1 35 1 C36.32 11.23 37.64 21.46 39 32 C39 32.99 39 33.98 39 35 C27.45 35 15.9 35 4 35 C3.34 30.33875 2.68 25.6775 2 20.875 C1.79117187 19.41562012 1.58234375 17.95624023 1.3671875 16.45263672 C1.12355469 14.70877686 1.12355469 14.70877686 0.875 12.9296875 C0.70742188 11.74616699 0.53984375 10.56264648 0.3671875 9.34326172 C0 6 0 6 0 0 Z " fill="#5BACEE" transform="translate(21,293)"/>
<path d="M0 0 C3.5 0.5625 3.5 0.5625 5.671875 1.95703125 C8.49687759 5.98326357 8.17591439 10.00367038 8.25 14.8125 C8.27964844 15.74835938 8.30929687 16.68421875 8.33984375 17.6484375 C8.41039804 19.95321092 8.46316252 22.25698168 8.5 24.5625 C9.304375 23.758125 10.10875 22.95375 10.9375 22.125 C14.5 18.5625 14.5 18.5625 16.75 18.1875 C19.5 18.5625 19.5 18.5625 22.375 20.625 C24.5 23.5625 24.5 23.5625 24.34887695 26.8840332 C23.45714431 30.74820797 22.25728379 33.08963995 20.04296875 36.35546875 C19.34236328 37.39767578 18.64175781 38.43988281 17.91992188 39.51367188 C17.18322266 40.58166016 16.44652344 41.64964844 15.6875 42.75 C14.96240234 43.82958984 14.23730469 44.90917969 13.49023438 46.02148438 C7.04871532 55.51580021 7.04871532 55.51580021 3.5 58.5625 C0 59.125 0 59.125 -3.5 58.5625 C-6.04611288 56.39637 -7.32668152 54.62371957 -7.87133789 51.28881836 C-8.03058388 48.43488563 -8.05419968 45.60832041 -8.03125 42.75 C-8.0350769 41.70352295 -8.03890381 40.6570459 -8.04284668 39.57885742 C-8.04556438 37.36994462 -8.03821322 35.16099956 -8.02148438 32.95214844 C-8.00007377 29.57413881 -8.02129197 26.1982561 -8.046875 22.8203125 C-8.0442317 20.67187031 -8.03910668 18.52342945 -8.03125 16.375 C-8.03934692 15.36655029 -8.04744385 14.35810059 -8.05578613 13.3190918 C-7.99734237 8.94122486 -7.90768781 6.26816416 -5.68554688 2.421875 C-3.5 0.5625 -3.5 0.5625 0 0 Z " fill="#040404" transform="translate(379.5,75.4375)"/>
<path d="M0 0 C24.42 0 48.84 0 74 0 C68.36736334 5.63263666 68.36736334 5.63263666 65.79296875 7.69140625 C65.21361572 8.15579102 64.6342627 8.62017578 64.03735352 9.09863281 C63.12167603 9.82324707 63.12167603 9.82324707 62.1875 10.5625 C61.54675537 11.07264648 60.90601074 11.58279297 60.24584961 12.10839844 C52.94409308 17.88906604 45.48153213 23.4552114 38 29 C34.38292594 27.38860208 31.4902873 25.18105107 28.375 22.75 C27.82666504 22.32323975 27.27833008 21.89647949 26.71337891 21.45678711 C25.49150449 20.50552579 24.27069812 19.55289151 23.05078125 18.59912109 C20.78958625 16.83592738 18.52029389 15.08349192 16.25 13.33203125 C14.62489148 12.07566119 12.99989066 10.81915181 11.375 9.5625 C10.59302246 8.95954102 9.81104492 8.35658203 9.00537109 7.73535156 C8.26883301 7.16397461 7.53229492 6.59259766 6.7734375 6.00390625 C6.11778809 5.49674072 5.46213867 4.9895752 4.78662109 4.46704102 C3 3 3 3 0 0 Z " fill="#FCD201" transform="translate(258,435)"/>
<path d="M0 0 C1.39120471 0.00015906 2.78241534 0.00585033 4.17358398 0.01586914 C4.90463852 0.01728409 5.63569305 0.01869904 6.38890076 0.02015686 C8.73253406 0.02577131 11.07607313 0.03832617 13.41967773 0.05102539 C15.00496282 0.05603853 16.59024939 0.06060176 18.17553711 0.06469727 C22.06948316 0.07489618 25.9632245 0.09446852 29.85717773 0.11352539 C29.85717773 7.37352539 29.85717773 14.63352539 29.85717773 22.11352539 C97.17717773 22.11352539 164.49717773 22.11352539 233.85717773 22.11352539 C233.85717773 22.44352539 233.85717773 22.77352539 233.85717773 23.11352539 C203.68180229 23.13631536 173.50642715 23.15402336 143.33104501 23.16459072 C139.77229171 23.1658415 136.21353843 23.16713581 132.65478516 23.16845703 C131.94627177 23.16871934 131.23775838 23.16898165 130.50777488 23.16925191 C119.02066355 23.17360869 107.5335572 23.18149628 96.04644883 23.19067819 C84.26832507 23.20001452 72.49020392 23.20558096 60.7120766 23.20761389 C54.0928266 23.20892144 47.4735879 23.21201012 40.85434151 23.21925545 C34.6320326 23.22601151 28.40973974 23.2281432 22.18742752 23.22663307 C19.89640275 23.22690959 17.60537747 23.22891715 15.31435585 23.23273087 C12.20117337 23.23766166 9.08805251 23.23652596 5.97486877 23.23377991 C4.59600592 23.23814917 4.59600592 23.23814917 3.18928725 23.2426067 C-3.02870105 23.2276466 -3.02870105 23.2276466 -4.14282227 22.11352539 C-4.2418175 20.5639698 -4.27361751 19.00998866 -4.27563477 17.45727539 C-4.27692383 16.51754883 -4.27821289 15.57782227 -4.27954102 14.60961914 C-4.27567383 13.6209082 -4.27180664 12.63219727 -4.26782227 11.61352539 C-4.27168945 10.62481445 -4.27555664 9.63610352 -4.27954102 8.61743164 C-4.27825195 7.67770508 -4.27696289 6.73797852 -4.27563477 5.76977539 C-4.27450684 4.9015918 -4.27337891 4.0334082 -4.2722168 3.13891602 C-4.0572939 -0.22523554 -3.4537731 0.12475759 0 0 Z " fill="#E79A59" transform="translate(204.142822265625,358.886474609375)"/>
<path d="M0 0 C5.00481563 1.05551527 8.06963051 4.44067897 11.54199219 7.95947266 C14.86105484 11.069629 18.61028383 13.67824656 22.25732422 16.38720703 C23.74242897 17.49603696 25.22444789 18.60901781 26.70263672 19.72705078 C27.33959473 20.20392334 27.97655273 20.6807959 28.6328125 21.17211914 C30.13232422 22.44970703 30.13232422 22.44970703 31.13232422 24.44970703 C24.53056379 24.5765854 17.92911822 24.6640908 11.32641602 24.72436523 C9.08085378 24.74949426 6.83537322 24.78360318 4.59008789 24.8269043 C1.36047204 24.88762479 -1.86806162 24.91593334 -5.09814453 24.93798828 C-6.10040573 24.96379471 -7.10266693 24.98960114 -8.13529968 25.01618958 C-12.85178534 25.01808327 -15.11828844 25.00478064 -18.99926758 22.13012695 C-21.37993142 18.71482468 -21.53727828 16.5888186 -21.49267578 12.44970703 C-21.50556641 11.25345703 -21.51845703 10.05720703 -21.53173828 8.82470703 C-19.39899893 -2.01462706 -8.79221476 -1.01525471 0 0 Z " fill="#9E4C3C" transform="translate(231.86767578125,434.55029296875)"/>
<path d="M0 0 C1.39120471 0.00015906 2.78241534 0.00585033 4.17358398 0.01586914 C4.90463852 0.01728409 5.63569305 0.01869904 6.38890076 0.02015686 C8.73253406 0.02577131 11.07607313 0.03832617 13.41967773 0.05102539 C15.00496282 0.05603853 16.59024939 0.06060176 18.17553711 0.06469727 C22.06948316 0.07489618 25.9632245 0.09446852 29.85717773 0.11352539 C29.85717773 7.70352539 29.85717773 15.29352539 29.85717773 23.11352539 C18.63717773 23.11352539 7.41717773 23.11352539 -4.14282227 23.11352539 C-4.16344727 19.50415039 -4.18407227 15.89477539 -4.20532227 12.17602539 C-4.21442627 11.03657471 -4.22353027 9.89712402 -4.23291016 8.72314453 C-4.23540771 7.83232178 -4.23790527 6.94149902 -4.24047852 6.02368164 C-4.24571533 5.10723877 -4.25095215 4.1907959 -4.25634766 3.24658203 C-4.07275794 -0.20293058 -3.53782336 0.12779367 0 0 Z " fill="#E89A57" transform="translate(204.142822265625,473.886474609375)"/>
<path d="M0 0 C11.22 0 22.44 0 34 0 C34.4375 9.25 34.4375 9.25 34.56811523 12.14550781 C34.6252771 13.28777832 34.6252771 13.28777832 34.68359375 14.453125 C34.73858032 15.61569824 34.73858032 15.61569824 34.79467773 16.80175781 C34.99603015 18.9574976 35.41729297 20.91801475 36 23 C31.51601216 23.09903473 27.03260708 23.17154483 22.54785156 23.21972656 C21.02299915 23.23981599 19.49822352 23.26709316 17.97363281 23.30175781 C15.77910402 23.35039796 13.58559531 23.37299396 11.390625 23.390625 C10.07094727 23.41157227 8.75126953 23.43251953 7.39160156 23.45410156 C4 23 4 23 1.5625 21.25976562 C-0.20784316 18.69940683 -0.47372415 17.52779373 -0.390625 14.453125 C-0.38063477 13.69161133 -0.37064453 12.93009766 -0.36035156 12.14550781 C-0.32393555 11.18999023 -0.28751953 10.23447266 -0.25 9.25 C-0.1675 6.1975 -0.085 3.145 0 0 Z " fill="#08A654" transform="translate(211,397)"/>
<path d="M0 0 C24.42 0 48.84 0 74 0 C74 0.33 74 0.66 74 1 C56.51 1.33 39.02 1.66 21 2 C28.85734844 7.89660727 28.85734844 7.89660727 36.7265625 13.77734375 C37.68304688 14.49019531 38.63953125 15.20304687 39.625 15.9375 C40.60726562 16.66839844 41.58953125 17.39929688 42.6015625 18.15234375 C45 20 45 20 47 22 C42.545 25.465 42.545 25.465 38 29 C34.33176813 27.16588406 31.59212689 25.26052279 28.375 22.75 C27.82666504 22.32323975 27.27833008 21.89647949 26.71337891 21.45678711 C25.49150449 20.50552579 24.27069812 19.55289151 23.05078125 18.59912109 C20.78958625 16.83592738 18.52029389 15.08349192 16.25 13.33203125 C14.62489148 12.07566119 12.99989066 10.81915181 11.375 9.5625 C10.59302246 8.95954102 9.81104492 8.35658203 9.00537109 7.73535156 C8.26883301 7.16397461 7.53229492 6.59259766 6.7734375 6.00390625 C6.11778809 5.49674072 5.46213867 4.9895752 4.78662109 4.46704102 C3 3 3 3 0 0 Z " fill="#EBBB00" transform="translate(258,435)"/>
<path d="M0 0 C2.87029869 1.79393668 4.49131638 2.98263276 6 6 C6.4973766 10.973766 6.54511419 13.06308498 4 17.4375 C0.79314279 20.17669053 -0.88823275 21.01265832 -5.00390625 21.23828125 C-8.44405138 20.82761813 -10.45378542 19.2430938 -13 17 C-15.35062814 13.794598 -15.39807915 10.90117562 -15 7 C-11.68933924 0.06337746 -7.20314329 -1.06151585 0 0 Z " fill="#F76952" transform="translate(320,293)"/>
<path d="M0 0 C4.01455213 1.73897679 7.32025266 4.39785015 10.75 7.0625 C11.35199219 7.52205078 11.95398438 7.98160156 12.57421875 8.45507812 C14.07031381 9.61022635 15.53795201 10.80205028 17 12 C17 12.33 17 12.66 17 13 C11.72 13 6.44 13 1 13 C-0.00496852 9.98509443 -0.10335303 7.95818308 -0.0625 4.8125 C-0.05347656 3.91144531 -0.04445312 3.01039063 -0.03515625 2.08203125 C-0.02355469 1.39496094 -0.01195312 0.70789063 0 0 Z " fill="#B65A49" transform="translate(245,445)"/>
</svg>
