<?xml version="1.0" encoding="UTF-8"?>
<svg version="1.1" xmlns="http://www.w3.org/2000/svg" width="512" height="512">
<path d="M0 0 C7.62865278 4.57976457 12.74293881 10.73707972 15.125 19.3125 C15.65446282 23.19522738 15.5 27.14383916 15.5 31.0625 C59.39 31.0625 103.28 31.0625 148.5 31.0625 C148.5 27.7625 148.5 24.4625 148.5 21.0625 C150.3515148 12.17522897 155.25685003 5.92535102 162.5625 0.54296875 C169.85457853 -3.36547486 179.40199701 -3.28973625 187.25390625 -1.20703125 C195.77337992 2.32473025 200.63940595 7.84912462 204.5 16.0625 C205.59506492 19.34769475 205.59960608 21.79913415 205.5625 25.25 C205.55347656 26.33667969 205.54445313 27.42335938 205.53515625 28.54296875 C205.51775391 29.79013672 205.51775391 29.79013672 205.5 31.0625 C206.72243156 31.04917633 206.72243156 31.04917633 207.96955872 31.0355835 C215.69207469 30.95506045 223.41438388 30.89434565 231.1372118 30.85525131 C235.10655097 30.83447601 239.07554 30.80634557 243.04467773 30.76074219 C246.88320489 30.71692111 250.72139766 30.6932875 254.56015587 30.68299103 C256.01643822 30.67566404 257.47270461 30.66135815 258.92884254 30.63957977 C272.57801155 30.44376715 283.97471585 33.15864887 294.21484375 42.65234375 C303.07777241 52.23693581 305.84417532 63.8557983 305.71118164 76.56121826 C305.70928676 77.93106806 305.70928676 77.93106806 305.70735359 79.32859159 C305.70098105 82.3659795 305.68046421 85.40310555 305.66015625 88.44042969 C305.65307807 90.62752995 305.64702675 92.81463374 305.641922 95.0017395 C305.62972531 99.70139359 305.61216934 104.4009868 305.59100342 109.10060883 C305.55944923 116.54000475 305.55166205 123.97930643 305.54931641 131.41876221 C305.54854599 133.30507012 305.54854599 133.30507012 305.54776001 135.22948527 C305.54671861 137.80037688 305.54571434 140.3712685 305.5447464 142.94216013 C305.54174107 149.53826554 305.5365077 156.13436717 305.52880859 162.73046875 C305.5280451 163.39186691 305.52728161 164.05326507 305.52649498 164.7347056 C305.51401415 174.78094384 305.47675039 184.82692447 305.42822266 194.87304688 C305.37208912 206.56283028 305.3515224 218.25209183 305.37142277 229.94200063 C305.3804888 236.12154277 305.37142926 242.29986131 305.31863403 248.4792099 C305.26917007 254.29432073 305.26659153 260.10760494 305.29910851 265.92281723 C305.30276525 268.04920721 305.28949944 270.17570868 305.25748634 272.30186081 C305.05824914 286.35308924 306.56852826 293.83287527 316.5 304.0625 C318.23679359 306.5646676 319.74036593 309.13455036 321.1875 311.8125 C321.54996826 312.47314453 321.91243652 313.13378906 322.28588867 313.81445312 C339.72191526 346.35251986 343.02077519 382.86762452 332.8125 418.25 C327.47935476 435.7217557 318.23597072 451.12886681 306.5 465.0625 C305.87351562 465.82433594 305.24703125 466.58617187 304.6015625 467.37109375 C299.4911077 473.38891501 293.74112512 478.25037732 287.5 483.0625 C286.23736328 484.06603516 286.23736328 484.06603516 284.94921875 485.08984375 C274.00012874 493.48026933 261.9708333 499.51773911 248.9375 503.9375 C248.13650879 504.21150635 247.33551758 504.4855127 246.51025391 504.76782227 C233.24074061 509.02669912 220.11762255 510.63002166 206.25 510.5 C205.5338855 510.49629395 204.817771 510.49258789 204.07995605 510.48876953 C169.19616012 510.23305447 138.83155461 496.99133009 113.5 473.0625 C112.37464844 472.03382813 112.37464844 472.03382813 111.2265625 470.984375 C99.31919684 459.70371279 89.43999482 444.34588426 83.5 429.0625 C82.79854764 429.06011165 82.09709528 429.05772329 81.37438679 429.05526257 C64.30659396 428.99612688 47.23895276 428.92058604 30.17131519 428.82678509 C21.91752715 428.78181924 13.66378233 428.74240642 5.40991211 428.71606445 C-1.78415452 428.69309073 -8.97808444 428.65969978 -16.17204267 428.61379844 C-19.98121852 428.58985766 -23.79025891 428.57113454 -27.59950829 428.56488609 C-31.18565177 428.55883902 -34.77144865 428.53885329 -38.35746384 428.50822449 C-40.29950174 428.4952518 -42.24162059 428.49701524 -44.18370056 428.4992218 C-45.34331299 428.48668365 -46.50292542 428.47414551 -47.69767761 428.46122742 C-48.70335376 428.45661845 -49.7090299 428.45200949 -50.74518108 428.44726086 C-54.06062367 427.98419865 -55.87497423 427.13664073 -58.5 425.0625 C-59.16 423.4125 -59.82 421.7625 -60.5 420.0625 C-65.12 420.0625 -69.74 420.0625 -74.5 420.0625 C-74.83 421.7125 -75.16 423.3625 -75.5 425.0625 C-79.93718897 429.33224787 -85.9320314 428.46682305 -91.6875 428.375 C-92.67814453 428.37822266 -93.66878906 428.38144531 -94.68945312 428.38476562 C-107.81242286 428.29010814 -119.97753812 425.5735953 -129.875 416.375 C-137.97901241 407.54500315 -141.73662548 397.28683442 -141.76742554 385.40777588 C-141.77195665 384.68097398 -141.77648776 383.95417207 -141.78115618 383.20534587 C-141.79371935 380.79340635 -141.79218516 378.38169497 -141.79052734 375.96972656 C-141.79651727 374.23121351 -141.80332388 372.49270311 -141.81088257 370.75419617 C-141.82849292 366.04999156 -141.83323558 361.34585979 -141.83451414 356.6416254 C-141.835938 353.70208292 -141.84021184 350.76255884 -141.84550858 347.82302094 C-141.86398554 337.56738614 -141.87218126 327.31180323 -141.87060547 317.05615234 C-141.86940156 307.4947684 -141.89055868 297.93360927 -141.9220928 288.37228227 C-141.94821661 280.15895215 -141.95897455 271.94569572 -141.95769465 263.73232436 C-141.95718429 258.82832782 -141.96290971 253.92453163 -141.98405075 249.02057648 C-142.00337 244.41413758 -142.00360118 239.80809168 -141.98901749 235.20163918 C-141.98692109 233.51012157 -141.9916795 231.81857973 -142.0037384 230.12710381 C-142.01911899 227.82069959 -142.00993243 225.51566318 -141.99447632 223.20928955 C-141.99556585 221.91810841 -141.99665539 220.62692726 -141.99777794 219.29661942 C-141.5 216.0625 -141.5 216.0625 -139.71909523 213.67832565 C-137.5 212.0625 -137.5 212.0625 -133.5 211.0625 C-133.5 206.4425 -133.5 201.8225 -133.5 197.0625 C-135.15 196.7325 -136.8 196.4025 -138.5 196.0625 C-140.66719616 193.95508866 -141.41122433 192.62824594 -141.88031673 189.63883305 C-141.88274663 188.73023753 -141.88517653 187.82164202 -141.88768005 186.88551331 C-141.902537 185.31517082 -141.902537 185.31517082 -141.91769409 183.71310425 C-141.91319244 182.56971588 -141.9086908 181.42632751 -141.90405273 180.24829102 C-141.91434761 178.43531273 -141.91434761 178.43531273 -141.92485046 176.58570862 C-141.94002308 173.27093909 -141.94160862 169.9567317 -141.93590808 166.64196897 C-141.93281373 163.86686271 -141.93891253 161.09180708 -141.94494683 158.31670803 C-141.95900068 151.75837771 -141.9574282 145.20017756 -141.94604492 138.6418457 C-141.93460713 131.90381231 -141.94856362 125.16617897 -141.9754414 118.4281984 C-141.99771015 112.62581113 -142.00420951 106.82354835 -141.99836498 101.02112144 C-141.99501533 97.56378905 -141.99727395 94.10671197 -142.01461601 90.64941597 C-142.0331763 86.77987612 -142.01878408 82.91081338 -142.00170898 79.04125977 C-142.01137695 77.91608948 -142.02104492 76.79091919 -142.03100586 75.63165283 C-141.9142971 62.90621453 -138.41158677 51.56650849 -129.72265625 42.1328125 C-122.44241765 35.19499821 -113.04833474 30.93013915 -103.0090332 30.94897461 C-102.3551059 30.94882858 -101.70117859 30.94868256 -101.0274353 30.9485321 C-98.86851674 30.94922812 -96.70968472 30.95700592 -94.55078125 30.96484375 C-93.05291287 30.96670904 -91.55504389 30.96813242 -90.05717468 30.96913147 C-86.11654981 30.97294793 -82.17596186 30.9827708 -78.23535156 30.99383545 C-74.21354675 31.00406828 -70.19173596 31.0086331 -66.16992188 31.01367188 C-58.27993099 31.02439384 -50.38997009 31.04145983 -42.5 31.0625 C-42.45174072 30.1864209 -42.40348145 29.3103418 -42.35375977 28.40771484 C-42.27955811 27.24965332 -42.20535645 26.0915918 -42.12890625 24.8984375 C-42.06002197 23.7542334 -41.9911377 22.6100293 -41.92016602 21.43115234 C-40.90961506 13.32912904 -36.85279404 7.72481626 -30.7578125 2.53515625 C-21.86313546 -3.26638915 -9.80233055 -4.39205198 0 0 Z " fill="#010101" transform="translate(157.5,1.9375)"/>
<path d="M0 0 C137.28 0 274.56 0 416 0 C416 37.62 416 75.24 416 114 C405 107 405 107 401.75 104.84765625 C380.66004144 91.15715758 357.78554981 85.82531407 332.875 85.8125 C331.03035156 85.79413086 331.03035156 85.79413086 329.1484375 85.77539062 C307.29031339 85.7409503 288.96388708 91.43520208 269.70141602 101.25317383 C268 102 268 102 266 102 C265.85304688 101.33613281 265.70609375 100.67226563 265.5546875 99.98828125 C263.94892362 93.66673952 262.47250266 90.60952303 257 87 C252.45119063 84.72559531 246.24362732 85.67982026 241.25 85.625 C239.97382813 85.58761719 238.69765625 85.55023438 237.3828125 85.51171875 C229.82018166 85.20024862 229.82018166 85.20024862 223.234375 88.3359375 C217.91948354 94.67292347 218.63305468 99.79406705 218.625 107.8125 C218.60050781 109.08416016 218.57601562 110.35582031 218.55078125 111.66601562 C218.41732622 120.67621477 218.41732622 120.67621477 223 128 C225.40902188 130.11701923 226.93132383 130.97710794 230 132 C228.48459267 136.4296522 226.04757432 139.96050648 223.375 143.75 C210.07904739 163.27692387 202.83734843 185.82635925 201.45703125 209.359375 C201.39014099 210.46514893 201.39014099 210.46514893 201.32189941 211.59326172 C201.21309826 213.3954178 201.10633961 215.197697 201 217 C177.57330084 217.11690336 154.14664552 217.20502259 130.71971321 217.25906086 C119.84168867 217.28482089 108.96384557 217.31992944 98.0859375 217.37719727 C88.60257368 217.42709949 79.11934131 217.45930701 69.63584983 217.47044247 C64.61632186 217.47694966 59.59716985 217.49219761 54.5777626 217.52865028 C49.84828178 217.56271747 45.11932996 217.57303135 40.38973808 217.56553841 C38.65879753 217.56690817 36.92783836 217.57677665 35.19700432 217.59602737 C25.04358924 217.70336789 15.93084986 217.59051063 8.10644722 210.21510792 C3.36667288 205.14175535 0.624268 199.86861661 0.62818909 192.83859253 C0.62143158 191.624487 0.61467407 190.41038147 0.60771179 189.15948486 C0.61543106 187.84083435 0.62315033 186.52218384 0.63110352 185.16357422 C0.62863364 183.75047515 0.62479334 182.3373779 0.61968994 180.92428589 C0.61137095 177.88935097 0.61214308 174.85460381 0.61987495 171.81966782 C0.63147807 167.02089536 0.61927974 162.2223635 0.60325623 157.4236145 C0.56710125 145.5083764 0.56083503 133.59314443 0.56335449 121.67785645 C0.56506487 112.40951272 0.55797937 103.14136598 0.52337593 93.87307751 C0.50656888 89.10216089 0.50838671 84.33172465 0.52419865 79.56080985 C0.52998859 76.59527608 0.51926892 73.62997105 0.50395203 70.6644783 C0.50022083 69.28903056 0.50334831 67.91354463 0.51382256 66.53813171 C0.52716409 64.66127527 0.51366892 62.78428511 0.49879456 60.90744019 C0.49900384 59.85701475 0.49921312 58.80658932 0.49942875 57.72433281 C-0.13035217 54.28894223 -1.28496732 53.13201783 -4 51 C-4.99 50.67 -5.98 50.34 -7 50 C-7.16249454 47.58063683 -7.28097817 45.17218141 -7.375 42.75 C-7.42527344 42.06808594 -7.47554687 41.38617188 -7.52734375 40.68359375 C-7.5859375 38.671875 -7.5859375 38.671875 -7 35 C-5.02 33.68 -3.04 32.36 -1 31 C-0.67 20.77 -0.34 10.54 0 0 Z " fill="#E8F2F9" transform="translate(31,164)"/>
<path d="M0 0 C1.40246885 0.00373542 2.80494032 0.00657989 4.20741272 0.00857544 C7.87842152 0.01617029 11.5492692 0.03578252 15.22021484 0.0579834 C18.97426169 0.07853178 22.72833486 0.08759629 26.48242188 0.09765625 C33.83341489 0.11903287 41.18424237 0.15418054 48.53515625 0.1953125 C48.53515625 6.1353125 48.53515625 12.0753125 48.53515625 18.1953125 C43.99414062 18.43945312 43.99414062 18.43945312 39.453125 18.68359375 C36.56926099 18.97962521 36.56926099 18.97962521 34.671875 20.484375 C32.54615257 23.68391598 33.17809791 26.44619995 33.53515625 30.1953125 C37.30774085 32.7103689 39.3578988 32.29778067 43.84765625 32.2578125 C50.74336124 32.45064814 50.74336124 32.45064814 53.50390625 35.046875 C54.40673047 36.61631943 55.26346425 38.21310427 56.07421875 39.83203125 C59.14646787 44.801846 65.12950723 47.39342949 70.53515625 49.1953125 C79.02095988 50.21419115 86.1913039 48.56814766 93.53515625 44.1953125 C97.1875769 40.92467798 99.82832879 37.2555537 102.53515625 33.1953125 C105.73613949 32.8429447 108.82303718 32.75890012 112.03710938 32.75585938 C116.17405645 32.63838258 116.17405645 32.63838258 119.515625 30.38671875 C121.06735382 27.05139359 120.43914464 24.68212485 119.53515625 21.1953125 C116.13083678 18.92576619 114.36991423 18.82981301 110.34765625 18.5703125 C108.42953125 18.4465625 106.51140625 18.3228125 104.53515625 18.1953125 C104.53515625 12.2553125 104.53515625 6.3153125 104.53515625 0.1953125 C149.08515625 0.1953125 193.63515625 0.1953125 239.53515625 0.1953125 C239.53515625 6.1353125 239.53515625 12.0753125 239.53515625 18.1953125 C236.54036458 18.32552083 233.54557292 18.45572917 230.55078125 18.5859375 C226.95687598 19.31216706 225.69023496 20.26230294 223.53515625 23.1953125 C223.67797133 28.25224149 223.67797133 28.25224149 226.53515625 32.1953125 C228.95018564 32.2935314 231.36813506 32.32505176 233.78515625 32.3203125 C240.68694498 32.5244545 240.68694498 32.5244545 243.68359375 34.89453125 C245.11086313 36.93726335 246.32871981 39.01690606 247.53515625 41.1953125 C252.67872511 46.19986599 259.20539292 49.37459172 266.41015625 49.6953125 C273.94961734 49.36597567 282.27266681 46.76736014 287.53515625 41.1953125 C287.96828125 40.20724609 287.96828125 40.20724609 288.41015625 39.19921875 C289.57601329 36.64435234 290.41338484 35.06695638 292.53515625 33.1953125 C296.5327987 32.48207673 300.07404215 32.38188199 304.13671875 32.42578125 C307.45002396 32.48464906 307.45002396 32.48464906 309.46875 30.90234375 C311.29520969 27.97867018 310.9513448 25.5248209 310.53515625 22.1953125 C306.29544193 17.93574004 301.24109803 18.53495189 295.53515625 18.1953125 C295.53515625 12.2553125 295.53515625 6.3153125 295.53515625 0.1953125 C303.67249383 0.05901454 311.80892379 -0.05074033 319.94710159 -0.11556053 C323.72721477 -0.14669267 327.50649746 -0.18882424 331.28613281 -0.25732422 C334.94316347 -0.32317701 338.59940247 -0.35852924 342.2569809 -0.37395096 C343.64273268 -0.38492094 345.02844785 -0.40633891 346.41385651 -0.43906784 C356.05124056 -0.65740132 363.48676114 0.63812556 371.53515625 6.1953125 C387.66833225 22.72846289 379.53515625 45.06275989 379.53515625 68.1953125 C242.58515625 68.1953125 105.63515625 68.1953125 -35.46484375 68.1953125 C-35.46484375 18.1953125 -35.46484375 18.1953125 -29.46484375 8.1953125 C-20.17237954 -0.06465569 -12.05845344 -0.09464186 0 0 Z " fill="#FD4054" transform="translate(67.46484375,47.8046875)"/>
<path d="M0 0 C1.13824219 -0.01611328 2.27648437 -0.03222656 3.44921875 -0.04882812 C25.53501183 -0.06136263 44.63718603 9.49642179 60.5 24.5 C68.93529147 33.29188542 75.49511547 43.89314077 79.75 55.3125 C80.3378125 56.84777344 80.3378125 56.84777344 80.9375 58.4140625 C87.9048234 79.84825879 84.74455472 103.25807833 74.6875 123.0625 C63.79338191 143.10887698 46.28039611 156.53771645 24.9375 164.1875 C23.5490595 164.58900798 22.15278865 164.96441998 20.75 165.3125 C19.9971875 165.51488281 19.244375 165.71726562 18.46875 165.92578125 C-2.90929052 170.77542933 -25.09215467 166.33962153 -43.75 155.1875 C-50.21115987 150.90184627 -55.74437738 145.73901885 -61.25 140.3125 C-61.9203125 139.65507812 -62.590625 138.99765625 -63.28125 138.3203125 C-78.58088006 122.11661339 -84.0768302 99.73720529 -83.6171875 78.0546875 C-82.56249499 55.69670229 -71.49797636 35.84763017 -55.5 20.625 C-39.47703717 6.79933099 -20.98513232 -0.05861769 0 0 Z " fill="#E9F3FA" transform="translate(363.25,296.6875)"/>
<path d="M0 0 C22.4677503 19.12747443 38.53842745 44.99787205 41.83227539 74.76000977 C44.28589709 107.52853825 37.571176 139.34144186 16 165 C-5.00603226 188.60477528 -32.13118203 204.15753381 -64 207 C-99.56805126 208.96028464 -129.15002259 198.09673327 -155.70703125 174.60546875 C-170.22970095 160.81465012 -179.47653933 144.03918381 -185.875 125.25 C-186.16149414 124.41130371 -186.44798828 123.57260742 -186.74316406 122.70849609 C-196.15539105 93.65065214 -191.65511061 63.0460764 -178.18261719 36.22998047 C-174.20446117 28.56451497 -169.46972996 21.69703686 -164 15 C-163.35289062 14.19949219 -162.70578125 13.39898437 -162.0390625 12.57421875 C-156.97927394 6.59540737 -151.20608774 1.7530404 -145 -3 C-144.22011719 -3.60714844 -143.44023437 -4.21429688 -142.63671875 -4.83984375 C-100.70746219 -35.91682214 -39.67949585 -33.5911076 0 0 Z M-136.875 33.9375 C-152.7441451 52.56271235 -159.59480555 74.22150508 -158.22753906 98.40234375 C-156.27531046 120.68958869 -144.49707092 140.38293716 -128 155 C-109.12738535 170.47433034 -86.75296474 175.75761127 -62.89697266 173.83007812 C-47.56374503 172.05708787 -32.77735609 164.7646438 -21 155 C-20.31035156 154.47148437 -19.62070312 153.94296875 -18.91015625 153.3984375 C-4.34439715 141.68814405 6.7948588 121.53313982 9 103 C10.90981242 77.28147699 5.79596641 55.03074512 -11 35 C-24.34568729 19.60113005 -43.90122447 8.5461326 -64.3371582 6.69824219 C-67.68940237 6.56477527 -71.02030693 6.53161008 -74.375 6.5625 C-75.55747314 6.57152344 -76.73994629 6.58054687 -77.95825195 6.58984375 C-100.847173 7.04274717 -121.26309274 17.32516698 -136.875 33.9375 Z " fill="#4DA8F3" transform="translate(438,290)"/>
<path d="M0 0 C2.4865598 2.196213 4.8993974 4.44949476 7.296875 6.7421875 C7.91046875 7.29261719 8.5240625 7.84304688 9.15625 8.41015625 C24.27857432 22.45726944 35.42150442 45.5983012 36.41943359 66.2824707 C37.27859527 96.47028795 30.47868961 122.82214448 9.65087891 145.30957031 C-8.52816528 164.54408731 -33.26490134 175.19312012 -59.59155273 176.19384766 C-86.9225941 176.66585343 -111.2485671 166.46584626 -131.05737305 147.83251953 C-141.8819909 137.3351341 -148.86502267 125.6478293 -154.703125 111.7421875 C-155.00863281 111.0615625 -155.31414062 110.3809375 -155.62890625 109.6796875 C-163.55694767 90.81501458 -162.92726024 67.91339151 -156.703125 48.7421875 C-156.42597656 47.72640625 -156.14882813 46.710625 -155.86328125 45.6640625 C-151.94266629 32.14968467 -144.10131322 20.08193818 -134.703125 9.7421875 C-133.86201172 8.79666016 -133.86201172 8.79666016 -133.00390625 7.83203125 C-98.75780432 -28.56999961 -38.14625227 -31.86204308 0 0 Z M-124.578125 20.6796875 C-140.4472701 39.30489985 -147.29793055 60.96369258 -145.93066406 85.14453125 C-143.97843546 107.43177619 -132.20019592 127.12512466 -115.703125 141.7421875 C-96.83051035 157.21651784 -74.45608974 162.49979877 -50.60009766 160.57226562 C-35.26687003 158.79927537 -20.48048109 151.5068313 -8.703125 141.7421875 C-8.01347656 141.21367187 -7.32382812 140.68515625 -6.61328125 140.140625 C7.95247785 128.43033155 19.0917338 108.27532732 21.296875 89.7421875 C23.20668742 64.02366449 18.09284141 41.77293262 1.296875 21.7421875 C-12.04881229 6.34331755 -31.60434947 -4.7116799 -52.0402832 -6.55957031 C-55.39252737 -6.69303723 -58.72343193 -6.72620242 -62.078125 -6.6953125 C-63.26059814 -6.68628906 -64.44307129 -6.67726563 -65.66137695 -6.66796875 C-88.550298 -6.21506533 -108.96621774 4.06735448 -124.578125 20.6796875 Z " fill="#020304" transform="translate(425.703125,303.2578125)"/>
<path d="M0 0 C136.95 0 273.9 0 415 0 C415 5.94 415 11.88 415 18 C278.05 18 141.1 18 0 18 C0 12.06 0 6.12 0 0 Z " fill="#FE4054" transform="translate(32,131)"/>
<path d="M0 0 C2.56067779 0.9863988 5.0277128 2.0141938 7.47157669 3.26587963 C16.72313553 7.78149748 25.19856166 7.71378688 35.25292969 7.65942383 C37.06749568 7.6678911 38.88205259 7.67854161 40.69659424 7.69119263 C45.58841792 7.71918602 50.47980082 7.71689457 55.37168026 7.70889878 C60.49665137 7.70576093 65.62148522 7.7308454 70.74639893 7.75285339 C80.43583307 7.79021717 90.12512689 7.80243685 99.81462598 7.8054778 C110.85224645 7.81017695 121.88972708 7.84312777 132.92728567 7.87837565 C155.61817353 7.95020887 178.30900758 7.98681073 201 8 C201.50509208 10.24886238 202.00389179 12.49913869 202.5 14.75 C202.91765625 16.62945312 202.91765625 16.62945312 203.34375 18.546875 C204 22 204 22 204 26 C203.31824078 26.00238835 202.63648155 26.00477671 201.93406296 26.00723743 C185.3506362 26.06635567 168.76737386 26.1418852 152.18410873 26.23571491 C144.16458194 26.28069378 136.14509977 26.32010356 128.12548828 26.34643555 C121.13615363 26.36939876 114.14695992 26.40277786 107.15773702 26.44870156 C103.45646266 26.47265659 99.7553281 26.49137034 96.05397797 26.49761391 C91.9234779 26.50477643 87.79346484 26.53519123 83.66308594 26.56762695 C82.43381882 26.56619186 81.2045517 26.56475677 79.93803406 26.5632782 C78.81345291 26.57581635 77.68887177 26.58835449 76.5302124 26.60127258 C75.55311184 26.60588155 74.57601128 26.61049051 73.56930161 26.61523914 C70.51941094 27.0719697 69.16772019 27.82190395 67 30 C66.67 31.32 66.34 32.64 66 34 C61.05 34 56.1 34 51 34 C50.01 32.02 49.02 30.04 48 28 C44.87141247 26.95713749 42.6530611 26.87508446 39.37109375 26.859375 C37.69370117 26.83037109 37.69370117 26.83037109 35.98242188 26.80078125 C33.64665289 26.7673212 31.31061652 26.74872884 28.97460938 26.74609375 C20.53625331 26.56275611 13.44258889 25.1307484 7.09399414 19.2277832 C2.87967492 14.64530729 -0.15396727 9.9850417 -0.1875 3.625 C-0.125625 2.42875 -0.06375 1.2325 0 0 Z " fill="#D2DBFA" transform="translate(32,388)"/>
<path d="M0 0 C27.84229225 6.56722373 52.03069317 26.54453229 67.1875 50.3125 C82.98885019 77.16842381 89.26956011 109.31956877 81.54785156 140.00683594 C72.82757661 171.73247083 53.93719176 197.69615338 25.24609375 214.17578125 C18.23392907 218.09915952 10.88128442 222.19977856 3 224 C2.01 223.67 1.02 223.34 0 223 C1.27230469 222.32517578 1.27230469 222.32517578 2.5703125 221.63671875 C21.73990568 211.22548008 36.9540902 197.19901591 49 179 C49.86431641 177.71996094 49.86431641 177.71996094 50.74609375 176.4140625 C55.22888454 169.40460781 58.19180193 161.79251167 61 154 C61.35457275 153.02039307 61.35457275 153.02039307 61.71630859 152.02099609 C65.21086584 142.16960333 67.36374259 132.4556114 68 122 C68.05591309 121.13407227 68.11182617 120.26814453 68.16943359 119.37597656 C69.98485996 86.46922608 59.28020927 56.02317097 38 31 C37.40960938 30.26394531 36.81921875 29.52789062 36.2109375 28.76953125 C27.80466156 18.66411443 16.9237354 11.220719 5.64453125 4.65625 C3.4003798 3.25075485 1.74463487 1.9664613 0 0 Z " fill="#1884E7" transform="translate(396,268)"/>
<path d="M0 0 C3.5 0.5625 3.5 0.5625 5.69433594 2.04003906 C8.36359506 5.76891755 8.00160522 9.00954414 7.890625 13.484375 C7.88496521 14.34436096 7.87930542 15.20434692 7.87347412 16.09039307 C7.85111951 18.83166649 7.80092602 21.57162304 7.75 24.3125 C7.72993376 26.17315818 7.71168321 28.03383689 7.6953125 29.89453125 C7.65125784 34.45102666 7.58223754 39.00654022 7.5 43.5625 C8.28552246 43.70204102 9.07104492 43.84158203 9.88037109 43.98535156 C14.99258922 45.11165945 18.46016864 49.12015328 21.4375 53.25 C22.5 55.5625 22.5 55.5625 22.5 58.5625 C23.14549805 58.54678955 23.79099609 58.5310791 24.45605469 58.51489258 C27.38728029 58.45244198 30.31836579 58.4134777 33.25 58.375 C34.26578125 58.34986328 35.2815625 58.32472656 36.328125 58.29882812 C37.3078125 58.28916016 38.2875 58.27949219 39.296875 58.26953125 C40.19760742 58.2538208 41.09833984 58.23811035 42.02636719 58.22192383 C45.03610914 58.63631289 46.3703874 59.41069127 48.5 61.5625 C49.2815534 67.03337379 49.2815534 67.03337379 48.5 69.5625 C46.29944547 72.21148687 44.56794556 73.42145886 41.12084961 73.87670898 C38.29909516 73.9564858 35.50856335 73.91101934 32.6875 73.8125 C31.70845703 73.79445313 30.72941406 73.77640625 29.72070312 73.7578125 C27.31279229 73.71082887 24.90690665 73.64515694 22.5 73.5625 C22.23445313 74.47644531 21.96890625 75.39039063 21.6953125 76.33203125 C19.78894129 81.4842175 16.35119381 84.82112572 11.68359375 87.671875 C5.36539247 90.46823966 -2.16673187 90.73226169 -8.80078125 88.94140625 C-15.07354201 86.20087971 -20.09662229 81.01914174 -22.6640625 74.6953125 C-24.65215698 67.24460327 -24.77186096 59.89277498 -20.9375 53.0625 C-17.99559458 48.78209733 -15.01176185 46.11632746 -10.5 43.5625 C-9.51 43.5625 -8.52 43.5625 -7.5 43.5625 C-7.52094727 42.43755127 -7.54189453 41.31260254 -7.56347656 40.15356445 C-7.63601523 35.96977526 -7.6818499 31.78604139 -7.71972656 27.60180664 C-7.73981053 25.7927922 -7.76708341 23.98384243 -7.80175781 22.17504883 C-7.85041892 19.57096379 -7.87300051 16.96773885 -7.890625 14.36328125 C-7.91127014 13.55788406 -7.93191528 12.75248688 -7.95318604 11.92268372 C-7.95474891 7.98911089 -7.76215549 6.00021743 -5.69433594 2.54760742 C-3.5 0.5625 -3.5 0.5625 0 0 Z " fill="#030303" transform="translate(363.5,314.4375)"/>
<path d="M0 0 C15.66070902 3.91517726 28.54382424 11.73507926 40 23 C40.69996094 23.68707031 41.39992188 24.37414062 42.12109375 25.08203125 C58.52560438 42.31795958 63.77972812 64.29454522 63.3671875 87.3984375 C62.50957301 108.68065815 52.11599915 128.27455777 37 143 C27.15410252 151.86800562 14.8624357 158.68871319 2 162 C3.26048808 158.21853575 4.33669959 158.0289508 7.75 156.125 C27.73858782 143.73259406 40.61692434 122.31318197 45.9375 99.75 C50.19995274 74.89010485 45.14917118 49.62485397 30.78125 28.78125 C22.91176764 17.93708743 13.55307491 9.64152253 2.23828125 2.49609375 C1.49964844 2.00238281 0.76101563 1.50867188 0 1 C0 0.67 0 0.34 0 0 Z " fill="#D0D9F7" transform="translate(384,299)"/>
<path d="M0 0 C1.258125 -0.01546875 2.51625 -0.0309375 3.8125 -0.046875 C15.44243645 0.00240439 15.44243645 0.00240439 20 4.5 C25.42110557 10.06566839 24.5932837 16.7005506 24.5 24 C24.51546875 25.21042969 24.5309375 26.42085938 24.546875 27.66796875 C24.49829016 38.70887359 24.49829016 38.70887359 20 43.5 C13.19865679 48.63570814 7.97257313 48.73608203 -0.25 48.8125 C-1.27480469 48.84150391 -2.29960937 48.87050781 -3.35546875 48.90039062 C-9.83468447 48.95459256 -13.74251175 48.36911669 -19 44.5 C-24.89115925 37.98871872 -24.24639589 32.75539575 -24.3125 24.25 C-24.34150391 23.02152344 -24.37050781 21.79304688 -24.40039062 20.52734375 C-24.48123027 9.0481143 -24.48123027 9.0481143 -20 4.5 C-14.38621483 -1.03991958 -7.39116829 -0.09087502 0 0 Z " fill="#030304" transform="translate(140,248.5)"/>
<path d="M0 0 C1.12857422 -0.02900391 2.25714844 -0.05800781 3.41992188 -0.08789062 C9.82493368 -0.13689896 13.86767762 -0.08298586 18.6875 4.3125 C24.4674477 10.87352172 23.99607939 15.91984841 24.125 24.4375 C24.17076172 25.64921875 24.21652344 26.8609375 24.26367188 28.109375 C24.34963769 34.97168988 23.93706654 39.49623699 19.47290039 44.85498047 C13.64720666 49.61081139 6.42598359 48.71601839 -0.6875 48.75 C-1.8940625 48.78287109 -3.100625 48.81574219 -4.34375 48.84960938 C-15.4120853 48.91650591 -15.4120853 48.91650591 -20.03540039 44.75805664 C-25.3949142 38.6915911 -24.79699773 32.02012705 -24.75 24.3125 C-24.76998047 23.14976562 -24.78996094 21.98703125 -24.81054688 20.7890625 C-24.80686284 14.34936378 -24.73969018 10.15321893 -20.3125 5.3125 C-13.92746244 -0.44960706 -8.22928724 0.06977915 0 0 Z " fill="#020303" transform="translate(405.3125,181.6875)"/>
<path d="M0 0 C1.66772461 -0.06864258 1.66772461 -0.06864258 3.36914062 -0.13867188 C9.96360572 -0.22847217 14.09723482 0.37002497 19.2199707 4.65209961 C24.81148446 10.92080115 24.32958793 16.76408529 24.3125 24.8125 C24.34085938 26.0190625 24.36921875 27.225625 24.3984375 28.46875 C24.41179662 34.54714959 24.33732856 39.21919356 20.47460938 44.09228516 C13.95908502 49.36557235 7.35095526 48.95455175 -0.625 48.9375 C-1.82705078 48.96585938 -3.02910156 48.99421875 -4.26757812 49.0234375 C-15.3221948 49.04782717 -15.3221948 49.04782717 -19.90820312 44.94897461 C-25.18620892 38.7130712 -24.67491806 31.66675514 -24.625 23.875 C-24.64498047 22.76447266 -24.66496094 21.65394531 -24.68554688 20.50976562 C-24.68175858 14.17952108 -24.49087628 10.21377477 -20.1875 5.4375 C-13.85991716 -0.27275769 -8.16530985 0.13492535 0 0 Z " fill="#020203" transform="translate(140.1875,181.5625)"/>
<path d="M0 0 C1.18078125 -0.020625 2.3615625 -0.04125 3.578125 -0.0625 C14.5147834 -0.11176423 14.5147834 -0.11176423 19.25 3.25 C25.12389956 9.75891572 24.49625819 14.94529984 24.5625 23.4375 C24.59150391 24.65759766 24.62050781 25.87769531 24.65039062 27.13476562 C24.73345093 38.89738249 24.73345093 38.89738249 20.25 44.25 C14.1257438 49.27335795 7.85884465 48.85279859 0.1875 48.75 C-1.54983398 48.77320313 -1.54983398 48.77320313 -3.32226562 48.796875 C-9.72101781 48.76747235 -13.96054573 48.67904383 -18.75 44.25 C-24.00193587 37.29473358 -23.98802982 31.85263007 -24.0625 23.4375 C-24.09150391 22.35662109 -24.12050781 21.27574219 -24.15039062 20.16210938 C-24.20072617 13.85467872 -24.03611546 10.01235051 -19.75 5.25 C-13.23765805 -0.48706315 -8.44217976 0.03638871 0 0 Z " fill="#020303" transform="translate(205.75,314.75)"/>
<path d="M0 0 C1.20205078 -0.01546875 2.40410156 -0.0309375 3.64257812 -0.046875 C10.48278955 -0.01669205 15.04595872 0.32952592 20.5625 4.5 C25.78170002 10.06714669 24.77836122 17.19732118 24.8125 24.375 C24.833125 25.45136719 24.85375 26.52773438 24.875 27.63671875 C24.90729351 34.18422865 24.70904483 39.12927386 20.02734375 44.14453125 C13.48087802 49.15065211 8.91929566 48.74698172 0.8125 48.8125 C-0.95867187 48.85600586 -0.95867187 48.85600586 -2.765625 48.90039062 C-13.59878483 48.9796874 -13.59878483 48.9796874 -18.4375 44.5 C-24.15115466 38.01422984 -23.68176504 33.22359601 -23.75 24.8125 C-23.77900391 23.64009766 -23.80800781 22.46769531 -23.83789062 21.25976562 C-23.88782118 14.45768764 -23.7803483 9.87994641 -19.4375 4.5 C-13.97481322 -0.95383315 -7.2371607 -0.0928337 0 0 Z " fill="#020202" transform="translate(139.4375,314.5)"/>
<path d="M0 0 C1.06863281 -0.02900391 2.13726562 -0.05800781 3.23828125 -0.08789062 C10.80343608 -0.14837464 16.15784001 0.647338 21.94921875 5.68066406 C26.66930086 11.03563046 26.11449827 17.46788563 26 24.25 C26.01933594 25.39146484 26.03867187 26.53292969 26.05859375 27.70898438 C26.02272781 33.91737849 25.48006186 38.49916434 22.03271484 43.72875977 C15.95190296 49.53821878 8.71404798 48.79591562 0.875 48.75 C-0.33542969 48.76998047 -1.54585938 48.78996094 -2.79296875 48.81054688 C-13.77396672 48.80450672 -13.77396672 48.80450672 -18.625 44.3125 C-23.76399285 38.46468055 -22.87736692 31.88835167 -22.9375 24.5 C-22.96650391 23.32373047 -22.99550781 22.14746094 -23.02539062 20.93554688 C-23.10458322 10.15926217 -23.10458322 10.15926217 -18.625 5.3125 C-12.38755278 -0.18239398 -8.07895595 0.07153739 0 0 Z " fill="#030303" transform="translate(337.625,181.6875)"/>
<path d="M0 0 C1.16273437 -0.00708984 2.32546875 -0.01417969 3.5234375 -0.02148438 C10.24595595 0.02851147 15.50168195 0.17184919 20.64453125 4.97265625 C25.46987342 11.28271908 25.21332604 15.32719928 25.25 23.125 C25.270625 24.20201172 25.29125 25.27902344 25.3125 26.38867188 C25.34705491 33.43355321 25.30708236 38.67262015 20.47973633 44.16821289 C14.59426444 49.47142599 8.53852662 49.27709702 0.9375 49.0625 C-0.20783203 49.06894531 -1.35316406 49.07539063 -2.53320312 49.08203125 C-9.16037182 48.99770637 -13.78782626 48.68753277 -19 44.4375 C-24.14431938 38.23258231 -23.60020221 31.66154684 -23.5 23.875 C-23.51546875 22.66908203 -23.5309375 21.46316406 -23.546875 20.22070312 C-23.49758428 9.06251583 -23.49758428 9.06251583 -19 4.4375 C-13.48354688 -0.87562231 -7.20610635 -0.12382999 0 0 Z " fill="#020203" transform="translate(73,314.5625)"/>
<path d="M0 0 C1.26263672 -0.01998047 2.52527344 -0.03996094 3.82617188 -0.06054688 C15.52578307 -0.05437294 15.52578307 -0.05437294 20.0625 4.4375 C25.48360557 10.00316839 24.6557837 16.6380506 24.5625 23.9375 C24.57796875 25.14792969 24.5934375 26.35835938 24.609375 27.60546875 C24.58062449 34.13902171 24.54110384 38.50848628 20.0625 43.4375 C19.588125 44.015 19.11375 44.5925 18.625 45.1875 C13.30137664 49.44639869 6.76352392 48.8748687 0.3125 48.9375 C-1.25757813 48.999375 -1.25757813 48.999375 -2.859375 49.0625 C-10.42391019 49.13814535 -15.3698716 47.68421435 -20.9375 42.4375 C-25.10517187 37.0996741 -24.45263197 30.55411386 -24.4375 24.0625 C-24.46585938 22.96421875 -24.49421875 21.8659375 -24.5234375 20.734375 C-24.53985543 13.88809724 -23.88359198 8.49319639 -18.9375 3.4375 C-13.10989545 -0.88204839 -6.97432832 -0.03904204 0 0 Z " fill="#030404" transform="translate(205.9375,248.5625)"/>
<path d="M0 0 C1.08087891 -0.020625 2.16175781 -0.04125 3.27539062 -0.0625 C10.93167851 -0.10009994 15.80439193 0.75360043 21.52734375 6.08984375 C25.71380057 11.29318724 24.94442743 17.45097086 24.75 23.8125 C24.74806641 25.01841797 24.74613281 26.22433594 24.74414062 27.46679688 C24.65255545 33.60978769 24.36961538 37.85594385 21.1875 43.25 C14.73909926 49.21477069 8.38253869 48.59142334 0 48.75 C-1.20720703 48.80414063 -2.41441406 48.85828125 -3.65820312 48.9140625 C-9.66737911 49.00605645 -13.83711742 48.95518718 -18.55078125 44.96875 C-24.59098524 38.88681041 -24.17811782 33.14221705 -24.1875 24.9375 C-24.21199219 23.82181641 -24.23648438 22.70613281 -24.26171875 21.55664062 C-24.28548294 14.87494247 -23.85302682 10.64968026 -19.8125 5.25 C-13.62802595 -0.48195156 -8.02702465 0.03788566 0 0 Z " fill="#030304" transform="translate(205.8125,181.75)"/>
<path d="M0 0 C1.05960938 -0.02449219 2.11921875 -0.04898438 3.2109375 -0.07421875 C9.74543898 -0.09854072 14.84016417 0.51204308 20.25 4.375 C26.11996767 10.54599165 25.49369498 16.54270391 25.5625 24.625 C25.59150391 25.74519531 25.62050781 26.86539063 25.65039062 28.01953125 C25.70154066 34.68477385 25.54392202 39.13072691 21.25 44.375 C15.04508231 49.51931938 8.47404684 48.97520221 0.6875 48.875 C-0.51841797 48.89046875 -1.72433594 48.9059375 -2.96679688 48.921875 C-13.87432311 48.87369156 -13.87432311 48.87369156 -18.75 44.375 C-23.93070526 38.47971471 -23.10891256 31.64553885 -23.25 24.1875 C-23.30414063 22.98029297 -23.35828125 21.77308594 -23.4140625 20.52929688 C-23.50605645 14.52012089 -23.45518718 10.35038258 -19.46875 5.63671875 C-13.52056357 -0.27064993 -8.02866759 0.0096267 0 0 Z " fill="#030304" transform="translate(72.75,181.625)"/>
<path d="M0 0 C1.89782227 -0.00773438 1.89782227 -0.00773438 3.83398438 -0.015625 C5.8052832 0.00757813 5.8052832 0.00757813 7.81640625 0.03125 C9.7819043 0.00804687 9.7819043 0.00804687 11.78710938 -0.015625 C13.05361328 -0.01046875 14.32011719 -0.0053125 15.625 0 C17.35254517 0.00676758 17.35254517 0.00676758 19.11499023 0.01367188 C24.4004832 0.8518232 27.46297318 3.36760214 30.71875 7.50390625 C33.37054483 12.66850718 32.99801933 18.29745173 32.94140625 23.96875 C32.97717773 25.6094043 32.97717773 25.6094043 33.01367188 27.28320312 C33.00122488 34.17468932 32.35985358 39.47562695 27.37890625 44.53125 C21.51961512 49.1896466 15.01973052 49.14285735 7.81640625 49.03125 C6.81416016 49.04671875 5.81191406 49.0621875 4.77929688 49.078125 C-1.57101023 49.04468033 -5.45515361 48.28016795 -10.62109375 44.53125 C-16.54951641 38.13479398 -15.865964 32.02819165 -15.93359375 23.71875 C-15.96259766 22.54248047 -15.99160156 21.36621094 -16.02148438 20.15429688 C-16.10146243 9.27112896 -16.10146243 9.27112896 -11.62109375 4.53125 C-7.73327428 0.83714033 -5.34056696 0.02094193 0 0 Z " fill="#030304" transform="translate(65.62109375,248.46875)"/>
<path d="M0 0 C1.04607422 -0.01546875 2.09214844 -0.0309375 3.16992188 -0.046875 C9.53732411 -0.01485789 14.96912801 0.3971492 20.0625 4.5 C24.80698306 9.42044905 25.66599137 14.36225 25.6484375 21.03710938 C25.60589844 22.53467773 25.60589844 22.53467773 25.5625 24.0625 C25.56636719 25.56586914 25.56636719 25.56586914 25.5703125 27.09960938 C25.48427613 33.63407157 25.01888777 39.14491363 20.52734375 44.2421875 C13.84073444 49.20156525 9.01802372 48.7487265 0.8125 48.8125 C-0.41597656 48.84150391 -1.64445312 48.87050781 -2.91015625 48.90039062 C-14.3893857 48.98123027 -14.3893857 48.98123027 -18.9375 44.5 C-23.67886566 39.69541613 -23.45722728 34.71936214 -23.484375 28.3125 C-23.46890625 27.054375 -23.4534375 25.79625 -23.4375 24.5 C-23.45296875 23.241875 -23.4684375 21.98375 -23.484375 20.6875 C-23.46276445 15.58740998 -23.41082642 11.57658557 -21.34375 6.875 C-14.63624219 0.25460268 -9.1262454 -0.13445665 0 0 Z " fill="#030304" transform="translate(271.9375,181.5)"/>
<path d="M0 0 C137.28 0 274.56 0 416 0 C416 37.62 416 75.24 416 114 C405 107 405 107 401 104 C401 70.01 401 36.02 401 1 C269 1 137 1 1 1 C1 10.24 1 19.48 1 29 C0.67 29 0.34 29 0 29 C0 19.43 0 9.86 0 0 Z " fill="#CFD8F2" transform="translate(31,164)"/>
<path d="M0 0 C3.95165313 2.08766581 6.63916887 4.21788223 9 8 C9.38768005 10.37680054 9.38768005 10.37680054 9.40405273 13.04052734 C9.41673691 14.04191742 9.42942108 15.0433075 9.44248962 16.07504272 C9.43955399 17.151138 9.43661835 18.22723328 9.43359375 19.3359375 C9.4388356 20.44804596 9.44407745 21.56015442 9.44947815 22.70596313 C9.45589996 25.05787318 9.45455933 27.40981535 9.44604492 29.76171875 C9.43754789 33.35475133 9.4662755 36.94618751 9.49804688 40.5390625 C9.49965933 42.82552036 9.49908052 45.11198102 9.49609375 47.3984375 C9.51294472 49.00650772 9.51294472 49.00650772 9.53013611 50.64706421 C9.47340791 56.74076236 9.11477289 60.38645252 5 65 C0.68931324 68.10770441 -2.78160749 68.42602899 -7.8828125 67.64453125 C-11.91166855 66.41803448 -14.02326663 63.63946401 -16.11074829 60.1355896 C-17.14166726 57.65977786 -17.26632705 55.82066793 -17.29052734 53.14306641 C-17.30328705 52.18171783 -17.31604675 51.22036926 -17.32919312 50.22988892 C-17.33141876 49.1975412 -17.33364441 48.16519348 -17.3359375 47.1015625 C-17.3425943 46.03384613 -17.3492511 44.96612976 -17.35610962 43.86605835 C-17.36623052 41.60831423 -17.37092681 39.35054022 -17.37060547 37.09277344 C-17.37497506 33.64467881 -17.4112922 30.1978679 -17.44921875 26.75 C-17.45508775 24.55469187 -17.45905659 22.35937767 -17.4609375 20.1640625 C-17.47530853 19.13576324 -17.48967957 18.10746399 -17.50448608 17.04800415 C-17.46625115 11.03523182 -16.99991604 7.58256277 -13 3 C-9.05913462 -0.28405449 -4.98857772 -0.89011877 0 0 Z " fill="#D1DAF8" transform="translate(148,15)"/>
<path d="M0 0 C3.466336 2.46643138 4.57658714 3.46670532 6.25 7.3125 C6.70111397 10.97780709 6.69413795 14.61915379 6.68359375 18.30859375 C6.6888356 19.37489517 6.69407745 20.44119659 6.69947815 21.53981018 C6.70589259 23.79158661 6.70456887 26.04339658 6.69604492 28.29516602 C6.68753835 31.73449575 6.71630073 35.17216251 6.74804688 38.61132812 C6.74965913 40.80208284 6.74908089 42.99284048 6.74609375 45.18359375 C6.75732773 46.20875595 6.76856171 47.23391815 6.78013611 48.29014587 C6.72174091 54.29356741 6.24660177 57.74177058 2.25 62.3125 C-1.01101527 65.06624623 -3.01411399 66.20737343 -7.25 66.8125 C-12.20828947 66.10417293 -15.16028019 64.18032627 -18.39257812 60.38256836 C-20.48956814 55.63982565 -20.217785 51.00982723 -20.21875 45.87890625 C-20.22636353 44.76821274 -20.23397705 43.65751923 -20.24182129 42.51316833 C-20.25261342 40.16724899 -20.25547902 37.82128164 -20.25097656 35.4753418 C-20.25000433 31.8909476 -20.29163788 28.3086946 -20.3359375 24.72460938 C-20.34114473 22.44271279 -20.34383269 20.16080878 -20.34375 17.87890625 C-20.36014526 16.80999649 -20.37654053 15.74108673 -20.39343262 14.63978577 C-20.31655616 6.34141291 -20.31655616 6.34141291 -17.33007812 2.67553711 C-12.04371591 -2.1661264 -6.6632115 -3.47952059 0 0 Z " fill="#D0D9F7" transform="translate(341.75,16.6875)"/>
<path d="M0 0 C7.25921037 -0.98989232 13.00807058 2.06909484 19 6 C23.27448633 10.20885122 26.64632328 15.38027744 27.24050903 21.46150208 C27.2338472 22.75056709 27.2338472 22.75056709 27.22705078 24.06567383 C27.22689972 25.04631302 27.22674866 26.02695221 27.22659302 27.03730774 C27.21627045 28.0833165 27.20594788 29.12932526 27.1953125 30.20703125 C27.1924826 31.28756271 27.18965271 32.36809418 27.18673706 33.48136902 C27.17556132 36.92519301 27.15046118 40.36875489 27.125 43.8125 C27.11496685 46.15038686 27.10584158 48.48827781 27.09765625 50.82617188 C27.07563046 56.55088191 27.04111821 62.27539655 27 68 C22.05 68 17.1 68 12 68 C11.98541748 66.62859863 11.97083496 65.25719727 11.95581055 63.84423828 C11.89750197 58.71882046 11.82027229 53.59382709 11.73754883 48.46875 C11.70445198 46.25755746 11.67637344 44.04628353 11.65356445 41.83496094 C11.61973703 38.64222782 11.56740791 35.45023042 11.51171875 32.2578125 C11.50532883 31.28135773 11.4989389 30.30490295 11.49235535 29.29885864 C11.32371201 21.28832152 10.26575124 12.89916708 4.9375 6.5625 C4.43089844 5.94503906 3.92429687 5.32757813 3.40234375 4.69140625 C2.93957031 4.13324219 2.47679687 3.57507812 2 3 C1.34 2.01 0.68 1.02 0 0 Z " fill="#E60053" transform="translate(420,48)"/>
<path d="M0 0 C0.99 0 1.98 0 3 0 C5.82000721 4.23001082 6.12055144 7.9704205 6.16113281 12.97045898 C6.17074036 13.93173203 6.1803479 14.89300507 6.19024658 15.88340759 C6.19449646 16.91059402 6.19874634 17.93778046 6.203125 18.99609375 C6.20882507 20.06239517 6.21452515 21.12869659 6.22039795 22.22731018 C6.22982912 24.47908542 6.23637444 26.73087434 6.24023438 28.98266602 C6.24995514 32.42163131 6.28100306 35.86000257 6.3125 39.29882812 C6.31902912 41.4895798 6.32427995 43.68033572 6.328125 45.87109375 C6.3404718 46.89625595 6.3528186 47.92141815 6.36553955 48.97764587 C6.34856881 54.43131882 6.04069471 58.26384202 3 63 C0.6875 62.875 0.6875 62.875 -2 62 C-5.74677994 56.60811552 -5.4517176 51.21596264 -5.43359375 44.90625 C-5.4388356 43.84136353 -5.44407745 42.77647705 -5.44947815 41.67932129 C-5.45588608 39.43352122 -5.45457733 37.18768753 -5.44604492 34.94189453 C-5.43752839 31.51143554 -5.46632587 28.08263871 -5.49804688 24.65234375 C-5.49965891 22.46614633 -5.49908132 20.27994597 -5.49609375 18.09375 C-5.51294472 16.56071228 -5.51294472 16.56071228 -5.53013611 14.9967041 C-5.46654187 8.48066673 -4.71397574 4.71397574 0 0 Z " fill="#E8F2FA" transform="translate(136,17)"/>
<path d="M0 0 C1.8726514 3.18860395 2.25612573 5.54545635 2.2746582 9.22412109 C2.28419022 10.26555267 2.29372223 11.30698425 2.30354309 12.37997437 C2.30263168 13.4998172 2.30172028 14.61966003 2.30078125 15.7734375 C2.30506638 16.92993805 2.3093515 18.0864386 2.31376648 19.27798462 C2.31950872 21.7240534 2.32001083 24.17013926 2.31567383 26.61621094 C2.31251789 30.35381316 2.33596156 34.09062086 2.36132812 37.828125 C2.36360155 40.20572817 2.36430441 42.58333346 2.36328125 44.9609375 C2.372491 46.07673187 2.38170074 47.19252625 2.39118958 48.34213257 C2.35720764 54.05818506 2.1764884 58.16728603 -1 63 C-3.45964876 62.06702978 -4.88099662 61.13827921 -6.60522461 59.13476562 C-8.73402511 54.35027438 -8.48779812 49.71364442 -8.50390625 44.53125 C-8.51389145 43.41818481 -8.52387665 42.30511963 -8.53416443 41.1583252 C-8.54933188 38.80822462 -8.55639065 36.45805963 -8.5559082 34.10791016 C-8.56247759 30.51226754 -8.61700037 26.91937396 -8.67382812 23.32421875 C-8.68262901 21.03907194 -8.68858402 18.75391202 -8.69140625 16.46875 C-8.7129628 15.39467896 -8.73451935 14.32060791 -8.75672913 13.21398926 C-8.69005303 5.95724333 -8.69005303 5.95724333 -6.68795776 3.17993164 C-4.56825117 1.33663147 -2.88159119 0 0 0 Z " fill="#EAF4FB" transform="translate(330,18)"/>
<path d="M0 0 C6.27 0 12.54 0 19 0 C19 5.94 19 11.88 19 18 C12.73 18 6.46 18 0 18 C0 12.06 0 6.12 0 0 Z " fill="#294186" transform="translate(263,197)"/>
<path d="M0 0 C4.1765625 -0.0309375 4.1765625 -0.0309375 8.4375 -0.0625 C9.75512329 -0.07615601 9.75512329 -0.07615601 11.09936523 -0.09008789 C13.06645974 -0.09723091 15.03353621 -0.05031893 17 0 C18.93555423 1.93555423 18.30605899 5.23781825 18.375 7.8125 C18.42398437 9.05644531 18.47296875 10.30039062 18.5234375 11.58203125 C18 15 18 15 15.90234375 17.43359375 C10.74837299 20.21521189 5.7539073 19.2324811 0 19 C0 12.73 0 6.46 0 0 Z " fill="#294085" transform="translate(264,263)"/>
<path d="M0 0 C5.94 0 11.88 0 18 0 C18 5.94 18 11.88 18 18 C12.06 18 6.12 18 0 18 C0 12.06 0 6.12 0 0 Z " fill="#2B438B" transform="translate(197,330)"/>
<path d="M0 0 C5.94 0 11.88 0 18 0 C18 5.94 18 11.88 18 18 C12.06 18 6.12 18 0 18 C0 12.06 0 6.12 0 0 Z " fill="#29418A" transform="translate(131,330)"/>
<path d="M0 0 C5.94 0 11.88 0 18 0 C18 5.94 18 11.88 18 18 C12.06 18 6.12 18 0 18 C0 12.06 0 6.12 0 0 Z " fill="#2B438C" transform="translate(65,330)"/>
<path d="M0 0 C5.94 0 11.88 0 18 0 C18 5.94 18 11.88 18 18 C12.06 18 6.12 18 0 18 C0 12.06 0 6.12 0 0 Z " fill="#284088" transform="translate(197,264)"/>
<path d="M0 0 C5.94 0 11.88 0 18 0 C18 5.94 18 11.88 18 18 C12.06 18 6.12 18 0 18 C0 12.06 0 6.12 0 0 Z " fill="#284088" transform="translate(131,264)"/>
<path d="M0 0 C5.94 0 11.88 0 18 0 C18 5.94 18 11.88 18 18 C12.06 18 6.12 18 0 18 C0 12.06 0 6.12 0 0 Z " fill="#2A428A" transform="translate(65,264)"/>
<path d="M0 0 C5.94 0 11.88 0 18 0 C18 5.94 18 11.88 18 18 C12.06 18 6.12 18 0 18 C0 12.06 0 6.12 0 0 Z " fill="#294089" transform="translate(396,197)"/>
<path d="M0 0 C5.94 0 11.88 0 18 0 C18 5.94 18 11.88 18 18 C12.06 18 6.12 18 0 18 C0 12.06 0 6.12 0 0 Z " fill="#2B438B" transform="translate(330,197)"/>
<path d="M0 0 C5.94 0 11.88 0 18 0 C18 5.94 18 11.88 18 18 C12.06 18 6.12 18 0 18 C0 12.06 0 6.12 0 0 Z " fill="#2B438A" transform="translate(197,197)"/>
<path d="M0 0 C5.94 0 11.88 0 18 0 C18 5.94 18 11.88 18 18 C12.06 18 6.12 18 0 18 C0 12.06 0 6.12 0 0 Z " fill="#294089" transform="translate(131,197)"/>
<path d="M0 0 C5.94 0 11.88 0 18 0 C18 5.94 18 11.88 18 18 C12.06 18 6.12 18 0 18 C0 12.06 0 6.12 0 0 Z " fill="#2B438B" transform="translate(65,197)"/>
<path d="M0 0 C4.95 0 9.9 0 15 0 C15 5.94 15 11.88 15 18 C10.05 18 5.1 18 0 18 C0 12.06 0 6.12 0 0 Z " fill="#E80054" transform="translate(432,131)"/>
<path d="M0 0 C4.10198969 1.34246935 5.88827306 2.64878144 8.4375 6.125 C9.1821324 10.09637281 8.81016878 11.56599683 6.5625 14.9375 C3.85805063 17.72149199 3.01483296 18.05964155 -0.875 18.5 C-4.5625 18.125 -4.5625 18.125 -7.5 16.125 C-9.77963788 12.80916309 -10.37917462 11.01597289 -10.109375 7.06640625 C-8.6760618 1.9781444 -4.93940286 0.17331238 0 0 Z " fill="#F6D53D" transform="translate(364.5625,370.875)"/>
<path d="M0 0 C0.33 0 0.66 0 1 0 C1.02923559 3.85415052 1.04687777 7.70827215 1.0625 11.5625 C1.07087891 12.64853516 1.07925781 13.73457031 1.08789062 14.85351562 C1.10459218 20.34832611 0.98582259 25.58961935 0 31 C-0.99 31 -1.98 31 -3 31 C-2.67 23.41 -2.34 15.82 -2 8 C-1.67 8 -1.34 8 -1 8 C-0.67 5.36 -0.34 2.72 0 0 Z " fill="#449BE5" transform="translate(464,366)"/>
<path d="M0 0 C0.99 0 1.98 0 3 0 C3 5.94 3 11.88 3 18 C2.01 18 1.02 18 0 18 C0 12.06 0 6.12 0 0 Z " fill="#39549C" transform="translate(131,330)"/>
<path d="M0 0 C0.99 0 1.98 0 3 0 C3 5.61 3 11.22 3 17 C2.01 17 1.02 17 0 17 C0 11.39 0 5.78 0 0 Z " fill="#365092" transform="translate(197,264)"/>
<path d="M0 0 C0.99 0 1.98 0 3 0 C3 5.61 3 11.22 3 17 C2.01 17 1.02 17 0 17 C0 11.39 0 5.78 0 0 Z " fill="#39559D" transform="translate(131,264)"/>
<path d="M0 0 C0.99 0 1.98 0 3 0 C3 5.61 3 11.22 3 17 C2.01 17 1.02 17 0 17 C0 11.39 0 5.78 0 0 Z " fill="#39559C" transform="translate(396,198)"/>
<path d="M0 0 C0.99 0 1.98 0 3 0 C3 5.61 3 11.22 3 17 C2.01 17 1.02 17 0 17 C0 11.39 0 5.78 0 0 Z " fill="#39559D" transform="translate(131,198)"/>
</svg>
