<?xml version="1.0" encoding="UTF-8"?>
<svg version="1.1" xmlns="http://www.w3.org/2000/svg" width="512" height="512">
<path d="M0 0 C0.6703125 0.23605957 1.340625 0.47211914 2.03125 0.71533203 C26.3739183 9.65365555 45.52938678 28.39030287 56.375 51.8125 C65.33000754 74.60706465 66.39307759 100.526591 57.64453125 123.5703125 C56.22146079 126.79797366 54.66842897 129.89285329 53 133 C52.48695313 134.00417969 51.97390625 135.00835937 51.4453125 136.04296875 C47.04695101 144.17678078 41.48304791 150.50793533 35 157 C34.20722656 157.804375 33.41445313 158.60875 32.59765625 159.4375 C25.33217654 166.40075509 12.51961416 177 2 177 C2.00460896 177.59322398 2.00921793 178.18644796 2.01396656 178.79764843 C2.12442006 193.23650368 2.20714392 207.67532122 2.25906086 222.11450481 C2.28483539 229.0972429 2.31997088 236.07969886 2.37719727 243.06225586 C2.43238307 249.79904376 2.46141034 256.53547783 2.47438622 263.27250099 C2.48363498 265.84458852 2.50169539 268.41665975 2.52865028 270.98862267 C2.56487149 274.58741494 2.56994795 278.18499075 2.56762695 281.78393555 C2.58560333 282.85064484 2.60357971 283.91735413 2.62210083 285.01638794 C2.56580714 293.06663249 2.56580714 293.06663249 -0.41047668 296.20100403 C-3 298 -3 298 -5 298 C-5 304.27 -5 310.54 -5 317 C-3.68 317.33 -2.36 317.66 -1 318 C0.72577 319.13757801 0.72577 319.13757801 2 321 C2.38031673 324.01736736 2.38031673 324.01736736 2.38768005 327.79875183 C2.39575836 328.84156113 2.39575836 328.84156113 2.40399987 329.90543729 C2.41833552 332.24076653 2.41116209 334.57553339 2.40405273 336.91088867 C2.40975361 338.58306333 2.41671677 340.25523409 2.42485046 341.92739868 C2.44283409 346.47518965 2.44160305 351.0227882 2.43590808 355.57060409 C2.4328219 359.36759629 2.43890273 363.16455123 2.44494683 366.96153814 C2.45900924 375.92303922 2.4574182 384.88444504 2.44604492 393.84594727 C2.43457821 403.08508596 2.44861108 412.32393389 2.4754414 421.56303424 C2.49761723 429.49693284 2.50423105 437.43074032 2.49836498 445.36466771 C2.49499674 450.10230006 2.49740091 454.83974628 2.51461601 459.57735252 C2.53011168 464.03684092 2.5261006 468.49590026 2.50731087 472.95537186 C2.50363137 474.58875892 2.50671479 476.22217793 2.51719666 477.85553551 C2.61670899 494.64998824 2.61670899 494.64998824 -3.74609375 502.0234375 C-4.30425781 502.46945312 -4.86242187 502.91546875 -5.4375 503.375 C-5.99308594 503.83648437 -6.54867188 504.29796875 -7.12109375 504.7734375 C-11.00828994 507.31102503 -14.50750404 508.24977043 -19.12193012 508.26006222 C-20.13713649 508.26712781 -21.15234286 508.2741934 -22.19831306 508.2814731 C-23.3066669 508.27905802 -24.41502074 508.27664293 -25.55696106 508.27415466 C-26.73981884 508.27939134 -27.92267662 508.28462802 -29.14137858 508.29002339 C-32.42113125 508.30243074 -35.7007511 508.30586691 -38.98052275 508.30542648 C-42.51915482 508.30707573 -46.05774794 508.3201442 -49.59635925 508.33161926 C-57.33189026 508.35445925 -65.06739381 508.36238866 -72.80295396 508.36744571 C-77.63386013 508.37070362 -82.46475835 508.37722663 -87.29566002 508.3844471 C-100.67379531 508.40401101 -114.05192322 508.42041668 -127.43007374 508.42332363 C-128.2859929 508.4235112 -129.14191206 508.42369877 -130.02376817 508.42389202 C-131.75888264 508.42425827 -133.49399712 508.42462197 -135.22911159 508.42498314 C-136.52106146 508.42525735 -136.52106146 508.42525735 -137.83911133 508.42553711 C-139.13263977 508.42580793 -139.13263977 508.42580793 -140.45230009 508.42608423 C-154.42727705 508.42962631 -168.40209997 508.45665174 -182.3770235 508.494035 C-196.72838617 508.53211776 -211.07967239 508.5514811 -225.43108672 508.55178314 C-233.48752427 508.55236769 -241.543778 508.5608579 -249.60016823 508.58978081 C-256.45978326 508.61429423 -263.31914743 508.62157791 -270.17879442 508.60653328 C-273.67763925 508.59936429 -277.1759887 508.60022039 -280.67477798 508.62294388 C-284.47098191 508.64332227 -288.2659011 508.63289843 -292.06208801 508.61473083 C-293.16374969 508.6279308 -294.26541136 508.64113077 -295.40045673 508.65473074 C-303.0413594 508.57116394 -308.00824329 506.88346081 -313.5192855 501.52193254 C-318.0721319 496.41088218 -319.24841009 492.01327291 -319.26564884 485.28509808 C-319.27005371 484.61988314 -319.27445857 483.95466821 -319.27899691 483.26929525 C-319.29132546 481.03636811 -319.2894432 478.80368164 -319.28761292 476.57072449 C-319.29349709 474.95518577 -319.30023625 473.33964998 -319.30775779 471.72411805 C-319.32583708 467.28143378 -319.33135259 462.83880884 -319.33474457 458.3960923 C-319.34050098 453.60591421 -319.3576264 448.81577424 -319.37309265 444.02561951 C-319.40784613 432.4576841 -319.42342997 420.88975185 -319.43721595 409.32177565 C-319.44417677 403.87510658 -319.45333353 398.42844131 -319.46232414 392.98177528 C-319.49152525 374.87868292 -319.51632055 356.77559428 -319.52694798 338.67248058 C-319.52763867 337.51386507 -319.52832936 336.35524956 -319.52904099 335.16152449 C-319.529733 334.00012906 -319.53042502 332.83873362 -319.531138 331.64214438 C-319.53255 329.28869195 -319.53397081 326.93523953 -319.53540039 324.58178711 C-319.53610556 323.41439211 -319.53681073 322.24699711 -319.53753727 321.0442265 C-319.54979139 302.12233154 -319.59259543 283.20063675 -319.64834059 264.27882489 C-319.70509788 244.85596901 -319.7355964 225.43321439 -319.73996013 206.01027471 C-319.74304384 195.10333566 -319.75757627 184.19667484 -319.80124092 173.2898159 C-319.83831233 164.00374282 -319.85153917 154.71802333 -319.83353604 145.43188687 C-319.82507358 140.69349039 -319.82796944 135.95581621 -319.86135483 131.21751404 C-319.89165405 126.87886948 -319.88959375 122.54148303 -319.86186682 118.20283238 C-319.85752207 116.6341954 -319.86499494 115.06547138 -319.88553984 113.49696293 C-320.04723206 100.32820795 -320.04723206 100.32820795 -315.64068222 95.21393204 C-314.45413621 94.11277591 -313.2414974 93.03880722 -312 92 C-310.95456406 90.93203399 -309.91746711 89.85575245 -308.8938446 88.76686096 C-307.84148148 87.70869724 -306.7865222 86.65311036 -305.72924805 85.59985352 C-305.14622421 85.01507736 -304.56320038 84.43030121 -303.96250916 83.82780457 C-302.06472626 81.92567541 -300.16337532 80.02716207 -298.26171875 78.12890625 C-296.93115389 76.79766682 -295.60073743 75.46627905 -294.27046204 74.13475037 C-291.49760227 71.36042392 -288.72296074 68.58789545 -285.94702148 65.81665039 C-282.38476843 62.26012755 -278.82706876 58.69908876 -275.27066326 55.1367197 C-272.53163294 52.39408438 -269.79023604 49.65382459 -267.04810524 46.91428947 C-265.73440924 45.60126119 -264.42145741 44.28748792 -263.10925865 42.97296333 C-261.28316913 41.14434472 -259.45392333 39.31894424 -257.6237793 37.49438477 C-257.08092285 36.94950409 -256.53806641 36.40462341 -255.97875977 35.8432312 C-251.15824694 31.05004195 -251.15824694 31.05004195 -247.50170135 30.89206123 C-246.43987892 30.89989569 -245.37805649 30.90773014 -244.28405762 30.915802 C-243.0672934 30.92190994 -241.85052917 30.92801788 -240.59689331 30.93431091 C-239.24102781 30.94595113 -237.88516233 30.95759366 -236.52929688 30.96923828 C-235.10682499 30.97766284 -233.68434951 30.98549679 -232.26187134 30.99278259 C-229.98600581 31.00454917 -227.71014963 31.01675538 -225.43429661 31.03075147 C-219.78255132 31.06529913 -214.1309713 31.08147285 -208.47912598 31.08639526 C-207.65903848 31.08712795 -206.83895099 31.08786064 -205.99401236 31.08861554 C-202.60914063 31.09128123 -199.22426879 31.09332798 -195.83939648 31.0950911 C-186.23338417 31.10086873 -176.62818534 31.12451439 -167.02246094 31.20214844 C-159.39416885 31.26368051 -151.76687749 31.28616209 -144.13835573 31.26333606 C-140.10298915 31.25271921 -136.06981012 31.26150581 -132.03477478 31.31766129 C-128.23178522 31.37013924 -124.43222643 31.37050487 -120.6291008 31.33229256 C-119.23998531 31.32732978 -117.85064944 31.34088615 -116.46194839 31.37517738 C-110.40046056 31.51576191 -105.83149846 31.48713114 -101.00401306 27.56733322 C-98.43628413 24.89093608 -96.24455853 21.94974361 -94 19 C-69.96465315 -3.5965079 -30.76838963 -10.8452345 0 0 Z " fill="#DDE9F8" transform="translate(384,4)"/>
<path d="M0 0 C0.6703125 0.23605957 1.340625 0.47211914 2.03125 0.71533203 C26.3739183 9.65365555 45.52938678 28.39030287 56.375 51.8125 C65.33000754 74.60706465 66.39307759 100.526591 57.64453125 123.5703125 C56.22146079 126.79797366 54.66842897 129.89285329 53 133 C52.48695313 134.00417969 51.97390625 135.00835937 51.4453125 136.04296875 C47.04695101 144.17678078 41.48304791 150.50793533 35 157 C34.20722656 157.804375 33.41445313 158.60875 32.59765625 159.4375 C25.33217654 166.40075509 12.51961416 177 2 177 C2.00460896 177.59322398 2.00921793 178.18644796 2.01396656 178.79764843 C2.12442006 193.23650368 2.20714392 207.67532122 2.25906086 222.11450481 C2.28483539 229.0972429 2.31997088 236.07969886 2.37719727 243.06225586 C2.43238307 249.79904376 2.46141034 256.53547783 2.47438622 263.27250099 C2.48363498 265.84458852 2.50169539 268.41665975 2.52865028 270.98862267 C2.56487149 274.58741494 2.56994795 278.18499075 2.56762695 281.78393555 C2.58560333 282.85064484 2.60357971 283.91735413 2.62210083 285.01638794 C2.57172594 292.22021808 2.57172594 292.22021808 -0.34407043 296.19709778 C-3 298 -3 298 -6.0625 298.0625 C-9.59419467 296.78507852 -10.81488053 296.07825317 -13 293 C-13.59259751 289.45568337 -13.50447869 285.94195238 -13.45410156 282.35644531 C-13.45468567 281.27321487 -13.45526978 280.18998444 -13.45587158 279.07392883 C-13.45308374 275.49166883 -13.42195726 271.91023974 -13.390625 268.328125 C-13.38316514 265.84519912 -13.377471 263.36226736 -13.37347412 260.8793335 C-13.35975949 255.01089664 -13.32823089 249.14276681 -13.28807616 243.27445579 C-13.23895926 235.93692493 -13.21749209 228.5993765 -13.1953125 221.26171875 C-13.15240647 208.17429794 -13.08203975 195.08723408 -13 182 C-25.375 182.99 -25.375 182.99 -38 184 C-37.34 185.65 -36.68 187.3 -36 189 C-35.56550732 192.09822711 -35.58439421 195.18649308 -35.5625 198.3125 C-35.52962891 199.12912109 -35.49675781 199.94574219 -35.46289062 200.78710938 C-35.40768436 207.08564266 -37.08747479 211.08447574 -41 216 C-46.94742786 221.75557534 -54.73452639 221.30162465 -62.47802734 221.30639648 C-63.62672806 221.31472 -64.77542877 221.32304352 -65.9589386 221.33161926 C-69.75130617 221.35568915 -73.54350168 221.36448733 -77.3359375 221.37109375 C-79.97620698 221.38006148 -82.61647594 221.38918336 -85.25674438 221.39845276 C-90.78965902 221.41579593 -96.32252993 221.42267483 -101.85546875 221.42553711 C-108.23697438 221.42917191 -114.61799894 221.45907088 -120.99935758 221.50094169 C-127.15459504 221.53990276 -133.30959946 221.5511313 -139.46495438 221.55226326 C-142.07640825 221.5564661 -144.68786251 221.56890276 -147.2992363 221.58978081 C-150.95431016 221.61668025 -154.60806079 221.61187266 -158.26318359 221.59936523 C-159.337733 221.61419952 -160.41228241 221.62903381 -161.51939392 221.64431763 C-168.28330562 221.57851481 -172.77625686 220.40677099 -178 216 C-183.22164067 210.37669467 -183.25886112 205.62397058 -183.375 198.3125 C-183.43107422 197.00249023 -183.43107422 197.00249023 -183.48828125 195.66601562 C-183.56241486 190.15129846 -182.70509522 186.45172775 -179.76416016 181.77807617 C-174.91310823 176.88875827 -170.33652191 175.54595374 -163.65600586 175.43885803 C-162.72739746 175.4438884 -161.79878906 175.44891876 -160.84204102 175.45410156 C-159.84615463 175.44376389 -158.85026825 175.43342621 -157.82420349 175.42277527 C-154.55060484 175.39340793 -151.27762613 175.39184934 -148.00390625 175.390625 C-145.72703374 175.37563931 -143.45017209 175.35891135 -141.17332458 175.34051514 C-135.19421889 175.29687342 -129.21525983 175.27684938 -123.23602295 175.26177979 C-117.12926576 175.24219741 -111.02266666 175.20022858 -104.91601562 175.16015625 C-92.94405922 175.08488838 -80.97213825 175.03457602 -69 175 C-69.8760791 174.54181885 -70.7521582 174.0836377 -71.65478516 173.61157227 C-72.81284668 172.99854248 -73.9709082 172.3855127 -75.1640625 171.75390625 C-76.3082666 171.1513501 -77.4524707 170.54879395 -78.63134766 169.92797852 C-83.53944195 167.11893223 -87.72530456 163.67593491 -92 160 C-92.62390625 159.50886719 -93.2478125 159.01773438 -93.890625 158.51171875 C-110.53473304 145.20392967 -121.28956188 121.82479262 -124 101 C-125.52280474 81.4688234 -122.78943164 63.57886329 -114 46 C-155.25 46 -196.5 46 -239 46 C-239 61.84 -239 77.68 -239 94 C-242.14700319 101.34300744 -244.61389633 106.3970226 -252 110 C-258 112 -258 112 -279 112 C-279 135.43 -279 158.86 -279 183 C-278.34 183 -277.68 183 -277 183 C-276.814375 182.443125 -276.62875 181.88625 -276.4375 181.3125 C-274.09066569 177.53715784 -270.3156591 174.75001104 -266.0703125 173.375 C-259.25525419 172.14057434 -253.74525771 172.47524634 -247.7890625 176.125 C-245.73305207 177.29290056 -245.73305207 177.29290056 -242 177 C-239.7889368 175.12328078 -239.7889368 175.12328078 -237.6875 172.6875 C-232.45389287 167.26636949 -228.73858907 164.96034608 -221.0625 164.5625 C-215.06837293 164.78079901 -210.5901106 166.51924962 -206.2421875 170.68359375 C-200.88469363 176.70106875 -199.57003297 180.95523845 -199.765625 189.04296875 C-200.40181536 197.06957046 -205.03840176 201.80583547 -210.40380859 207.34814453 C-211.5832557 208.56872256 -212.75419598 209.79753396 -213.92041016 211.03076172 C-216.07713692 213.30688857 -218.2546403 215.56144094 -220.4375 217.8125 C-221.12859863 218.54194824 -221.81969727 219.27139648 -222.53173828 220.02294922 C-228.62527926 226.21047798 -235.26333599 231.08397163 -244.1875 231.5 C-256.70785292 230.73823126 -264.388978 220.74626168 -272.60791016 212.35595703 C-275.51192396 209.29849789 -275.51192396 209.29849789 -279 207 C-278.67 223.5 -278.34 240 -278 257 C-276.68 255.35 -275.36 253.7 -274 252 C-268.92634125 248.45106771 -263.54485821 246.17383476 -257.30078125 246.484375 C-253.58826904 247.31638113 -250.49219235 249.13518726 -247.26171875 251.1015625 C-245.050637 252.25258027 -245.050637 252.25258027 -242.91796875 251.36328125 C-240.88722366 249.91983922 -239.30710287 248.39859821 -237.625 246.5625 C-232.58665573 241.4818167 -228.83085439 239.82815362 -221.625 239.5625 C-215.92457375 239.72462816 -211.47745024 240.31627958 -207 244 C-202.31643871 249.19710968 -199.84283608 253.07764711 -199.6875 260.125 C-199.63142578 261.76855469 -199.63142578 261.76855469 -199.57421875 263.4453125 C-200.47752182 270.98665002 -204.70164235 276.32095209 -209.9453125 281.546875 C-210.51522919 282.12536194 -211.08514587 282.70384888 -211.67233276 283.29986572 C-212.87250328 284.51144225 -214.07784064 285.71792069 -215.28808594 286.91943359 C-217.11729349 288.74232012 -218.91821028 290.59025092 -220.71875 292.44140625 C-227.89382533 299.69470585 -234.45225539 305.74536149 -245.125 306.5 C-255.35911743 305.17946872 -261.14183154 298.3521776 -268 291.25 C-272.95 286.17625 -272.95 286.17625 -278 281 C-278 297.5 -278 314 -278 331 C-275.36 328.69 -272.72 326.38 -270 324 C-264.59781302 321.29890651 -259.95467106 321.33582515 -254 322 C-251.70254163 322.88563315 -249.77771498 323.88161985 -247.71875 325.22265625 C-246.01748125 326.15597716 -246.01748125 326.15597716 -244.0546875 325.86328125 C-241.37153018 324.73594709 -239.72353808 323.13517859 -237.625 321.125 C-231.20401048 315.3180111 -226.69585407 313.34142371 -217.96875 313.58984375 C-210.89456845 314.56719778 -206.53439018 319.04577531 -202.12890625 324.3515625 C-199.87195614 327.64717823 -199.78182847 330.81010352 -199.6875 334.6875 C-199.65011719 335.68136719 -199.61273438 336.67523438 -199.57421875 337.69921875 C-200.54937465 345.25891358 -204.97185499 350.58431787 -210.234375 355.80078125 C-211.12965912 356.70536324 -211.12965912 356.70536324 -212.04302979 357.6282196 C-213.29875728 358.89100301 -214.55956476 360.14875349 -215.82519531 361.40161133 C-217.74692926 363.30945146 -219.64339811 365.24012282 -221.5390625 367.17382812 C-222.76938149 368.40509826 -224.00110683 369.63496509 -225.234375 370.86328125 C-226.07231598 371.72110954 -226.07231598 371.72110954 -226.92718506 372.5962677 C-231.94940719 377.50343229 -237.69061195 380.37605394 -244.875 380.5625 C-257.14275754 380.00402849 -265.49910627 368.97040574 -273.44116211 360.73583984 C-275.07298775 358.91872469 -276.53462822 356.95382905 -278 355 C-278 371.83 -278 388.66 -278 406 C-276.35 404.02 -274.7 402.04 -273 400 C-268.08233839 396.11981974 -262.82216556 395.38941474 -256.68359375 395.59375 C-253.24432448 396.11439629 -250.68957401 397.29892589 -247.75390625 399.125 C-245.7301254 400.29761083 -245.7301254 400.29761083 -242 400 C-239.7889368 398.12328078 -239.7889368 398.12328078 -237.6875 395.6875 C-232.48152687 390.29499363 -228.75018854 387.98171453 -221.125 387.5 C-214.84567625 387.71026655 -209.92040445 390.21493136 -205.3984375 394.52734375 C-201.11796067 399.4461373 -199.67138049 403.19646403 -199.5 409.6875 C-199.4484375 410.84636719 -199.396875 412.00523437 -199.34375 413.19921875 C-201.05101978 423.08715624 -209.55749865 430.00055754 -216.43188477 436.76806641 C-218.07172422 438.38409026 -219.69759846 440.01326868 -221.32226562 441.64453125 C-222.37160334 442.68829733 -223.42170685 443.73129422 -224.47265625 444.7734375 C-224.9529982 445.25469086 -225.43334015 445.73594421 -225.92823792 446.23178101 C-231.76327507 451.94610381 -236.64876242 454.09073093 -244.6875 454.4375 C-245.66074219 454.49808594 -246.63398438 454.55867188 -247.63671875 454.62109375 C-256.52367714 452.97994812 -262.92411422 445.4463301 -268.9375 439.1875 C-270.42367169 437.65810347 -271.91185136 436.13065479 -273.40234375 434.60546875 C-274.04679443 433.93668701 -274.69124512 433.26790527 -275.35522461 432.57885742 C-276.92898378 430.91185531 -276.92898378 430.91185531 -279 430 C-279 450.79 -279 471.58 -279 493 C-245.81814259 492.96067376 -212.63645219 492.9071285 -179.45468877 492.82207905 C-175.53929159 492.81206132 -171.62389399 492.80221724 -167.70849609 492.79248047 C-166.92899488 492.7905391 -166.14949367 492.78859772 -165.3463712 492.78659752 C-152.7167183 492.75555728 -140.08708357 492.73859123 -127.4573997 492.72680578 C-114.50286625 492.71440468 -101.54842839 492.68692692 -88.59395528 492.64538693 C-80.59718268 492.62022157 -72.60056856 492.60688492 -64.6037558 492.60857043 C-58.47680366 492.60860364 -52.35008789 492.58768362 -46.22320747 492.55883217 C-43.70608715 492.55028762 -41.18893306 492.54861384 -38.67180443 492.55419731 C-35.24404046 492.56079007 -31.81725296 492.54302906 -28.3895874 492.51898193 C-27.38570126 492.52674235 -26.38181512 492.53450277 -25.34750819 492.54249835 C-20.09194327 492.49277328 -20.09194327 492.49277328 -15.38098431 490.39219284 C-13.52466267 487.17660283 -13.50614274 484.91747152 -13.5146637 481.20593262 C-13.51069027 480.52338394 -13.50671685 479.84083526 -13.50262302 479.13760328 C-13.49403331 476.85109787 -13.51386144 474.5657215 -13.53344727 472.27929688 C-13.53289855 470.6398961 -13.53052398 469.00049507 -13.52645874 467.36109924 C-13.52128044 463.83115834 -13.52835971 460.30152783 -13.54471016 456.7716217 C-13.56979666 451.19168972 -13.56355361 445.61206528 -13.55223083 440.03210449 C-13.52901498 426.17348863 -13.54747762 412.31496115 -13.57373047 398.45635986 C-13.59366165 387.68488378 -13.60228358 376.91365248 -13.57679409 366.14217615 C-13.56496063 360.59341656 -13.57667214 355.04535334 -13.6060468 349.49666595 C-13.6192851 346.04711658 -13.61189568 342.59783849 -13.59876633 339.14829826 C-13.5969069 337.54707914 -13.60365115 335.94582377 -13.61956978 334.34468269 C-13.6401028 332.16040205 -13.63002768 329.9783237 -13.61231995 327.79406738 C-13.61474984 326.5714344 -13.61717974 325.34880142 -13.61968327 324.08911896 C-13 321 -13 321 -10.65313625 318.60662079 C-7.40905454 316.64214983 -5.72996068 316.36511308 -2 317 C0.99637702 319.22629303 1.90622863 320.41497463 2.50336456 324.14041519 C2.50487267 325.38735027 2.50638077 326.63428535 2.50793457 327.91900635 C2.51729451 328.96309729 2.51729451 328.96309729 2.52684355 330.02828097 C2.54279812 332.36066995 2.53016041 334.69201734 2.51757812 337.02441406 C2.52299838 338.69673777 2.5301205 340.3690567 2.53881836 342.04136658 C2.55707184 346.5850292 2.54997441 351.12832896 2.53730202 355.67199802 C2.5271781 360.42886397 2.53656663 365.18569875 2.54284668 369.94256592 C2.55012769 377.9355629 2.54052645 385.92841216 2.52148438 393.92138672 C2.49974451 403.1531729 2.50674414 412.38460532 2.52879 421.61638284 C2.54696663 429.5460653 2.54949036 437.47564148 2.53903532 445.40533805 C2.53280899 450.13959021 2.53194044 454.87367639 2.54518127 459.60791779 C2.55677103 464.06333442 2.54865718 468.5182974 2.52560425 472.97366524 C2.52033252 474.60543376 2.52180455 476.23724072 2.53065491 477.86899376 C2.61327037 494.65397304 2.61327037 494.65397304 -3.74609375 502.0234375 C-4.30425781 502.46945312 -4.86242187 502.91546875 -5.4375 503.375 C-5.99308594 503.83648437 -6.54867188 504.29796875 -7.12109375 504.7734375 C-11.00828994 507.31102503 -14.50750404 508.24977043 -19.12193012 508.26006222 C-20.13713649 508.26712781 -21.15234286 508.2741934 -22.19831306 508.2814731 C-23.3066669 508.27905802 -24.41502074 508.27664293 -25.55696106 508.27415466 C-26.73981884 508.27939134 -27.92267662 508.28462802 -29.14137858 508.29002339 C-32.42113125 508.30243074 -35.7007511 508.30586691 -38.98052275 508.30542648 C-42.51915482 508.30707573 -46.05774794 508.3201442 -49.59635925 508.33161926 C-57.33189026 508.35445925 -65.06739381 508.36238866 -72.80295396 508.36744571 C-77.63386013 508.37070362 -82.46475835 508.37722663 -87.29566002 508.3844471 C-100.67379531 508.40401101 -114.05192322 508.42041668 -127.43007374 508.42332363 C-128.2859929 508.4235112 -129.14191206 508.42369877 -130.02376817 508.42389202 C-131.75888264 508.42425827 -133.49399712 508.42462197 -135.22911159 508.42498314 C-136.52106146 508.42525735 -136.52106146 508.42525735 -137.83911133 508.42553711 C-139.13263977 508.42580793 -139.13263977 508.42580793 -140.45230009 508.42608423 C-154.42727705 508.42962631 -168.40209997 508.45665174 -182.3770235 508.494035 C-196.72838617 508.53211776 -211.07967239 508.5514811 -225.43108672 508.55178314 C-233.48752427 508.55236769 -241.543778 508.5608579 -249.60016823 508.58978081 C-256.45978326 508.61429423 -263.31914743 508.62157791 -270.17879442 508.60653328 C-273.67763925 508.59936429 -277.1759887 508.60022039 -280.67477798 508.62294388 C-284.47098191 508.64332227 -288.2659011 508.63289843 -292.06208801 508.61473083 C-293.16374969 508.6279308 -294.26541136 508.64113077 -295.40045673 508.65473074 C-303.0413594 508.57116394 -308.00824329 506.88346081 -313.5192855 501.52193254 C-318.0721319 496.41088218 -319.24841009 492.01327291 -319.26564884 485.28509808 C-319.27005371 484.61988314 -319.27445857 483.95466821 -319.27899691 483.26929525 C-319.29132546 481.03636811 -319.2894432 478.80368164 -319.28761292 476.57072449 C-319.29349709 474.95518577 -319.30023625 473.33964998 -319.30775779 471.72411805 C-319.32583708 467.28143378 -319.33135259 462.83880884 -319.33474457 458.3960923 C-319.34050098 453.60591421 -319.3576264 448.81577424 -319.37309265 444.02561951 C-319.40784613 432.4576841 -319.42342997 420.88975185 -319.43721595 409.32177565 C-319.44417677 403.87510658 -319.45333353 398.42844131 -319.46232414 392.98177528 C-319.49152525 374.87868292 -319.51632055 356.77559428 -319.52694798 338.67248058 C-319.52763867 337.51386507 -319.52832936 336.35524956 -319.52904099 335.16152449 C-319.529733 334.00012906 -319.53042502 332.83873362 -319.531138 331.64214438 C-319.53255 329.28869195 -319.53397081 326.93523953 -319.53540039 324.58178711 C-319.53610556 323.41439211 -319.53681073 322.24699711 -319.53753727 321.0442265 C-319.54979139 302.12233154 -319.59259543 283.20063675 -319.64834059 264.27882489 C-319.70509788 244.85596901 -319.7355964 225.43321439 -319.73996013 206.01027471 C-319.74304384 195.10333566 -319.75757627 184.19667484 -319.80124092 173.2898159 C-319.83831233 164.00374282 -319.85153917 154.71802333 -319.83353604 145.43188687 C-319.82507358 140.69349039 -319.82796944 135.95581621 -319.86135483 131.21751404 C-319.89165405 126.87886948 -319.88959375 122.54148303 -319.86186682 118.20283238 C-319.85752207 116.6341954 -319.86499494 115.06547138 -319.88553984 113.49696293 C-320.04723206 100.32820795 -320.04723206 100.32820795 -315.64068222 95.21393204 C-314.45413621 94.11277591 -313.2414974 93.03880722 -312 92 C-310.95456406 90.93203399 -309.91746711 89.85575245 -308.8938446 88.76686096 C-307.84148148 87.70869724 -306.7865222 86.65311036 -305.72924805 85.59985352 C-305.14622421 85.01507736 -304.56320038 84.43030121 -303.96250916 83.82780457 C-302.06472626 81.92567541 -300.16337532 80.02716207 -298.26171875 78.12890625 C-296.93115389 76.79766682 -295.60073743 75.46627905 -294.27046204 74.13475037 C-291.49760227 71.36042392 -288.72296074 68.58789545 -285.94702148 65.81665039 C-282.38476843 62.26012755 -278.82706876 58.69908876 -275.27066326 55.1367197 C-272.53163294 52.39408438 -269.79023604 49.65382459 -267.04810524 46.91428947 C-265.73440924 45.60126119 -264.42145741 44.28748792 -263.10925865 42.97296333 C-261.28316913 41.14434472 -259.45392333 39.31894424 -257.6237793 37.49438477 C-257.08092285 36.94950409 -256.53806641 36.40462341 -255.97875977 35.8432312 C-251.15824694 31.05004195 -251.15824694 31.05004195 -247.50170135 30.89206123 C-246.43987892 30.89989569 -245.37805649 30.90773014 -244.28405762 30.915802 C-243.0672934 30.92190994 -241.85052917 30.92801788 -240.59689331 30.93431091 C-239.24102781 30.94595113 -237.88516233 30.95759366 -236.52929688 30.96923828 C-235.10682499 30.97766284 -233.68434951 30.98549679 -232.26187134 30.99278259 C-229.98600581 31.00454917 -227.71014963 31.01675538 -225.43429661 31.03075147 C-219.78255132 31.06529913 -214.1309713 31.08147285 -208.47912598 31.08639526 C-207.65903848 31.08712795 -206.83895099 31.08786064 -205.99401236 31.08861554 C-202.60914063 31.09128123 -199.22426879 31.09332798 -195.83939648 31.0950911 C-186.23338417 31.10086873 -176.62818534 31.12451439 -167.02246094 31.20214844 C-159.39416885 31.26368051 -151.76687749 31.28616209 -144.13835573 31.26333606 C-140.10298915 31.25271921 -136.06981012 31.26150581 -132.03477478 31.31766129 C-128.23178522 31.37013924 -124.43222643 31.37050487 -120.6291008 31.33229256 C-119.23998531 31.32732978 -117.85064944 31.34088615 -116.46194839 31.37517738 C-110.40046056 31.51576191 -105.83149846 31.48713114 -101.00401306 27.56733322 C-98.43628413 24.89093608 -96.24455853 21.94974361 -94 19 C-69.96465315 -3.5965079 -30.76838963 -10.8452345 0 0 Z " fill="#010101" transform="translate(384,4)"/>
<path d="M0 0 C15.18 0 30.36 0 46 0 C46 0.33 46 0.66 46 1 C39.07 1 32.14 1 25 1 C25 24.43 25 47.86 25 72 C25.66 72 26.32 72 27 72 C27.185625 71.443125 27.37125 70.88625 27.5625 70.3125 C29.90933431 66.53715784 33.6843409 63.75001104 37.9296875 62.375 C44.74474581 61.14057434 50.25474229 61.47524634 56.2109375 65.125 C58.26694793 66.29290056 58.26694793 66.29290056 62 66 C64.2110632 64.12328078 64.2110632 64.12328078 66.3125 61.6875 C71.54610713 56.26636949 75.26141093 53.96034608 82.9375 53.5625 C88.93162707 53.78079901 93.4098894 55.51924962 97.7578125 59.68359375 C103.11530637 65.70106875 104.42996703 69.95523845 104.234375 78.04296875 C103.59818464 86.06957046 98.96159824 90.80583547 93.59619141 96.34814453 C92.4167443 97.56872256 91.24580402 98.79753396 90.07958984 100.03076172 C87.92286308 102.30688857 85.7453597 104.56144094 83.5625 106.8125 C82.87140137 107.54194824 82.18030273 108.27139648 81.46826172 109.02294922 C75.37472074 115.21047798 68.73666401 120.08397163 59.8125 120.5 C47.29214708 119.73823126 39.611022 109.74626168 31.39208984 101.35595703 C28.48807604 98.29849789 28.48807604 98.29849789 25 96 C25.33 112.5 25.66 129 26 146 C27.32 144.35 28.64 142.7 30 141 C35.07365875 137.45106771 40.45514179 135.17383476 46.69921875 135.484375 C50.41173096 136.31638113 53.50780765 138.13518726 56.73828125 140.1015625 C58.949363 141.25258027 58.949363 141.25258027 61.08203125 140.36328125 C63.11277634 138.91983922 64.69289713 137.39859821 66.375 135.5625 C71.41334427 130.4818167 75.16914561 128.82815362 82.375 128.5625 C88.07542625 128.72462816 92.52254976 129.31627958 97 133 C101.68356129 138.19710968 104.15716392 142.07764711 104.3125 149.125 C104.36857422 150.76855469 104.36857422 150.76855469 104.42578125 152.4453125 C103.52247818 159.98665002 99.29835765 165.32095209 94.0546875 170.546875 C93.48477081 171.12536194 92.91485413 171.70384888 92.32766724 172.29986572 C91.12749672 173.51144225 89.92215936 174.71792069 88.71191406 175.91943359 C86.88270651 177.74232012 85.08178972 179.59025092 83.28125 181.44140625 C76.10617467 188.69470585 69.54774461 194.74536149 58.875 195.5 C48.64088257 194.17946872 42.85816846 187.3521776 36 180.25 C31.05 175.17625 31.05 175.17625 26 170 C26 186.5 26 203 26 220 C28.64 217.69 31.28 215.38 34 213 C39.40218698 210.29890651 44.04532894 210.33582515 50 211 C52.29745837 211.88563315 54.22228502 212.88161985 56.28125 214.22265625 C57.98251875 215.15597716 57.98251875 215.15597716 59.9453125 214.86328125 C62.62846982 213.73594709 64.27646192 212.13517859 66.375 210.125 C72.79598952 204.3180111 77.30414593 202.34142371 86.03125 202.58984375 C93.10543155 203.56719778 97.46560982 208.04577531 101.87109375 213.3515625 C104.12804386 216.64717823 104.21817153 219.81010352 104.3125 223.6875 C104.36857422 225.17830078 104.36857422 225.17830078 104.42578125 226.69921875 C103.45062535 234.25891358 99.02814501 239.58431787 93.765625 244.80078125 C93.16876892 245.40383591 92.57191284 246.00689056 91.95697021 246.6282196 C90.70124272 247.89100301 89.44043524 249.14875349 88.17480469 250.40161133 C86.25307074 252.30945146 84.35660189 254.24012282 82.4609375 256.17382812 C81.23061851 257.40509826 79.99889317 258.63496509 78.765625 259.86328125 C77.92768402 260.72110954 77.92768402 260.72110954 77.07281494 261.5962677 C72.05059281 266.50343229 66.30938805 269.37605394 59.125 269.5625 C46.85724246 269.00402849 38.50089373 257.97040574 30.55883789 249.73583984 C28.92701225 247.91872469 27.46537178 245.95382905 26 244 C26 260.83 26 277.66 26 295 C27.65 293.02 29.3 291.04 31 289 C35.91766161 285.11981974 41.17783444 284.38941474 47.31640625 284.59375 C50.75567552 285.11439629 53.31042599 286.29892589 56.24609375 288.125 C58.2698746 289.29761083 58.2698746 289.29761083 62 289 C64.2110632 287.12328078 64.2110632 287.12328078 66.3125 284.6875 C71.51847313 279.29499363 75.24981146 276.98171453 82.875 276.5 C89.15432375 276.71026655 94.07959555 279.21493136 98.6015625 283.52734375 C102.88203933 288.4461373 104.32861951 292.19646403 104.5 298.6875 C104.5515625 299.84636719 104.603125 301.00523437 104.65625 302.19921875 C102.94898022 312.08715624 94.44250135 319.00055754 87.56811523 325.76806641 C85.92827578 327.38409026 84.30240154 329.01326868 82.67773438 330.64453125 C81.62839666 331.68829733 80.57829315 332.73129422 79.52734375 333.7734375 C79.0470018 334.25469086 78.56665985 334.73594421 78.07176208 335.23178101 C72.23672493 340.94610381 67.35123758 343.09073093 59.3125 343.4375 C58.33925781 343.49808594 57.36601562 343.55867188 56.36328125 343.62109375 C47.47632286 341.97994812 41.07588578 334.4463301 35.0625 328.1875 C33.57632831 326.65810347 32.08814864 325.13065479 30.59765625 323.60546875 C29.95320557 322.93668701 29.30875488 322.26790527 28.64477539 321.57885742 C27.07101622 319.91185531 27.07101622 319.91185531 25 319 C25 339.79 25 360.58 25 382 C18.07 382 11.14 382 4 382 C-0.5 376.375 -0.5 376.375 -0.49219131 370.49701214 C-0.49680669 369.85472604 -0.50142207 369.21243994 -0.50617731 368.55069062 C-0.5167769 366.39549249 -0.4988133 364.24148648 -0.48101807 362.08634949 C-0.48276224 360.52698163 -0.48626433 358.96761491 -0.49137473 357.40825444 C-0.50032877 353.12100798 -0.48430533 348.8341604 -0.46426249 344.54696476 C-0.44700799 339.92465097 -0.45283277 335.30236013 -0.45587158 330.68002319 C-0.45797021 322.67079007 -0.44540741 314.66168717 -0.42292023 306.6524868 C-0.39042864 295.07251244 -0.37999612 283.49260113 -0.37496826 271.91258613 C-0.36621115 253.12536351 -0.33958427 234.33821031 -0.30175781 215.55102539 C-0.2650485 197.29972684 -0.23673145 179.04844715 -0.21972656 160.79711914 C-0.21815022 159.10994357 -0.21815022 159.10994357 -0.21654204 157.38868364 C-0.21132193 151.74604207 -0.20626709 146.10340036 -0.20129442 140.46075857 C-0.15981943 93.64045517 -0.08825973 46.82023661 0 0 Z " fill="#AFD9FA" transform="translate(80,115)"/>
<path d="M0 0 C4.47689277 3.34740147 8.5708541 6.99283092 12.5546875 10.91015625 C13.25464844 11.59722656 13.95460938 12.28429687 14.67578125 12.9921875 C23.89550141 22.67918392 29.31467337 34.04633777 32.5546875 46.91015625 C32.73056396 47.53124268 32.90644043 48.1523291 33.08764648 48.79223633 C34.37484277 53.49173329 34.90780115 57.96647519 34.8671875 62.84765625 C34.86154785 63.57637939 34.8559082 64.30510254 34.85009766 65.0559082 C34.3736737 87.04452453 26.59001275 105.5642572 11.3671875 121.66015625 C-4.47709177 136.81939695 -24.85043054 144.5034951 -46.76782227 144.25927734 C-69.33314418 143.5534358 -88.33397975 133.28797135 -103.65234375 117.10546875 C-118.6488937 100.47653747 -123.57230178 79.27983565 -122.63183594 57.49755859 C-121.16969239 37.21510135 -109.80184093 17.86467193 -94.7578125 4.59765625 C-84.45419465 -3.52635013 -73.19106932 -8.94778392 -60.4453125 -12.08984375 C-59.69636719 -12.28320312 -58.94742188 -12.4765625 -58.17578125 -12.67578125 C-37.75217548 -15.77292318 -17.11870729 -11.55639735 0 0 Z " fill="#FD646E" transform="translate(397.4453125,28.08984375)"/>
<path d="M0 0 C1.3293457 0.00483398 1.3293457 0.00483398 2.68554688 0.00976562 C4.05356445 0.02233398 4.05356445 0.02233398 5.44921875 0.03515625 C6.38056641 0.03966797 7.31191406 0.04417969 8.27148438 0.04882812 C10.55996248 0.06056391 12.84830683 0.07698262 15.13671875 0.09765625 C15.13671875 0.42765625 15.13671875 0.75765625 15.13671875 1.09765625 C13.46609375 1.40703125 13.46609375 1.40703125 11.76171875 1.72265625 C-4.46507821 5.85778026 -17.83921282 20.50219473 -26.13134766 34.35009766 C-36.93363861 53.07103854 -40.96788367 74.84976464 -36.92578125 96.28515625 C-36.26643448 99.85827675 -36.26643448 99.85827675 -34.86328125 101.09765625 C-34.58845917 100.54579147 -34.31363708 99.9939267 -34.03048706 99.42533875 C-31.14488397 93.63184402 -28.25636097 87.83981171 -25.36621094 82.04858398 C-24.29093151 79.89302608 -23.2163733 77.73710823 -22.14257812 75.58081055 C-20.59048314 72.46435961 -19.03571632 69.34925363 -17.48046875 66.234375 C-17.00833954 65.28495529 -16.53621033 64.33553558 -16.04977417 63.35734558 C-13.64881465 58.55503232 -11.20621136 53.77473825 -8.69970703 49.02661133 C-7.99263107 47.68074699 -7.99263107 47.68074699 -7.27127075 46.30769348 C-5.86328125 44.09765625 -5.86328125 44.09765625 -2.86328125 42.09765625 C0.01171875 41.66015625 0.01171875 41.66015625 3.13671875 42.09765625 C8.03627112 46.07525254 10.3728772 50.93166687 13.0859375 56.54296875 C13.77221977 57.92970291 13.77221977 57.92970291 14.47236633 59.3444519 C15.93254385 62.29925569 17.37892777 65.26054676 18.82421875 68.22265625 C20.71999957 72.08138233 22.62126351 75.93739092 24.5234375 79.79296875 C24.99006805 80.74109436 25.45669861 81.68921997 25.93746948 82.66607666 C29.80884844 90.50518054 33.8467754 98.24796197 37.95629883 105.96435547 C38.68313919 107.34210461 39.40994612 108.71987138 40.13671875 110.09765625 C40.52387054 110.81560364 40.91102234 111.53355103 41.30990601 112.27325439 C41.86166 113.32352814 41.86166 113.32352814 42.42456055 114.39501953 C42.75554245 115.0159549 43.08652435 115.63689026 43.42753601 116.27664185 C44.6629294 119.44884139 44.07097216 121.92119467 43.13671875 125.09765625 C42.01171875 127.03515625 42.01171875 127.03515625 40.13671875 128.09765625 C36.76171875 128.66015625 36.76171875 128.66015625 33.13671875 128.09765625 C28.69491666 123.59863287 26.06316823 118.49873338 23.32421875 112.84765625 C22.91751953 112.03296875 22.51082031 111.21828125 22.09179688 110.37890625 C19.13671875 104.37935268 19.13671875 104.37935268 19.13671875 102.09765625 C6.59671875 102.09765625 -5.94328125 102.09765625 -18.86328125 102.09765625 C-19.52328125 104.07765625 -20.18328125 106.05765625 -20.86328125 108.09765625 C-21.73294887 109.75746436 -22.628221 111.40415432 -23.55078125 113.03515625 C-25.15004259 116.23367893 -25.85908757 118.03789628 -26.11328125 121.66015625 C-24.30693443 126.62761 -21.27451102 130.11788819 -17.86328125 134.09765625 C-17.40953125 134.69578125 -16.95578125 135.29390625 -16.48828125 135.91015625 C-9.68933464 144.65165904 1.76691157 153.41682303 12.69921875 155.91015625 C13.50359375 155.97203125 14.30796875 156.03390625 15.13671875 156.09765625 C15.13671875 156.42765625 15.13671875 156.75765625 15.13671875 157.09765625 C-9.71479744 157.85841695 -30.04031166 152.10311716 -48.48876953 134.91943359 C-62.86365495 121.02985222 -71.88681491 101.64727924 -72.24414062 81.56518555 C-72.19330164 59.07105148 -65.06615984 39.89384962 -49.86328125 23.09765625 C-37.12236698 10.50009966 -18.38143081 -0.11858988 0 0 Z " fill="#FC4655" transform="translate(346.86328125,14.90234375)"/>
<path d="M0 0 C1.01067535 -0.00860046 2.02135071 -0.01720093 3.06265259 -0.02606201 C4.17073776 -0.03032196 5.27882294 -0.03458191 6.42048645 -0.03897095 C7.58825623 -0.04714844 8.756026 -0.05532593 9.95918274 -0.06375122 C13.83275335 -0.0886108 17.70628729 -0.10512311 21.57991028 -0.11953735 C22.91546955 -0.12489886 24.25102876 -0.13027637 25.58658791 -0.13566971 C31.1446028 -0.15729545 36.70261482 -0.17602983 42.26066113 -0.1872921 C50.2141438 -0.20351642 58.16713682 -0.2366599 66.12043494 -0.29369295 C71.71887559 -0.33246379 77.31718567 -0.3519333 82.915757 -0.35721266 C86.25636998 -0.36085722 89.59604669 -0.37529839 92.93659019 -0.4053154 C96.66857936 -0.43693545 100.39933597 -0.43700735 104.13142395 -0.42959595 C105.77836998 -0.45420395 105.77836998 -0.45420395 107.45858765 -0.47930908 C114.28502636 -0.4238963 118.83390605 0.68696165 124.09944153 5.15390015 C129.260861 10.71235188 129.30589571 15.2541234 129.34944153 22.46640015 C129.38037903 23.73000366 129.38037903 23.73000366 129.41194153 25.01913452 C129.44986167 31.08161781 128.64402344 35.39534203 124.38069153 40.0171814 C123.79287903 40.49542358 123.20506653 40.97366577 122.59944153 41.46640015 C122.01162903 41.95753296 121.42381653 42.44866577 120.81819153 42.9546814 C117.66291652 45.15620282 114.86980958 45.28317984 111.14746094 45.30107117 C110.12548111 45.30822647 109.10350128 45.31538177 108.05055237 45.32275391 C106.92997437 45.32544281 105.80939636 45.32813171 104.65486145 45.3309021 C103.47412552 45.3374733 102.29338959 45.34404449 101.07687378 45.35081482 C97.16122586 45.3705602 93.24559133 45.38221438 89.32991028 45.3921814 C87.98068535 45.39622982 86.63146062 45.40034676 85.2822361 45.40453148 C78.94334992 45.42357708 72.60447534 45.43780977 66.26556605 45.44614345 C58.95354407 45.45591581 51.64182482 45.48223756 44.3299095 45.52264434 C38.67459776 45.55282187 33.01937271 45.56761383 27.36398202 45.57092446 C23.98786085 45.57327299 20.61206332 45.58220711 17.23602867 45.60738564 C13.46784087 45.63167434 9.70044695 45.63083038 5.9322052 45.62387085 C4.26044724 45.64308594 4.26044724 45.64308594 2.55491638 45.66268921 C-4.71553716 45.61369583 -8.32926329 44.69974666 -13.54508972 39.52108765 C-18.1334256 33.65906656 -18.13964152 30.17707261 -18.21305847 22.90390015 C-18.24206238 21.96159546 -18.27106628 21.01929077 -18.3009491 20.0484314 C-18.36307225 13.23399922 -17.1648701 9.5139862 -12.30290222 4.5093689 C-8.09538495 1.15457512 -5.31325641 0.03367731 0 0 Z " fill="#030303" transform="translate(218.9005584716797,253.84609985351563)"/>
<path d="M0 0 C1.03598831 -0.0071553 2.07197662 -0.01431061 3.13935852 -0.02168274 C4.85131409 -0.02571609 4.85131409 -0.02571609 6.59785461 -0.02983093 C8.39559074 -0.03968773 8.39559074 -0.03968773 10.22964478 -0.04974365 C14.21086371 -0.06951513 18.1920423 -0.08114902 22.17329407 -0.09111023 C23.54447258 -0.09515793 24.91565089 -0.09927486 26.28682899 -0.10346031 C32.73090612 -0.12251641 39.17497177 -0.1367447 45.61907166 -0.14507228 C53.05221278 -0.15483684 60.48505547 -0.1811338 67.91809148 -0.22157317 C73.66596688 -0.25176837 79.41375693 -0.2665445 85.16171008 -0.26985329 C88.59320835 -0.2722006 92.02438799 -0.28111808 95.45580101 -0.30631447 C99.28855049 -0.33063098 103.12052055 -0.32975379 106.95332336 -0.32279968 C108.08450592 -0.33560974 109.21568848 -0.3484198 110.38114929 -0.36161804 C116.85669872 -0.31879777 120.82761307 0.29578214 126.09907532 4.14717102 C130.42206569 8.56407401 131.73284041 13.45011846 131.84492493 19.50679016 C131.82566956 20.35749084 131.80641418 21.20819153 131.78657532 22.08467102 C131.77440979 22.96695374 131.76224426 23.84923645 131.74971008 24.758255 C131.52089528 30.56046013 130.70820986 34.87889537 127.09516907 39.58857727 C120.58558891 44.67140014 114.08826379 44.59267582 106.14033508 44.58296204 C104.95247406 44.59303787 103.76461304 44.60311371 102.54075623 44.61349487 C99.29891085 44.63703265 96.05741235 44.64702269 92.81549191 44.64894223 C90.78632177 44.65108166 88.75721123 44.65749936 86.72805595 44.66543388 C79.63839279 44.69314157 72.54889826 44.70544477 65.45918274 44.70307922 C58.86681629 44.7012766 52.27518604 44.73294917 45.68300587 44.78031021 C40.00801707 44.8196184 34.3332682 44.83562761 28.65814441 44.833713 C25.27518476 44.8329506 21.89288057 44.8413598 18.51005745 44.87324715 C14.7351549 44.90268395 10.96214392 44.89400253 7.18721008 44.87593079 C5.52163811 44.90121857 5.52163811 44.90121857 3.82241821 44.92701721 C-2.61475826 44.84881654 -6.42919282 43.90910946 -11.38287449 39.70603848 C-15.63856267 35.33592356 -16.28304235 31.05376276 -16.31108093 25.2077179 C-16.29947937 24.38336243 -16.28787781 23.55900696 -16.27592468 22.70967102 C-16.28752625 21.88918274 -16.29912781 21.06869446 -16.31108093 20.2233429 C-16.28211316 14.17390618 -15.51343977 9.11201003 -11.36576843 4.40498352 C-7.20357121 1.31793187 -5.14025068 0.02431342 0 0 Z " fill="#020203" transform="translate(216.9009246826172,328.8528289794922)"/>
<path d="M0 0 C1.18132004 -0.00540298 2.36264008 -0.01080597 3.57975769 -0.01637268 C6.80302275 -0.02670207 10.02561502 -0.01919899 13.2488358 -0.00266147 C16.63061082 0.01124562 20.01235644 0.00472266 23.39414978 0.00120544 C29.07079673 -0.00149187 34.74723164 0.01193867 40.42382812 0.03515625 C46.97740651 0.06177597 53.53063084 0.06350732 60.08424479 0.05176789 C66.40234896 0.04097257 72.72032565 0.04719005 79.03841972 0.06132317 C81.72130807 0.06706653 84.40410261 0.06701339 87.08699226 0.06225777 C90.83555572 0.05934724 94.58354087 0.07584586 98.33203125 0.09765625 C99.44025238 0.0931546 100.54847351 0.08865295 101.6902771 0.08401489 C108.19379317 0.14687967 113.0188733 0.60020409 117.96459961 5.25561523 C118.4428418 5.85245117 118.92108398 6.44928711 119.41381836 7.06420898 C119.90495117 7.66362305 120.39608398 8.26303711 120.90209961 8.88061523 C123.93035206 12.97418125 123.39887326 17.20542482 123.47631836 22.12670898 C123.53239258 23.44348633 123.53239258 23.44348633 123.58959961 24.78686523 C123.66270861 30.253794 122.85674059 33.98040661 119.96313477 38.62817383 C114.6832651 43.94127635 109.78827471 46.06713345 102.30976868 46.17079163 C100.88594124 46.15090431 100.88594124 46.15090431 99.43334961 46.13061523 C98.43550949 46.13302719 97.43766937 46.13543915 96.40959167 46.13792419 C94.31273398 46.1369496 92.21584931 46.12364935 90.11914062 46.09863281 C86.91244308 46.06419421 83.70848494 46.07802767 80.50170898 46.09741211 C78.45807749 46.0905165 76.41445308 46.08084671 74.37084961 46.06811523 C73.41555862 46.0730751 72.46026764 46.07803497 71.47602844 46.08314514 C67.16335961 46.00681493 64.73747266 45.89269601 60.99658203 43.59350586 C58.92422215 41.30624843 58.4610348 40.47284095 58.60131836 37.43920898 C59.10131836 33.50170898 59.10131836 33.50170898 60.35310364 31.78263855 C62.56440289 30.1624036 63.84561716 30.10753113 66.57275391 30.06933594 C67.92381477 30.0396447 67.92381477 30.0396447 69.3021698 30.00935364 C70.27100601 30.00296371 71.23984222 29.99657379 72.23803711 29.98999023 C73.72990288 29.96306343 73.72990288 29.96306343 75.25190735 29.93559265 C78.43083446 29.88137883 81.60961049 29.84755816 84.78881836 29.81420898 C86.94313631 29.78104572 89.0974343 29.746557 91.25170898 29.71069336 C96.53480328 29.62564583 101.8178519 29.55888731 107.10131836 29.50170898 C107.10131836 25.21170898 107.10131836 20.92170898 107.10131836 16.50170898 C69.15131836 16.50170898 31.20131836 16.50170898 -7.89868164 16.50170898 C-7.89868164 20.79170898 -7.89868164 25.08170898 -7.89868164 29.50170898 C-6.61179443 29.5162915 -5.32490723 29.53087402 -3.99902344 29.54589844 C0.77030385 29.60382046 5.53915598 29.68105361 10.30810547 29.76416016 C12.37313125 29.79743822 14.43824863 29.82546112 16.50341797 29.84814453 C19.47004268 29.88163753 22.43582584 29.93395044 25.40209961 29.98999023 C26.32718826 29.99638016 27.25227692 30.00277008 28.20539856 30.00935364 C29.0660643 30.0291478 29.92673004 30.04894196 30.81347656 30.06933594 C31.94931938 30.08599052 31.94931938 30.08599052 33.10810852 30.10298157 C35.67706287 30.61688257 36.55923868 31.40321476 38.10131836 33.50170898 C38.80911813 39.07563215 38.80911813 39.07563215 38.10131836 41.50170898 C35.15878769 44.70318236 32.85613338 45.76935413 28.62158203 46.03515625 C26.83775606 46.06820738 25.05339283 46.07782287 23.26928711 46.06811523 C21.84342033 46.0774131 21.84342033 46.0774131 20.38874817 46.0868988 C18.38075787 46.09399032 16.37270869 46.09083464 14.36474609 46.078125 C11.30902361 46.0643004 8.25638984 46.09829057 5.20092773 46.13647461 C3.24454678 46.1374263 1.28816203 46.13556432 -0.66821289 46.13061523 C-1.57368362 46.14387344 -2.47915436 46.15713165 -3.4120636 46.17079163 C-9.77431973 46.07851947 -13.95222487 44.53569682 -18.89868164 40.50170898 C-24.12032231 34.87840365 -24.15754276 30.12567957 -24.27368164 22.81420898 C-24.31106445 21.94086914 -24.34844727 21.0675293 -24.38696289 20.16772461 C-24.4610965 14.65300745 -23.60377686 10.95343673 -20.6628418 6.27978516 C-14.45644849 0.02443469 -8.39033789 -0.0733301 0 0 Z " fill="#020303" transform="translate(224.898681640625,402.498291015625)"/>
<path d="M0 0 C5.10775678 3.18557976 8.90698159 7.22800204 11.1875 12.875 C11.59375 16.01171875 11.59375 16.01171875 11.6875 19.5625 C11.7390625 20.72136719 11.790625 21.88023437 11.84375 23.07421875 C10.13648022 32.96215624 1.63000135 39.87555754 -5.24438477 46.64306641 C-6.88422422 48.25909026 -8.51009846 49.88826868 -10.13476562 51.51953125 C-11.18410334 52.56329733 -12.23420685 53.60629422 -13.28515625 54.6484375 C-14.00566917 55.37031754 -14.00566917 55.37031754 -14.74073792 56.10678101 C-20.57577507 61.82110381 -25.46126242 63.96573093 -33.5 64.3125 C-34.47324219 64.37308594 -35.44648438 64.43367188 -36.44921875 64.49609375 C-45.09117205 62.90019297 -51.64061601 55.56839121 -57.625 49.5625 C-58.36169922 48.85416016 -59.09839844 48.14582031 -59.85742188 47.41601562 C-65.28895673 42.00410692 -68.89139434 36.70403188 -70.34375 29.08984375 C-70.25039979 22.2869473 -68.89483739 17.16185267 -64.1640625 12.1171875 C-58.38870675 6.89666942 -53.33864592 5.43478914 -45.6015625 5.5390625 C-42.06416352 5.96513577 -39.5669323 7.13358207 -36.56640625 9 C-34.5426254 10.17261083 -34.5426254 10.17261083 -30.8125 9.875 C-28.6014368 7.99828078 -28.6014368 7.99828078 -26.5 5.5625 C-19.04955279 -2.15490135 -10.07198755 -5.19520156 0 0 Z " fill="#030404" transform="translate(172.8125,394.125)"/>
<path d="M0 0 C4.29294477 3.15982845 7.83823548 7.37107533 9.8203125 12.33984375 C10.67910274 20.24740586 10.25376189 26.96240462 5.21484375 33.38671875 C3.33993106 35.54812681 1.4064891 37.63239151 -0.58349609 39.68798828 C-1.7629432 40.90856631 -2.93388348 42.13737771 -4.10009766 43.37060547 C-6.25682442 45.64673232 -8.4343278 47.90128469 -10.6171875 50.15234375 C-11.30828613 50.88179199 -11.99938477 51.61124023 -12.71142578 52.36279297 C-18.80496676 58.55032173 -25.44302349 63.42381538 -34.3671875 63.83984375 C-43.0034912 63.31439001 -48.1808949 59.08295011 -54.1796875 53.33984375 C-54.6943457 52.86160156 -55.20900391 52.38335937 -55.73925781 51.890625 C-71.0409787 37.63600289 -71.0409787 37.63600289 -71.6796875 26.27734375 C-71.35031635 19.42429887 -68.830614 14.57844368 -63.8046875 9.96484375 C-58.4641027 5.80980103 -53.36904303 4.90363358 -46.7109375 5.00390625 C-43.32965686 5.45265646 -40.85425436 6.69670491 -37.96875 8.46484375 C-35.91273957 9.63274431 -35.91273957 9.63274431 -32.1796875 9.33984375 C-29.9686243 7.46312453 -29.9686243 7.46312453 -27.8671875 5.02734375 C-20.09151511 -3.0269358 -10.24507307 -5.82766302 0 0 Z " fill="#030403" transform="translate(174.1796875,171.66015625)"/>
<path d="M0 0 C4.83415824 2.84723727 8.0861835 7.547367 10.5625 12.5 C10.73847843 14.53673392 10.82995047 16.58117417 10.875 18.625 C10.93107422 20.26855469 10.93107422 20.26855469 10.98828125 21.9453125 C10.08497818 29.48665002 5.86085765 34.82095209 0.6171875 40.046875 C0.04727081 40.62536194 -0.52264587 41.20384888 -1.10983276 41.79986572 C-2.31000328 43.01144225 -3.51534064 44.21792069 -4.72558594 45.41943359 C-6.55479349 47.24232012 -8.35571028 49.09025092 -10.15625 50.94140625 C-17.33132533 58.19470585 -23.88975539 64.24536149 -34.5625 65 C-44.55987927 63.71001558 -50.45260538 57.12825936 -57.25 50.25 C-58.19037109 49.33347656 -59.13074219 48.41695313 -60.09960938 47.47265625 C-66.35779397 41.20105167 -70.76062293 35.84899643 -71 26.625 C-70.78564985 20.57659805 -68.28950742 16.07375197 -64.4375 11.5 C-59.0983754 7.11608601 -53.87661993 5.125 -46.984375 5.125 C-43.07015303 5.70132716 -40.04622914 7.56425183 -36.69921875 9.6015625 C-34.488137 10.75258027 -34.488137 10.75258027 -32.35546875 9.86328125 C-30.32472366 8.41983922 -28.74460287 6.89859821 -27.0625 5.0625 C-19.79767368 -2.26337529 -9.74385498 -4.22421459 0 0 Z " fill="#020303" transform="translate(173.4375,245.5)"/>
<path d="M0 0 C5.52122631 3.2171761 10.61196707 7.98824496 12.65625 14.12109375 C12.82713919 16.01208069 12.92257267 17.91046246 12.96875 19.80859375 C13.02482422 21.29939453 13.02482422 21.29939453 13.08203125 22.8203125 C12.10687535 30.38000733 7.68439501 35.70541162 2.421875 40.921875 C1.82501892 41.52492966 1.22816284 42.12798431 0.61322021 42.74931335 C-0.64250728 44.01209676 -1.90331476 45.26984724 -3.16894531 46.52270508 C-5.09067926 48.43054521 -6.98714811 50.36121657 -8.8828125 52.29492188 C-10.11313149 53.52619201 -11.34485683 54.75605884 -12.578125 55.984375 C-13.13675232 56.55626053 -13.69537964 57.12814606 -14.27093506 57.71736145 C-19.29315719 62.62452604 -25.03436195 65.49714769 -32.21875 65.68359375 C-42.09731375 65.23388675 -48.48114348 58.31582518 -55.15625 51.74609375 C-56.10794067 50.81011353 -56.10794067 50.81011353 -57.07885742 49.85522461 C-63.07575001 43.74259556 -68.3917694 37.30065399 -68.65625 28.43359375 C-68.56664716 22.27787885 -66.94057901 17.83240014 -62.66015625 13.36328125 C-56.68981648 8.04775294 -52.40972739 6.69323546 -44.390625 6.78125 C-40.67566763 7.19561063 -38.16646841 8.32208636 -35.0625 10.34375 C-33.36123125 11.27707091 -33.36123125 11.27707091 -31.3984375 10.984375 C-28.71528018 9.85704084 -27.06728808 8.25627234 -24.96875 6.24609375 C-17.67774792 -0.34771364 -9.82319368 -3.68369763 0 0 Z " fill="#020403" transform="translate(171.34375,318.87890625)"/>
<path d="M0 0 C4.89955237 3.97759629 7.23615845 8.83401062 9.94921875 14.4453125 C10.63550102 15.83204666 10.63550102 15.83204666 11.33564758 17.24679565 C12.7958251 20.20159944 14.24220902 23.16289051 15.6875 26.125 C17.58328082 29.98372608 19.48454476 33.83973467 21.38671875 37.6953125 C21.8533493 38.64343811 22.31997986 39.59156372 22.80075073 40.56842041 C26.67212969 48.40752429 30.71005665 56.15030572 34.81958008 63.86669922 C35.54642044 65.24444836 36.27322737 66.62221513 37 68 C37.38715179 68.71794739 37.77430359 69.43589478 38.17318726 70.17559814 C38.72494125 71.22587189 38.72494125 71.22587189 39.2878418 72.29736328 C39.6188237 72.91829865 39.9498056 73.53923401 40.29081726 74.1789856 C41.52621065 77.35118514 40.93425341 79.82353842 40 83 C38.875 84.9375 38.875 84.9375 37 86 C33.625 86.5625 33.625 86.5625 30 86 C25.55819791 81.50097662 22.92644948 76.40107713 20.1875 70.75 C19.78080078 69.9353125 19.37410156 69.120625 18.95507812 68.28125 C16 62.28169643 16 62.28169643 16 60 C3.46 60 -9.08 60 -22 60 C-22.66 61.98 -23.32 63.96 -24 66 C-25.35686244 68.96045708 -26.90351915 71.81531291 -28.4375 74.6875 C-28.83259766 75.44611328 -29.22769531 76.20472656 -29.63476562 76.98632812 C-30.21581055 78.08170898 -30.21581055 78.08170898 -30.80859375 79.19921875 C-31.15720459 79.85752686 -31.50581543 80.51583496 -31.86499023 81.1940918 C-33.08348419 83.13283126 -34.227708 84.54690155 -36 86 C-39.4375 86.5 -39.4375 86.5 -43 86 C-45.5 83.9375 -45.5 83.9375 -47 81 C-46.71524957 75.04373979 -44.65226146 70.70648967 -41.9140625 65.55859375 C-41.50099854 64.7617366 -41.08793457 63.96487946 -40.66235352 63.14387512 C-39.32586264 60.57012025 -37.97550693 58.00392336 -36.625 55.4375 C-35.70377216 53.66888927 -34.78369069 51.89968096 -33.86474609 50.12988281 C-32.49973365 47.50122249 -31.13409847 44.87291644 -29.76455688 42.24661255 C-26.3087296 35.61751692 -22.93906964 28.95123487 -19.625 22.25 C-7.99438157 -1.11921342 -7.99438157 -1.11921342 0 0 Z " fill="#040101" transform="translate(350,57)"/>
<path d="M0 0 C0.96755722 -0.00281982 1.93511444 -0.00563965 2.93199158 -0.00854492 C4.00216019 -0.00652069 5.0723288 -0.00449646 6.17492676 -0.00241089 C7.29512711 -0.00416321 8.41532745 -0.00591553 9.56947327 -0.00772095 C13.29279098 -0.01214213 17.01606164 -0.00920053 20.73937988 -0.00582886 C23.31388356 -0.00650182 25.88838717 -0.00747178 28.46289062 -0.00872803 C33.86674663 -0.01020536 39.27058478 -0.00814389 44.67443848 -0.00338745 C50.9302446 0.00205514 57.18601815 0.00029247 63.44182348 -0.00521386 C69.44914038 -0.0102907 75.45644128 -0.00976344 81.46376038 -0.00683212 C84.02515162 -0.00616259 86.58654368 -0.00699219 89.14793396 -0.00931168 C92.72075641 -0.01183663 96.29351532 -0.00799982 99.86633301 -0.00241089 C101.47158592 -0.00544724 101.47158592 -0.00544724 103.10926819 -0.00854492 C104.56060402 -0.00431519 104.56060402 -0.00431519 106.04125977 0 C106.8870887 0.00037703 107.73291763 0.00075405 108.60437775 0.0011425 C110.52062988 0.12698364 110.52062988 0.12698364 111.52062988 1.12698364 C111.61955928 3.29179161 111.65034089 5.45992149 111.64562988 7.62698364 C111.64949707 9.40588989 111.64949707 9.40588989 111.65344238 11.22073364 C111.52062988 14.12698364 111.52062988 14.12698364 110.52062988 15.12698364 C109.11967084 15.23871036 107.71328893 15.28367223 106.3079834 15.30056763 C105.41358047 15.31405746 104.51917755 15.3275473 103.59767151 15.34144592 C102.62478683 15.35188431 101.65190216 15.36232269 100.64953613 15.37307739 C98.6111203 15.4060106 96.57270894 15.43922234 94.53430176 15.47268677 C91.3037826 15.52017631 88.07328232 15.56460309 84.84265137 15.60379028 C81.73641808 15.64337976 78.63056319 15.69495318 75.52453613 15.74807739 C74.55367569 15.75649155 73.58281525 15.7649057 72.58253479 15.77357483 C71.68497971 15.79021683 70.78742462 15.80685883 69.8626709 15.82400513 C69.07070816 15.83431259 68.27874542 15.84462006 67.46278381 15.85523987 C65.28488775 15.96119102 65.28488775 15.96119102 63.52062988 18.12698364 C63.12298726 20.11519677 62.7828764 22.11642703 62.52062988 24.12698364 C62.02562988 23.13698364 62.02562988 23.13698364 61.52062988 22.12698364 C55.25062988 22.12698364 48.98062988 22.12698364 42.52062988 22.12698364 C42.19062988 22.78698364 41.86062988 23.44698364 41.52062988 24.12698364 C41.21125488 22.99260864 40.90187988 21.85823364 40.58312988 20.68948364 C39.89138457 17.33923265 39.89138457 17.33923265 38.52062988 16.12698364 C37.17589669 16.01030785 35.8253094 15.95981725 34.47570801 15.93753052 C33.6181189 15.92081299 32.76052979 15.90409546 31.87695312 15.88687134 C30.94467896 15.8732959 30.01240479 15.85972046 29.05187988 15.84573364 C28.10123657 15.82732422 27.15059326 15.80891479 26.17114258 15.78994751 C23.12103661 15.73099557 20.07087399 15.67826033 17.02062988 15.62698364 C13.0100879 15.55956369 8.99973513 15.48589508 4.98937988 15.40823364 C4.05710571 15.3946582 3.12483154 15.38108276 2.16430664 15.36709595 C1.30671753 15.35037842 0.44912842 15.33366089 -0.43444824 15.31643677 C-1.19310181 15.30390869 -1.95175537 15.29138062 -2.73339844 15.2784729 C-4.47937012 15.12698364 -4.47937012 15.12698364 -5.47937012 14.12698364 C-5.57829951 11.96217568 -5.60908112 9.79404579 -5.60437012 7.62698364 C-5.60694824 6.44104614 -5.60952637 5.25510864 -5.61218262 4.03323364 C-5.40342279 -0.53492262 -4.14565221 0.00184791 0 0 Z " fill="#8176BE" transform="translate(221.4793701171875,417.8730163574219)"/>
<path d="M0 0 C0.96755722 -0.00281982 1.93511444 -0.00563965 2.93199158 -0.00854492 C4.00216019 -0.00652069 5.0723288 -0.00449646 6.17492676 -0.00241089 C7.29512711 -0.00416321 8.41532745 -0.00591553 9.56947327 -0.00772095 C13.29279098 -0.01214213 17.01606164 -0.00920053 20.73937988 -0.00582886 C23.31388356 -0.00650182 25.88838717 -0.00747178 28.46289062 -0.00872803 C33.86674663 -0.01020536 39.27058478 -0.00814389 44.67443848 -0.00338745 C50.9302446 0.00205514 57.18601815 0.00029247 63.44182348 -0.00521386 C69.44914038 -0.0102907 75.45644128 -0.00976344 81.46376038 -0.00683212 C84.02515162 -0.00616259 86.58654368 -0.00699219 89.14793396 -0.00931168 C92.72075641 -0.01183663 96.29351532 -0.00799982 99.86633301 -0.00241089 C101.47158592 -0.00544724 101.47158592 -0.00544724 103.10926819 -0.00854492 C104.56060402 -0.00431519 104.56060402 -0.00431519 106.04125977 0 C106.8870887 0.00037703 107.73291763 0.00075405 108.60437775 0.0011425 C110.52062988 0.12698364 110.52062988 0.12698364 111.52062988 1.12698364 C111.61955928 3.29179161 111.65034089 5.45992149 111.64562988 7.62698364 C111.64949707 9.40588989 111.64949707 9.40588989 111.65344238 11.22073364 C111.52062988 14.12698364 111.52062988 14.12698364 110.52062988 15.12698364 C109.0301172 15.22486628 107.53498284 15.25330146 106.04125977 15.25396729 C105.07370255 15.25678711 104.10614532 15.25960693 103.10926819 15.26251221 C102.03909958 15.26048798 100.96893097 15.25846375 99.86633301 15.25637817 C98.74613266 15.25813049 97.62593231 15.25988281 96.4717865 15.26168823 C92.74846879 15.26610941 89.02519812 15.26316782 85.30187988 15.25979614 C82.72737621 15.26046911 80.1528726 15.26143907 77.57836914 15.26269531 C72.17451313 15.26417265 66.77067499 15.26211118 61.36682129 15.25735474 C55.11101516 15.25191215 48.85524162 15.25367482 42.59943628 15.25918114 C36.59211938 15.26425798 30.58481848 15.26373072 24.57749939 15.26079941 C22.01610815 15.26012987 19.45471608 15.26095948 16.89332581 15.26327896 C13.32050335 15.26580392 9.74774445 15.2619671 6.17492676 15.25637817 C5.10475815 15.2584024 4.03458954 15.26042664 2.93199158 15.26251221 C1.48065575 15.25828247 1.48065575 15.25828247 0 15.25396729 C-0.84582893 15.25359026 -1.69165787 15.25321323 -2.56311798 15.25282478 C-4.47937012 15.12698364 -4.47937012 15.12698364 -5.47937012 14.12698364 C-5.57829951 11.96217568 -5.60908112 9.79404579 -5.60437012 7.62698364 C-5.60694824 6.44104614 -5.60952637 5.25510864 -5.61218262 4.03323364 C-5.40342279 -0.53492262 -4.14565221 0.00184791 0 0 Z " fill="#8378C1" transform="translate(221.4793701171875,268.8730163574219)"/>
<path d="M0 0 C0.96755722 -0.00281982 1.93511444 -0.00563965 2.93199158 -0.00854492 C4.00216019 -0.00652069 5.0723288 -0.00449646 6.17492676 -0.00241089 C7.29512711 -0.00416321 8.41532745 -0.00591553 9.56947327 -0.00772095 C13.29279098 -0.01214213 17.01606164 -0.00920053 20.73937988 -0.00582886 C23.31388356 -0.00650182 25.88838717 -0.00747178 28.46289062 -0.00872803 C33.86674663 -0.01020536 39.27058478 -0.00814389 44.67443848 -0.00338745 C50.9302446 0.00205514 57.18601815 0.00029247 63.44182348 -0.00521386 C69.44914038 -0.0102907 75.45644128 -0.00976344 81.46376038 -0.00683212 C84.02515162 -0.00616259 86.58654368 -0.00699219 89.14793396 -0.00931168 C92.72075641 -0.01183663 96.29351532 -0.00799982 99.86633301 -0.00241089 C101.47158592 -0.00544724 101.47158592 -0.00544724 103.10926819 -0.00854492 C104.56060402 -0.00431519 104.56060402 -0.00431519 106.04125977 0 C106.8870887 0.00037703 107.73291763 0.00075405 108.60437775 0.0011425 C110.52062988 0.12698364 110.52062988 0.12698364 111.52062988 1.12698364 C111.61955928 3.29179161 111.65034089 5.45992149 111.64562988 7.62698364 C111.64949707 9.40588989 111.64949707 9.40588989 111.65344238 11.22073364 C111.52062988 14.12698364 111.52062988 14.12698364 110.52062988 15.12698364 C109.0301172 15.22486628 107.53498284 15.25330146 106.04125977 15.25396729 C105.07370255 15.25678711 104.10614532 15.25960693 103.10926819 15.26251221 C102.03909958 15.26048798 100.96893097 15.25846375 99.86633301 15.25637817 C98.74613266 15.25813049 97.62593231 15.25988281 96.4717865 15.26168823 C92.74846879 15.26610941 89.02519812 15.26316782 85.30187988 15.25979614 C82.72737621 15.26046911 80.1528726 15.26143907 77.57836914 15.26269531 C72.17451313 15.26417265 66.77067499 15.26211118 61.36682129 15.25735474 C55.11101516 15.25191215 48.85524162 15.25367482 42.59943628 15.25918114 C36.59211938 15.26425798 30.58481848 15.26373072 24.57749939 15.26079941 C22.01610815 15.26012987 19.45471608 15.26095948 16.89332581 15.26327896 C13.32050335 15.26580392 9.74774445 15.2619671 6.17492676 15.25637817 C5.10475815 15.2584024 4.03458954 15.26042664 2.93199158 15.26251221 C1.48065575 15.25828247 1.48065575 15.25828247 0 15.25396729 C-0.84582893 15.25359026 -1.69165787 15.25321323 -2.56311798 15.25282478 C-4.47937012 15.12698364 -4.47937012 15.12698364 -5.47937012 14.12698364 C-5.57829951 11.96217568 -5.60908112 9.79404579 -5.60437012 7.62698364 C-5.60694824 6.44104614 -5.60952637 5.25510864 -5.61218262 4.03323364 C-5.40342279 -0.53492262 -4.14565221 0.00184791 0 0 Z " fill="#8378C1" transform="translate(221.4793701171875,194.87301635742188)"/>
<path d="M0 0 C38.61 0 77.22 0 117 0 C117 4.29 117 8.58 117 13 C116 14 116 14 114.06533718 14.12304783 C113.21083508 14.12212604 112.35633299 14.12120424 111.47593689 14.12025452 C110.00981209 14.12231651 110.00981209 14.12231651 108.5140686 14.12442017 C107.43297821 14.12082489 106.35188782 14.11722961 105.23803711 14.11352539 C103.54069679 14.11374443 103.54069679 14.11374443 101.80906677 14.1139679 C98.04847329 14.11326819 94.28792863 14.10547311 90.52734375 14.09765625 C87.92802457 14.09579227 85.32870503 14.09436828 82.72938538 14.09336853 C76.57411423 14.08993341 70.4188634 14.08204256 64.26359993 14.07201904 C57.25766654 14.06085694 50.25173233 14.05534721 43.24579227 14.05032361 C28.83051841 14.03985992 14.41526046 14.02206058 0 14 C0 9.38 0 4.76 0 0 Z " fill="#8378C1" transform="translate(216,344)"/>
<path d="M0 0 C3.5 0.5625 3.5 0.5625 5.9375 1.9375 C8.34368898 5.97989748 7.81542629 9.97129515 7.5 14.5625 C8.16386719 14.50449219 8.82773437 14.44648437 9.51171875 14.38671875 C16.72254616 14.01828231 16.72254616 14.01828231 20.625 16.75 C22.5 19.5625 22.5 19.5625 23 22.125 C22.40731615 25.01433375 21.54088035 26.44603148 19.5 28.5625 C16.61788698 29.52320434 14.80149956 29.66831883 11.8125 29.625 C10.60013672 29.61146484 10.60013672 29.61146484 9.36328125 29.59765625 C8.74839844 29.58605469 8.13351562 29.57445313 7.5 29.5625 C7.54640625 30.23796875 7.5928125 30.9134375 7.640625 31.609375 C7.93299415 38.83506982 7.93299415 38.83506982 5.9375 42.1875 C2.5096437 44.12116253 0.37016423 44.18449068 -3.5 43.5625 C-5.9375 41.625 -5.9375 41.625 -7.5 38.5625 C-7.80936646 35.52969442 -7.73810226 32.59830379 -7.5 29.5625 C-8.09167969 29.62050781 -8.68335938 29.67851563 -9.29296875 29.73828125 C-13.69779273 29.98978017 -15.83719045 30.02240867 -19.5625 27.4375 C-21.84404561 24.05198071 -22.2652998 22.55906562 -21.5 18.5625 C-20.125 16.1875 -20.125 16.1875 -17.5 14.5625 C-14.13974091 14.23595445 -10.86439507 14.33135835 -7.5 14.5625 C-7.54640625 13.97082031 -7.5928125 13.37914062 -7.640625 12.76953125 C-7.82551506 8.72175966 -7.80915469 6.16844319 -5.9375 2.5 C-3.5 0.5625 -3.5 0.5625 0 0 Z " fill="#050202" transform="translate(381.5,31.4375)"/>
<path d="M0 0 C3.1484375 0.53515625 3.1484375 0.53515625 5.0859375 1.66015625 C6.78106016 4.65154917 6.79250939 6.12157524 6.1484375 9.53515625 C4.87475586 11.27685547 4.87475586 11.27685547 3.17578125 13.15234375 C2.22348633 14.2040979 2.22348633 14.2040979 1.25195312 15.27709961 C-2.42400091 19.22311851 -6.13542477 23.12468572 -9.9140625 26.97265625 C-10.69072266 27.78669922 -11.46738281 28.60074219 -12.26757812 29.43945312 C-13.02876953 30.21224609 -13.78996094 30.98503906 -14.57421875 31.78125 C-15.59140991 32.82817017 -15.59140991 32.82817017 -16.62915039 33.89624023 C-19.38301572 35.927076 -21.46530172 36.29795581 -24.8515625 36.53515625 C-26.80078125 35.48828125 -26.80078125 35.48828125 -28.5390625 33.78515625 C-29.20421875 33.140625 -29.869375 32.49609375 -30.5546875 31.83203125 C-31.31265625 31.0740625 -32.070625 30.31609375 -32.8515625 29.53515625 C-34.29789063 28.21257812 -34.29789063 28.21257812 -35.7734375 26.86328125 C-36.77991678 25.92192996 -37.78513239 24.9792257 -38.7890625 24.03515625 C-39.72621094 23.15859375 -40.66335937 22.28203125 -41.62890625 21.37890625 C-44.27756113 17.99011758 -44.74583081 15.79966755 -44.8515625 11.53515625 C-43.2265625 9.09765625 -43.2265625 9.09765625 -40.8515625 7.53515625 C-38.54296875 7.15234375 -38.54296875 7.15234375 -35.8515625 7.53515625 C-32.91766801 9.72596829 -30.34188655 12.16510945 -27.66796875 14.6640625 C-25.01130131 16.75334076 -25.01130131 16.75334076 -21.96875 16.78515625 C-16.57858247 14.62368556 -13.2932456 10.09419049 -9.50585938 5.81835938 C-4.68530314 0.65100054 -4.68530314 0.65100054 0 0 Z " fill="#41C58A" transform="translate(162.8515625,258.46484375)"/>
<path d="M0 0 C3.0625 1.1875 3.0625 1.1875 5.0625 3.1875 C5.71973812 7.72601422 5.48051589 9.60715 2.77099609 13.36889648 C1.72831271 14.45077085 0.66524566 15.51325426 -0.4140625 16.55859375 C-1.25836319 17.40938255 -1.25836319 17.40938255 -2.11972046 18.27735901 C-3.31009336 19.46811225 -4.50919067 20.65019982 -5.71630859 21.82397461 C-7.55882126 23.62141126 -9.36407246 25.45100943 -11.16796875 27.28710938 C-12.33126731 28.44218862 -13.49656821 29.5952555 -14.6640625 30.74609375 C-15.20181305 31.29285263 -15.7395636 31.83961151 -16.29360962 32.40293884 C-18.94472055 34.94118903 -20.51820963 36.13440743 -24.20556641 36.60131836 C-27.32585428 36.12867422 -28.43313271 35.4770916 -30.6875 33.3125 C-31.35394531 32.67570312 -32.02039063 32.03890625 -32.70703125 31.3828125 C-33.44308594 30.65835937 -34.17914063 29.93390625 -34.9375 29.1875 C-35.82824219 28.38054687 -36.71898438 27.57359375 -37.63671875 26.7421875 C-38.54035156 25.89914062 -39.44398437 25.05609375 -40.375 24.1875 C-41.21933594 23.40375 -42.06367187 22.62 -42.93359375 21.8125 C-45.42223554 18.55252479 -45.79036348 16.25036653 -45.9375 12.1875 C-44.4375 9.6875 -44.4375 9.6875 -41.9375 8.1875 C-38.625 8 -38.625 8 -34.9375 9.1875 C-33.17578125 10.828125 -33.17578125 10.828125 -31.4375 12.75 C-28.93911013 15.43757752 -28.19533415 16.12186949 -24.5 17.0625 C-18.38990398 15.56177466 -14.80277824 11.25251443 -10.67578125 6.68359375 C-4.72244252 0.22487822 -4.72244252 0.22487822 0 0 Z " fill="#41C78B" transform="translate(163.9375,406.8125)"/>
<path d="M0 0 C3.0625 1.1875 3.0625 1.1875 5.0625 3.1875 C5.71973812 7.72601422 5.48051589 9.60715 2.77099609 13.36889648 C1.72831271 14.45077085 0.66524566 15.51325426 -0.4140625 16.55859375 C-1.25836319 17.40938255 -1.25836319 17.40938255 -2.11972046 18.27735901 C-3.31009336 19.46811225 -4.50919067 20.65019982 -5.71630859 21.82397461 C-7.55882126 23.62141126 -9.36407246 25.45100943 -11.16796875 27.28710938 C-12.33126731 28.44218862 -13.49656821 29.5952555 -14.6640625 30.74609375 C-15.20181305 31.29285263 -15.7395636 31.83961151 -16.29360962 32.40293884 C-18.94472055 34.94118903 -20.51820963 36.13440743 -24.20556641 36.60131836 C-27.32585428 36.12867422 -28.43313271 35.4770916 -30.6875 33.3125 C-31.35394531 32.67570312 -32.02039063 32.03890625 -32.70703125 31.3828125 C-33.44308594 30.65835938 -34.17914063 29.93390625 -34.9375 29.1875 C-35.82824219 28.38054687 -36.71898438 27.57359375 -37.63671875 26.7421875 C-38.54035156 25.89914063 -39.44398437 25.05609375 -40.375 24.1875 C-41.21933594 23.40375 -42.06367187 22.62 -42.93359375 21.8125 C-45.42223554 18.55252479 -45.79036348 16.25036653 -45.9375 12.1875 C-44.4375 9.6875 -44.4375 9.6875 -41.9375 8.1875 C-38.625 8 -38.625 8 -34.9375 9.1875 C-33.17578125 10.828125 -33.17578125 10.828125 -31.4375 12.75 C-28.93911013 15.43757752 -28.19533415 16.12186949 -24.5 17.0625 C-18.38990398 15.56177466 -14.80277824 11.25251443 -10.67578125 6.68359375 C-4.72244252 0.22487822 -4.72244252 0.22487822 0 0 Z " fill="#41C78B" transform="translate(163.9375,183.8125)"/>
<path d="M0 0 C2.7421875 0.42578125 2.7421875 0.42578125 4.6171875 1.48828125 C6.41553198 4.58543008 6.11381548 6.90251926 5.7421875 10.42578125 C4.05395348 12.80195412 2.57895686 14.55144715 0.51953125 16.54296875 C-0.01876816 17.08559357 -0.55706757 17.62821838 -1.11167908 18.18728638 C-2.25077869 19.32676629 -3.39860248 20.45758346 -4.55444336 21.58007812 C-6.31354423 23.29418609 -8.03534673 25.04022571 -9.75585938 26.79296875 C-10.87033146 27.89921902 -11.98680577 29.00345657 -13.10546875 30.10546875 C-13.61618423 30.62519257 -14.12689972 31.14491638 -14.65309143 31.6803894 C-18.33732736 35.20147931 -21.142755 36.53502426 -26.2578125 36.42578125 C-28.79663086 34.89038086 -28.79663086 34.89038086 -31.09765625 32.578125 C-32.3496582 31.32805664 -32.3496582 31.32805664 -33.62695312 30.05273438 C-34.47451172 29.16521484 -35.32207031 28.27769531 -36.1953125 27.36328125 C-37.06994141 26.50283203 -37.94457031 25.64238281 -38.84570312 24.75585938 C-45.17232949 18.30082373 -45.17232949 18.30082373 -45.56860352 14.24438477 C-45.2578125 11.42578125 -45.2578125 11.42578125 -44.1953125 9.55078125 C-40.95056292 7.66673311 -38.94233886 7.81169352 -35.2578125 8.42578125 C-33.34426557 10.08955104 -31.71590106 11.90941196 -30.01171875 13.78515625 C-28.18047441 15.72675242 -28.18047441 15.72675242 -24.6953125 16.61328125 C-17.82692307 16.23864183 -13.6485224 10.95525192 -9.2578125 6.17578125 C-8.7628125 5.62148438 -8.2678125 5.0671875 -7.7578125 4.49609375 C-5.1852457 1.77614031 -3.77088179 0.49283707 0 0 Z " fill="#42C88C" transform="translate(163.2578125,332.57421875)"/>
<path d="M0 0 C1.27069163 0.00138269 1.27069163 0.00138269 2.56705379 0.00279331 C3.53605618 0.00141865 4.50505856 0.00004398 5.50342464 -0.00137234 C7.11103413 0.00402058 7.11103413 0.00402058 8.75112057 0.00952244 C10.43383053 0.0093034 10.43383053 0.0093034 12.15053463 0.00907993 C15.87866266 0.00977963 19.60674144 0.01757468 23.3348608 0.02539158 C25.91175973 0.02725556 28.48865902 0.02867955 31.06555843 0.0296793 C37.16770571 0.03311441 43.26983249 0.04100523 49.37197202 0.05102879 C56.31744705 0.06219094 63.26292291 0.06770063 70.20840466 0.07272422 C84.49926422 0.08318787 98.79010875 0.10078668 113.08095455 0.12304783 C113.08095455 0.45304783 113.08095455 0.78304783 113.08095455 1.12304783 C89.32095455 1.12304783 65.56095455 1.12304783 41.08095455 1.12304783 C41.08095455 5.41304783 41.08095455 9.70304783 41.08095455 14.12304783 C64.84095455 14.12304783 88.60095455 14.12304783 113.08095455 14.12304783 C113.08095455 14.45304783 113.08095455 14.78304783 113.08095455 15.12304783 C98.10409149 15.1463776 83.12722983 15.16402739 68.15035248 15.17486 C61.19679375 15.18002279 54.24324629 15.18706516 47.28969479 15.19848728 C40.58538246 15.20949477 33.8810843 15.21532404 27.17676258 15.21792507 C24.61257842 15.21977985 22.04839493 15.22340146 19.48421574 15.22877789 C15.90650297 15.23598442 12.32883937 15.23703893 8.75112057 15.23657322 C7.67938091 15.2401685 6.60764126 15.24376377 5.50342464 15.24746799 C4.53442226 15.24609333 3.56541988 15.24471867 2.56705379 15.24330235 C1.29636217 15.24468503 1.29636217 15.24468503 0 15.24609566 C-1.91904545 15.12304783 -1.91904545 15.12304783 -2.91904545 14.12304783 C-3.01797484 11.95823986 -3.04875645 9.79010998 -3.04404545 7.62304783 C-3.04662357 6.43711033 -3.0492017 5.25117283 -3.05185795 4.02929783 C-2.87615102 0.18441676 -2.87615102 0.18441676 0 0 Z " fill="#6A5DAE" transform="translate(218.91904544830322,268.8769521713257)"/>
<path d="M0 0 C0.09900135 4.76881876 0.17152928 9.5370373 0.21972656 14.30664062 C0.23982144 15.92849143 0.26710254 17.55026997 0.30175781 19.171875 C0.3503727 21.5053898 0.37298889 23.83794557 0.390625 26.171875 C0.41127014 26.89493835 0.43191528 27.61800171 0.45318604 28.36297607 C0.45462654 31.60709957 0.19315061 33.68987777 -1.53515625 36.46484375 C-4.93133176 38.5800529 -7.95498615 38.50121213 -11.828125 38.390625 C-12.95163361 38.38213531 -12.95163361 38.38213531 -14.09783936 38.37347412 C-16.482552 38.35114057 -18.86574408 38.30095386 -21.25 38.25 C-22.86976991 38.22993091 -24.48956346 38.21168085 -26.109375 38.1953125 C-30.07349966 38.15128624 -34.03649232 38.08228298 -38 38 C-36.62702186 34.92306169 -35.05785373 32.80542976 -32.68359375 30.42480469 C-32.00949463 29.74440125 -31.33539551 29.0639978 -30.64086914 28.36297607 C-29.91375732 27.63991272 -29.18664551 26.91684937 -28.4375 26.171875 C-27.69040771 25.42286926 -26.94331543 24.67386353 -26.17358398 23.90216064 C-24.59572081 22.32293796 -23.01533501 20.74623226 -21.43261719 19.171875 C-19.00222035 16.75221054 -16.58269939 14.32203811 -14.1640625 11.890625 C-12.63084948 10.35873303 -11.09701648 8.82746128 -9.5625 7.296875 C-8.83538818 6.56571472 -8.10827637 5.83455444 -7.35913086 5.08123779 C-6.68503174 4.41344299 -6.01093262 3.74564819 -5.31640625 3.05761719 C-4.72287354 2.46567566 -4.12934082 1.87373413 -3.51782227 1.26385498 C-2 0 -2 0 0 0 Z " fill="#86C4F7" transform="translate(130,62)"/>
<path d="M0 0 C0.76166977 0.00222061 1.52333954 0.00444122 2.30809021 0.00672913 C3.16890701 0.00680466 4.02972382 0.00688019 4.91662598 0.00695801 C5.8520372 0.01211929 6.78744843 0.01728058 7.75120544 0.02259827 C8.70422043 0.02401321 9.65723541 0.02542816 10.63912964 0.02688599 C13.69605085 0.032503 16.75289996 0.04505836 19.80979919 0.05775452 C21.87685543 0.06276733 23.94391281 0.06733061 26.01097107 0.07142639 C31.08977507 0.08247795 36.16852489 0.09975397 41.24729919 0.12025452 C41.24729919 4.74025452 41.24729919 9.36025452 41.24729919 14.12025452 C65.00729919 14.12025452 88.76729919 14.12025452 113.24729919 14.12025452 C113.24729919 14.45025452 113.24729919 14.78025452 113.24729919 15.12025452 C98.27043613 15.14358429 83.29357447 15.16123408 68.31669712 15.17206669 C61.36313839 15.17722948 54.40959093 15.18427185 47.45603943 15.19569397 C40.75172711 15.20670146 34.04742894 15.21253072 27.34310722 15.21513176 C24.77892306 15.21698654 22.21473958 15.22060815 19.65056038 15.22598457 C16.07284761 15.23319111 12.49518401 15.23424562 8.91746521 15.23377991 C7.84572556 15.23737518 6.7739859 15.24097046 5.66976929 15.24467468 C4.70076691 15.24330002 3.73176453 15.24192535 2.73339844 15.24050903 C1.46270681 15.24189172 1.46270681 15.24189172 0.16634464 15.24330235 C-1.75270081 15.12025452 -1.75270081 15.12025452 -2.75270081 14.12025452 C-2.8516302 11.95544655 -2.88241181 9.78731667 -2.87770081 7.62025452 C-2.88027893 6.43431702 -2.88285706 5.24837952 -2.88551331 4.02650452 C-2.71000345 0.18593599 -2.71000345 0.18593599 0 0 Z " fill="#665AAA" transform="translate(218.75270080566406,194.87974548339844)"/>
<path d="M0 0 C0.76166977 0.00222061 1.52333954 0.00444122 2.30809021 0.00672913 C3.16890701 0.00680466 4.02972382 0.00688019 4.91662598 0.00695801 C5.8520372 0.01211929 6.78744843 0.01728058 7.75120544 0.02259827 C8.70422043 0.02401321 9.65723541 0.02542816 10.63912964 0.02688599 C13.69605085 0.032503 16.75289996 0.04505836 19.80979919 0.05775452 C21.87685543 0.06276733 23.94391281 0.06733061 26.01097107 0.07142639 C31.08977507 0.08247795 36.16852489 0.09975397 41.24729919 0.12025452 C41.24729919 5.07025452 41.24729919 10.02025452 41.24729919 15.12025452 C35.14175209 15.14489965 29.03623369 15.16308822 22.9306488 15.17518616 C20.85186764 15.1802274 18.77309003 15.18706026 16.69432068 15.19569397 C13.71327334 15.20776874 10.7322727 15.21348476 7.75120544 15.21791077 C6.34808861 15.22565269 6.34808861 15.22565269 4.91662598 15.23355103 C3.62540077 15.23366432 3.62540077 15.23366432 2.30809021 15.23377991 C1.54642044 15.23600052 0.78475067 15.23822113 0 15.24050903 C-1.75270081 15.12025452 -1.75270081 15.12025452 -2.75270081 14.12025452 C-2.8516302 11.95544655 -2.88241181 9.78731667 -2.87770081 7.62025452 C-2.88027893 6.43431702 -2.88285706 5.24837952 -2.88551331 4.02650452 C-2.71000345 0.18593599 -2.71000345 0.18593599 0 0 Z " fill="#6B5DB3" transform="translate(218.75270080566406,417.87974548339844)"/>
<path d="M0 0 C14.52 0 29.04 0 44 0 C44 4.62 44 9.24 44 14 C29.48 14 14.96 14 0 14 C0 9.38 0 4.76 0 0 Z " fill="#6D5FB7" transform="translate(216,344)"/>
<path d="M0 0 C0.66 0 1.32 0 2 0 C3.51012131 2.76543196 5.00630148 5.53816807 6.5 8.3125 C6.92925781 9.09818359 7.35851562 9.88386719 7.80078125 10.69335938 C8.40986328 11.8293457 8.40986328 11.8293457 9.03125 12.98828125 C9.40830078 13.68477783 9.78535156 14.38127441 10.17382812 15.09887695 C11 17 11 17 11 20 C4.4 20 -2.2 20 -9 20 C-6.75 13.25 -6.75 13.25 -5.2734375 10.3515625 C-4.9640625 9.73925781 -4.6546875 9.12695312 -4.3359375 8.49609375 C-3.86027344 7.56990234 -3.86027344 7.56990234 -3.375 6.625 C-2.88773437 5.66400391 -2.88773437 5.66400391 -2.390625 4.68359375 C-1.59742593 3.12052499 -0.79922969 1.55999378 0 0 Z " fill="#F9626C" transform="translate(346,82)"/>
<path d="M0 0 C0.10832169 2.08218362 0.18573541 4.16599129 0.25 6.25 C0.29640625 7.41015625 0.3428125 8.5703125 0.390625 9.765625 C0 13 0 13 -1.59375 15.40625 C-4.80446615 17.53282823 -6.93342679 17.40266293 -10.75 17.25 C-11.92046875 17.21390625 -13.0909375 17.1778125 -14.296875 17.140625 C-15.18890625 17.09421875 -16.0809375 17.0478125 -17 17 C-2.95652174 0 -2.95652174 0 0 0 Z " fill="#ADD8FA" transform="translate(130,83)"/>
</svg>
