<?xml version="1.0" encoding="UTF-8"?>
<svg version="1.1" xmlns="http://www.w3.org/2000/svg" width="512" height="512">
<path d="M0 0 C0.78087859 -0.00175304 1.56175718 -0.00350607 2.36629876 -0.00531223 C4.986619 -0.00996939 7.60688368 -0.00750746 10.22720623 -0.00507832 C12.12337896 -0.00694643 14.0195513 -0.00924713 15.91572303 -0.01194364 C21.12951974 -0.01806798 26.34330044 -0.0179273 31.55709994 -0.01674926 C37.17889855 -0.01654542 42.800692 -0.02206246 48.42248821 -0.02680683 C59.43773393 -0.03511736 70.4529743 -0.03786185 81.46822289 -0.03841921 C90.42061679 -0.03889417 99.37300892 -0.0409479 108.32540226 -0.04411983 C129.56993426 -0.05149397 150.81446478 -0.05764454 172.05899811 -0.05712128 C172.73839077 -0.0571057 173.41778342 -0.05709012 174.11776374 -0.05707407 C177.56119978 -0.05699096 181.00463583 -0.05689192 184.44807187 -0.05678936 C185.13194931 -0.05676942 185.81582674 -0.05674947 186.52042773 -0.05672892 C187.90339449 -0.05668848 189.28636125 -0.05664669 190.66932801 -0.05660353 C212.18632343 -0.05599077 233.70330309 -0.06349756 255.220294 -0.07717609 C279.3951747 -0.09253794 303.57004174 -0.10112959 327.74492854 -0.10021287 C340.54481261 -0.09988067 353.34467891 -0.10263792 366.14455891 -0.11339092 C377.04189153 -0.12248686 387.93919833 -0.12467863 398.83653311 -0.1178815 C404.39706452 -0.11461175 409.95754635 -0.11457604 415.51807308 -0.12323475 C420.60884847 -0.13108049 425.6995348 -0.12968801 430.79030796 -0.12095062 C432.63146135 -0.11941139 434.47262131 -0.12124768 436.31376693 -0.12681069 C438.81868582 -0.13387771 441.32329288 -0.12857174 443.82820129 -0.12025452 C444.89716234 -0.12770679 444.89716234 -0.12770679 445.98771855 -0.13530961 C455.5581567 -0.06825457 463.77510345 2.07811187 470.82942486 8.7653532 C478.29831505 16.95169836 478.54207744 24.5669139 478.49104595 35.27804852 C478.49511535 36.71262288 478.5004593 38.14719411 478.50697613 39.58175945 C478.52060691 43.46166669 478.51537005 47.34133358 478.50583887 51.22124481 C478.49822611 55.28508734 478.50529182 59.34890974 478.50999737 63.41275311 C478.51544773 70.23182136 478.50827963 77.05079197 478.49397564 83.86984539 C478.47762427 91.75607196 478.48295846 99.64206615 478.49945486 107.52828717 C478.51305905 114.30296166 478.51499542 121.07756613 478.50713885 127.85224986 C478.5024598 131.89713749 478.50184432 135.94191576 478.51174831 139.98679638 C478.52040115 143.78556011 478.51442728 147.58402315 478.49706554 151.38275433 C478.49309277 152.77796968 478.49424827 154.17321027 478.50085354 155.56841564 C478.50902637 157.46968474 478.4969698 159.37100903 478.48381329 161.27225018 C478.48268221 162.33704727 478.48155113 163.40184437 478.48038578 164.49890804 C478.10286236 167.12863445 478.10286236 167.12863445 476.82905293 168.99465847 C475.10286236 170.12863445 475.10286236 170.12863445 471.10286236 170.12863445 C471.10286236 176.72863445 471.10286236 183.32863445 471.10286236 190.12863445 C472.75286236 190.45863445 474.40286236 190.78863445 476.10286236 191.12863445 C478.77713823 193.80291032 478.36064031 195.10538135 478.37701702 198.84457684 C478.38699215 200.06134106 478.39696728 201.27810528 478.40724468 202.53174114 C478.40814058 203.88760649 478.4088041 205.24347201 478.40925884 206.59933758 C478.41687743 208.0218172 478.4253044 209.44429269 478.43448162 210.86676311 C478.45647579 214.73910132 478.46523321 218.61136053 478.47030807 222.48375416 C478.47394882 224.90503789 478.48018771 227.32630088 478.48730946 229.74757671 C478.51183048 238.20110261 478.52485953 246.65456701 478.52839947 255.10812664 C478.53202677 262.97545562 478.5618571 270.84239254 478.60380405 278.70960188 C478.63857867 285.469841 478.65394922 292.22995082 478.6546455 298.99027872 C478.65543652 303.02496937 478.66409212 307.05926177 478.69264317 311.09385967 C478.71894398 314.89597591 478.72096307 318.69736746 478.70498753 322.49953365 C478.70318192 323.88860062 478.70978295 325.27771034 478.72580624 326.66668606 C478.82940779 336.23791232 477.82713636 344.02304397 471.12619972 351.26484203 C463.25470942 358.73393371 454.83426898 360.2876234 444.20572472 360.25726891 C443.42484612 360.25902194 442.64396753 360.26077498 441.83942595 360.26258114 C439.21910571 360.26723829 436.59884104 360.26477636 433.97851849 360.26234722 C432.08234576 360.26421533 430.18617342 360.26651604 428.29000169 360.26921254 C423.07620497 360.27533688 417.86242427 360.2751962 412.64862478 360.27401817 C407.02682616 360.27381432 401.40503272 360.27933137 395.7832365 360.28407574 C384.76799078 360.29238627 373.75275041 360.29513076 362.73750182 360.29568812 C353.78510792 360.29616307 344.83271579 360.29821681 335.88032246 360.30138874 C314.63579045 360.30876287 293.39125993 360.31491345 272.14672661 360.31439018 C271.46733395 360.3143746 270.78794129 360.31435903 270.08796098 360.31434297 C266.64452493 360.31425987 263.20108889 360.31416083 259.75765284 360.31405827 C259.07377541 360.31403832 258.38989798 360.31401838 257.68529699 360.31399783 C256.30233023 360.31395739 254.91936347 360.31391559 253.53639671 360.31387244 C232.01940129 360.31325967 210.50242163 360.32076646 188.98543072 360.334445 C164.81055002 360.34980685 140.63568298 360.3583985 116.46079618 360.35748178 C103.66091211 360.35714958 90.86104581 360.35990683 78.06116581 360.37065983 C67.16383318 360.37975576 56.26652638 360.38194753 45.36919161 360.3751504 C39.8086602 360.37188066 34.24817836 360.37184495 28.68765163 360.38050365 C23.59687625 360.3883494 18.50618992 360.38695692 13.41541675 360.37821952 C11.57426337 360.37668029 9.7331034 360.37851658 7.89195778 360.3840796 C5.3870389 360.39114662 2.88243184 360.38584065 0.37752342 360.37752342 C-0.33511727 360.3824916 -1.04775797 360.38745978 -1.78199384 360.39257851 C-11.35243198 360.32552348 -19.56937874 358.17915703 -26.62370014 351.4919157 C-33.76870869 343.66056396 -34.33683091 336.56682882 -34.29154682 326.28163433 C-34.30068348 324.33539188 -34.30068348 324.33539188 -34.31000471 322.3498314 C-34.32637689 318.75918731 -34.32409191 315.16876317 -34.31862974 311.57809484 C-34.31595615 307.70134416 -34.33049755 303.82465166 -34.3427248 299.94792461 C-34.36376751 292.35682951 -34.3683203 284.7658108 -34.36653692 277.17468997 C-34.36522864 271.00311749 -34.36903678 264.83156881 -34.37646198 258.6600008 C-34.37856121 256.8814134 -34.38065881 255.102826 -34.3827548 253.3242386 C-34.38379833 252.43894514 -34.38484186 251.55365168 -34.38591701 250.64153115 C-34.4048149 233.90224024 -34.40377064 217.16299317 -34.39694768 200.42369602 C-34.39137325 185.11809319 -34.41219416 169.81265781 -34.44530815 154.50709411 C-34.47906128 138.78381725 -34.49421141 123.06062056 -34.48959112 107.3373068 C-34.48734798 98.51290318 -34.49256675 89.68865429 -34.51748371 80.86428165 C-34.53851788 73.35113196 -34.54206797 65.83822184 -34.52318412 58.32506224 C-34.514039 54.49383516 -34.51284507 50.6630545 -34.53353977 46.83186245 C-34.5557549 42.67309059 -34.5390017 38.51536651 -34.5185976 34.3565855 C-34.53111545 33.1531672 -34.5436333 31.94974889 -34.55653048 30.70986336 C-34.46718191 22.20807901 -32.80677918 15.36389825 -26.92056131 8.98743504 C-19.03811265 1.52901183 -10.63330553 -0.0303681 0 0 Z " fill="#DDE9F8" transform="translate(33.89713764190674,75.87136554718018)"/>
<path d="M0 0 C0.77254623 -0.00817749 1.54509247 -0.01635498 2.34104919 -0.02478027 C4.9033836 -0.0496382 7.4656626 -0.06615113 10.02807617 -0.08056641 C10.90260626 -0.08589008 11.77713634 -0.09121376 12.67816734 -0.09669876 C17.30692036 -0.12343193 21.93564638 -0.14280638 26.56445312 -0.15722656 C31.34641795 -0.17387608 36.1276938 -0.21865551 40.90939808 -0.26959801 C44.58543188 -0.30324743 48.26130167 -0.31480142 51.9374752 -0.32045364 C53.70015415 -0.32717241 55.46282207 -0.34241078 57.22535133 -0.36634445 C59.69377474 -0.3979513 62.16033376 -0.39804029 64.62890625 -0.390625 C65.35584686 -0.40703033 66.08278748 -0.42343567 66.83175659 -0.44033813 C70.73138797 -0.39243047 72.39468327 0.1034945 75.50102234 2.5418396 C77.50854492 5.19287109 77.50854492 5.19287109 77.50854492 8.19287109 C84.10854492 8.19287109 90.70854492 8.19287109 97.50854492 8.19287109 C97.83854492 6.54287109 98.16854492 4.89287109 98.50854492 3.19287109 C100.89381526 0.50313776 102.37141831 0.20851331 105.96611023 -0.20153809 C107.36508738 -0.22539253 108.76440532 -0.23274945 110.16357422 -0.22705078 C111.31319389 -0.2397551 111.31319389 -0.2397551 112.48603821 -0.25271606 C115.01844925 -0.27610249 117.5502528 -0.27710745 120.08276367 -0.27587891 C121.84910829 -0.28298239 123.61545061 -0.29068166 125.38179016 -0.2989502 C129.08646042 -0.31240086 132.79091762 -0.31396246 136.49560547 -0.30810547 C141.22564649 -0.30222599 145.95465517 -0.33272485 150.68449688 -0.37322235 C154.33500096 -0.39917894 157.98525965 -0.40196926 161.63584328 -0.39833069 C163.37844233 -0.40001627 165.1210534 -0.40960435 166.86356163 -0.42747498 C184.56697773 -0.58897929 184.56697773 -0.58897929 191.50854492 5.19287109 C193.66479492 7.32568359 193.66479492 7.32568359 195.00854492 9.31787109 C195.47260742 9.98044922 195.93666992 10.64302734 196.41479492 11.32568359 C198.97078531 15.68912433 198.65677895 20.02355506 198.65571594 24.9143219 C198.65939263 25.81637814 198.66306932 26.71843438 198.66685742 27.64782566 C198.67790708 30.68311018 198.68174031 33.71836047 198.68554688 36.75366211 C198.69181065 38.92504485 198.69845737 41.09642652 198.70545959 43.26780701 C198.72287938 49.17719952 198.73342445 55.08658393 198.74166512 60.99599576 C198.74681417 64.68817298 198.75289001 68.38034768 198.75917625 72.07252312 C198.77823274 83.62477015 198.79246181 95.17701078 198.80078822 106.72927052 C198.8105574 120.06330042 198.83686673 133.39711414 198.87728912 146.73108917 C198.90745896 157.03695458 198.92225801 167.3427724 198.92556924 177.6486811 C198.92791908 183.80378615 198.93687106 189.95871378 198.96203041 196.11377144 C198.98533054 201.90778536 198.98953635 207.70150532 198.97926903 213.49555397 C198.978774 215.61832914 198.9850845 217.74111888 198.99882507 219.86384964 C199.13941931 242.87781031 199.13941931 242.87781031 193.13196278 249.77283573 C187.58024103 254.80257999 181.97877138 256.6419568 174.63444519 256.58728027 C173.85979379 256.59337138 173.08514238 256.59946248 172.28701669 256.60573816 C169.70079672 256.62233827 167.11507073 256.61759668 164.52880859 256.61279297 C162.67062368 256.62013511 160.81244332 256.62872177 158.95426941 256.63845825 C153.91281846 256.66066948 148.87153099 256.66360506 143.83003783 256.66171074 C139.61793898 256.661591 135.40587471 256.67015663 131.19378549 256.67848825 C121.25367856 256.69772154 111.3136556 256.70060667 101.37353516 256.69384766 C91.1283251 256.68720917 80.88347527 256.71006376 70.63833827 256.74716139 C61.83473138 256.77787943 53.03124024 256.78921606 44.22758085 256.78532457 C38.9729266 256.78325898 33.71855259 256.78870693 28.4639492 256.81321716 C23.52011494 256.83551594 18.57686521 256.8335803 13.63302803 256.81328964 C11.8226717 256.80988497 10.01227579 256.81494525 8.20197296 256.82927322 C-9.95319583 256.96300491 -9.95319583 256.96300491 -16.49145508 251.19287109 C-21.88404829 245.21463907 -22.64088906 240.06576493 -22.64535522 232.2681427 C-22.64973748 231.34425757 -22.65411973 230.42037243 -22.65863478 229.46849078 C-22.67203494 226.35944429 -22.67820439 223.25042616 -22.68432617 220.14135742 C-22.69222617 217.91746899 -22.70049506 215.69358184 -22.70910645 213.46969604 C-22.73533813 206.15477729 -22.75063513 198.83985277 -22.76489258 191.52490234 C-22.77025177 189.00807885 -22.77562927 186.4912554 -22.78102493 183.97443199 C-22.80265523 173.5061602 -22.82154367 163.03788854 -22.83264732 152.56960011 C-22.83557695 149.85344755 -22.83853862 147.13729504 -22.84155273 144.42114258 C-22.84229879 143.74606801 -22.84304484 143.07099345 -22.84381349 142.37546208 C-22.8564636 131.44284822 -22.88968265 120.51039712 -22.93135457 109.57785932 C-22.97380109 98.34992564 -22.99693802 87.12207201 -23.00256789 75.89404887 C-23.00622343 69.59141179 -23.01826682 63.28905063 -23.05067062 56.98649025 C-23.08072318 51.05619239 -23.0870728 45.12633781 -23.07528687 39.19598007 C-23.0750659 37.02075614 -23.08338987 34.8455118 -23.1009407 32.67035866 C-23.1236223 29.69721162 -23.11534139 26.72567334 -23.09945679 23.7525177 C-23.11333887 22.89462153 -23.12722096 22.03672536 -23.14152372 21.15283233 C-23.06097726 15.02108053 -21.34161773 10.97102619 -17.49145508 6.19287109 C-15.32348633 4.35302734 -15.32348633 4.35302734 -13.30395508 3.25537109 C-12.62977539 2.87509766 -11.9555957 2.49482422 -11.26098633 2.10302734 C-7.40100598 0.11765114 -4.29469196 0.02495885 0 0 Z " fill="#040303" transform="translate(72.491455078125,127.80712890625)"/>
<path d="M0 0 C0.78087859 -0.00175304 1.56175718 -0.00350607 2.36629876 -0.00531223 C4.986619 -0.00996939 7.60688368 -0.00750746 10.22720623 -0.00507832 C12.12337896 -0.00694643 14.0195513 -0.00924713 15.91572303 -0.01194364 C21.12951974 -0.01806798 26.34330044 -0.0179273 31.55709994 -0.01674926 C37.17889855 -0.01654542 42.800692 -0.02206246 48.42248821 -0.02680683 C59.43773393 -0.03511736 70.4529743 -0.03786185 81.46822289 -0.03841921 C90.42061679 -0.03889417 99.37300892 -0.0409479 108.32540226 -0.04411983 C129.56993426 -0.05149397 150.81446478 -0.05764454 172.05899811 -0.05712128 C172.73839077 -0.0571057 173.41778342 -0.05709012 174.11776374 -0.05707407 C177.56119978 -0.05699096 181.00463583 -0.05689192 184.44807187 -0.05678936 C185.13194931 -0.05676942 185.81582674 -0.05674947 186.52042773 -0.05672892 C187.90339449 -0.05668848 189.28636125 -0.05664669 190.66932801 -0.05660353 C212.18632343 -0.05599077 233.70330309 -0.06349756 255.220294 -0.07717609 C279.3951747 -0.09253794 303.57004174 -0.10112959 327.74492854 -0.10021287 C340.54481261 -0.09988067 353.34467891 -0.10263792 366.14455891 -0.11339092 C377.04189153 -0.12248686 387.93919833 -0.12467863 398.83653311 -0.1178815 C404.39706452 -0.11461175 409.95754635 -0.11457604 415.51807308 -0.12323475 C420.60884847 -0.13108049 425.6995348 -0.12968801 430.79030796 -0.12095062 C432.63146135 -0.11941139 434.47262131 -0.12124768 436.31376693 -0.12681069 C438.81868582 -0.13387771 441.32329288 -0.12857174 443.82820129 -0.12025452 C444.89716234 -0.12770679 444.89716234 -0.12770679 445.98771855 -0.13530961 C455.5581567 -0.06825457 463.77510345 2.07811187 470.82942486 8.7653532 C478.29831505 16.95169836 478.54207744 24.5669139 478.49104595 35.27804852 C478.49511535 36.71262288 478.5004593 38.14719411 478.50697613 39.58175945 C478.52060691 43.46166669 478.51537005 47.34133358 478.50583887 51.22124481 C478.49822611 55.28508734 478.50529182 59.34890974 478.50999737 63.41275311 C478.51544773 70.23182136 478.50827963 77.05079197 478.49397564 83.86984539 C478.47762427 91.75607196 478.48295846 99.64206615 478.49945486 107.52828717 C478.51305905 114.30296166 478.51499542 121.07756613 478.50713885 127.85224986 C478.5024598 131.89713749 478.50184432 135.94191576 478.51174831 139.98679638 C478.52040115 143.78556011 478.51442728 147.58402315 478.49706554 151.38275433 C478.49309277 152.77796968 478.49424827 154.17321027 478.50085354 155.56841564 C478.50902637 157.46968474 478.4969698 159.37100903 478.48381329 161.27225018 C478.48268221 162.33704727 478.48155113 163.40184437 478.48038578 164.49890804 C478.10286236 167.12863445 478.10286236 167.12863445 476.78999043 168.96340847 C473.86320172 170.98481414 471.53143168 170.60154057 468.10286236 170.12863445 C465.48527038 168.47543176 464.52320598 167.77649449 463.10286236 165.12863445 C462.35504747 160.69283247 462.45469938 156.29330642 462.50691509 151.80465984 C462.50501029 150.43435983 462.50085291 149.06406137 462.49461651 147.69377422 C462.48583471 144.7476193 462.49256278 141.80205389 462.5112772 138.85594654 C462.54039711 134.19525957 462.53256891 129.5350792 462.51938152 124.87434673 C462.49872536 115.82099938 462.51431161 106.7678977 462.53485394 97.71456432 C462.56000127 86.19447443 462.57283729 74.67452184 462.54489762 63.15442747 C462.53495421 58.52366341 462.54504795 53.89350821 462.57080543 49.26281083 C462.58299599 46.37915139 462.5787645 43.49568109 462.57022762 40.61201572 C462.56943939 38.64270139 462.5886335 36.67341064 462.60846233 34.70419598 C462.65924705 26.05534768 462.65924705 26.05534768 458.10286236 19.12863445 C453.89612186 16.92760031 449.91843419 16.84513687 445.2735405 16.87136555 C444.09500751 16.86610644 444.09500751 16.86610644 442.89266577 16.86074108 C440.24993845 16.85140911 437.60743062 16.85635501 434.96469402 16.86120892 C433.0548705 16.85747357 431.14504851 16.85287252 429.23522896 16.84747827 C423.97916325 16.83521875 418.72316104 16.8355122 413.46708429 16.83786702 C407.80169111 16.83827444 402.13631851 16.82724333 396.47093487 16.81775188 C385.36899205 16.80112533 374.26707048 16.79564161 363.16511626 16.79452713 C354.14402046 16.79357755 345.12293169 16.78947179 336.10183811 16.78312588 C314.70121392 16.7683773 293.30059667 16.7560766 271.89996719 16.75712299 C271.21548428 16.75715415 270.53100137 16.75718531 269.82577656 16.75721741 C266.35645615 16.75738363 262.88713574 16.75758171 259.41781534 16.75778683 C258.38426706 16.75784666 258.38426706 16.75784666 257.32983903 16.75790771 C255.93644853 16.75798858 254.54305803 16.75807218 253.14966753 16.75815849 C231.46501231 16.75938432 209.78041961 16.74436518 188.09578228 16.71701336 C163.73927847 16.68630413 139.38282615 16.66910547 115.02629989 16.6709398 C102.12754727 16.67160465 89.22886517 16.66607074 76.33012867 16.6445837 C65.34995155 16.62641019 54.36987692 16.62199308 43.3896913 16.63560255 C37.78492899 16.64215124 32.18036352 16.64218093 26.5756197 16.62489605 C21.44786229 16.60924442 16.3204591 16.61194764 11.19271075 16.62946431 C9.33475612 16.63255169 7.47677557 16.62883696 5.61885149 16.61774416 C3.09814378 16.6036874 0.57868963 16.6141579 -1.94197464 16.63085651 C-2.66759526 16.62092015 -3.39321588 16.61098379 -4.140825 16.60074633 C-9.16917076 16.67143612 -12.06976797 17.8968434 -15.89713764 21.12863445 C-18.05703601 24.17666729 -18.14886918 26.76290303 -18.15440655 30.44545078 C-18.16085544 31.52956741 -18.16730433 32.61368404 -18.17394865 33.73065269 C-18.17085144 34.92110258 -18.16775424 36.11155246 -18.16456318 37.33807659 C-18.16909429 38.60316213 -18.1736254 39.86824766 -18.17829382 41.17166913 C-18.19054326 44.6855621 -18.19026109 48.19936001 -18.18790507 51.71326947 C-18.1874974 55.50204869 -18.19853131 59.29079722 -18.20802021 63.07956219 C-18.22464165 70.50327525 -18.23013027 77.92695655 -18.23124497 85.35068665 C-18.23219487 91.38410718 -18.23630225 97.41751721 -18.24264622 103.45093441 C-18.26026147 120.55154697 -18.2694846 137.65213441 -18.26798527 154.7527561 C-18.26790536 155.67488678 -18.26782544 156.59701745 -18.26774311 157.54709148 C-18.26766135 158.47034619 -18.26757959 159.39360091 -18.26749535 160.34483303 C-18.26668229 175.31057732 -18.28582424 190.27622101 -18.31401984 205.24193619 C-18.34273318 220.60348756 -18.35656101 235.96498983 -18.35483229 251.32656872 C-18.35416787 259.95301538 -18.359683 268.57935656 -18.38118839 277.20577908 C-18.39937979 284.55000432 -18.40376438 291.89407627 -18.39016955 299.23831426 C-18.38362959 302.98593582 -18.38355936 306.73326313 -18.40087605 310.4808569 C-18.41945116 314.54253677 -18.4070793 318.60353235 -18.39161396 322.66522503 C-18.40190109 323.85121347 -18.41218821 325.03720192 -18.42278707 326.25912941 C-18.37035435 332.46908613 -18.26097604 336.51516595 -13.89713764 341.12863445 C-10.23922894 343.62468265 -6.45878153 343.40879322 -2.19086361 343.38311005 C-1.40632879 343.38631652 -0.62179398 343.389523 0.18651462 343.39282665 C2.83134182 343.40116805 5.47594501 343.39518794 8.12077618 343.38933086 C10.02973633 343.39234966 11.93869528 343.39623777 13.84765208 343.40092343 C19.10598038 343.41124724 24.36424083 343.40901049 29.62257481 343.40474284 C35.28866476 343.40228353 40.95473804 343.41127986 46.62082195 343.41878033 C57.72624672 343.43155165 68.83164734 343.43331798 79.93707822 343.43098006 C88.96105801 343.42919943 97.98503045 343.43094108 107.00900936 343.43520451 C108.29172732 343.43579969 109.57444528 343.43639488 110.89603347 343.43700811 C113.50160395 343.43821982 116.10717443 343.43943395 118.71274491 343.44065049 C136.21637306 343.44844174 153.71999673 343.452354 171.22362614 343.44833374 C171.90837506 343.44817736 172.59312399 343.44802099 173.29862288 343.44785987 C176.76933412 343.44705407 180.24004536 343.4462083 183.71075659 343.44534657 C184.40007111 343.44517548 185.08938563 343.4450044 185.79958847 343.44482812 C187.19355064 343.44448147 188.5875128 343.44413294 189.98147497 343.44378254 C211.67266965 343.43842505 233.36382369 343.44635555 255.0550108 343.46481609 C279.41626567 343.48552467 303.77748924 343.49622988 328.13875449 343.49224061 C341.04086114 343.49032541 353.94293076 343.49284703 366.84503078 343.50695515 C377.82888028 343.51884381 388.81266994 343.52030218 399.79652022 343.50816498 C405.40326798 343.50225853 411.00990617 343.50122548 416.61664677 343.51316738 C421.74624391 343.52396626 426.87563922 343.52099467 432.00522669 343.5069057 C433.86388249 343.50424215 435.7225538 343.50667685 437.58119445 343.51464156 C440.10267731 343.52469921 442.623452 343.51636735 445.14490604 343.50336456 C445.87081251 343.51067391 446.59671898 343.51798325 447.34462261 343.5255141 C451.98828571 343.47569141 455.15715611 342.57221176 459.10286236 340.12863445 C461.98094974 336.52385948 462.4763437 333.79669215 462.46794415 329.24606609 C462.47325649 328.068437 462.47856884 326.89080791 462.48404217 325.6774931 C462.47475185 324.39422131 462.46546154 323.11094952 462.4558897 321.7887907 C462.45672095 320.41687149 462.45893852 319.04495253 462.46243572 317.67303753 C462.46737836 314.72374693 462.46330192 311.77465542 462.45242214 308.82538128 C462.43604625 304.1608388 462.44453348 299.49654543 462.45726299 294.83200359 C462.48736836 282.40785451 462.48591146 269.98375074 462.46701014 257.55958366 C462.45467823 249.39306376 462.456531 241.22682629 462.48539793 233.06033897 C462.5006343 228.42423281 462.49314738 223.78889327 462.46868777 219.15283489 C462.45861544 216.2680617 462.46930919 213.38364012 462.48580265 210.49890804 C462.49089783 208.5258357 462.47113318 206.55274815 462.45062542 204.57977581 C462.54033071 194.93408565 462.54033071 194.93408565 465.41453838 191.82614422 C468.91695956 189.61458259 471.03476046 189.52595269 475.10286236 190.12863445 C476.78914928 191.29512215 476.78914928 191.29512215 478.10286236 193.12863445 C478.4859724 195.74998093 478.4859724 195.74998093 478.49727154 198.96483135 C478.50862133 200.18297024 478.51997112 201.40110912 478.53166485 202.65616131 C478.52902135 204.00839585 478.52605009 205.36062979 478.52278423 206.71286297 C478.53012306 208.13549244 478.53870875 209.55811595 478.54844952 210.98073101 C478.570706 214.84892256 478.57359377 218.71690131 478.571702 222.5851481 C478.57158237 225.81778733 478.58014439 229.05038137 478.58847952 232.28300804 C478.60773238 239.91655796 478.61059226 247.54999854 478.60383892 255.18356609 C478.59721247 263.04354972 478.62000143 270.90306234 478.65715265 278.76295048 C478.68792105 285.51897742 478.6992015 292.27485352 478.69531584 299.03094906 C478.69325386 303.06225177 478.69863992 307.09318886 478.72320843 311.12442493 C478.74558851 314.92247724 478.74350562 318.71977023 478.72328091 322.51782703 C478.7198894 323.90527221 478.72487918 325.29276957 478.73926449 326.68014431 C478.8314984 336.24230621 477.82028642 344.03013897 471.12626171 351.26490402 C463.25448012 358.73377116 454.83443243 360.28762387 444.20572472 360.25726891 C443.42484612 360.25902194 442.64396753 360.26077498 441.83942595 360.26258114 C439.21910571 360.26723829 436.59884104 360.26477636 433.97851849 360.26234722 C432.08234576 360.26421533 430.18617342 360.26651604 428.29000169 360.26921254 C423.07620497 360.27533688 417.86242427 360.2751962 412.64862478 360.27401817 C407.02682616 360.27381432 401.40503272 360.27933137 395.7832365 360.28407574 C384.76799078 360.29238627 373.75275041 360.29513076 362.73750182 360.29568812 C353.78510792 360.29616307 344.83271579 360.29821681 335.88032246 360.30138874 C314.63579045 360.30876287 293.39125993 360.31491345 272.14672661 360.31439018 C271.46733395 360.3143746 270.78794129 360.31435903 270.08796098 360.31434297 C266.64452493 360.31425987 263.20108889 360.31416083 259.75765284 360.31405827 C259.07377541 360.31403832 258.38989798 360.31401838 257.68529699 360.31399783 C256.30233023 360.31395739 254.91936347 360.31391559 253.53639671 360.31387244 C232.01940129 360.31325967 210.50242163 360.32076646 188.98543072 360.334445 C164.81055002 360.34980685 140.63568298 360.3583985 116.46079618 360.35748178 C103.66091211 360.35714958 90.86104581 360.35990683 78.06116581 360.37065983 C67.16383318 360.37975576 56.26652638 360.38194753 45.36919161 360.3751504 C39.8086602 360.37188066 34.24817836 360.37184495 28.68765163 360.38050365 C23.59687625 360.3883494 18.50618992 360.38695692 13.41541675 360.37821952 C11.57426337 360.37668029 9.7331034 360.37851658 7.89195778 360.3840796 C5.3870389 360.39114662 2.88243184 360.38584065 0.37752342 360.37752342 C-0.33511727 360.3824916 -1.04775797 360.38745978 -1.78199384 360.39257851 C-11.35243198 360.32552348 -19.56937874 358.17915703 -26.62370014 351.4919157 C-33.76870869 343.66056396 -34.33683091 336.56682882 -34.29154682 326.28163433 C-34.30068348 324.33539188 -34.30068348 324.33539188 -34.31000471 322.3498314 C-34.32637689 318.75918731 -34.32409191 315.16876317 -34.31862974 311.57809484 C-34.31595615 307.70134416 -34.33049755 303.82465166 -34.3427248 299.94792461 C-34.36376751 292.35682951 -34.3683203 284.7658108 -34.36653692 277.17468997 C-34.36522864 271.00311749 -34.36903678 264.83156881 -34.37646198 258.6600008 C-34.37856121 256.8814134 -34.38065881 255.102826 -34.3827548 253.3242386 C-34.38379833 252.43894514 -34.38484186 251.55365168 -34.38591701 250.64153115 C-34.4048149 233.90224024 -34.40377064 217.16299317 -34.39694768 200.42369602 C-34.39137325 185.11809319 -34.41219416 169.81265781 -34.44530815 154.50709411 C-34.47906128 138.78381725 -34.49421141 123.06062056 -34.48959112 107.3373068 C-34.48734798 98.51290318 -34.49256675 89.68865429 -34.51748371 80.86428165 C-34.53851788 73.35113196 -34.54206797 65.83822184 -34.52318412 58.32506224 C-34.514039 54.49383516 -34.51284507 50.6630545 -34.53353977 46.83186245 C-34.5557549 42.67309059 -34.5390017 38.51536651 -34.5185976 34.3565855 C-34.53111545 33.1531672 -34.5436333 31.94974889 -34.55653048 30.70986336 C-34.46718191 22.20807901 -32.80677918 15.36389825 -26.92056131 8.98743504 C-19.03811265 1.52901183 -10.63330553 -0.0303681 0 0 Z " fill="#010101" transform="translate(33.89713764190674,75.87136554718018)"/>
<path d="M0 0 C3.24931927 -0.17455021 6.49743448 -0.28091753 9.75 -0.375 C11.13058594 -0.45041016 11.13058594 -0.45041016 12.5390625 -0.52734375 C13.87324219 -0.55634766 13.87324219 -0.55634766 15.234375 -0.5859375 C16.05131836 -0.6173584 16.86826172 -0.6487793 17.70996094 -0.68115234 C20 0 20 0 21.67120361 2.99822998 C23.73773026 6.32716914 23.73773026 6.32716914 27.4152832 6.73257446 C28.79361446 6.75543698 30.1727301 6.74545579 31.55078125 6.70947266 C32.30571869 6.71367722 33.06065613 6.71788177 33.83847046 6.72221375 C36.33063018 6.72991585 38.82056652 6.69634836 41.3125 6.6640625 C43.04598471 6.66515632 44.77947013 6.66946406 46.51293945 6.67684937 C51.07536633 6.6902617 55.63700615 6.671417 60.19934082 6.64239502 C67.50168215 6.59703985 74.8036001 6.58140125 82.10604858 6.60194016 C84.65681519 6.60156699 87.20648171 6.57578915 89.75708008 6.54824829 C91.32112619 6.54756343 92.88517316 6.54786634 94.44921875 6.54931641 C95.15791107 6.53485977 95.86660339 6.52040314 96.59677124 6.50550842 C99.6950038 6.53026441 101.6280836 6.73654446 104.18339157 8.54665565 C106.64698763 11.87376202 106.54442033 14.7514667 106.48101807 18.7321167 C106.48443577 19.5154929 106.48785347 20.2988691 106.49137473 21.10598397 C106.49796844 23.73346201 106.47595364 26.35992062 106.45410156 28.98730469 C106.4529734 30.86964392 106.45360633 32.75198491 106.45587158 34.63432312 C106.45702089 39.74771326 106.43347641 44.86072932 106.40557575 49.9740324 C106.38059826 55.31651102 106.37822298 60.65899788 106.37347412 66.00152588 C106.36103361 76.11981738 106.32819739 86.23793635 106.28807616 96.35615182 C106.24339196 107.87474353 106.22137983 119.3933434 106.20129442 130.91200018 C106.15946575 154.60809584 106.08909274 178.30403826 106 202 C105.07737366 201.53355072 105.07737366 201.53355072 104.1361084 201.05767822 C101.92552377 199.96312365 99.69599279 199.02656785 97.40625 198.109375 C96.47482178 197.73603027 95.54339355 197.36268555 94.58374023 196.97802734 C93.05728882 196.37015381 93.05728882 196.37015381 91.5 195.75 C90.436604 195.32541504 89.37320801 194.90083008 88.27758789 194.46337891 C72.55828167 188.20758955 56.77594162 182.11117409 41 176 C40.42219024 167.86169644 40.42219024 167.86169644 42.57421875 164.65234375 C43.27160156 164.08644531 43.96898437 163.52054688 44.6875 162.9375 C50.93839824 157.31499893 53.67026147 152.5871288 55.5625 144.375 C56.69502369 140.31757009 57.27877912 138.51471746 60.7421875 136.04296875 C62.8558739 135.06364461 64.99209033 134.13142658 67.1484375 133.25 C72.32549236 130.98060609 74.13282073 127.58484487 76.8125 122.6875 C79.20362256 115.26243522 78.43140021 108.93805871 75 102 C74.14515444 100.7710306 73.28093161 99.54854174 72.40844727 98.33203125 C69.51377296 93.74079387 69.40025821 90.06428228 69.65234375 84.75 C69.66890518 83.89245117 69.68546661 83.03490234 69.70252991 82.15136719 C69.75657022 79.43299266 69.84352626 76.71726642 69.9375 74 C70.02615524 71.28284983 70.10670418 68.56668276 70.16175842 65.84863281 C70.19614865 64.16516258 70.24935471 62.48192899 70.32493591 60.79980469 C70.45940614 54.46582468 68.96535547 49.21049101 64.58702087 44.47021484 C59.45096489 39.93823443 54.6716227 38.78489679 48 38 C47.84144531 37.40832031 47.68289062 36.81664062 47.51953125 36.20703125 C45.59006565 29.67243228 43.15645069 26.15562486 37.4375 22.25 C33.32263744 20.13981407 29.78225959 19.86698114 25.1809082 19.82299805 C23.42306755 19.80374519 23.42306755 19.80374519 21.62971497 19.78410339 C20.36616684 19.77671646 19.10261871 19.76932953 17.80078125 19.76171875 C15.84364449 19.74961113 15.84364449 19.74961113 13.8469696 19.73725891 C11.08393486 19.72225629 8.32092556 19.71240772 5.55786133 19.70483398 C2.03862679 19.69379873 -1.47997038 19.65942315 -4.99898052 19.61966228 C-8.37819947 19.58703979 -11.75735462 19.58270397 -15.13671875 19.57421875 C-16.39014572 19.55671066 -17.64357269 19.53920258 -18.9349823 19.52116394 C-29.89799378 19.54816929 -37.88283898 22.60360169 -46 30 C-56.23746406 40.75761234 -56.62341387 53.22064966 -56.46655273 67.27978516 C-56.43749065 70.12591578 -56.44599578 72.97018932 -56.45898438 75.81640625 C-56.45274804 77.65105059 -56.44435792 79.48568914 -56.43359375 81.3203125 C-56.43652939 82.15805206 -56.43946503 82.99579163 -56.44248962 83.85891724 C-56.36025944 89.07562077 -55.47814946 93.21430783 -53.47010803 98.04196167 C-53 100 -53 100 -54.75 103.375 C-55.4925 104.24125 -56.235 105.1075 -57 106 C-59.09350907 112.28052722 -58.71991316 118.21690404 -56 124.25 C-53.27378594 129.15564508 -49.90207586 132.2973346 -45 135 C-43.7625 135.350625 -42.525 135.70125 -41.25 136.0625 C-36.52094763 138.88174276 -36.42891024 142.41651112 -35.0859375 147.5703125 C-32.97167009 154.24774699 -28.8140028 159.51864652 -23.5625 164.0625 C-20.75467415 167.2812272 -20.69167441 167.69024927 -20.83984375 171.68359375 C-20.86296631 172.4923999 -20.88608887 173.30120605 -20.90991211 174.13452148 C-20.93964111 174.75012939 -20.96937012 175.3657373 -21 176 C-21.58722839 176.22693039 -22.17445679 176.45386078 -22.77947998 176.68766785 C-28.94567373 179.07090672 -35.11101167 181.4563495 -41.27587891 183.84301758 C-43.57026079 184.73094176 -45.86485319 185.61832219 -48.15966797 186.50512695 C-51.4768059 187.78710914 -54.79315707 189.07110887 -58.109375 190.35546875 C-59.11925476 190.74526413 -60.12913452 191.13505951 -61.1696167 191.53666687 C-67.32088916 193.92168969 -73.42274301 196.40403135 -79.50006104 198.97187805 C-81.30719225 199.7150767 -83.14628462 200.38209487 -85 201 C-85.06999489 176.00087122 -85.1229414 151.00175706 -85.15543652 126.00255013 C-85.17092372 114.39570979 -85.19204856 102.78893024 -85.22631836 91.18212891 C-85.25616407 81.06892033 -85.2755615 70.95575577 -85.28226548 60.84250438 C-85.28618595 55.48463996 -85.29543786 50.12690147 -85.31719017 44.7690773 C-85.33747914 39.7311019 -85.34384926 34.69330488 -85.33932304 29.65529251 C-85.34015166 27.80168185 -85.34616232 25.94806551 -85.35761642 24.09449005 C-85.37244206 21.57262788 -85.36899041 19.05144799 -85.36076355 16.52957153 C-85.36950207 15.78833514 -85.3782406 15.04709875 -85.38724393 14.28340065 C-85.36914349 12.24463081 -85.36914349 12.24463081 -85 9 C-81.33407928 6.55605285 -78.55771713 6.69358139 -74.31567383 6.68115234 C-73.5349501 6.67110672 -72.75422638 6.6610611 -71.94984436 6.65071106 C-69.36891416 6.61981679 -66.78808798 6.60282671 -64.20703125 6.5859375 C-62.41769003 6.56723086 -60.62835768 6.54765783 -58.83903503 6.5272522 C-54.12909161 6.47587169 -49.41911957 6.43627769 -44.70904541 6.39910889 C-39.90296312 6.35910631 -35.09700048 6.3079969 -30.29101562 6.2578125 C-20.86076107 6.16098316 -11.43043904 6.07660082 -2 6 C-1.34 4.02 -0.68 2.04 0 0 Z " fill="#FA636D" transform="translate(150,136)"/>
<path d="M0 0 C0.97904297 0.01353516 1.95808594 0.02707031 2.96679688 0.04101562 C5.37429556 0.07624731 7.78051259 0.1281235 10.1875 0.1875 C9.7004959 1.40869537 9.2134918 2.62989075 8.71173 3.88809204 C6.71918336 9.91135762 6.7675911 15.68331786 6.79981995 21.97802734 C6.79443441 23.24526831 6.78904887 24.51250927 6.78350013 25.81815147 C6.76910412 29.31500438 6.77327175 32.81162043 6.78066695 36.30848598 C6.7854108 40.08769859 6.77287813 43.86686084 6.76264954 47.64605713 C6.74548079 55.04136759 6.74461741 62.43659302 6.74986244 69.83191824 C6.75390847 75.84374445 6.75245545 81.85554559 6.74711418 87.86737061 C6.74599155 89.15218671 6.74599155 89.15218671 6.74484624 90.46295869 C6.74331472 92.20316331 6.74177637 93.94336792 6.74023127 95.68357253 C6.72651354 111.99078075 6.73193911 128.29794096 6.74341648 144.60514808 C6.75335113 159.51682007 6.74040291 174.42836803 6.71648229 189.3400209 C6.69208879 204.66220033 6.68248385 219.984322 6.68913502 235.30652046 C6.69262629 243.90447727 6.69040107 252.50233866 6.67288399 261.10028076 C6.658159 268.418323 6.65753056 275.7362026 6.6749549 283.05424166 C6.68346432 286.7860621 6.68561607 290.51759203 6.67030334 294.24939728 C6.65389327 298.2988243 6.6686096 302.3475511 6.68629456 306.39697266 C6.67668955 307.57081198 6.66708454 308.7446513 6.65718848 309.95406151 C6.71970749 316.91173508 7.75130081 322.09933032 11.1875 328.1875 C7.64594034 328.29936021 4.10529101 328.37495388 0.5625 328.4375 C-0.43652344 328.47101563 -1.43554688 328.50453125 -2.46484375 328.5390625 C-8.41346751 328.61785222 -12.24239499 328.42602011 -16.8125 324.1875 C-19.36358322 320.58447975 -20.18798416 318.14550132 -20.19281673 313.74763584 C-20.20125668 312.66152816 -20.20969662 311.57542049 -20.21839231 310.45640045 C-20.21238227 309.26886341 -20.20637222 308.08132636 -20.20018005 306.85780334 C-20.20556559 305.59186338 -20.21095113 304.32592342 -20.21649987 303.02162164 C-20.23096978 299.50994039 -20.22670503 295.99849353 -20.21933305 292.48679936 C-20.21460748 288.69871187 -20.2271058 284.91067553 -20.23735046 281.12260437 C-20.25455576 273.70235215 -20.25537491 266.28218455 -20.25013756 258.86191756 C-20.24609788 252.83137723 -20.24753701 246.80086193 -20.25288582 240.7703228 C-20.25363424 239.9123706 -20.25438266 239.0544184 -20.25515376 238.17046766 C-20.25668522 236.42759971 -20.25822357 234.68473176 -20.25976873 232.94186383 C-20.2735 216.59375145 -20.26805166 200.2456869 -20.25658352 183.89757561 C-20.24665021 168.93835707 -20.25959238 153.97926221 -20.28351771 139.02006275 C-20.3078945 123.66299408 -20.3175201 108.30598303 -20.31086498 92.94889539 C-20.30736963 84.32582372 -20.30962563 75.70284718 -20.32711601 67.07979012 C-20.34182025 59.73924062 -20.3424968 52.39885325 -20.3250451 45.058307 C-20.316518 41.31270952 -20.31442689 37.56740186 -20.32969666 33.82181931 C-20.34604118 29.76237009 -20.33143055 25.70362351 -20.31370544 21.6441803 C-20.32811295 19.86622081 -20.32811295 19.86622081 -20.34281152 18.05234295 C-20.2863917 11.79359854 -20.0626538 7.92296433 -15.8125 3.1875 C-11.22935813 -0.92955965 -5.81018865 -0.1521809 0 0 Z " fill="#B0DAFB" transform="translate(34.8125,91.8125)"/>
<path d="M0 0 C1.22391953 -0.00571014 2.44783905 -0.01142029 3.70884705 -0.01730347 C5.06742849 -0.01854881 6.42601004 -0.01967391 7.78459167 -0.02069092 C9.21370573 -0.02531966 10.64281855 -0.0303444 12.07192993 -0.03573608 C15.95632832 -0.04885691 19.84070942 -0.05530445 23.7251265 -0.05974674 C26.1522401 -0.06267806 28.57934897 -0.06678299 31.00646019 -0.07125092 C38.6011674 -0.08492519 46.19586381 -0.09459211 53.79058248 -0.09845281 C62.55598886 -0.10293314 71.32123926 -0.12048012 80.08659822 -0.1494534 C86.86292045 -0.17107411 93.63919882 -0.1811573 100.41555518 -0.18249393 C104.46229687 -0.1835417 108.50889194 -0.1894436 112.55559731 -0.20731354 C116.36331276 -0.22380096 120.17077146 -0.22594658 123.9785099 -0.21717453 C125.37408638 -0.2164045 126.76967671 -0.22074242 128.16521835 -0.23063278 C130.07437756 -0.24336697 131.98364008 -0.23567843 133.89282227 -0.22705078 C134.96004926 -0.22851734 136.02727625 -0.2299839 137.12684345 -0.2314949 C141.31174566 0.28561367 144.68745554 1.78741006 147.78141785 4.67559814 C152.61763863 10.99988686 152.35027715 15.07432449 152.3868866 22.89044189 C152.4178241 24.51852783 152.4178241 24.51852783 152.4493866 26.17950439 C152.48404661 33.26747612 151.91279782 37.93079454 147.1368866 43.45294189 C143.64602647 46.39835512 140.51707572 46.27046912 136.12191772 46.28761292 C134.23555351 46.29834587 134.23555351 46.29834587 132.31108093 46.30929565 C130.91471887 46.31213587 129.51835655 46.31484761 128.12199402 46.31744385 C126.65347127 46.32370937 125.1849501 46.33035625 123.71643066 46.33735657 C118.8917501 46.35838696 114.06706925 46.36875723 109.24235535 46.37872314 C107.58109839 46.38277093 105.91984159 46.38688786 104.25858498 46.39107323 C96.45457775 46.41012178 88.65057998 46.42435414 80.84655398 46.4326852 C71.83886252 46.44246012 62.83141663 46.46878758 53.82381171 46.50918609 C46.86065563 46.53934363 39.89756996 46.55415368 32.93434983 46.55746621 C28.77577558 46.55981691 24.61746377 46.5687799 20.45895958 46.59392738 C16.54613475 46.6172073 12.6337452 46.62144189 8.72086906 46.611166 C7.28658348 46.61067052 5.85227647 46.61699466 4.41805649 46.63072205 C-9.00787494 46.75201352 -9.00787494 46.75201352 -13.8631134 42.14044189 C-18.45494573 36.56764133 -18.47551952 29.98623451 -18.3631134 23.07794189 C-18.37858215 22.12339111 -18.3940509 21.16884033 -18.4099884 20.18536377 C-18.37563601 13.96328657 -17.50689293 10.21498989 -13.8631134 5.14044189 C-9.32223343 0.93182144 -6.09149379 0.01699673 0 0 Z " fill="#030303" transform="translate(313.8631134033203,127.85955810546875)"/>
<path d="M0 0 C0.74170944 -0.00029205 1.48341888 -0.00058411 2.24760437 -0.00088501 C4.69879868 0.00050815 7.14968888 0.01606852 9.60083008 0.03173828 C11.30047947 0.03546847 13.00013101 0.03831541 14.69978333 0.04031372 C19.17310524 0.04794976 23.64629727 0.06759799 28.11956787 0.08972168 C32.68426761 0.11018074 37.24898833 0.11931557 41.8137207 0.12939453 C50.77015798 0.15084391 59.72649885 0.18497951 68.68286133 0.22705078 C68.68286133 0.55705078 68.68286133 0.88705078 68.68286133 1.22705078 C54.49286133 1.22705078 40.30286133 1.22705078 25.68286133 1.22705078 C26.2452144 8.6781737 26.2452144 8.6781737 26.8815918 16.12304688 C27.28766193 23.05919554 26.30926461 27.16091384 22.19506836 32.79980469 C18.48123687 38.76088196 18.37483342 44.98885661 18.38208008 51.78173828 C18.37779495 52.68272247 18.37350983 53.58370667 18.36909485 54.51199341 C18.36337651 56.4096798 18.36283278 58.30738811 18.3671875 60.20507812 C18.37034428 63.08648628 18.34686801 65.96686323 18.3215332 68.84814453 C18.31925942 70.70100783 18.31855708 72.55387387 18.31958008 74.40673828 C18.31037033 75.25702606 18.30116058 76.10731384 18.29167175 76.98336792 C18.33181614 82.25276559 19.17480549 86.39959569 21.21028137 91.2739563 C21.68286133 93.22705078 21.68286133 93.22705078 19.93286133 96.60205078 C19.19036133 97.46830078 18.44786133 98.33455078 17.68286133 99.22705078 C15.58935226 105.507578 15.96294817 111.44395482 18.68286133 117.47705078 C21.40907539 122.38269586 24.78078547 125.52438538 29.68286133 128.22705078 C30.92036133 128.57767578 32.15786133 128.92830078 33.43286133 129.28955078 C38.1619137 132.10879354 38.25395109 135.64356191 39.59692383 140.79736328 C41.71119124 147.47479777 45.86885853 152.7456973 51.12036133 157.28955078 C53.92818718 160.50827798 53.99118692 160.91730005 53.84301758 164.91064453 C53.81989502 165.71945068 53.79677246 166.52825684 53.77294922 167.36157227 C53.74322021 167.97718018 53.71349121 168.59278809 53.68286133 169.22705078 C53.09563293 169.45398117 52.50840454 169.68091156 51.90338135 169.91471863 C45.7371876 172.2979575 39.57184965 174.68340028 33.40698242 177.07006836 C31.11260054 177.95799254 28.81800814 178.84537297 26.52319336 179.73217773 C23.20605543 181.01415992 19.88970425 182.29815965 16.57348633 183.58251953 C15.56360657 183.97231491 14.55372681 184.36211029 13.51324463 184.76371765 C7.36197217 187.14874047 1.26011832 189.63108213 -4.81719971 192.19892883 C-6.62433092 192.94212748 -8.46342329 193.60914565 -10.31713867 194.22705078 C-10.38713356 169.227922 -10.44008007 144.22880784 -10.47257519 119.22960091 C-10.48806239 107.62276057 -10.50918723 96.01598102 -10.54345703 84.40917969 C-10.57330274 74.29597112 -10.59270018 64.18280655 -10.59940416 54.06955516 C-10.60332462 48.71169074 -10.61257654 43.35395225 -10.63432884 37.99612808 C-10.65461781 32.95815268 -10.66098793 27.92035566 -10.65646172 22.88234329 C-10.65729033 21.02873263 -10.66330099 19.17511629 -10.6747551 17.32154083 C-10.68958073 14.79967866 -10.68612908 12.27849877 -10.67790222 9.75662231 C-10.68664075 9.01538592 -10.69537927 8.27414953 -10.7043826 7.51045144 C-10.68628216 5.47168159 -10.68628216 5.47168159 -10.31713867 2.22705078 C-6.71796139 -0.17240074 -4.15284343 -0.04266681 0 0 Z " fill="#FD4655" transform="translate(75.317138671875,142.77294921875)"/>
<path d="M0 0 C1.69195496 -0.02398109 1.69195496 -0.02398109 3.41809082 -0.04844666 C4.63170288 -0.05380936 5.84531494 -0.05917206 7.09570312 -0.06469727 C8.97074524 -0.07823997 8.97074524 -0.07823997 10.88366699 -0.09205627 C13.52659523 -0.10656347 16.16909101 -0.11624191 18.81201172 -0.11914062 C22.1951979 -0.12453321 25.57719499 -0.16225705 28.96004486 -0.20788479 C32.19269382 -0.24480198 35.42537162 -0.24616781 38.65820312 -0.25219727 C39.87181519 -0.27172958 41.08542725 -0.2912619 42.33581543 -0.31138611 C50.7241743 -0.26618795 50.7241743 -0.26618795 54.11743164 2.71020508 C55.19567244 4.93273127 56.13135044 6.99923684 56.81445312 9.36889648 C58.24471062 13.3451621 59.54024408 15.22817909 63.37695312 17.30639648 C66.20033276 17.87769618 68.98993955 18.30507993 71.85351562 18.61889648 C74.37695312 19.30639648 74.37695312 19.30639648 76.01635742 20.84643555 C77.92553517 24.29823439 77.74969132 27.5155179 77.66992188 31.35327148 C77.66567703 32.12447327 77.66143219 32.89567505 77.65705872 33.69024658 C77.64030695 36.14598964 77.60266251 38.60090277 77.56445312 41.05639648 C77.5494017 42.72435336 77.53571409 44.39232313 77.5234375 46.06030273 C77.49041507 50.14265226 77.43865797 54.22438381 77.37695312 58.30639648 C71.59570312 57.57202148 71.59570312 57.57202148 69.62695312 55.18139648 C68.37695312 52.30639648 68.37695312 52.30639648 67.37695312 48.61889648 C66.68311982 45.05100535 66.68311982 45.05100535 63.37695312 43.30639648 C59.02318287 43.35672909 57.01658592 43.7140367 53.78710938 46.70483398 C53.01238281 47.68709961 52.23765625 48.66936523 51.43945312 49.68139648 C47.6540384 54.47162079 44.28662058 56.87676647 38.37695312 58.30639648 C34.06494939 58.72640477 29.78101835 58.72722638 25.45117188 58.70483398 C23.614356 58.70913925 23.614356 58.70913925 21.74043274 58.71353149 C19.16443415 58.71556546 16.58841988 58.71008254 14.01245117 58.69750977 C10.06003658 58.68137846 6.10863395 58.69741761 2.15625 58.71655273 C-0.34961164 58.71457154 -2.85547264 58.71073043 -5.36132812 58.70483398 C-6.54567947 58.71090668 -7.73003082 58.71697937 -8.95027161 58.72323608 C-10.04538559 58.7137796 -11.14049957 58.70432312 -12.26879883 58.69458008 C-13.23284134 58.6921933 -14.19688385 58.68980652 -15.19013977 58.68734741 C-17.62304688 58.30639648 -17.62304688 58.30639648 -19.43243408 57.01924133 C-21.54034582 53.98674766 -21.06953064 50.33099873 -21.05664062 46.76342773 C-21.0645034 45.49978645 -21.0645034 45.49978645 -21.07252502 44.21061707 C-21.07894957 42.42606711 -21.07760261 40.64147482 -21.0690918 38.85693359 C-21.06063129 36.14594394 -21.0892545 33.43709709 -21.12109375 30.72631836 C-21.1227073 28.98868878 -21.1221253 27.2510555 -21.11914062 25.51342773 C-21.1303746 24.71105179 -21.14160858 23.90867584 -21.15318298 23.08198547 C-21.07308666 16.50312395 -19.22339418 11.26029978 -14.84179688 6.28295898 C-14.27460937 5.83694336 -13.70742187 5.39092773 -13.12304688 4.93139648 C-12.55585937 4.46991211 -11.98867187 4.00842773 -11.40429688 3.53295898 C-7.5292995 0.86464939 -4.73744831 0.05082985 0 0 Z " fill="#655D67" transform="translate(128.623046875,169.693603515625)"/>
<path d="M0 0 C1.6328125 1.6015625 1.6328125 1.6015625 3.125 3.625 C11.13476377 13.25743143 22.60779621 18.1900062 34.92578125 19.37890625 C48.79799244 20.00513464 61.86415332 16.21989043 72.359375 6.90625 C76.14910014 3.30865179 76.14910014 3.30865179 79 -1 C84.23199342 -0.35806627 88.74778976 1.25747871 93.6171875 3.16796875 C94.43317413 3.48526443 95.24916077 3.80256012 96.08987427 4.12947083 C97.81065471 4.80136065 99.53018892 5.47644995 101.24853516 6.15454102 C103.85472101 7.1795245 106.46793514 8.18484619 109.08203125 9.18945312 C110.76088592 9.84776287 112.43928676 10.50723142 114.1171875 11.16796875 C114.8882785 11.46197067 115.65936951 11.7559726 116.4538269 12.05888367 C123.98286842 15.07358104 131.44375433 19.42365053 135 27 C134.9375 30.75 134.9375 30.75 134 34 C130.40299825 36.39800117 127.82697584 36.28295434 123.67407227 36.26069641 C122.92225205 36.26452196 122.17043184 36.26834751 121.3958292 36.27228898 C118.86928436 36.2826318 116.34296622 36.27862446 113.81640625 36.2746582 C112.00804432 36.27900393 110.19968424 36.28418661 108.3913269 36.29014587 C103.4740839 36.30356108 98.55691763 36.30411182 93.63965988 36.30158257 C89.53899418 36.30051472 85.43834413 36.30539139 81.33768177 36.310188 C71.6668411 36.32129159 61.99603927 36.32171559 52.32519531 36.31567383 C42.33733884 36.30963015 32.34962311 36.32195312 22.36179066 36.3432439 C13.79529069 36.36083564 5.22883561 36.36686516 -3.33768177 36.36360615 C-8.45797869 36.36178951 -13.57817519 36.36446748 -18.69845581 36.37832069 C-23.51160894 36.39085526 -28.32454192 36.38899659 -33.1376915 36.37590981 C-34.90702258 36.37353502 -36.67636895 36.37631077 -38.44568253 36.38453293 C-40.85540465 36.39492617 -43.26437783 36.38696036 -45.67407227 36.3742218 C-46.37922187 36.38159609 -47.08437147 36.38897037 -47.81088924 36.39656812 C-50.64109013 36.36494979 -52.55248991 36.30882688 -54.91880798 34.67582989 C-56.89870201 31.60702663 -56.58257694 29.55371932 -56 26 C-50.58959823 17.35975232 -41.7332246 12.99070484 -32.51953125 9.4140625 C-31.35571175 8.95500015 -31.35571175 8.95500015 -30.16838074 8.48666382 C-28.5439756 7.84908927 -26.91791614 7.21571457 -25.2902832 6.58642578 C-22.80244729 5.62109936 -20.32418987 4.6335769 -17.84570312 3.64453125 C-16.2583432 3.02468089 -14.67046957 2.40614412 -13.08203125 1.7890625 C-12.34547806 1.49335358 -11.60892487 1.19764465 -10.85005188 0.89297485 C-6.87942075 -0.61757663 -4.07028787 -1.50319631 0 0 Z " fill="#5FB7FC" transform="translate(121,333)"/>
<path d="M0 0 C3.07810299 1.35798661 5.49386097 2.81852841 8.125 4.9375 C8.88549805 7.93920898 8.88549805 7.93920898 8.88671875 11.43359375 C8.88994141 12.71556641 8.89316406 13.99753906 8.89648438 15.31835938 C8.88190186 15.98633545 8.86731934 16.65431152 8.85229492 17.3425293 C8.81324999 19.33669535 8.83474682 21.33175251 8.85742188 23.32617188 C8.75976328 34.85563097 6.32706915 45.72613571 -1.91796875 54.22265625 C-10.9080911 62.10022853 -19.15095548 64.54542292 -30.95703125 64.25 C-36.05281641 63.84355652 -39.6095997 62.68992264 -43.875 59.9375 C-44.56980469 59.50179687 -45.26460937 59.06609375 -45.98046875 58.6171875 C-53.29945786 53.5913901 -58.89691572 46.73392473 -60.875 37.9375 C-61.22980568 32.76413353 -61.15920356 27.6169181 -61.0625 22.4375 C-61.04742613 21.02866014 -61.0337425 19.61980468 -61.02148438 18.2109375 C-60.98629724 14.78605604 -60.93706079 11.36198237 -60.875 7.9375 C-59.59971436 7.9281543 -58.32442871 7.91880859 -57.01049805 7.90917969 C-52.23346308 7.86900426 -47.45705362 7.80317113 -42.68041992 7.72998047 C-40.62158301 7.7019296 -38.56264159 7.6806369 -36.50366211 7.66650391 C-19.19823685 8.03764938 -19.19823685 8.03764938 -3.72143555 1.29980469 C-1.875 -0.0625 -1.875 -0.0625 0 0 Z " fill="#FBD0A2" transform="translate(186.875,235.0625)"/>
<path d="M0 0 C46.2 0 92.4 0 140 0 C140 5.61 140 11.22 140 17 C93.8 17 47.6 17 0 17 C0 11.39 0 5.78 0 0 Z " fill="#FF646E" transform="translate(311,143)"/>
<path d="M0 0 C0.94072861 -0.00990463 1.88145721 -0.01980927 2.85069275 -0.03001404 C3.88090546 -0.02551239 4.91111816 -0.02101074 5.97254944 -0.01637268 C7.60216866 -0.02666756 7.60216866 -0.02666756 9.26470947 -0.03717041 C12.8654528 -0.05551144 16.46576345 -0.05159035 20.06654358 -0.0459137 C22.5637425 -0.05047202 25.06094016 -0.05577654 27.55813599 -0.0617981 C32.79624896 -0.07074359 38.03424907 -0.06852257 43.27235413 -0.05836487 C49.32607707 -0.04688489 55.37935694 -0.06095533 61.43302149 -0.08776134 C67.25776499 -0.11258749 73.08233598 -0.11509679 78.90712166 -0.10864449 C81.38509928 -0.10849083 83.86308525 -0.11457138 86.34103203 -0.12693596 C89.80317731 -0.14177617 93.26434158 -0.13121911 96.72645569 -0.11402893 C97.75464417 -0.1236969 98.78283264 -0.13336487 99.84217834 -0.14332581 C106.7603235 -0.07122141 106.7603235 -0.07122141 110.04702759 2.23544312 C111.95787095 5.24354081 112.05699029 6.88804309 111.41419983 10.38768005 C109.3815504 13.25608244 107.7617514 15.10371946 104.22808838 15.8483448 C101.44748138 16.03322478 98.70672522 16.05158233 95.9200592 16.01878357 C94.33630241 16.02951653 94.33630241 16.02951653 92.72055054 16.04046631 C89.23257603 16.0573665 85.74588435 16.03794156 82.25794983 16.0165863 C79.83326613 16.01741487 77.40858248 16.01987379 74.98390198 16.02389526 C69.90304145 16.02675419 64.82262151 16.01204192 59.74183655 15.98460388 C53.22807481 15.95052172 46.71510102 15.95653885 40.20130157 15.97526646 C35.19471161 15.98583336 30.18830509 15.97690127 25.18173218 15.96188164 C22.77995346 15.95669714 20.3781556 15.95718484 17.97637939 15.96342659 C14.61994713 15.96887477 11.26464408 15.94851454 7.90834045 15.92112732 C6.91494156 15.9276532 5.92154266 15.93417908 4.89804077 15.94090271 C0.53953056 15.88040941 -1.92019208 15.79448868 -5.70457458 13.48153687 C-7.76098509 11.19269432 -8.22570208 10.35055876 -8.08580017 7.32518005 C-7.58580017 3.38768005 -7.58580017 3.38768005 -6.34116268 1.66581631 C-4.08722595 0.02465203 -2.7753894 0.00824473 0 0 Z " fill="#070708" transform="translate(354.58580017089844,191.61231994628906)"/>
<path d="M0 0 C1.40053368 -0.01485695 1.40053368 -0.01485695 2.82936096 -0.03001404 C4.355261 -0.02326157 4.355261 -0.02326157 5.9119873 -0.01637268 C6.98879257 -0.02323593 8.06559784 -0.03009918 9.17503357 -0.03717041 C12.73787586 -0.05548649 16.30027987 -0.05159425 19.86315918 -0.0459137 C22.33650863 -0.05047285 24.8098568 -0.05577762 27.28320312 -0.0617981 C32.46827337 -0.07073844 37.65318966 -0.06829508 42.83825684 -0.05836487 C49.49003737 -0.04686839 56.14108301 -0.06709253 62.79282379 -0.09628201 C67.90056749 -0.11460733 73.00818322 -0.11435893 78.11595154 -0.10864449 C80.56880945 -0.10849085 83.02167582 -0.11456964 85.47450256 -0.12693596 C88.90061967 -0.14177603 92.32574546 -0.13121968 95.75183105 -0.11402893 C96.76909775 -0.1236969 97.78636444 -0.13336487 98.8344574 -0.14332581 C105.67969481 -0.07122793 105.67969481 -0.07122793 108.95800781 2.23544312 C110.87760333 5.24251806 110.97531907 6.88467064 110.33190918 10.38768005 C108.29925975 13.25608244 106.67946075 15.10371946 103.14579773 15.8483448 C100.36519073 16.03322478 97.62443457 16.05158233 94.83776855 16.01878357 C93.25401176 16.02951653 93.25401176 16.02951653 91.63825989 16.04046631 C88.15028539 16.0573665 84.6635937 16.03794156 81.17565918 16.0165863 C78.75097548 16.01741487 76.32629183 16.01987379 73.90161133 16.02389526 C68.8207508 16.02675419 63.74033086 16.01204192 58.6595459 15.98460388 C52.14578416 15.95052172 45.63281037 15.95653885 39.11901093 15.97526646 C34.11242096 15.98583336 29.10601444 15.97690127 24.09944153 15.96188164 C21.69766281 15.95669714 19.29586495 15.95718484 16.89408875 15.96342659 C13.53765648 15.96887477 10.18235343 15.94851454 6.8260498 15.92112732 C5.83265091 15.9276532 4.83925201 15.93417908 3.81575012 15.94090271 C-0.54206756 15.88041902 -3.00162202 15.79530191 -6.78466797 13.48153687 C-8.83217364 11.20526434 -9.32934905 10.34021081 -9.23059082 7.32518005 C-8.66809082 3.38768005 -8.66809082 3.38768005 -6.92469025 1.66581631 C-4.36814781 0.21779255 -2.91822641 0.00875787 0 0 Z " fill="#050505" transform="translate(355.6680908203125,223.61231994628906)"/>
<path d="M0 0 C1.07680527 -0.00700928 2.15361053 -0.01401855 3.26304626 -0.02124023 C6.82601635 -0.0388598 10.38819357 -0.02718275 13.95117188 -0.01367188 C16.42452141 -0.01636563 18.89786992 -0.02024708 21.37121582 -0.02526855 C26.55633623 -0.031169 31.74118113 -0.02258265 36.92626953 -0.00390625 C43.57809143 0.01888337 50.22899875 0.00576344 56.88083649 -0.01819611 C61.98859536 -0.03263902 67.09620078 -0.02805491 72.20396423 -0.01768494 C74.65681535 -0.01501351 77.10968032 -0.01830196 79.56251526 -0.02760315 C82.98866772 -0.03774345 86.41376968 -0.02230144 89.83984375 0 C90.85711044 -0.00809692 91.87437714 -0.01619385 92.92247009 -0.02453613 C99.76732155 0.05815211 99.76732155 0.05815211 103.04602051 2.36633301 C104.96607497 5.3727408 105.06326055 7.01495646 104.41992188 10.51757812 C102.38421509 13.40061827 100.7621759 15.23714947 97.21497917 15.97824287 C94.40487924 16.1631855 91.63421643 16.18146641 88.81811523 16.14868164 C87.75091751 16.15583694 86.68371979 16.16299225 85.58418274 16.17036438 C82.05894077 16.18726412 78.53496801 16.16784114 75.00976562 16.14648438 C72.56026606 16.14731289 70.11076655 16.14977159 67.66127014 16.15379333 C62.5291367 16.15665215 57.39743949 16.14193995 52.26538086 16.11450195 C45.68202119 16.08040183 39.09944075 16.08644299 32.51604366 16.10516453 C27.45888252 16.11572437 22.40190322 16.10680609 17.34475899 16.09177971 C14.91703392 16.08659123 12.48928991 16.08708772 10.06156731 16.09332466 C6.67140617 16.09876505 3.28236731 16.0784384 -0.10766602 16.05102539 C-1.11401093 16.05755127 -2.12035583 16.06407715 -3.15719604 16.07080078 C-9.91486582 15.97772338 -9.91486582 15.97772338 -13.20335388 13.70298767 C-15.23986146 10.47023926 -15.11372897 8.25313404 -14.58007812 4.51757812 C-11.13791022 -0.97584337 -5.81339752 -0.04627168 0 0 Z " fill="#030303" transform="translate(361.580078125,287.482421875)"/>
<path d="M0 0 C1.0654454 -0.00700928 2.13089081 -0.01401855 3.22862244 -0.02124023 C6.75432315 -0.0388605 10.27922261 -0.02718169 13.80493164 -0.01367188 C16.25346531 -0.01636581 18.70199795 -0.02024741 21.15052795 -0.02526855 C26.28437476 -0.03116926 31.41794333 -0.02258257 36.55175781 -0.00390625 C43.133905 0.01887111 49.71539938 0.00577081 56.29752254 -0.01819611 C61.35471008 -0.03264859 66.41174282 -0.0280503 71.46893501 -0.01768494 C73.89583984 -0.01501553 76.3227587 -0.01829488 78.74964714 -0.02760315 C82.14207057 -0.03775783 85.5334366 -0.02228067 88.92578125 0 C90.43226227 -0.01214539 90.43226227 -0.01214539 91.96917725 -0.02453613 C96.31439327 0.02835439 98.85176539 0.11757493 102.65113831 2.36633301 C104.52758789 4.51757812 104.52758789 4.51757812 105.15258789 7.45507812 C104.28853636 11.68893061 102.98481247 12.91871061 99.52758789 15.51757812 C95.99579971 16.25553403 92.52312198 16.19056152 88.92578125 16.14868164 C87.85858353 16.15583694 86.7913858 16.16299225 85.69184875 16.17036438 C82.16660678 16.18726412 78.64263403 16.16784114 75.11743164 16.14648438 C72.66793207 16.14731289 70.21843256 16.14977159 67.76893616 16.15379333 C62.63680272 16.15665215 57.5051055 16.14193995 52.37304688 16.11450195 C45.7896872 16.08040183 39.20710677 16.08644299 32.62370968 16.10516453 C27.56654853 16.11572437 22.50956923 16.10680609 17.452425 16.09177971 C15.02469993 16.08659123 12.59695593 16.08708772 10.16923332 16.09332466 C6.77907218 16.09876505 3.39003333 16.0784384 0 16.05102539 C-1.00634491 16.05755127 -2.01268982 16.06407715 -3.04953003 16.07080078 C-9.80719981 15.97772338 -9.80719981 15.97772338 -13.09568787 13.70298767 C-15.13219545 10.47023926 -15.00606295 8.25313404 -14.47241211 4.51757812 C-11.03152952 -0.94695149 -5.79832544 -0.04665259 0 0 Z " fill="#020202" transform="translate(361.472412109375,319.482421875)"/>
<path d="M0 0 C1.07680527 -0.00700928 2.15361053 -0.01401855 3.26304626 -0.02124023 C6.82601635 -0.0388598 10.38819357 -0.02718275 13.95117188 -0.01367188 C16.42452141 -0.01636563 18.89786992 -0.02024708 21.37121582 -0.02526855 C26.55633623 -0.031169 31.74118113 -0.02258265 36.92626953 -0.00390625 C43.57809143 0.01888337 50.22899875 0.00576344 56.88083649 -0.01819611 C61.98859536 -0.03263902 67.09620078 -0.02805491 72.20396423 -0.01768494 C74.65681535 -0.01501351 77.10968032 -0.01830196 79.56251526 -0.02760315 C82.98866772 -0.03774345 86.41376968 -0.02230144 89.83984375 0 C90.85711044 -0.00809692 91.87437714 -0.01619385 92.92247009 -0.02453613 C99.76732155 0.05815211 99.76732155 0.05815211 103.04602051 2.36633301 C104.96607497 5.3727408 105.06326055 7.01495646 104.41992188 10.51757812 C102.38727245 13.38598051 100.76747345 15.23361753 97.23381042 15.97824287 C94.45320343 16.16312285 91.71244727 16.1814804 88.92578125 16.14868164 C87.34202446 16.1594146 87.34202446 16.1594146 85.72627258 16.17036438 C82.23829808 16.18726457 78.75160639 16.16783963 75.26367188 16.14648438 C72.83898818 16.14731294 70.41430453 16.14977186 67.98962402 16.15379333 C62.90876349 16.15665226 57.82834356 16.14193999 52.74755859 16.11450195 C46.23379685 16.08041979 39.72082307 16.08643692 33.20702362 16.10516453 C28.20043365 16.11573143 23.19402713 16.10679934 18.18745422 16.09177971 C15.7856755 16.08659522 13.38387765 16.08708291 10.98210144 16.09332466 C7.62566918 16.09877285 4.27036612 16.07841262 0.9140625 16.05102539 C-0.0793364 16.05755127 -1.07273529 16.06407715 -2.09623718 16.07080078 C-6.39338631 16.01115913 -8.9281492 15.89665127 -12.70080566 13.70298767 C-14.58007812 11.51757812 -14.58007812 11.51757812 -15.14257812 8.01757812 C-14.58007812 4.51757812 -14.58007812 4.51757812 -13.20617676 2.33117676 C-9.05385407 -0.53644088 -4.93145683 -0.03925188 0 0 Z " fill="#040404" transform="translate(361.580078125,255.482421875)"/>
<path d="M0 0 C1.0654454 -0.00700928 2.13089081 -0.01401855 3.22862244 -0.02124023 C6.75432315 -0.0388605 10.27922261 -0.02718169 13.80493164 -0.01367188 C16.25346531 -0.01636581 18.70199795 -0.02024741 21.15052795 -0.02526855 C26.28437476 -0.03116926 31.41794333 -0.02258257 36.55175781 -0.00390625 C43.133905 0.01887111 49.71539938 0.00577081 56.29752254 -0.01819611 C61.35471008 -0.03264859 66.41174282 -0.0280503 71.46893501 -0.01768494 C73.89583984 -0.01501553 76.3227587 -0.01829488 78.74964714 -0.02760315 C82.14207057 -0.03775783 85.5334366 -0.02228067 88.92578125 0 C90.43226227 -0.01214539 90.43226227 -0.01214539 91.96917725 -0.02453613 C96.31439327 0.02835439 98.85176539 0.11757493 102.65113831 2.36633301 C104.52758789 4.51757812 104.52758789 4.51757812 105.15258789 7.45507812 C104.28853636 11.68893061 102.98481247 12.91871061 99.52758789 15.51757812 C95.99579971 16.25553403 92.52312198 16.19056152 88.92578125 16.14868164 C87.85858353 16.15583694 86.7913858 16.16299225 85.69184875 16.17036438 C82.16660678 16.18726412 78.64263403 16.16784114 75.11743164 16.14648438 C72.66793207 16.14731289 70.21843256 16.14977159 67.76893616 16.15379333 C62.63680272 16.15665215 57.5051055 16.14193995 52.37304688 16.11450195 C45.7896872 16.08040183 39.20710677 16.08644299 32.62370968 16.10516453 C27.56654853 16.11572437 22.50956923 16.10680609 17.452425 16.09177971 C15.02469993 16.08659123 12.59695593 16.08708772 10.16923332 16.09332466 C6.77907218 16.09876505 3.39003333 16.0784384 0 16.05102539 C-1.00634491 16.05755127 -2.01268982 16.06407715 -3.04953003 16.07080078 C-9.80719981 15.97772338 -9.80719981 15.97772338 -13.09568787 13.70298767 C-15.13219545 10.47023926 -15.00606295 8.25313404 -14.47241211 4.51757812 C-11.03152952 -0.94695149 -5.79832544 -0.04665259 0 0 Z " fill="#000000" transform="translate(361.472412109375,351.482421875)"/>
<path d="M0 0 C1.87890625 1.70703125 1.87890625 1.70703125 3.5625 3.8125 C5.91439766 6.70756109 8.32582482 9.39604386 11 12 C10.00742188 12.4125 9.01484375 12.825 7.9921875 13.25 C-5.26050207 18.84598142 -16.55048327 25.09482032 -28 34 C24.47 34.33 76.94 34.66 131 35 C131 35.33 131 35.66 131 36 C107.06121337 36.07001409 83.12244204 36.12295086 59.18357372 36.15543652 C48.06888091 36.17091963 36.95425164 36.19203671 25.83959961 36.22631836 C16.15450907 36.25617654 6.46946452 36.27556449 -3.21567076 36.28226548 C-8.34609176 36.28618382 -13.47638113 36.29542237 -18.60676003 36.31719017 C-23.43215968 36.33749878 -28.25737303 36.34384523 -33.08281136 36.33932304 C-34.85698711 36.34015077 -36.63116887 36.34614983 -38.40530777 36.35761642 C-40.82173161 36.37247276 -43.23744571 36.36897909 -45.65388489 36.36076355 C-46.36108085 36.36950207 -47.06827681 36.3782406 -47.79690295 36.38724393 C-50.63219634 36.361065 -52.5481745 36.31140212 -54.92006969 34.67667103 C-56.89750352 31.60655994 -56.58260446 29.55388724 -56 26 C-50.58959823 17.35975232 -41.7332246 12.99070484 -32.51953125 9.4140625 C-31.35571175 8.95500015 -31.35571175 8.95500015 -30.16838074 8.48666382 C-28.5439756 7.84908927 -26.91791614 7.21571457 -25.2902832 6.58642578 C-22.80244729 5.62109936 -20.32418987 4.6335769 -17.84570312 3.64453125 C-16.2583432 3.02468089 -14.67046957 2.40614412 -13.08203125 1.7890625 C-12.34547806 1.49335358 -11.60892487 1.19764465 -10.85005188 0.89297485 C-6.8772547 -0.61840066 -4.07069961 -1.50510495 0 0 Z " fill="#259EEE" transform="translate(121,333)"/>
<path d="M0 0 C1.07765625 0.01804688 2.1553125 0.03609375 3.265625 0.0546875 C4.49539062 0.08949219 4.49539062 0.08949219 5.75 0.125 C5.32847656 0.81207031 4.90695313 1.49914062 4.47265625 2.20703125 C3.92480469 3.10808594 3.37695312 4.00914062 2.8125 4.9375 C1.99458984 6.27748047 1.99458984 6.27748047 1.16015625 7.64453125 C-0.78550991 11.06696342 -1.37942492 13.72567099 -1.45532227 17.59643555 C-1.47526749 18.49714279 -1.49521271 19.39785004 -1.51576233 20.32585144 C-1.54083107 21.77910576 -1.54083107 21.77910576 -1.56640625 23.26171875 C-1.58718735 24.25629593 -1.60796844 25.25087311 -1.62937927 26.27558899 C-1.69479412 29.45448867 -1.7537224 32.63347134 -1.8125 35.8125 C-1.85569288 37.96680548 -1.89930742 40.12110254 -1.94335938 42.27539062 C-2.05046726 47.55850588 -2.15224873 52.84170379 -2.25 58.125 C-4.85478883 58.2059313 -7.45706653 58.26545434 -10.0625 58.3125 C-10.80048828 58.33763672 -11.53847656 58.36277344 -12.29882812 58.38867188 C-17.79797203 58.46332089 -17.79797203 58.46332089 -19.96180725 56.84379578 C-22.20573021 53.84979871 -21.69660383 50.18283265 -21.68359375 46.58203125 C-21.69145653 45.31838997 -21.69145653 45.31838997 -21.69947815 44.02922058 C-21.7059027 42.24467062 -21.70455574 40.46007834 -21.69604492 38.67553711 C-21.68758441 35.96454746 -21.71620763 33.25570061 -21.74804688 30.54492188 C-21.74966042 28.80729229 -21.74907842 27.06965902 -21.74609375 25.33203125 C-21.75732773 24.5296553 -21.76856171 23.72727936 -21.78013611 22.90058899 C-21.70003979 16.32172746 -19.85034731 11.0789033 -15.46875 6.1015625 C-14.9015625 5.65554687 -14.334375 5.20953125 -13.75 4.75 C-13.1828125 4.28851563 -12.615625 3.82703125 -12.03125 3.3515625 C-7.86836051 0.4850114 -5.11065076 -0.1111011 0 0 Z " fill="#534D54" transform="translate(129.25,169.875)"/>
<path d="M0 0 C0.99257812 0.16242188 1.98515625 0.32484375 3.0078125 0.4921875 C6.963251 1.05497739 10.88444161 1.15193723 14.875 1.125 C15.57173828 1.12306641 16.26847656 1.12113281 16.98632812 1.11914062 C22.06305666 1.07663778 26.97840894 0.71737015 32 0 C32.17015625 0.61488281 32.3403125 1.22976563 32.515625 1.86328125 C33.94773996 6.88680838 33.94773996 6.88680838 37 11 C39.11785113 12.11785113 39.11785113 12.11785113 42 13 C39.47602381 19.15053144 33.05515964 22.27945245 27.1875 24.875 C18.6751286 27.7180982 9.10521061 26.55677268 1 23 C-7.86233239 18.15489638 -7.86233239 18.15489638 -10 13 C-9.071875 12.5875 -8.14375 12.175 -7.1875 11.75 C-4.02470477 10.01356341 -2.69267376 9.11808323 -1 6 C-0.27954633 2.84881675 -0.27954633 2.84881675 0 0 Z " fill="#F8B882" transform="translate(144,312)"/>
<path d="M0 0 C3.3 0.99 6.6 1.98 10 3 C11.5071093 5.91374464 12.23180195 7.91646375 13 11 C15.84222785 18.58808738 19.64425354 25.15491061 25.875 30.4375 C28.30058561 33.36247088 28.24405133 34.02526383 28.1328125 37.66015625 C28.1136377 38.47234619 28.09446289 39.28453613 28.07470703 40.12133789 C28.05005371 40.74129639 28.02540039 41.36125488 28 42 C24.33547148 43.42842911 20.66927431 44.85247676 17.00146484 46.27246094 C15.13939585 46.99441847 13.27867593 47.71985238 11.41796875 48.4453125 C10.25136719 48.89648438 9.08476563 49.34765625 7.8828125 49.8125 C6.80402832 50.23144531 5.72524414 50.65039062 4.61376953 51.08203125 C2 52 2 52 0 52 C0 34.84 0 17.68 0 0 Z " fill="#FC636D" transform="translate(101,270)"/>
<path d="M0 0 C46.2 0 92.4 0 140 0 C140 0.33 140 0.66 140 1 C105.68 1 71.36 1 36 1 C36 5.95 36 10.9 36 16 C70.32 16 104.64 16 140 16 C140 16.33 140 16.66 140 17 C93.8 17 47.6 17 0 17 C0 11.39 0 5.78 0 0 Z " fill="#D43F4B" transform="translate(311,143)"/>
<path d="M0 0 C12.54 0 25.08 0 38 0 C38 0.33 38 0.66 38 1 C30.08 1 22.16 1 14 1 C14.08749482 5.45921887 14.19446963 9.91656987 14.3125 14.375 C14.33505859 15.62667969 14.35761719 16.87835938 14.38085938 18.16796875 C14.66590549 28.06684276 15.86072391 36.46635275 21.375 44.875 C21.93960938 45.75929688 22.50421875 46.64359375 23.0859375 47.5546875 C25.13246315 50.16922844 27.41057818 51.94447959 30 54 C30 54.66 30 55.32 30 56 C20.07286296 55.17273858 12.61437955 50.39550628 6 43 C1.938434 36.487988 -0.13009001 30.83133184 -0.09765625 23.14453125 C-0.09515869 21.93385986 -0.09266113 20.72318848 -0.09008789 19.47583008 C-0.08098389 17.93693115 -0.07187988 16.39803223 -0.0625 14.8125 C-0.041875 9.924375 -0.02125 5.03625 0 0 Z " fill="#FABA84" transform="translate(126,243)"/>
<path d="M0 0 C1.93262695 -0.0299707 1.93262695 -0.0299707 3.90429688 -0.06054688 C5.14115234 -0.05990234 6.37800781 -0.05925781 7.65234375 -0.05859375 C8.78534912 -0.06044678 9.91835449 -0.0622998 11.08569336 -0.06420898 C14.69954217 0.54486666 15.87055161 1.5508071 18.0625 4.4375 C18.79157082 8.24486986 18.45595096 9.8326026 16.33984375 13.0859375 C12.01012623 17.18286622 5.62427617 16.19513205 0.0625 16.125 C-1.113125 16.15271484 -2.28875 16.18042969 -3.5 16.20898438 C-11.80540401 16.18538948 -11.80540401 16.18538948 -14.86328125 14.1652832 C-17.20531792 11.51111242 -17.9375 9.79230344 -17.9375 6.25 C-14.99719983 -2.01959423 -7.54702643 -0.04140513 0 0 Z " fill="#060607" transform="translate(313.9375,255.5625)"/>
<path d="M0 0 C1.84851563 -0.00290039 1.84851563 -0.00290039 3.734375 -0.00585938 C5.01828125 0.01798828 6.3021875 0.04183594 7.625 0.06640625 C8.90890625 0.05544922 10.1928125 0.04449219 11.515625 0.03320312 C20.95677726 0.10727074 20.95677726 0.10727074 23.9921875 2.47680664 C25.625 4.62890625 25.625 4.62890625 26.125 7.62890625 C25.51945555 11.26217293 24.4691085 12.3703495 21.625 14.62890625 C17.53434806 16.67423222 12.30860174 15.90208175 7.8125 15.94140625 C6.71873047 15.97041016 5.62496094 15.99941406 4.49804688 16.02929688 C-3.56695255 16.09318779 -3.56695255 16.09318779 -7.5703125 13.79296875 C-9.92505969 10.96931086 -10.45005739 9.30671838 -10.375 5.62890625 C-7.47973145 0.84616565 -5.51285116 -0.00354803 0 0 Z " fill="#070808" transform="translate(306.375,191.37109375)"/>
<path d="M0 0 C1.18013672 -0.01998047 2.36027344 -0.03996094 3.57617188 -0.06054688 C5.28450195 -0.05958008 5.28450195 -0.05958008 7.02734375 -0.05859375 C8.0649585 -0.06044678 9.10257324 -0.0622998 10.17163086 -0.06420898 C13.79653993 0.56489229 15.47644647 1.86254416 18.0625 4.4375 C18.87593465 8.26064285 18.46297916 9.81998112 16.33984375 13.09375 C12.01023321 17.20024045 5.55474358 16.11224769 0 16 C-1.18400391 16.01095703 -2.36800781 16.02191406 -3.58789062 16.03320312 C-12.29895982 15.95917138 -12.29895982 15.95917138 -15.27319336 13.52929688 C-17.09636249 11.23783243 -17.48195323 10.25890357 -17.4375 7.375 C-16.9375 3.4375 -16.9375 3.4375 -15.27514648 1.71850586 C-10.63294932 -0.8253697 -5.1698748 -0.03095733 0 0 Z " fill="#030404" transform="translate(313.9375,319.5625)"/>
<path d="M0 0 C5.94 0.66 11.88 1.32 18 2 C17.01 2.495 17.01 2.495 16 3 C16.05220703 4.30324219 16.05220703 4.30324219 16.10546875 5.6328125 C16.40444745 18.36076307 16.40444745 18.36076307 11.1875 23.9375 C7.90921396 25.52981036 6.49821635 25.10129033 3 24 C-6.70541359 18.92774797 -6.70541359 18.92774797 -10 15 C-10 14.34 -10 13.68 -10 13 C-9.071875 12.5875 -8.14375 12.175 -7.1875 11.75 C-4.02470477 10.01356341 -2.69267376 9.11808323 -1 6 C-0.67 4.02 -0.34 2.04 0 0 Z " fill="#F1A56A" transform="translate(144,312)"/>
<path d="M0 0 C0.66 0 1.32 0 2 0 C2 4.62 2 9.24 2 14 C-1 13 -1 13 -3 10 C-2.70295038 5.84130536 -2.33061852 3.49592778 0 0 Z " fill="#CD8D5A" transform="translate(109,243)"/>
<path d="M0 0 C4 4 4 4 4.375 7.0625 C4 10 4 10 2 13 C1.34 13 0.68 13 0 13 C0 8.71 0 4.42 0 0 Z " fill="#E69E66" transform="translate(210,243)"/>
</svg>
