<?xml version="1.0" encoding="UTF-8"?>
<svg version="1.1" xmlns="http://www.w3.org/2000/svg" width="512" height="512">
<path d="M0 0 C1.42192294 -0.00543101 2.84384025 -0.01255913 4.26574707 -0.02124023 C8.09815556 -0.03935226 11.93012956 -0.03245907 15.76254487 -0.01972389 C19.7840652 -0.00954276 23.80555023 -0.01900277 27.82707214 -0.02526855 C34.57277054 -0.03252597 41.31829318 -0.02300316 48.06396484 -0.00390625 C55.85768747 0.01790312 63.65099215 0.01077422 71.44470483 -0.01121187 C78.14984868 -0.02936774 84.85486682 -0.03192465 91.5600273 -0.0214572 C95.5591341 -0.01522892 99.55804436 -0.01436907 103.55713844 -0.02760315 C107.31253521 -0.03916546 111.06739248 -0.03112974 114.82273102 -0.00802612 C116.19936668 -0.00274286 117.57604785 -0.00424636 118.95266533 -0.01307678 C120.8333612 -0.02402792 122.71415647 -0.00785156 124.59480286 0.00964355 C125.64648557 0.01115166 126.69816828 0.01265976 127.78172016 0.01421356 C131.40676339 0.65405593 133.10314258 1.87311761 135.63354492 4.51757812 C135.63354492 5.83757812 135.63354492 7.15757813 135.63354492 8.51757812 C141.90354492 8.51757812 148.17354492 8.51757812 154.63354492 8.51757812 C155.29354492 6.53757812 155.95354492 4.55757813 156.63354492 2.51757812 C159.89340889 0.34433548 160.79715217 0.26629891 164.56626225 0.26030922 C165.5901867 0.25386033 166.61411116 0.24741143 167.66906363 0.24076712 C169.36163224 0.24541293 169.36163224 0.24541293 171.08839417 0.25015259 C172.28446618 0.24562147 173.48053819 0.24109036 174.7128548 0.23642194 C178.03890475 0.22592739 181.36473901 0.22445625 184.6907903 0.22681069 C188.27584526 0.22721806 191.8608677 0.21618714 195.44590759 0.20669556 C202.47338463 0.1900646 209.50082812 0.18458499 216.52832318 0.1834708 C222.24232079 0.18252094 227.95630733 0.1784137 233.67030144 0.17206955 C249.87115934 0.1544483 266.07199072 0.14523159 282.27285827 0.1467305 C283.58363815 0.14685037 283.58363815 0.14685037 284.92089844 0.14697266 C286.23328014 0.1470953 286.23328014 0.1470953 287.5721746 0.14722042 C301.73989997 0.14803267 315.90751886 0.12891262 330.07521344 0.10069592 C344.62314394 0.07195083 359.17102255 0.05815665 373.71898216 0.05988348 C381.88614674 0.06054701 390.05319983 0.05507126 398.22033882 0.03352737 C405.1772718 0.01529376 412.1340428 0.01098576 419.09098936 0.02454622 C422.63860427 0.0310661 426.18590864 0.03122925 429.7334938 0.01383972 C433.58574212 -0.00484819 437.43753964 0.00768997 441.28981018 0.02310181 C442.40257421 0.01281468 443.51533823 0.00252755 444.66182238 -0.0080713 C453.89021867 0.07337252 462.26140765 2.22919153 469.11185515 8.72123623 C475.61862551 16.40242356 476.3565657 24.29351515 476.26846313 34.02905273 C476.27423414 35.37525197 476.28218181 36.7214433 476.29209936 38.06761837 C476.31286229 41.74284921 476.30270641 45.41742615 476.28716826 49.09265852 C476.275815 53.06548839 476.29333708 57.03820897 476.30706787 61.01101685 C476.32926258 68.78424264 476.32451596 76.5572266 476.31000467 84.33046174 C476.29869755 90.64976115 476.29718789 96.96899293 476.30262375 103.28829956 C476.303773 104.63908801 476.303773 104.63908801 476.30494546 106.01716512 C476.30654414 107.84675449 476.30816521 109.67634384 476.30980842 111.50593317 C476.32405488 128.64872821 476.30769052 145.79138941 476.28080659 162.9341625 C476.2584688 177.63293315 476.26234924 192.33150635 476.28540039 207.03027344 C476.31217789 224.11309972 476.32268169 241.1958088 476.30733907 258.27865314 C476.30574638 260.10138764 476.30417453 261.92412216 476.30262375 263.74685669 C476.30146668 265.09197111 476.30146668 265.09197111 476.30028624 266.46425956 C476.29597509 272.77355485 476.30324317 279.08277559 476.31502151 285.39205933 C476.32906674 293.08448367 476.32520419 300.77665301 476.2986178 308.46904826 C476.28550666 312.3914154 476.28028059 316.3133579 476.29686356 320.23572159 C476.31183299 323.83089711 476.30346166 327.42525697 476.2769758 331.02035916 C476.26880128 332.92722407 476.28500616 334.83414622 476.30226195 336.74095058 C476.2069657 345.14106498 474.64742389 351.94823213 468.98778307 358.39109135 C461.20305384 365.97257851 451.40883376 367.12434345 441.02026367 367.04882812 C439.84768509 367.05265503 438.67510651 367.05648193 437.46699524 367.0604248 C435.00549452 367.06313141 432.54396443 367.05585866 430.08251953 367.0390625 C426.31437529 367.01754003 422.5481168 367.03895829 418.7800293 367.06445312 C416.38093656 367.06181151 413.98184499 367.05669 411.58276367 367.04882812 C410.45875656 367.05692505 409.33474945 367.06502197 408.17668152 367.07336426 C400.47691395 366.98076839 400.47691395 366.98076839 396.38671875 364.734375 C394.63354492 362.51757812 394.63354492 362.51757812 394.63354492 358.51757812 C388.36354492 358.51757812 382.09354492 358.51757812 375.63354492 358.51757812 C374.97354492 360.49757813 374.31354492 362.47757812 373.63354492 364.51757812 C370.06020508 366.89980469 368.52279596 366.76970682 364.27964687 366.77484703 C363.30391272 366.78010614 363.30391272 366.78010614 362.30846676 366.7854715 C360.11355523 366.79482695 357.91890663 366.78985162 355.72398376 366.78500366 C354.14047117 366.78873788 352.55696043 366.79333848 350.97345263 366.79873431 C346.60990989 366.8110087 342.24644356 366.81069862 337.88288748 366.80834556 C333.18126142 366.80793849 328.47966022 366.81896617 323.77804565 366.82846069 C314.56079427 366.84509744 305.34356845 366.8505715 296.12630331 366.85168545 C288.63360709 366.85263493 281.14091933 366.85674025 273.64822578 366.8630867 C252.41165413 366.88070865 231.17510272 366.88992442 209.9385237 366.88842575 C208.79285385 366.88834584 207.647184 366.88826593 206.46679688 366.88818359 C204.74619626 366.88806095 204.74619626 366.88806095 202.99083603 366.88793583 C184.40971725 366.88712331 165.8286796 366.90625008 147.24758428 366.93446033 C128.17508593 366.96318832 109.10262714 366.97700058 90.0301066 366.97527277 C79.31989625 366.9746087 68.60977088 366.98010811 57.89958 367.00162888 C48.77789877 367.01983983 39.65634102 367.02418891 30.53464948 367.01061003 C25.88126603 367.00407915 21.22811946 367.00396739 16.57475853 367.02131653 C12.31145236 367.03704765 8.04857087 367.03418324 3.78527505 367.01674826 C2.24616414 367.01367838 0.70702153 367.01731037 -0.832052 367.02846842 C-11.73263944 367.10223671 -21.58894017 366.13781559 -29.84476531 358.31392002 C-36.35153567 350.63273269 -37.08947586 342.7416411 -37.00137329 333.00610352 C-37.00714429 331.65990428 -37.01509196 330.31371295 -37.02500951 328.96753788 C-37.04577244 325.29230704 -37.03561657 321.6177301 -37.02007842 317.94249773 C-37.00872515 313.96966786 -37.02624724 309.99694728 -37.03997803 306.0241394 C-37.06217274 298.25091361 -37.05742612 290.47792965 -37.04291482 282.70469451 C-37.03160771 276.3853951 -37.03009804 270.06616332 -37.03553391 263.74685669 C-37.03630007 262.84633105 -37.03706624 261.94580542 -37.03785562 261.01799113 C-37.0394543 259.18840176 -37.04107537 257.35881241 -37.04271857 255.52922308 C-37.05696504 238.38642804 -37.04060067 221.24376684 -37.01371674 204.10099375 C-36.99137896 189.4022231 -36.9952594 174.7036499 -37.01831055 160.00488281 C-37.04508805 142.92205653 -37.05559185 125.83934745 -37.04024923 108.75650311 C-37.03865654 106.93376861 -37.03708468 105.11103409 -37.03553391 103.28829956 C-37.03476253 102.39155661 -37.03399115 101.49481366 -37.0331964 100.57089669 C-37.02888525 94.2616014 -37.03615332 87.95238066 -37.04793167 81.64309692 C-37.06197689 73.95067258 -37.05811435 66.25850324 -37.03152795 58.56610799 C-37.01841681 54.64374085 -37.01319074 50.72179835 -37.02977371 46.79943466 C-37.04474315 43.20425914 -37.03637182 39.60989928 -37.00988595 36.01479709 C-37.00171144 34.10793218 -37.01791632 32.20101003 -37.0351721 30.29420567 C-36.93987281 21.89382221 -35.3799485 15.08768193 -29.72112125 8.64406157 C-21.40265321 0.54503681 -11.03092756 -0.06807411 0 0 Z " fill="#020202" transform="translate(36.366455078125,72.482421875)"/>
<path d="M0 0 C6.6 0 13.2 0 20 0 C20.99 2.475 20.99 2.475 22 5 C24.45045352 6.22522676 26.03076851 6.12596582 28.77119732 6.12749195 C29.78453064 6.1304996 30.79786395 6.13350725 31.84190434 6.13660604 C32.96356978 6.13485567 34.08523521 6.13310529 35.2408905 6.13130188 C36.42597413 6.13341759 37.61105775 6.13553331 38.83205301 6.13771313 C41.44154356 6.14164474 44.0509617 6.14372922 46.66044807 6.14274788 C50.90582338 6.14115832 55.15117503 6.14635036 59.39654541 6.15237427 C65.56086914 6.16049565 71.72518873 6.16543403 77.88951683 6.16866493 C87.63284933 6.17415679 97.37614673 6.19104985 107.11946106 6.21000671 C110.45158285 6.21636386 113.78370473 6.22267225 117.11582661 6.22898388 C117.94863159 6.23056764 118.78143658 6.2321514 119.63947808 6.23378316 C129.12463976 6.25172854 138.60980393 6.26795019 148.0949707 6.28295898 C148.96227243 6.28433486 149.82957415 6.28571073 150.72315774 6.28712829 C164.77329519 6.30905123 178.82342364 6.31981245 192.87357517 6.32732973 C207.293801 6.33540071 221.71394955 6.35869155 236.13413125 6.3952834 C245.03082017 6.41731258 253.9273502 6.42697178 262.82406501 6.42078307 C268.92274455 6.4176085 275.02128843 6.42893837 281.119926 6.45167748 C284.63879194 6.46434575 288.15735568 6.47051486 291.67623329 6.45926094 C295.49239886 6.44721317 299.30806068 6.46600725 303.12419128 6.48774719 C304.78995902 6.47508339 304.78995902 6.47508339 306.48937863 6.46216375 C312.85713536 6.52936012 316.90155588 7.05233034 322 11 C334.35861214 31.59768691 325 58.9791757 325 83 C195.97 83 66.94 83 -66 83 C-66 58.25 -66 33.5 -66 8 C-36.3125 7.8125 -36.3125 7.8125 -26.95825195 7.79223633 C-24.50990647 7.7657912 -22.06157979 7.73751427 -19.61328125 7.70703125 C-18.34335327 7.71101929 -17.07342529 7.71500732 -15.76501465 7.71911621 C-8.64924856 7.89028858 -8.64924856 7.89028858 -2.71166992 4.58081055 C-1.02483963 2.15107051 -1.02483963 2.15107051 0 0 Z " fill="#FDE87C" transform="translate(172,81)"/>
<path d="M0 0 C25.08 0 50.16 0 76 0 C76 80.85 76 161.7 76 245 C10 245 10 245 3 241 C-0.58294265 236.04678997 -0.41801259 231.23283291 -0.36076355 225.35696411 C-0.36332682 224.39220276 -0.3658901 223.4274414 -0.36853105 222.43344486 C-0.37346805 219.20431997 -0.35697706 215.97566377 -0.34057617 212.74658203 C-0.33972988 210.43045564 -0.34020508 208.11432844 -0.34190369 205.79820251 C-0.34276499 199.51149779 -0.32511713 193.22496451 -0.30418181 186.93829966 C-0.28543767 180.3679634 -0.28366635 173.79762328 -0.28010559 167.2272644 C-0.27233814 156.19965642 -0.25309531 145.17210855 -0.22631836 134.14453125 C-0.19877 122.78743809 -0.17754023 111.43036203 -0.16479492 100.07324219 C-0.16400675 99.37287457 -0.16321858 98.67250695 -0.16240653 97.95091607 C-0.15849134 94.43728324 -0.15470023 90.92365028 -0.15097082 87.41001725 C-0.11988426 58.27329688 -0.06458622 29.13666767 0 0 Z " fill="#5FB5FD" transform="translate(15,179)"/>
<path d="M0 0 C39.6 0 79.2 0 120 0 C120 40 120 40 116 47 C110.67801774 51.06625108 104.57892557 50.37350857 98.1796875 50.30078125 C95.8476534 50.30841876 93.51562196 50.31690786 91.18359375 50.32617188 C87.51850841 50.32395539 83.85395169 50.31234247 80.18896484 50.28491211 C76.64365576 50.26425844 73.09996268 50.28017998 69.5546875 50.30078125 C67.90773392 50.27302361 67.90773392 50.27302361 66.22750854 50.2447052 C63.35888778 50.27246568 60.7911016 50.33454843 58 51 C55.52177173 53.87629776 55.52177173 53.87629776 54 57 C51.70996094 57.68115234 51.70996094 57.68115234 49.234375 57.5859375 C47.90019531 57.55693359 47.90019531 57.55693359 46.5390625 57.52734375 C45.61867188 57.47707031 44.69828125 57.42679687 43.75 57.375 C42.34621094 57.33439453 42.34621094 57.33439453 40.9140625 57.29296875 C38.6070276 57.22234523 36.30469231 57.12380579 34 57 C33.731875 56.21625 33.46375 55.4325 33.1875 54.625 C32.15185568 51.71885077 32.15185568 51.71885077 29 50 C25.89791016 49.6303565 25.89791016 49.6303565 22.36328125 49.5859375 C20.60818237 49.53252197 20.60818237 49.53252197 18.81762695 49.47802734 C16.58758911 49.42702881 16.58758911 49.42702881 14.3125 49.375 C7.2278125 49.189375 7.2278125 49.189375 0 49 C0 32.83 0 16.66 0 0 Z " fill="#E9F5FE" transform="translate(377,374)"/>
<path d="M0 0 C39.93 0 79.86 0 121 0 C121 16.5 121 33 121 50 C81.07 50 41.14 50 0 50 C0 33.5 0 17 0 0 Z " fill="#E9F5FF" transform="translate(376,309)"/>
<path d="M0 0 C39.93 0 79.86 0 121 0 C121 16.5 121 33 121 50 C81.07 50 41.14 50 0 50 C0 33.5 0 17 0 0 Z " fill="#E7F3FC" transform="translate(241,309)"/>
<path d="M0 0 C39.93 0 79.86 0 121 0 C121 16.5 121 33 121 50 C81.07 50 41.14 50 0 50 C0 33.5 0 17 0 0 Z " fill="#E7F3FC" transform="translate(241,244)"/>
<path d="M0 0 C39.93 0 79.86 0 121 0 C121 16.5 121 33 121 50 C81.07 50 41.14 50 0 50 C0 33.5 0 17 0 0 Z " fill="#E9F5FF" transform="translate(376,179)"/>
<path d="M0 0 C39.93 0 79.86 0 121 0 C121 16.5 121 33 121 50 C81.07 50 41.14 50 0 50 C0 33.5 0 17 0 0 Z " fill="#E7F3FC" transform="translate(241,179)"/>
<path d="M0 0 C39.6 0 79.2 0 120 0 C120 16.5 120 33 120 50 C80.4 50 40.8 50 0 50 C0 33.5 0 17 0 0 Z " fill="#E7F3FC" transform="translate(106,374)"/>
<path d="M0 0 C39.6 0 79.2 0 120 0 C120 16.5 120 33 120 50 C80.4 50 40.8 50 0 50 C0 33.5 0 17 0 0 Z " fill="#E8F4FD" transform="translate(106,309)"/>
<path d="M0 0 C39.6 0 79.2 0 120 0 C120 16.5 120 33 120 50 C80.4 50 40.8 50 0 50 C0 33.5 0 17 0 0 Z " fill="#EAF6FF" transform="translate(377,244)"/>
<path d="M0 0 C39.6 0 79.2 0 120 0 C120 16.5 120 33 120 50 C80.4 50 40.8 50 0 50 C0 33.5 0 17 0 0 Z " fill="#E9F5FD" transform="translate(106,244)"/>
<path d="M0 0 C39.6 0 79.2 0 120 0 C120 16.5 120 33 120 50 C80.4 50 40.8 50 0 50 C0 33.5 0 17 0 0 Z " fill="#E8F4FD" transform="translate(106,179)"/>
<path d="M0 0 C39.6 0 79.2 0 120 0 C120 16.17 120 32.34 120 49 C80.4 49 40.8 49 0 49 C0 32.83 0 16.66 0 0 Z " fill="#E9F5FE" transform="translate(241,374)"/>
<path d="M0 0 C0.65492746 -0.0003616 1.30985493 -0.00072321 1.98462868 -0.00109577 C4.08463769 0.00112645 6.18382712 0.02389176 8.28369141 0.04760742 C9.57509033 0.05062866 10.86648926 0.0536499 12.19702148 0.0567627 C17.0098472 0.07243 21.82255878 0.11431391 26.63525391 0.15307617 C42.78462891 0.24588867 42.78462891 0.24588867 59.26025391 0.34057617 C59.26025391 25.42057617 59.26025391 50.50057617 59.26025391 76.34057617 C34.18025391 76.34057617 9.10025391 76.34057617 -16.73974609 76.34057617 C-16.86349609 59.94370117 -16.86349609 59.94370117 -16.98974609 43.21557617 C-17.02616211 39.7723291 -17.06257813 36.32908203 -17.10009766 32.78149414 C-17.11178146 30.04859033 -17.12197401 27.31567956 -17.13037109 24.58276367 C-17.14082458 23.87781769 -17.15127808 23.1728717 -17.16204834 22.44656372 C-17.19149984 20.35470716 -17.19536479 18.26415317 -17.19384766 16.17211914 C-17.20717133 14.40673294 -17.20717133 14.40673294 -17.22076416 12.60568237 C-16.6198067 8.52643862 -15.40361913 6.47431825 -12.73974609 3.34057617 C-8.43301061 0.5183363 -5.09587003 -0.02928661 0 0 Z " fill="#8177BF" transform="translate(31.73974609375,87.659423828125)"/>
<path d="M0 0 C36.82510915 -0.09154734 73.65020116 -0.16203456 110.47540108 -0.20426132 C114.82254947 -0.20926417 119.16969764 -0.21444146 123.5168457 -0.21972656 C124.38228781 -0.2207758 125.24772992 -0.22182505 126.13939755 -0.22290608 C140.15413279 -0.24031324 154.16880243 -0.27185265 168.18349875 -0.30861118 C182.56293625 -0.34601195 196.94233939 -0.36823402 211.32182354 -0.37635398 C220.19538405 -0.38184355 229.06875914 -0.39918438 237.94226258 -0.43166587 C244.02643895 -0.45280308 250.11051939 -0.45920185 256.19472981 -0.45400551 C259.70551117 -0.45144247 263.21596841 -0.45538252 266.7266922 -0.4768219 C270.53428689 -0.49668434 274.34108426 -0.49195165 278.1486969 -0.48101807 C279.25668202 -0.49266943 280.36466713 -0.5043208 281.50622755 -0.51632524 C287.89503407 -0.466642 291.80726944 0.1843129 297 4 C300.1419598 7.82063572 300.36806912 10.85176595 300.34057617 15.71801758 C300.34101425 16.37223694 300.34145233 17.0264563 300.34190369 17.70050049 C300.33982456 19.8488213 300.31653662 21.99634789 300.29296875 24.14453125 C300.28736964 25.63953729 300.28310103 27.13454885 300.28010559 28.62956238 C300.26868152 32.55385686 300.23923573 36.47781531 300.20599365 40.40197754 C300.17523993 44.41051692 300.16158896 48.41911089 300.14648438 52.42773438 C300.11436326 60.28532722 300.06161565 68.14258302 300 76 C295.05 76 290.1 76 285 76 C284.97812622 73.06383789 284.97812622 73.06383789 284.95581055 70.06835938 C284.90402348 63.57825186 284.8387014 57.08838913 284.76428509 50.59850311 C284.71968601 46.6662758 284.68040742 42.7341496 284.65356445 38.80175781 C284.62742628 35.00197039 284.58695116 31.20257425 284.53681374 27.4030304 C284.52021568 25.95832715 284.50865764 24.51355634 284.50238609 23.06877136 C284.49266708 21.03436921 284.46451954 19.00095224 284.43237305 16.96679688 C284.42126999 15.81207886 284.41016693 14.65736084 284.39872742 13.46765137 C284.04159936 9.13003025 284.04159936 9.13003025 281 2 C188.27 1.67 95.54 1.34 0 1 C0 0.67 0 0.34 0 0 Z " fill="#E1AF5B" transform="translate(197,88)"/>
<path d="M0 0 C39.6 0 79.2 0 120 0 C120 16.5 120 33 120 50 C80.4 50 40.8 50 0 50 C0 49.67 0 49.34 0 49 C34.32 49 68.64 49 104 49 C104 33.16 104 17.32 104 1 C69.68 1 35.36 1 0 1 C0 0.67 0 0.34 0 0 Z " fill="#C7E0F8" transform="translate(377,244)"/>
<path d="M0 0 C0.33 0 0.66 0 1 0 C1 16.17 1 32.34 1 49 C35.65 49 70.3 49 106 49 C106 32.83 106 16.66 106 0 C110.95 0 115.9 0 121 0 C121 16.5 121 33 121 50 C81.07 50 41.14 50 0 50 C0 33.5 0 17 0 0 Z " fill="#B8D2EB" transform="translate(376,309)"/>
<path d="M0 0 C39.93 0 79.86 0 121 0 C121 16.5 121 33 121 50 C116.05 50 111.1 50 106 50 C106 33.83 106 17.66 106 1 C71.35 1 36.7 1 1 1 C1 17.17 1 33.34 1 50 C0.67 50 0.34 50 0 50 C0 33.5 0 17 0 0 Z " fill="#BAD4ED" transform="translate(376,179)"/>
<path d="M0 0 C4.95 0 9.9 0 15 0 C15.09926507 5.56838851 15.17165521 11.13625604 15.21972656 16.70532227 C15.23977703 18.5976662 15.26702477 20.48994868 15.30175781 22.38208008 C15.35056652 25.11034351 15.37303442 27.83778415 15.390625 30.56640625 C15.41127014 31.40522842 15.43191528 32.2440506 15.45318604 33.10829163 C15.45537305 38.90150497 14.53564328 42.34028068 11 47 C5.72377306 51.00274271 -0.18977712 50.38525023 -6.5234375 50.29296875 C-8.17540634 50.28660149 -8.17540634 50.28660149 -9.86074829 50.28010559 C-13.36575133 50.2633615 -16.87017179 50.22571614 -20.375 50.1875 C-22.75650209 50.17244769 -25.13801323 50.15876024 -27.51953125 50.14648438 C-33.34655172 50.11347193 -39.17323423 50.06331464 -45 50 C-45 49.67 -45 49.34 -45 49 C-31.47 48.67 -17.94 48.34 -4 48 C-1.35207075 41.58820988 -1.35207075 41.58820988 -0.56762695 35.41992188 C-0.54783279 34.61969604 -0.52803864 33.81947021 -0.50764465 32.99499512 C-0.49805977 31.74450378 -0.49805977 31.74450378 -0.48828125 30.46875 C-0.47033005 29.59222778 -0.45237885 28.71570557 -0.43388367 27.81262207 C-0.38015491 25.04179547 -0.34600627 22.27113735 -0.3125 19.5 C-0.27929379 17.60935174 -0.24480112 15.71872561 -0.20898438 13.828125 C-0.12445045 9.21887235 -0.05746209 4.6096664 0 0 Z " fill="#BEDBF6" transform="translate(482,374)"/>
</svg>
