<?xml version="1.0" encoding="utf-8"?>
<!-- Generator: Adobe Illustrator 24.3.0, SVG Export Plug-In . SVG Version: 6.00 Build 0)  -->
<svg version="1.1" id="Layer_1" xmlns="http://www.w3.org/2000/svg" xmlns:xlink="http://www.w3.org/1999/xlink" x="0px" y="0px"
	 viewBox="0 0 1920 1080" style="enable-background:new 0 0 1920 1080;" xml:space="preserve">
<style type="text/css">
	.st0{fill:#5F00AA;}
	.st1{fill:#6122C4;}
	.st2{fill:#7F0FEA;}
</style>
<rect y="0" class="st0" width="1920" height="1080"/>
<g>
	<path class="st1" d="M1918.1,0H2.8v252.2c113.8,29.1,226.2-53.2,432.7-4.4c200.9,47.5,188.7,147.7,366.4,170.1
		c221.2,27.8,347.3-113.9,449.1-37.2c76.2,57.3,31.3,156.1,116,217.1c81.2,58.5,176.4,6.4,291.9,6.3c70.7-0.1,157.8,19.2,259.2,86V0
		z"/>
	<path class="st2" d="M1918.1,0H362.7c23.2,72.3,64.6,155,142.9,190c78.1,34.9,117.9-11.2,250.4,0c19.8,1.7,190.2,18.2,331.5,136.4
		c86,71.9,75.2,95.6,138.7,138.7c91.8,62.3,163.3-23.8,283.7,25.1c111.3,45.2,104.4,140.5,196.7,176c45.5,17.4,112,19.2,211.4-33.5
		V0z"/>
	<path class="st0" d="M1918.1,135.2c-1.9-45.1-3.8-90.1-5.7-135.2H1093c1.3,28.6,8.2,59.6,27.4,86.6
		c44.6,62.6,108.3,37.9,197.9,100.3c96.7,67.3,78.5,135,160.3,166.5c68,26.2,104.6-11.4,190.8-8.2c60.7,2.2,146.3,24.7,248.6,118.9
		V135.2z"/>
</g>
<g>
	<path class="st1" d="M2.8,1080h1915.3V827.8c-113.8-29.1-226.2,53.2-432.7,4.4c-200.9-47.5-188.7-147.7-366.4-170.1
		C897.8,634.3,771.7,776,669.9,699.3c-76.2-57.3-31.3-156.1-116-217.1c-81.2-58.5-176.4-6.4-291.9-6.3
		c-70.7,0.1-157.8-19.2-259.2-86V1080z"/>
	<path class="st2" d="M2.8,1080h1555.4c-23.2-72.3-64.6-155-142.9-190c-78.1-34.9-117.9,11.2-250.4,0
		c-19.8-1.7-190.2-18.2-331.5-136.4c-86-71.9-75.2-95.6-138.7-138.7c-91.8-62.3-163.3,23.8-283.7-25.1
		c-111.3-45.2-104.4-140.5-196.7-176c-45.5-17.4-112-19.2-211.4,33.5V1080z"/>
	<path class="st0" d="M2.8,944.8c1.9,45.1,3.8,90.1,5.7,135.2h819.4c-1.3-28.6-8.2-59.6-27.4-86.6
		c-44.6-62.6-108.3-37.9-197.9-100.3c-96.7-67.3-78.5-135-160.3-166.5c-68-26.2-104.6,11.4-190.8,8.2
		c-60.7-2.2-146.3-24.7-248.6-118.9V944.8z"/>
</g>
</svg>
